<?xml version="1.0" encoding="UTF-8"?>
<!--Generator: Apple Native CoreSVG 149-->
<!DOCTYPE svg
PUBLIC "-//W3C//DTD SVG 1.1//EN"
       "http://www.w3.org/Graphics/SVG/1.1/DTD/svg11.dtd">
<svg version="1.1" xmlns="http://www.w3.org/2000/svg" xmlns:xlink="http://www.w3.org/1999/xlink" width="3300" height="2200">
 <!--glyph: "", point size: 100.0, font version: "17.0d9e1", template writer version: "59"-->
 <style>.multicolor-0:systemRedColor {fill:#FF3B30;opacity:1.0}
.multicolor-1:tintColor {fill:#007AFF;opacity:1.0}

.hierarchical-0:primary {fill:#212121}
.hierarchical-1:secondary {fill:#4D4D4D}

.clearBehindLayer {}
.SFSymbolsPreview007AFF {fill:#007AFF;opacity:1.0}
.SFSymbolsPreviewFF3B30 {fill:#FF3B30;opacity:1.0}
</style>
 <g id="Notes">
  <rect height="2200" id="artboard" style="fill:white;opacity:1" width="3300" x="0" y="0"/>
  <line style="fill:none;stroke:black;opacity:1;stroke-width:0.5;" x1="263" x2="3036" y1="292" y2="292"/>
  <text style="stroke:none;fill:black;font-family:sans-serif;font-size:13;font-weight:bold;" transform="matrix(1 0 0 1 263 322)">Weight/Scale Variations</text>
  <text style="stroke:none;fill:black;font-family:sans-serif;font-size:13;text-anchor:middle;" transform="matrix(1 0 0 1 559.711 322)">Ultralight</text>
  <text style="stroke:none;fill:black;font-family:sans-serif;font-size:13;text-anchor:middle;" transform="matrix(1 0 0 1 856.422 322)">Thin</text>
  <text style="stroke:none;fill:black;font-family:sans-serif;font-size:13;text-anchor:middle;" transform="matrix(1 0 0 1 1153.13 322)">Light</text>
  <text style="stroke:none;fill:black;font-family:sans-serif;font-size:13;text-anchor:middle;" transform="matrix(1 0 0 1 1449.84 322)">Regular</text>
  <text style="stroke:none;fill:black;font-family:sans-serif;font-size:13;text-anchor:middle;" transform="matrix(1 0 0 1 1746.56 322)">Medium</text>
  <text style="stroke:none;fill:black;font-family:sans-serif;font-size:13;text-anchor:middle;" transform="matrix(1 0 0 1 2043.27 322)">Semibold</text>
  <text style="stroke:none;fill:black;font-family:sans-serif;font-size:13;text-anchor:middle;" transform="matrix(1 0 0 1 2339.98 322)">Bold</text>
  <text style="stroke:none;fill:black;font-family:sans-serif;font-size:13;text-anchor:middle;" transform="matrix(1 0 0 1 2636.69 322)">Heavy</text>
  <text style="stroke:none;fill:black;font-family:sans-serif;font-size:13;text-anchor:middle;" transform="matrix(1 0 0 1 2933.4 322)">Black</text>
  <line style="fill:none;stroke:black;opacity:1;stroke-width:0.5;" x1="263" x2="3036" y1="1903" y2="1903"/>
  <g transform="matrix(1 0 0 1 263 1933)">
   <path d="M9.24805 0.830078Q10.8691 0.830078 12.2949 0.214844Q13.7207-0.400391 14.8096-1.49414Q15.8984-2.58789 16.5186-4.01367Q17.1387-5.43945 17.1387-7.05078Q17.1387-8.66211 16.5186-10.0879Q15.8984-11.5137 14.8047-12.6074Q13.7109-13.7012 12.2852-14.3164Q10.8594-14.9316 9.23828-14.9316Q7.62695-14.9316 6.20117-14.3164Q4.77539-13.7012 3.69141-12.6074Q2.60742-11.5137 1.9873-10.0879Q1.36719-8.66211 1.36719-7.05078Q1.36719-5.43945 1.9873-4.01367Q2.60742-2.58789 3.69629-1.49414Q4.78516-0.400391 6.21094 0.214844Q7.63672 0.830078 9.24805 0.830078ZM9.24805-0.654297Q7.91992-0.654297 6.7627-1.14746Q5.60547-1.64062 4.73145-2.51953Q3.85742-3.39844 3.36426-4.56055Q2.87109-5.72266 2.87109-7.05078Q2.87109-8.37891 3.35938-9.54102Q3.84766-10.7031 4.72168-11.582Q5.5957-12.4609 6.75293-12.9541Q7.91016-13.4473 9.23828-13.4473Q10.5762-13.4473 11.7334-12.9541Q12.8906-12.4609 13.7695-11.582Q14.6484-10.7031 15.1465-9.54102Q15.6445-8.37891 15.6445-7.05078Q15.6445-5.72266 15.1514-4.56055Q14.6582-3.39844 13.7842-2.51953Q12.9102-1.64062 11.748-1.14746Q10.5859-0.654297 9.24805-0.654297ZM5.83984-7.04102Q5.83984-6.71875 6.04492-6.51855Q6.25-6.31836 6.5918-6.31836L8.50586-6.31836L8.50586-4.39453Q8.50586-4.0625 8.70605-3.85742Q8.90625-3.65234 9.22852-3.65234Q9.56055-3.65234 9.76562-3.85742Q9.9707-4.0625 9.9707-4.39453L9.9707-6.31836L11.8945-6.31836Q12.2266-6.31836 12.4316-6.51855Q12.6367-6.71875 12.6367-7.04102Q12.6367-7.37305 12.4316-7.57812Q12.2266-7.7832 11.8945-7.7832L9.9707-7.7832L9.9707-9.69727Q9.9707-10.0391 9.76562-10.2441Q9.56055-10.4492 9.22852-10.4492Q8.90625-10.4492 8.70605-10.2441Q8.50586-10.0391 8.50586-9.69727L8.50586-7.7832L6.5918-7.7832Q6.25-7.7832 6.04492-7.57812Q5.83984-7.37305 5.83984-7.04102Z"/>
  </g>
  <g transform="matrix(1 0 0 1 281.867 1933)">
   <path d="M11.709 2.91016Q13.75 2.91016 15.5518 2.12891Q17.3535 1.34766 18.7305-0.0292969Q20.1074-1.40625 20.8887-3.20801Q21.6699-5.00977 21.6699-7.05078Q21.6699-9.0918 20.8887-10.8936Q20.1074-12.6953 18.7305-14.0723Q17.3535-15.4492 15.5469-16.2305Q13.7402-17.0117 11.6992-17.0117Q9.6582-17.0117 7.85645-16.2305Q6.05469-15.4492 4.68262-14.0723Q3.31055-12.6953 2.5293-10.8936Q1.74805-9.0918 1.74805-7.05078Q1.74805-5.00977 2.5293-3.20801Q3.31055-1.40625 4.6875-0.0292969Q6.06445 1.34766 7.86621 2.12891Q9.66797 2.91016 11.709 2.91016ZM11.709 1.25Q9.98047 1.25 8.47656 0.605469Q6.97266-0.0390625 5.83496-1.17676Q4.69727-2.31445 4.05762-3.81836Q3.41797-5.32227 3.41797-7.05078Q3.41797-8.7793 4.05762-10.2832Q4.69727-11.7871 5.83008-12.9297Q6.96289-14.0723 8.4668-14.7119Q9.9707-15.3516 11.6992-15.3516Q13.4277-15.3516 14.9316-14.7119Q16.4355-14.0723 17.5781-12.9297Q18.7207-11.7871 19.3652-10.2832Q20.0098-8.7793 20.0098-7.05078Q20.0098-5.32227 19.3701-3.81836Q18.7305-2.31445 17.5928-1.17676Q16.4551-0.0390625 14.9463 0.605469Q13.4375 1.25 11.709 1.25ZM7.39258-7.04102Q7.39258-6.68945 7.62695-6.46484Q7.86133-6.24023 8.23242-6.24023L10.8789-6.24023L10.8789-3.57422Q10.8789-3.21289 11.1035-2.9834Q11.3281-2.75391 11.6797-2.75391Q12.0508-2.75391 12.2852-2.9834Q12.5195-3.21289 12.5195-3.57422L12.5195-6.24023L15.1758-6.24023Q15.5371-6.24023 15.7715-6.46484Q16.0059-6.68945 16.0059-7.04102Q16.0059-7.41211 15.7715-7.6416Q15.5371-7.87109 15.1758-7.87109L12.5195-7.87109L12.5195-10.5176Q12.5195-10.8984 12.2852-11.1279Q12.0508-11.3574 11.6797-11.3574Q11.3281-11.3574 11.1035-11.1279Q10.8789-10.8984 10.8789-10.5176L10.8789-7.87109L8.23242-7.87109Q7.85156-7.87109 7.62207-7.6416Q7.39258-7.41211 7.39258-7.04102Z"/>
  </g>
  <g transform="matrix(1 0 0 1 305.646 1933)">
   <path d="M14.9707 5.66406Q17.0605 5.66406 18.96 5.01465Q20.8594 4.36523 22.4512 3.19336Q24.043 2.02148 25.2197 0.429688Q26.3965-1.16211 27.0459-3.06641Q27.6953-4.9707 27.6953-7.05078Q27.6953-9.14062 27.0459-11.04Q26.3965-12.9395 25.2197-14.5312Q24.043-16.123 22.4512-17.2998Q20.8594-18.4766 18.9551-19.126Q17.0508-19.7754 14.9609-19.7754Q12.8711-19.7754 10.9717-19.126Q9.07227-18.4766 7.48535-17.2998Q5.89844-16.123 4.72168-14.5312Q3.54492-12.9395 2.90039-11.04Q2.25586-9.14062 2.25586-7.05078Q2.25586-4.9707 2.90527-3.06641Q3.55469-1.16211 4.72656 0.429688Q5.89844 2.02148 7.49023 3.19336Q9.08203 4.36523 10.9814 5.01465Q12.8809 5.66406 14.9707 5.66406ZM14.9707 3.84766Q13.1641 3.84766 11.5283 3.2959Q9.89258 2.74414 8.53516 1.74805Q7.17773 0.751953 6.17676-0.610352Q5.17578-1.97266 4.62891-3.6084Q4.08203-5.24414 4.08203-7.05078Q4.08203-8.86719 4.62891-10.5029Q5.17578-12.1387 6.17188-13.501Q7.16797-14.8633 8.52539-15.8594Q9.88281-16.8555 11.5186-17.4023Q13.1543-17.9492 14.9609-17.9492Q16.7773-17.9492 18.4131-17.4023Q20.0488-16.8555 21.4111-15.8594Q22.7734-14.8633 23.7695-13.501Q24.7656-12.1387 25.3174-10.5029Q25.8691-8.86719 25.8691-7.05078Q25.8789-5.24414 25.332-3.6084Q24.7852-1.97266 23.7842-0.610352Q22.7832 0.751953 21.4209 1.74805Q20.0586 2.74414 18.4229 3.2959Q16.7871 3.84766 14.9707 3.84766ZM9.45312-7.04102Q9.45312-6.66016 9.71191-6.41113Q9.9707-6.16211 10.3711-6.16211L14.0625-6.16211L14.0625-2.46094Q14.0625-2.06055 14.3115-1.80664Q14.5605-1.55273 14.9414-1.55273Q15.3516-1.55273 15.6055-1.80664Q15.8594-2.06055 15.8594-2.46094L15.8594-6.16211L19.5605-6.16211Q19.9609-6.16211 20.2148-6.41113Q20.4688-6.66016 20.4688-7.04102Q20.4688-7.45117 20.2148-7.70508Q19.9609-7.95898 19.5605-7.95898L15.8594-7.95898L15.8594-11.6504Q15.8594-12.0605 15.6055-12.3145Q15.3516-12.5684 14.9414-12.5684Q14.5605-12.5684 14.3115-12.3096Q14.0625-12.0508 14.0625-11.6504L14.0625-7.95898L10.3711-7.95898Q9.96094-7.95898 9.70703-7.70508Q9.45312-7.45117 9.45312-7.04102Z"/>
  </g>
  <text style="stroke:none;fill:black;font-family:sans-serif;font-size:13;font-weight:bold;" transform="matrix(1 0 0 1 263 1953)">Design Variations</text>
  <text style="stroke:none;fill:black;font-family:sans-serif;font-size:13;" transform="matrix(1 0 0 1 263 1971)">Symbols are supported in up to nine weights and three scales.</text>
  <text style="stroke:none;fill:black;font-family:sans-serif;font-size:13;" transform="matrix(1 0 0 1 263 1989)">For optimal layout with text and other symbols, vertically align</text>
  <text style="stroke:none;fill:black;font-family:sans-serif;font-size:13;" transform="matrix(1 0 0 1 263 2007)">symbols with the adjacent text.</text>
  <line style="fill:none;stroke:#00AEEF;stroke-width:0.5;opacity:1.0;" x1="776" x2="776" y1="1919" y2="1933"/>
  <g transform="matrix(1 0 0 1 776 1933)">
   <path d="M3.31055 0.15625Q3.70117 0.15625 3.91602-0.00976562Q4.13086-0.175781 4.26758-0.585938L5.52734-4.0332L11.2891-4.0332L12.5488-0.585938Q12.6855-0.175781 12.9004-0.00976562Q13.1152 0.15625 13.4961 0.15625Q13.8867 0.15625 14.1162-0.0585938Q14.3457-0.273438 14.3457-0.644531Q14.3457-0.869141 14.2383-1.17188L9.6582-13.3691Q9.48242-13.8184 9.17969-14.043Q8.87695-14.2676 8.4082-14.2676Q7.5-14.2676 7.17773-13.3789L2.59766-1.16211Q2.49023-0.859375 2.49023-0.634766Q2.49023-0.263672 2.70996-0.0537109Q2.92969 0.15625 3.31055 0.15625ZM6.00586-5.51758L8.37891-12.0898L8.42773-12.0898L10.8008-5.51758Z"/>
  </g>
  <line style="fill:none;stroke:#00AEEF;stroke-width:0.5;opacity:1.0;" x1="793.197" x2="793.197" y1="1919" y2="1933"/>
  <text style="stroke:none;fill:black;font-family:sans-serif;font-size:13;font-weight:bold;" transform="matrix(1 0 0 1 776 1953)">Margins</text>
  <text style="stroke:none;fill:black;font-family:sans-serif;font-size:13;" transform="matrix(1 0 0 1 776 1971)">Leading and trailing margins on the left and right side of each symbol</text>
  <text style="stroke:none;fill:black;font-family:sans-serif;font-size:13;" transform="matrix(1 0 0 1 776 1989)">can be adjusted by modifying the x-location of the margin guidelines.</text>
  <text style="stroke:none;fill:black;font-family:sans-serif;font-size:13;" transform="matrix(1 0 0 1 776 2007)">Modifications are automatically applied proportionally to all</text>
  <text style="stroke:none;fill:black;font-family:sans-serif;font-size:13;" transform="matrix(1 0 0 1 776 2025)">scales and weights.</text>
  <g transform="matrix(1 0 0 1 1289 1933)">
   <path d="M2.8418 1.86523L4.54102 3.57422Q5.18555 4.22852 5.90332 4.17969Q6.62109 4.13086 7.31445 3.35938L18.0078-8.42773L17.041-9.4043L6.42578 2.27539Q6.16211 2.57812 5.89355 2.61719Q5.625 2.65625 5.27344 2.30469L4.10156 1.14258Q3.75 0.791016 3.79395 0.522461Q3.83789 0.253906 4.14062-0.0195312L15.6152-10.8203L14.6387-11.7871L3.04688-0.898438Q2.30469-0.214844 2.25098 0.498047Q2.19727 1.21094 2.8418 1.86523ZM9.25781-16.3281Q8.94531-16.0254 8.90625-15.6348Q8.86719-15.2441 9.04297-14.9512Q9.21875-14.6777 9.55566-14.541Q9.89258-14.4043 10.3809-14.5215Q11.4746-14.7754 12.5977-14.7314Q13.7207-14.6875 14.7949-13.9844L14.209-12.5293Q13.9551-11.9043 14.0674-11.4404Q14.1797-10.9766 14.5801-10.5664L16.875-8.25195Q17.2363-7.88086 17.5781-7.82227Q17.9199-7.76367 18.3398-7.8418L19.4043-8.03711L20.0684-7.36328L20.0293-6.80664Q20-6.43555 20.1221-6.12305Q20.2441-5.81055 20.6055-5.44922L21.3672-4.70703Q21.7285-4.3457 22.1533-4.33105Q22.5781-4.31641 22.9297-4.66797L25.8398-7.58789Q26.1914-7.93945 26.1816-8.35449Q26.1719-8.76953 25.8105-9.13086L25.0391-9.89258Q24.6875-10.2539 24.3799-10.3857Q24.0723-10.5176 23.7109-10.4883L23.1348-10.4395L22.4902-11.0742L22.7344-12.1973Q22.832-12.6172 22.6953-12.9834Q22.5586-13.3496 22.1191-13.7891L19.9219-15.9766Q18.6719-17.2168 17.2607-17.8369Q15.8496-18.457 14.4189-18.4814Q12.9883-18.5059 11.665-17.959Q10.3418-17.4121 9.25781-16.3281ZM10.752-15.957Q11.6602-16.6211 12.7002-16.9043Q13.7402-17.1875 14.8047-17.085Q15.8691-16.9824 16.8701-16.5137Q17.8711-16.0449 18.7012-15.2051L21.1328-12.793Q21.3086-12.6172 21.3525-12.4512Q21.3965-12.2852 21.3379-12.0312L21.0156-10.5469L22.5195-9.0625L23.5059-9.12109Q23.6914-9.13086 23.7891-9.09668Q23.8867-9.0625 24.0332-8.91602L24.6094-8.33984L22.168-5.89844L21.5918-6.47461Q21.4453-6.62109 21.4062-6.71875Q21.3672-6.81641 21.377-7.01172L21.4453-7.98828L19.9512-9.47266L18.4277-9.21875Q18.1836-9.16992 18.042-9.2041Q17.9004-9.23828 17.7148-9.41406L15.7129-11.416Q15.5176-11.5918 15.4932-11.7529Q15.4688-11.9141 15.5859-12.1875L16.4648-14.2773Q15.293-15.3711 13.8281-15.791Q12.3633-16.2109 10.8398-15.7617Q10.7227-15.7324 10.6885-15.8057Q10.6543-15.8789 10.752-15.957Z"/>
  </g>
  <text style="stroke:none;fill:black;font-family:sans-serif;font-size:13;font-weight:bold;" transform="matrix(1 0 0 1 1289 1953)">Exporting</text>
  <text style="stroke:none;fill:black;font-family:sans-serif;font-size:13;" transform="matrix(1 0 0 1 1289 1971)">Symbols should be outlined when exporting to ensure the</text>
  <text style="stroke:none;fill:black;font-family:sans-serif;font-size:13;" transform="matrix(1 0 0 1 1289 1989)">design is preserved when submitting to Xcode.</text>
  <text id="template-version" style="stroke:none;fill:black;font-family:sans-serif;font-size:13;text-anchor:end;" transform="matrix(1 0 0 1 3036 1933)">Template v.3.0</text>
  <text style="stroke:none;fill:black;font-family:sans-serif;font-size:13;text-anchor:end;" transform="matrix(1 0 0 1 3036 1951)">Requires Xcode 13 or greater</text>
  <text id="descriptive-name" style="stroke:none;fill:black;font-family:sans-serif;font-size:13;text-anchor:end;" transform="matrix(1 0 0 1 3036 1969)">Generated from logo.git</text>
  <text style="stroke:none;fill:black;font-family:sans-serif;font-size:13;text-anchor:end;" transform="matrix(1 0 0 1 3036 1987)">Typeset at 100 points</text>
  <text style="stroke:none;fill:black;font-family:sans-serif;font-size:13;" transform="matrix(1 0 0 1 263 726)">Small</text>
  <text style="stroke:none;fill:black;font-family:sans-serif;font-size:13;" transform="matrix(1 0 0 1 263 1156)">Medium</text>
  <text style="stroke:none;fill:black;font-family:sans-serif;font-size:13;" transform="matrix(1 0 0 1 263 1586)">Large</text>
 </g>
 <g id="Guides">
  <g id="H-reference" style="fill:#27AAE1;stroke:none;" transform="matrix(1 0 0 1 339 696)">
   <path d="M0.976562 0L3.66211 0L29.3457-67.1387L30.0293-67.1387L30.0293-70.459L28.125-70.459ZM11.6699-24.4629L46.9727-24.4629L46.2402-26.709L12.4512-26.709ZM55.127 0L57.7637 0L30.6152-70.459L29.4434-70.459L29.4434-67.1387Z"/>
  </g>
  <line id="Baseline-S" style="fill:none;stroke:#27AAE1;opacity:1;stroke-width:0.5;" x1="263" x2="3036" y1="696" y2="696"/>
  <line id="Capline-S" style="fill:none;stroke:#27AAE1;opacity:1;stroke-width:0.5;" x1="263" x2="3036" y1="625.541" y2="625.541"/>
  <g id="H-reference" style="fill:#27AAE1;stroke:none;" transform="matrix(1 0 0 1 339 1126)">
   <path d="M0.976562 0L3.66211 0L29.3457-67.1387L30.0293-67.1387L30.0293-70.459L28.125-70.459ZM11.6699-24.4629L46.9727-24.4629L46.2402-26.709L12.4512-26.709ZM55.127 0L57.7637 0L30.6152-70.459L29.4434-70.459L29.4434-67.1387Z"/>
  </g>
  <line id="Baseline-M" style="fill:none;stroke:#27AAE1;opacity:1;stroke-width:0.5;" x1="263" x2="3036" y1="1126" y2="1126"/>
  <line id="Capline-M" style="fill:none;stroke:#27AAE1;opacity:1;stroke-width:0.5;" x1="263" x2="3036" y1="1055.54" y2="1055.54"/>
  <g id="H-reference" style="fill:#27AAE1;stroke:none;" transform="matrix(1 0 0 1 339 1556)">
   <path d="M0.976562 0L3.66211 0L29.3457-67.1387L30.0293-67.1387L30.0293-70.459L28.125-70.459ZM11.6699-24.4629L46.9727-24.4629L46.2402-26.709L12.4512-26.709ZM55.127 0L57.7637 0L30.6152-70.459L29.4434-70.459L29.4434-67.1387Z"/>
  </g>
  <line id="Baseline-L" style="fill:none;stroke:#27AAE1;opacity:1;stroke-width:0.5;" x1="263" x2="3036" y1="1556" y2="1556"/>
  <line id="Capline-L" style="fill:none;stroke:#27AAE1;opacity:1;stroke-width:0.5;" x1="263" x2="3036" y1="1485.54" y2="1485.54"/>
  <line id="left-margin-Regular-M" style="fill:none;stroke:#00AEEF;stroke-width:0.5;opacity:1.0;" x1="1384.34" x2="1384.34" y1="1030.73" y2="1150.14"/>
  <line id="right-margin-Regular-M" style="fill:none;stroke:#00AEEF;stroke-width:0.5;opacity:1.0;" x1="1515.35" x2="1515.35" y1="1030.73" y2="1150.14"/>
 </g>
 <g id="Symbols">
  <g id="Black-L" transform="matrix(1 0 0 1 2844.38 1556)">
   <path class="multicolor-0:systemRedColor hierarchical-0:primary SFSymbolsPreviewFF3B30" d="M81.3887-54.8493C82.3769-53.8611 83.5298-53.0376 84.8474-52.5435L84.8474-15.486C83.5298-14.9919 82.3769-14.1684 81.3887-13.1802C77.2712-9.0627 77.2712-2.6394 81.3887 1.4781C85.5062 5.5956 91.9295 5.5956 96.047 1.4781C100.164-2.6394 100.164-9.0627 96.047-13.1802C95.2235-14.0037 94.2353-14.6625 93.2471-15.1566L93.2471-51.8847L107.247-37.8852C105.764-34.0971 106.423-29.6502 109.552-26.6856C113.67-22.5681 120.093-22.5681 124.211-26.6856C128.328-30.8031 128.328-37.2264 124.211-41.3439C121.246-44.3085 117.129-45.132 113.505-43.8144L98.5175-58.8021C99.8351-62.4255 99.0116-66.543 96.047-69.5076C93.2471-72.3075 88.9649-73.131 85.3415-71.9781L70.0244-87.2952L63.9305-81.2013L79.0829-66.0489C77.6006-62.4255 78.3044-57.976 81.3887-54.8493Z"/>
   <path class="multicolor-1:tintColor hierarchical-1:secondary clearBehindLayer SFSymbolsPreview007AFF" d="M21.2921-18.0795L72.1688 32.8423C77.5274 38.2009 83.1278 40.9027 88.9675 40.9001C94.8072 40.9001 100.408 38.2407 105.764 32.8847L156.725-18.1219C162.084-23.4805 164.783-29.0783 164.743-34.918C164.743-40.7576 162.044-46.3581 156.643-51.7167L105.811-102.636C100.453-107.994 94.8522-110.696 89.0126-110.696C83.1729-110.696 77.5751-108.037 72.2139-102.678L21.2497-51.6742C15.8911-46.3156 13.1893-40.7152 13.2317-34.8782C13.2742-29.0385 15.8911-23.3184 21.2921-18.0795ZM37.3296-30.2017C35.8159-31.7579 35.0166-33.3141 35.0166-34.7559C35.0166-36.1951 35.7734-37.7539 37.3296-39.4722L84.2512-86.3911C85.927-88.0669 87.5283-88.8663 88.9675-88.8663C90.4067-88.8663 91.9655-87.9473 93.5217-86.4336L140.526-39.4722C142.082-37.916 142.839-36.3598 142.958-34.918C142.958-33.4761 142.159-31.9199 140.483-30.2017L93.5642 16.7173C91.8883 18.3931 90.3295 19.1924 88.8479 19.1924C87.4087 19.1924 85.8498 18.3159 84.2936 16.7597L37.3296-30.2017Z"/>
  </g>
  <g id="Heavy-L" transform="matrix(1 0 0 1 2548.81 1556)">
   <path class="multicolor-0:systemRedColor hierarchical-0:primary SFSymbolsPreviewFF3B30" d="M80.2299-54.8493C81.2181-53.8611 82.371-53.0376 83.6886-52.5435L83.6886-15.486C82.371-14.9919 81.2181-14.1684 80.2299-13.1802C76.1124-9.0627 76.1124-2.6394 80.2299 1.4781C84.3474 5.5956 90.7707 5.5956 94.8882 1.4781C99.0057-2.6394 99.0057-9.0627 94.8882-13.1802C94.0647-14.0037 93.0765-14.6625 92.0883-15.1566L92.0883-51.8847L106.088-37.8852C104.605-34.0971 105.264-29.6502 108.394-26.6856C112.511-22.5681 118.934-22.5681 123.052-26.6856C127.169-30.8031 127.169-37.2264 123.052-41.3439C120.087-44.3085 115.97-45.132 112.346-43.8144L97.3587-58.8021C98.6763-62.4255 97.8528-66.543 94.8882-69.5076C92.0883-72.3075 87.8061-73.131 84.1827-71.9781L68.8656-87.2952L62.7717-81.2013L77.9241-66.0489C76.4418-62.4255 77.1739-57.9662 80.2299-54.8493Z"/>
   <path class="multicolor-1:tintColor hierarchical-1:secondary clearBehindLayer SFSymbolsPreview007AFF" d="M21.0044-18.8094L71.7682 32.0277C76.9273 37.1867 82.2815 39.8029 87.8184 39.7906C93.3554 39.7906 98.7096 37.2353 103.856 32.0886L154.742-18.8703C159.901-24.0294 162.505-29.3713 162.456-34.9082C162.456-40.4452 159.852-45.7994 154.632-50.9585L103.942-101.783C98.7829-106.942 93.4287-109.558 87.8918-109.558C82.3548-109.558 77.0129-107.003 71.8415-101.844L20.9435-50.8975C15.7844-45.7385 13.1682-40.3843 13.2292-34.8596C13.2901-29.3227 15.7844-23.8771 21.0044-18.8094ZM34.8384-29.5847C33.1534-31.3306 32.2499-33.0766 32.2499-34.7559C32.2499-36.4228 33.0924-38.1812 34.8384-40.0795L82.4949-87.7236C84.3322-89.561 86.1515-90.4644 87.8184-90.4644C89.4854-90.4644 91.2437-89.4696 92.9897-87.7846L140.756-40.0795C142.502-38.3335 143.344-36.5875 143.436-34.9082C143.436-33.2289 142.532-31.483 140.695-29.5847L93.0506 18.0595C91.2133 19.8968 89.455 20.8003 87.7271 20.8003C86.0601 20.8003 84.3018 19.8664 82.5558 18.1204L34.8384-29.5847Z"/>
  </g>
  <g id="Bold-L" transform="matrix(1 0 0 1 2253.52 1556)">
   <path class="multicolor-0:systemRedColor hierarchical-0:primary SFSymbolsPreviewFF3B30" d="M78.7832-54.8493C79.7714-53.8611 80.9243-53.0376 82.2419-52.5435L82.2419-15.486C80.9243-14.9919 79.7714-14.1684 78.7832-13.1802C74.6657-9.0627 74.6657-2.6394 78.7832 1.4781C82.9007 5.5956 89.324 5.5956 93.4415 1.4781C97.559-2.6394 97.559-9.0627 93.4415-13.1802C92.618-14.0037 91.6298-14.6625 90.6416-15.1566L90.6416-51.8847L104.641-37.8852C103.159-34.0971 103.818-29.6502 106.947-26.6856C111.064-22.5681 117.488-22.5681 121.605-26.6856C125.723-30.8031 125.723-37.2264 121.605-41.3439C118.641-44.3085 114.523-45.132 110.9-43.8144L95.912-58.8021C97.2296-62.4255 96.4061-66.543 93.4415-69.5076C90.6416-72.3075 86.3594-73.131 82.736-71.9781L67.4189-87.2952L61.325-81.2013L76.4774-66.0489C74.9951-62.4255 75.7588-57.9495 78.7832-54.8493Z"/>
   <path class="multicolor-1:tintColor hierarchical-1:secondary clearBehindLayer SFSymbolsPreview007AFF" d="M20.6324-19.7261L71.2698 31.0162C76.1703 35.9167 81.2196 38.4194 86.3885 38.3903C91.5574 38.3903 96.6067 35.9633 101.478 31.092L152.267-19.8019C157.168-24.7024 159.641-29.7226 159.595-34.8915C159.595-40.0604 157.121-45.1096 152.145-50.0102L101.612-100.723C96.7116-105.624 91.6623-108.127 86.4934-108.127C81.3245-108.127 76.3044-105.7 71.3747-100.799L20.5566-49.9344C15.6561-45.0339 13.1534-39.9846 13.2291-34.8448C13.3049-29.6759 15.6561-24.5669 20.6324-19.7261ZM31.795-28.7942C29.883-30.782 28.8513-32.7697 28.8513-34.7559C28.8513-36.713 29.8073-38.7298 31.795-40.8531L80.2913-89.3203C82.3388-91.3678 84.4314-92.3996 86.3885-92.3996C88.3456-92.3996 90.3624-91.308 92.3502-89.396L140.969-40.8531C142.957-38.8654 143.913-36.8777 143.972-34.8915C143.972-32.9053 142.941-30.9175 140.893-28.7942L92.4259 19.6729C90.3784 21.7205 88.3615 22.7522 86.3287 22.7522C84.3716 22.7522 82.3548 21.7364 80.367 19.7487L31.795-28.7942Z"/>
  </g>
  <g id="Semibold-L" transform="matrix(1 0 0 1 1957.79 1556)">
   <path class="multicolor-0:systemRedColor hierarchical-0:primary SFSymbolsPreviewFF3B30" d="M77.7858-54.8493C78.774-53.8611 79.9269-53.0376 81.2445-52.5435L81.2445-15.486C79.9269-14.9919 78.774-14.1684 77.7858-13.1802C73.6683-9.0627 73.6683-2.6394 77.7858 1.4781C81.9033 5.5956 88.3266 5.5956 92.4441 1.4781C96.5616-2.6394 96.5616-9.0627 92.4441-13.1802C91.6206-14.0037 90.6324-14.6625 89.6442-15.1566L89.6442-51.8847L103.644-37.8852C102.161-34.0971 102.82-29.6502 105.95-26.6856C110.067-22.5681 116.49-22.5681 120.608-26.6856C124.725-30.8031 124.725-37.2264 120.608-41.3439C117.643-44.3085 113.526-45.132 109.902-43.8144L94.9146-58.8021C96.2322-62.4255 95.4087-66.543 92.4441-69.5076C89.6442-72.3075 85.362-73.131 81.7386-71.9781L66.4215-87.2952L60.3276-81.2013L75.48-66.0489C73.9977-62.4255 74.7832-57.9379 77.7858-54.8493Z"/>
   <path class="multicolor-1:tintColor hierarchical-1:secondary clearBehindLayer SFSymbolsPreview007AFF" d="M20.3759-20.3581L70.9262 30.3189C75.6485 35.0412 80.4876 37.4657 85.4027 37.425C90.3179 37.425 95.1569 35.0864 99.8385 30.4049L150.561-20.4441C155.283-25.1664 157.667-29.9648 157.622-34.8799C157.622-39.795 155.238-44.6341 150.43-49.3564L100.006-99.9927C95.2836-104.715 90.4445-107.14 85.5294-107.14C80.6142-107.14 75.8159-104.801 71.0529-100.079L20.2899-49.2705C15.5676-44.5482 13.1431-39.7091 13.2291-34.8346C13.315-29.9195 15.5676-25.0424 20.3759-20.3581ZM29.6969-28.2493C27.6285-30.4037 26.5083-32.5581 26.5083-34.7559C26.5083-36.913 27.5425-39.1081 29.6969-41.3865L78.7721-90.421C80.9646-92.6135 83.2457-93.7336 85.4027-93.7336C87.5598-93.7336 89.7549-92.5754 91.9093-90.507L141.116-41.3865C143.27-39.2321 144.304-37.0777 144.342-34.8799C144.342-32.6821 143.222-30.5277 141.03-28.2493L91.9953 20.7852C89.8028 22.9777 87.6077 24.0978 85.3647 24.0978C83.2076 24.0978 81.0125 23.0256 78.8581 20.8712L29.6969-28.2493Z"/>
  </g>
  <g id="Medium-L" transform="matrix(1 0 0 1 1661.82 1556)">
   <path class="multicolor-0:systemRedColor hierarchical-0:primary SFSymbolsPreviewFF3B30" d="M77.0296-54.8493C78.0178-53.8611 79.1707-53.0376 80.4883-52.5435L80.4883-15.486C79.1707-14.9919 78.0178-14.1684 77.0296-13.1802C72.9121-9.0627 72.9121-2.6394 77.0296 1.4781C81.1471 5.5956 87.5704 5.5956 91.6879 1.4781C95.8054-2.6394 95.8054-9.0627 91.6879-13.1802C90.8644-14.0037 89.8762-14.6625 88.888-15.1566L88.888-51.8847L102.887-37.8852C101.405-34.0971 102.064-29.6502 105.193-26.6856C109.311-22.5681 115.734-22.5681 119.852-26.6856C123.969-30.8031 123.969-37.2264 119.852-41.3439C116.887-44.3085 112.769-45.132 109.146-43.8144L94.1584-58.8021C95.476-62.4255 94.6525-66.543 91.6879-69.5076C88.888-72.3075 84.6058-73.131 80.9824-71.9781L65.6653-87.2952L59.5714-81.2013L74.7238-66.0489C73.2415-62.4255 74.0435-57.9291 77.0296-54.8493Z"/>
   <path class="multicolor-1:tintColor hierarchical-1:secondary clearBehindLayer SFSymbolsPreview007AFF" d="M20.1814-20.8373L70.6657 29.7902C75.2528 34.3773 79.9325 36.7425 84.6553 36.693C89.378 36.693 94.0577 34.4215 98.5954 29.8839L149.267-20.931C153.854-25.5182 156.17-30.1484 156.126-34.8711C156.126-39.5939 153.81-44.2736 149.129-48.8607L98.788-99.4387C94.2008-104.026 89.5212-106.391 84.7984-106.391C80.0757-106.391 75.4455-104.12 70.8089-99.5324L20.0877-48.767C15.5005-44.1799 13.1353-39.5002 13.2291-34.8269C13.3228-30.1042 15.5005-25.4029 20.1814-20.8373ZM28.106-27.8361C25.919-30.1169 24.7317-32.3977 24.7317-34.7559C24.7317-37.0646 25.8253-39.3949 28.106-41.7909L77.6203-91.2556C79.9226-93.558 82.3465-94.7452 84.6553-94.7452C86.964-94.7452 89.2942-93.5364 91.575-91.3493L141.227-41.7909C143.508-39.5101 144.601-37.2293 144.623-34.8711C144.623-32.5129 143.436-30.2322 141.133-27.8361L91.6687 21.6286C89.3664 23.9309 87.0361 25.1182 84.6337 25.1182C82.325 25.1182 79.9948 24.0031 77.714 21.7223L28.106-27.8361Z"/>
  </g>
  <g id="Regular-L" transform="matrix(1 0 0 1 1366.08 1556)">
   <path class="multicolor-0:systemRedColor hierarchical-0:primary SFSymbolsPreviewFF3B30" d="M76.0432-54.8493C77.0314-53.8611 78.1843-53.0376 79.5019-52.5435L79.5019-15.486C78.1843-14.9919 77.0314-14.1684 76.0432-13.1802C71.9257-9.0627 71.9257-2.6394 76.0432 1.4781C80.1607 5.5956 86.584 5.5956 90.7015 1.4781C94.819-2.6394 94.819-9.0627 90.7015-13.1802C89.878-14.0037 88.8898-14.6625 87.9016-15.1566L87.9016-51.8847L101.901-37.8852C100.419-34.0971 101.078-29.6502 104.207-26.6856C108.324-22.5681 114.748-22.5681 118.865-26.6856C122.983-30.8031 122.983-37.2264 118.865-41.3439C115.901-44.3085 111.783-45.132 108.16-43.8144L93.172-58.8021C94.4896-62.4255 93.6661-66.543 90.7015-69.5076C87.9016-72.3075 83.6194-73.131 79.996-71.9781L64.6789-87.2952L58.585-81.2013L73.7374-66.0489C72.2551-62.4255 73.0786-57.9177 76.0432-54.8493Z"/>
   <path class="multicolor-1:tintColor hierarchical-1:secondary clearBehindLayer SFSymbolsPreview007AFF" d="M19.9277-21.4624L70.3259 29.1005C74.7367 33.5114 79.2085 35.7992 83.6803 35.7383C88.1521 35.7383 92.6239 33.5543 96.9738 29.2043L147.58-21.5662C151.99-25.977 154.217-30.3879 154.174-34.8597C154.174-39.3315 151.948-43.8032 147.433-48.2141L97.1994-98.7161C92.7886-103.127 88.3168-105.415 83.845-105.415C79.3732-105.415 74.9623-103.231 70.4906-98.8199L19.8239-48.1103C15.413-43.6995 13.1252-39.2277 13.229-34.8168C13.3328-30.345 15.413-25.8733 19.9277-21.4624ZM26.031-27.2972C23.6892-29.7428 22.4145-32.1885 22.4145-34.7559C22.4145-37.2624 23.5854-39.769 26.031-42.3184L76.1178-92.3443C78.5634-94.7899 81.1738-96.0646 83.6803-96.0646C86.1868-96.0646 88.6934-94.7899 91.139-92.4481L141.372-42.3184C143.818-39.8728 144.989-37.4271 144.989-34.8597C144.989-32.2923 143.714-29.8466 141.269-27.2972L91.2428 22.7287C88.7971 25.1743 86.2906 26.449 83.6803 26.449C81.1738 26.449 78.6672 25.2781 76.2216 22.8325L26.031-27.2972Z"/>
  </g>
  <g id="Light-L" transform="matrix(1 0 0 1 1070.44 1556)">
   <path class="multicolor-0:systemRedColor hierarchical-0:primary SFSymbolsPreviewFF3B30" d="M74.9703-54.8493C75.9585-53.8611 77.1114-53.0376 78.429-52.5435L78.429-15.486C77.1114-14.9919 75.9585-14.1684 74.9703-13.1802C70.8528-9.0627 70.8528-2.6394 74.9703 1.4781C79.0878 5.5956 85.5111 5.5956 89.6286 1.4781C93.7461-2.6394 93.7461-9.0627 89.6286-13.1802C88.8051-14.0037 87.8169-14.6625 86.8287-15.1566L86.8287-51.8847L100.828-37.8852C99.3459-34.0971 100.005-29.6502 103.134-26.6856C107.252-22.5681 113.675-22.5681 117.792-26.6856C121.91-30.8031 121.91-37.2264 117.792-41.3439C114.828-44.3085 110.71-45.132 107.087-43.8144L92.0991-58.8021C93.4167-62.4255 92.5932-66.543 89.6286-69.5076C86.8287-72.3075 82.5465-73.131 78.9231-71.9781L63.606-87.2952L57.5121-81.2013L72.6645-66.0489C71.1822-62.4255 72.0057-57.8757 74.9703-54.8493Z"/>
   <path class="multicolor-1:tintColor hierarchical-1:secondary clearBehindLayer SFSymbolsPreview007AFF" d="M19.5693-22.1769L69.9675 28.386C74.1262 32.5447 78.3878 34.7064 82.6495 34.6035C86.9111 34.6035 91.1727 32.5036 95.2285 28.4478L145.75-22.2386C149.909-26.3973 151.968-30.556 152.009-34.8177C152.009-39.0793 149.95-43.3409 145.73-47.4996L95.4961-97.9596C91.3374-102.118 87.0758-104.28 82.8142-104.28C78.5525-104.28 74.3938-102.18 70.1322-98.0214L19.5075-47.4379C15.3488-43.2792 13.1871-39.0175 13.2489-34.8588C13.3107-30.5972 15.3488-26.3356 19.5693-22.1769ZM24.2016-26.5827C21.6076-29.2385 20.2488-31.8943 20.2488-34.7559C20.2488-37.5146 21.5458-40.2733 24.2016-42.9908L74.4145-93.1008C77.0703-95.7566 79.8908-97.1153 82.6495-97.1153C85.4082-97.1153 88.1669-95.7566 90.8226-93.1626L141.056-42.9908C143.712-40.3351 145.009-37.6793 145.009-34.8177C145.009-31.956 143.65-29.3003 140.994-26.5827L90.8844 23.5272C88.2286 26.183 85.4699 27.5418 82.6495 27.5418C79.8908 27.5418 77.1321 26.2448 74.4763 23.589L24.2016-26.5827Z"/>
  </g>
  <g id="Thin-L" transform="matrix(1 0 0 1 775.15 1556)">
   <path class="multicolor-0:systemRedColor hierarchical-0:primary SFSymbolsPreviewFF3B30" d="M73.5514-54.8493C74.5396-53.8611 75.6925-53.0376 77.0101-52.5435L77.0101-15.486C75.6925-14.9919 74.5396-14.1684 73.5514-13.1802C69.4339-9.0627 69.4339-2.6394 73.5514 1.4781C77.6689 5.5956 84.0922 5.5956 88.2097 1.4781C92.3272-2.6394 92.3272-9.0627 88.2097-13.1802C87.3862-14.0037 86.398-14.6625 85.4098-15.1566L85.4098-51.8847L99.4093-37.8852C97.927-34.0971 98.5858-29.6502 101.715-26.6856C105.833-22.5681 112.256-22.5681 116.373-26.6856C120.491-30.8031 120.491-37.2264 116.373-41.3439C113.409-44.3085 109.291-45.132 105.668-43.8144L90.6802-58.8021C91.9978-62.4255 91.1743-66.543 88.2097-69.5076C85.4098-72.3075 81.1276-73.131 77.5042-71.9781L62.1871-87.2952L56.0932-81.2013L71.2456-66.0489C69.7633-62.4255 70.5868-57.8201 73.5514-54.8493Z"/>
   <path class="multicolor-1:tintColor hierarchical-1:secondary clearBehindLayer SFSymbolsPreview007AFF" d="M19.0953-23.1218L69.4935 27.4411C73.3187 31.2662 77.3024 33.2612 81.2861 33.1027C85.2698 33.1027 89.2535 31.1139 92.9201 27.4472L143.331-23.128C147.156-26.9532 148.992-30.7784 149.145-34.7621C149.145-38.7458 147.308-42.7295 143.477-46.5547L93.2434-96.959C89.4182-100.784 85.4345-102.779 81.4508-102.779C77.4671-102.779 73.6419-100.79 69.6582-96.9652L19.0891-46.5485C15.2639-42.7233 13.269-38.7396 13.2752-34.9144C13.2814-30.9307 15.2639-26.947 19.0953-23.1218ZM21.7821-25.6378C18.8546-28.5715 17.3846-31.5052 17.3846-34.7559C17.3846-37.8481 18.8484-40.9403 21.7821-43.8802L72.1618-94.1014C75.0955-97.0351 78.1939-98.505 81.2861-98.505C84.3783-98.505 87.4705-97.0351 90.4042-94.1075L140.638-43.8802C143.571-40.9465 145.035-38.0128 145.035-34.7621C145.035-31.5113 143.565-28.5776 140.632-25.6378L90.4104 24.5834C87.4767 27.5171 84.3845 28.987 81.2861 28.987C78.1939 28.987 75.1016 27.5233 72.1679 24.5896L21.7821-25.6378Z"/>
  </g>
  <g id="Ultralight-L" transform="matrix(1 0 0 1 479.166 1556)">
   <path class="multicolor-0:systemRedColor hierarchical-0:primary SFSymbolsPreviewFF3B30" d="M72.8246-54.8493C73.8128-53.8611 74.9657-53.0376 76.2833-52.5435L76.2833-15.486C74.9657-14.9919 73.8128-14.1684 72.8246-13.1802C68.7071-9.0627 68.7071-2.6394 72.8246 1.4781C76.9421 5.5956 83.3654 5.5956 87.4829 1.4781C91.6004-2.6394 91.6004-9.0627 87.4829-13.1802C86.6594-14.0037 85.6712-14.6625 84.683-15.1566L84.683-51.8847L98.6825-37.8852C97.2002-34.0971 97.859-29.6502 100.988-26.6856C105.106-22.5681 111.529-22.5681 115.647-26.6856C119.764-30.8031 119.764-37.2264 115.647-41.3439C112.682-44.3085 108.564-45.132 104.941-43.8144L89.9534-58.8021C91.271-62.4255 90.4475-66.543 87.4829-69.5076C84.683-72.3075 80.4008-73.131 76.7774-71.9781L61.4603-87.2952L55.3664-81.2013L70.5188-66.0489C69.0365-62.4255 69.86-57.7916 72.8246-54.8493Z"/>
   <path class="multicolor-1:tintColor hierarchical-1:secondary clearBehindLayer SFSymbolsPreview007AFF" d="M18.8525-23.6059L69.2507 26.957C72.9051 30.6114 76.7464 32.5209 80.5878 32.3339C84.4291 32.3339 88.2705 30.4021 91.7378 26.9348L142.091-23.5836C145.746-27.2379 147.468-30.8923 147.678-34.7336C147.678-38.575 145.955-42.4163 142.323-46.0706L92.0895-96.4466C88.4352-100.101 84.5938-102.01 80.7525-102.01C76.9111-102.01 73.2568-100.079 69.4154-96.4243L18.8748-46.0929C15.2205-42.4386 13.311-38.5972 13.2887-34.9429C13.2664-31.1015 15.2205-27.2602 18.8525-23.6059ZM20.5428-25.1537C17.4445-28.2298 15.9176-31.3059 15.9176-34.7559C15.9176-38.0189 17.4668-41.282 20.5428-44.3358L71.0079-94.6138C74.084-97.6899 77.3247-99.2168 80.5878-99.2168C83.8508-99.2168 87.1139-97.6899 90.1899-94.5916L140.423-44.3358C143.499-41.2597 145.049-38.1836 145.049-34.7336C145.049-31.2836 143.522-28.2075 140.446-25.1537L90.1676 25.1243C87.0916 28.2004 83.8285 29.7273 80.5878 29.7273C77.3247 29.7273 74.0617 28.1781 70.9856 25.102L20.5428-25.1537Z"/>
  </g>
  <g id="Black-M" transform="matrix(1 0 0 1 2863.6 1126)">
   <path class="multicolor-0:systemRedColor hierarchical-0:primary SFSymbolsPreviewFF3B30" d="M63.9057-50.4344C64.6713-49.6688 65.5645-49.0308 66.5853-48.648L66.5853-19.938C65.5645-19.5552 64.6713-18.9172 63.9057-18.1516C60.7157-14.9616 60.7157-9.9852 63.9057-6.7952C67.0957-3.6052 72.0721-3.6052 75.2621-6.7952C78.4521-9.9852 78.4521-14.9616 75.2621-18.1516C74.6241-18.7896 73.8585-19.3 73.0929-19.6828L73.0929-48.1376L83.9389-37.2916C82.7905-34.3568 83.3009-30.9116 85.7253-28.6148C88.9153-25.4248 93.8917-25.4248 97.0817-28.6148C100.272-31.8048 100.272-36.7812 97.0817-39.9712C94.7849-42.268 91.5949-42.906 88.7877-41.8852L77.1761-53.4968C78.1969-56.304 77.5589-59.494 75.2621-61.7908C73.0929-63.96 69.7753-64.598 66.9681-63.7048L55.1013-75.5716L50.3801-70.8504L62.1193-59.1112C60.9709-56.304 61.492-52.8594 63.9057-50.4344Z"/>
   <path class="multicolor-1:tintColor hierarchical-1:secondary clearBehindLayer SFSymbolsPreview007AFF" d="M16.6946-21.4167L56.2079 18.1073C60.4967 22.3961 65.0188 24.5458 69.7747 24.5464C74.5306 24.5464 79.0527 22.408 83.3421 18.1186L122.878-21.428C127.167-25.7168 129.317-30.2395 129.305-34.9954C129.305-39.7513 127.155-44.2734 122.855-48.5622L83.3521-88.0868C79.0633-92.3756 74.5413-94.5254 69.7854-94.5254C65.0294-94.5254 60.5068-92.3869 56.2186-88.0981L16.6833-48.5509C12.3945-44.2621 10.2448-39.7401 10.256-34.9835C10.2673-30.2276 12.3945-25.5886 16.6946-21.4167ZM30.814-31.7723C29.7543-32.8433 29.2131-33.9144 29.2131-34.8672C29.2131-35.8207 29.743-36.8911 30.814-38.0903L66.5516-73.8285C67.7396-75.0165 68.8212-75.5576 69.7747-75.5576C70.7282-75.5576 71.7985-74.8995 72.8696-73.8398L108.63-38.0903C109.701-37.0193 110.231-35.9483 110.348-34.9954C110.348-34.0426 109.807-32.9716 108.619-31.7723L72.8809 3.96589C71.6929 5.15384 70.6225 5.69499 69.6578 5.69499C68.7043 5.69499 67.6339 5.0482 66.5629 3.97718L30.814-31.7723Z"/>
  </g>
  <g id="Heavy-M" transform="matrix(1 0 0 1 2567.9 1126)">
   <path class="multicolor-0:systemRedColor hierarchical-0:primary SFSymbolsPreviewFF3B30" d="M62.8719-50.4344C63.6375-49.6688 64.5307-49.0308 65.5515-48.648L65.5515-19.938C64.5307-19.5552 63.6375-18.9172 62.8719-18.1516C59.6819-14.9616 59.6819-9.9852 62.8719-6.7952C66.0619-3.6052 71.0383-3.6052 74.2283-6.7952C77.4183-9.9852 77.4183-14.9616 74.2283-18.1516C73.5903-18.7896 72.8247-19.3 72.0591-19.6828L72.0591-48.1376L82.9051-37.2916C81.7567-34.3568 82.2671-30.9116 84.6915-28.6148C87.8815-25.4248 92.8579-25.4248 96.0479-28.6148C99.2379-31.8048 99.2379-36.7812 96.0479-39.9712C93.7511-42.268 90.5611-42.906 87.7539-41.8852L76.1423-53.4968C77.1631-56.304 76.5251-59.494 74.2283-61.7908C72.0591-63.96 68.7415-64.598 65.9343-63.7048L54.0675-75.5716L49.3463-70.8504L61.0855-59.1112C59.9371-56.304 60.4858-52.8538 62.8719-50.4344Z"/>
   <path class="multicolor-1:tintColor hierarchical-1:secondary clearBehindLayer SFSymbolsPreview007AFF" d="M16.4464-22.0644L55.8494 17.3768C59.9664 21.4939 64.2671 23.5715 68.7465 23.5665C73.2259 23.5665 77.5267 21.5221 81.6387 17.4101L121.108-22.0976C125.225-26.2147 127.298-30.5104 127.27-34.9898C127.27-39.4692 125.197-43.7699 121.047-47.887L81.682-87.3232C77.5649-91.4402 73.2642-93.5179 68.7848-93.5179C64.3054-93.5179 60.0097-91.4735 55.8876-87.3564L16.4132-47.8537C12.2961-43.7367 10.2185-39.4359 10.2517-34.9615C10.285-30.4821 12.2961-26.0921 16.4464-22.0644ZM28.5474-31.2351C27.3435-32.4722 26.7083-33.7094 26.7083-34.8672C26.7083-36.02 27.3103-37.2622 28.5474-38.6219L64.9918-75.0613C66.3183-76.3878 67.5937-77.023 68.7465-77.023C69.8994-77.023 71.1415-76.2985 72.3787-75.0946L108.885-38.6219C110.122-37.3848 110.724-36.1476 110.813-34.9898C110.813-33.832 110.178-32.5948 108.851-31.2351L72.4119 5.20432C71.0854 6.53081 69.8433 7.16601 68.6572 7.16601C67.5044 7.16601 66.2622 6.47472 65.0251 5.23757L28.5474-31.2351Z"/>
  </g>
  <g id="Bold-M" transform="matrix(1 0 0 1 2272.32 1126)">
   <path class="multicolor-0:systemRedColor hierarchical-0:primary SFSymbolsPreviewFF3B30" d="M61.7155-50.4344C62.4811-49.6688 63.3743-49.0308 64.3951-48.648L64.3951-19.938C63.3743-19.5552 62.4811-18.9172 61.7155-18.1516C58.5255-14.9616 58.5255-9.9852 61.7155-6.7952C64.9055-3.6052 69.8819-3.6052 73.0719-6.7952C76.2619-9.9852 76.2619-14.9616 73.0719-18.1516C72.4339-18.7896 71.6683-19.3 70.9027-19.6828L70.9027-48.1376L81.7487-37.2916C80.6003-34.3568 81.1107-30.9116 83.5351-28.6148C86.7251-25.4248 91.7015-25.4248 94.8915-28.6148C98.0815-31.8048 98.0815-36.7812 94.8915-39.9712C92.5947-42.268 89.4047-42.906 86.5975-41.8852L74.9859-53.4968C76.0067-56.304 75.3687-59.494 73.0719-61.7908C70.9027-63.96 67.5851-64.598 64.7779-63.7048L52.9111-75.5716L48.1899-70.8504L59.9291-59.1112C58.7807-56.304 59.3602-52.8475 61.7155-50.4344Z"/>
   <path class="multicolor-1:tintColor hierarchical-1:secondary clearBehindLayer SFSymbolsPreview007AFF" d="M16.1688-22.7889L55.4483 16.5597C59.3732 20.4846 63.4263 22.4816 67.5964 22.4703C71.7664 22.4703 75.8196 20.5312 79.7332 16.6176L119.128-22.8467C123.053-26.7716 125.039-30.8134 124.992-34.9835C124.992-39.1536 123.007-43.2067 119.024-47.1316L79.8136-86.4689C75.8887-90.3938 71.8356-92.3908 67.6655-92.3908C63.4954-92.3908 59.4536-90.4516 55.5174-86.5267L16.111-47.0738C12.1861-43.1489 10.1891-39.0957 10.2469-34.937C10.3047-30.7669 12.1861-26.6553 16.1688-22.7889ZM26.0119-30.6341C24.6467-32.0571 23.9063-33.4801 23.9063-34.8672C23.9063-36.243 24.5889-37.6773 26.0119-39.2166L63.247-76.4404C64.7284-77.9218 66.2205-78.6622 67.5964-78.6622C68.9722-78.6622 70.4065-77.8634 71.8295-76.4982L109.169-39.2166C110.592-37.7936 111.274-36.3706 111.333-34.9835C111.333-33.5964 110.593-32.1734 109.111-30.6341L71.8873 6.58968C70.4059 8.07114 68.9716 8.81155 67.5379 8.81155C66.1621 8.81155 64.7278 8.0705 63.3048 6.64751L26.0119-30.6341Z"/>
  </g>
  <g id="Semibold-M" transform="matrix(1 0 0 1 1976.39 1126)">
   <path class="multicolor-0:systemRedColor hierarchical-0:primary SFSymbolsPreviewFF3B30" d="M60.9182-50.4344C61.6838-49.6688 62.577-49.0308 63.5978-48.648L63.5978-19.938C62.577-19.5552 61.6838-18.9172 60.9182-18.1516C57.7282-14.9616 57.7282-9.9852 60.9182-6.7952C64.1082-3.6052 69.0846-3.6052 72.2746-6.7952C75.4646-9.9852 75.4646-14.9616 72.2746-18.1516C71.6366-18.7896 70.871-19.3 70.1054-19.6828L70.1054-48.1376L80.9514-37.2916C79.803-34.3568 80.3134-30.9116 82.7378-28.6148C85.9278-25.4248 90.9042-25.4248 94.0942-28.6148C97.2842-31.8048 97.2842-36.7812 94.0942-39.9712C91.7974-42.268 88.6074-42.906 85.8002-41.8852L74.1886-53.4968C75.2094-56.304 74.5714-59.494 72.2746-61.7908C70.1054-63.96 66.7878-64.598 63.9806-63.7048L52.1138-75.5716L47.3926-70.8504L59.1318-59.1112C57.9834-56.304 58.5842-52.8432 60.9182-50.4344Z"/>
   <path class="multicolor-1:tintColor hierarchical-1:secondary clearBehindLayer SFSymbolsPreview007AFF" d="M15.9774-23.2883L55.1718 15.9964C58.9642 19.7889 62.8466 21.7303 66.8035 21.7146C70.7603 21.7146 74.6427 19.848 78.4195 16.0712L117.763-23.3631C121.556-27.1555 123.482-31.0223 123.423-34.9792C123.423-38.936 121.497-42.8184 117.63-46.6109L78.5256-85.88C74.7332-89.6724 70.8507-91.6138 66.8939-91.6138C62.9371-91.6138 59.0703-89.7472 55.2622-85.9547L15.9027-46.5361C12.1102-42.7437 10.1688-38.8612 10.2436-34.92C10.3183-30.9632 12.1102-27.0436 15.9774-23.2883ZM24.2639-30.2197C22.7876-31.7709 21.9746-33.322 21.9746-34.8672C21.9746-36.3968 22.7128-37.9635 24.2639-39.6266L62.0441-77.3911C63.6324-78.9794 65.2739-79.7923 66.8035-79.7923C68.3331-79.7923 69.8998-78.9422 71.4509-77.4659L109.365-39.6266C110.916-38.0755 111.654-36.5244 111.691-34.9792C111.691-33.4339 110.878-31.8828 109.29-30.2197L71.5257 7.54474C69.9374 9.13304 68.3706 9.94598 66.7663 9.94598C65.2367 9.94598 63.6699 9.17062 62.1188 7.61951L24.2639-30.2197Z"/>
  </g>
  <g id="Medium-M" transform="matrix(1 0 0 1 1680.27 1126)">
   <path class="multicolor-0:systemRedColor hierarchical-0:primary SFSymbolsPreviewFF3B30" d="M60.3137-50.4344C61.0793-49.6688 61.9725-49.0308 62.9933-48.648L62.9933-19.938C61.9725-19.5552 61.0793-18.9172 60.3137-18.1516C57.1237-14.9616 57.1237-9.9852 60.3137-6.7952C63.5037-3.6052 68.4801-3.6052 71.6701-6.7952C74.8601-9.9852 74.8601-14.9616 71.6701-18.1516C71.0321-18.7896 70.2665-19.3 69.5009-19.6828L69.5009-48.1376L80.3469-37.2916C79.1985-34.3568 79.7089-30.9116 82.1333-28.6148C85.3233-25.4248 90.2997-25.4248 93.4897-28.6148C96.6797-31.8048 96.6797-36.7812 93.4897-39.9712C91.1929-42.268 88.0029-42.906 85.1957-41.8852L73.5841-53.4968C74.6049-56.304 73.9669-59.494 71.6701-61.7908C69.5009-63.96 66.1833-64.598 63.3761-63.7048L51.5093-75.5716L46.7881-70.8504L58.5273-59.1112C57.3789-56.304 57.9959-52.8399 60.3137-50.4344Z"/>
   <path class="multicolor-1:tintColor hierarchical-1:secondary clearBehindLayer SFSymbolsPreview007AFF" d="M15.8323-23.667L54.9621 15.5693C58.6541 19.2613 62.4071 21.1606 66.2023 21.1416C69.9974 21.1416 73.7504 19.33 77.4235 15.6569L116.728-23.7546C120.42-27.4466 122.301-31.1807 122.232-34.9759C122.232-38.771 120.352-42.524 116.572-46.216L77.549-85.4334C73.857-89.1254 70.1039-91.0247 66.3088-91.0247C62.5137-91.0247 58.7796-89.213 55.0687-85.521L15.7447-46.1284C12.0527-42.4364 10.1534-38.6834 10.241-34.9072C10.3286-31.1121 12.0527-27.338 15.8323-23.667ZM22.9386-29.9056C21.3779-31.5538 20.51-33.2021 20.51-34.8672C20.51-36.5134 21.2903-38.1806 22.9386-39.9375L61.132-78.112C62.8013-79.7813 64.5561-80.6492 66.2023-80.6492C67.8484-80.6492 69.5156-79.7602 71.1639-78.1996L109.514-39.9375C111.162-38.2892 111.942-36.641 111.963-34.9759C111.963-33.3108 111.095-31.6625 109.426-29.9056L71.2515 8.2689C69.5822 9.93822 67.915 10.8062 66.1812 10.8062C64.5351 10.8062 62.8678 10.0048 61.2196 8.35652L22.9386-29.9056Z"/>
  </g>
  <g id="Regular-M" transform="matrix(1 0 0 1 1384.34 1126)">
   <path class="multicolor-0:systemRedColor hierarchical-0:primary SFSymbolsPreviewFF3B30" d="M59.5252-50.4344C60.2908-49.6688 61.184-49.0308 62.2048-48.648L62.2048-19.938C61.184-19.5552 60.2908-18.9172 59.5252-18.1516C56.3352-14.9616 56.3352-9.9852 59.5252-6.7952C62.7152-3.6052 67.6916-3.6052 70.8816-6.7952C74.0716-9.9852 74.0716-14.9616 70.8816-18.1516C70.2436-18.7896 69.478-19.3 68.7124-19.6828L68.7124-48.1376L79.5584-37.2916C78.41-34.3568 78.9204-30.9116 81.3448-28.6148C84.5348-25.4248 89.5112-25.4248 92.7012-28.6148C95.8912-31.8048 95.8912-36.7812 92.7012-39.9712C90.4044-42.268 87.2144-42.906 84.4072-41.8852L72.7956-53.4968C73.8164-56.304 73.1784-59.494 70.8816-61.7908C68.7124-63.96 65.3948-64.598 62.5876-63.7048L50.7208-75.5716L45.9996-70.8504L57.7388-59.1112C56.5904-56.304 57.2284-52.8356 59.5252-50.4344Z"/>
   <path class="multicolor-1:tintColor hierarchical-1:secondary clearBehindLayer SFSymbolsPreview007AFF" d="M15.643-24.161L54.6886 15.0122C58.2496 18.5732 61.8338 20.4175 65.4181 20.3943C69.0023 20.3943 72.5865 18.6543 76.1243 15.1166L115.379-24.2654C118.94-27.8264 120.761-31.3873 120.68-34.9716C120.68-38.5558 118.858-42.14 115.193-45.701L76.2751-84.851C72.7141-88.412 69.1299-90.2563 65.5457-90.2563C61.9614-90.2563 58.4004-88.5163 54.8162-84.9553L15.5387-45.5966C11.9777-42.0356 10.1334-38.4514 10.2377-34.8904C10.3421-31.3062 11.9777-27.722 15.643-24.161ZM21.2098-29.4958C19.5392-31.2708 18.5995-33.0458 18.5995-34.8672C18.5995-36.6654 19.4348-38.4636 21.2098-40.343L59.9423-79.0522C61.7173-80.8272 63.6199-81.7669 65.4181-81.7669C67.2163-81.7669 69.0145-80.8272 70.7895-79.1566L109.707-40.343C111.482-38.568 112.318-36.793 112.318-34.9716C112.318-33.1501 111.378-31.3751 109.603-29.4958L70.8938 9.21347C69.1188 10.9884 67.3206 11.9281 65.4181 11.9281C63.6199 11.9281 61.8216 11.0928 60.0467 9.31783L21.2098-29.4958Z"/>
  </g>
  <g id="Light-M" transform="matrix(1 0 0 1 1088.59 1126)">
   <path class="multicolor-0:systemRedColor hierarchical-0:primary SFSymbolsPreviewFF3B30" d="M58.5633-50.4344C59.3289-49.6688 60.2221-49.0308 61.2429-48.648L61.2429-19.938C60.2221-19.5552 59.3289-18.9172 58.5633-18.1516C55.3733-14.9616 55.3733-9.9852 58.5633-6.7952C61.7533-3.6052 66.7297-3.6052 69.9197-6.7952C73.1097-9.9852 73.1097-14.9616 69.9197-18.1516C69.2817-18.7896 68.5161-19.3 67.7505-19.6828L67.7505-48.1376L78.5965-37.2916C77.4481-34.3568 77.9585-30.9116 80.3829-28.6148C83.5729-25.4248 88.5493-25.4248 91.7393-28.6148C94.9293-31.8048 94.9293-36.7812 91.7393-39.9712C89.4425-42.268 86.2525-42.906 83.4453-41.8852L71.8337-53.4968C72.8545-56.304 72.2165-59.494 69.9197-61.7908C67.7505-63.96 64.4329-64.598 61.6257-63.7048L49.7589-75.5716L45.0377-70.8504L56.7769-59.1112C55.6285-56.304 56.2665-52.7979 58.5633-50.4344Z"/>
   <path class="multicolor-1:tintColor hierarchical-1:secondary clearBehindLayer SFSymbolsPreview007AFF" d="M15.3217-24.8016L54.3673 14.3716C57.7022 17.7065 61.098 19.4378 64.4939 19.3769C67.8897 19.3769 71.2855 17.7123 74.5595 14.4383L113.738-24.8683C117.073-28.2032 118.744-31.5381 118.738-34.9339C118.738-38.3297 117.068-41.7255 113.666-45.0604L74.748-84.1727C71.4131-87.5076 68.0173-89.2389 64.6215-89.2389C61.2256-89.2389 57.8907-87.5743 54.4949-84.2394L15.255-44.9937C11.9201-41.6588 10.1889-38.263 10.2556-34.9281C10.3223-31.5323 11.9201-28.1365 15.3217-24.8016ZM19.5696-28.8552C17.673-30.8186 16.6579-32.782 16.6579-34.8672C16.6579-36.8915 17.6063-38.9158 19.5696-40.9459L58.4152-79.7305C60.3786-81.6939 62.4696-82.7089 64.4939-82.7089C66.5182-82.7089 68.5425-81.6939 70.5058-79.7972L109.424-40.9459C111.387-38.9825 112.336-37.0191 112.336-34.9339C112.336-32.8487 111.321-30.8853 109.357-28.8552L70.5725 9.92941C68.6091 11.8928 66.5848 12.9078 64.4939 12.9078C62.4696 12.9078 60.4453 11.9595 58.4819 9.99609L19.5696-28.8552Z"/>
  </g>
  <g id="Thin-M" transform="matrix(1 0 0 1 793.149 1126)">
   <path class="multicolor-0:systemRedColor hierarchical-0:primary SFSymbolsPreviewFF3B30" d="M57.2912-50.4344C58.0568-49.6688 58.95-49.0308 59.9708-48.648L59.9708-19.938C58.95-19.5552 58.0568-18.9172 57.2912-18.1516C54.1012-14.9616 54.1012-9.9852 57.2912-6.7952C60.4812-3.6052 65.4576-3.6052 68.6476-6.7952C71.8376-9.9852 71.8376-14.9616 68.6476-18.1516C68.0096-18.7896 67.244-19.3 66.4784-19.6828L66.4784-48.1376L77.3244-37.2916C76.176-34.3568 76.6864-30.9116 79.1108-28.6148C82.3008-25.4248 87.2772-25.4248 90.4672-28.6148C93.6572-31.8048 93.6572-36.7812 90.4672-39.9712C88.1704-42.268 84.9804-42.906 82.1732-41.8852L70.5616-53.4968C71.5824-56.304 70.9444-59.494 68.6476-61.7908C66.4784-63.96 63.1608-64.598 60.3536-63.7048L48.4868-75.5716L43.7656-70.8504L55.5048-59.1112C54.3564-56.304 54.9944-52.748 57.2912-50.4344Z"/>
   <path class="multicolor-1:tintColor hierarchical-1:secondary clearBehindLayer SFSymbolsPreview007AFF" d="M14.8968-25.6488L53.9424 13.5244C56.9783 16.5603 60.1249 18.142 63.2715 18.0313C66.4182 18.0313 69.5648 16.4664 72.4899 13.5413L111.569-25.6656C114.605-28.7015 116.076-31.7374 116.17-34.884C116.17-38.0307 114.699-41.1773 111.646-44.2132L72.7283-83.2757C69.6924-86.3115 66.5458-87.8933 63.3991-87.8933C60.2525-87.8933 57.2166-86.3284 54.07-83.2925L14.8799-44.1964C11.844-41.1605 10.2623-38.0138 10.2791-34.978C10.296-31.8313 11.844-28.6847 14.8968-25.6488ZM17.4004-28.008C15.2047-30.2206 14.09-32.4331 14.09-34.8672C14.09-37.1905 15.1879-39.5138 17.4004-41.7432L56.3955-80.6275C58.608-82.8401 60.9482-83.9548 63.2715-83.9548C65.5948-83.9548 67.9182-82.8401 70.1307-80.6444L109.049-41.7432C111.261-39.5307 112.359-37.3181 112.359-34.884C112.359-32.45 111.244-30.2374 109.032-28.008L70.1476 10.8763C67.935 13.0889 65.6117 14.2036 63.2715 14.2036C60.9482 14.2036 58.6249 13.1057 56.4123 10.8931L17.4004-28.008Z"/>
  </g>
  <g id="Ultralight-M" transform="matrix(1 0 0 1 497.09 1126)">
   <path class="multicolor-0:systemRedColor hierarchical-0:primary SFSymbolsPreviewFF3B30" d="M56.6396-50.4344C57.4052-49.6688 58.2984-49.0308 59.3192-48.648L59.3192-19.938C58.2984-19.5552 57.4052-18.9172 56.6396-18.1516C53.4496-14.9616 53.4496-9.9852 56.6396-6.7952C59.8296-3.6052 64.806-3.6052 67.996-6.7952C71.186-9.9852 71.186-14.9616 67.996-18.1516C67.358-18.7896 66.5924-19.3 65.8268-19.6828L65.8268-48.1376L76.6728-37.2916C75.5244-34.3568 76.0348-30.9116 78.4592-28.6148C81.6492-25.4248 86.6256-25.4248 89.8156-28.6148C93.0056-31.8048 93.0056-36.7812 89.8156-39.9712C87.5188-42.268 84.3288-42.906 81.5216-41.8852L69.91-53.4968C70.9308-56.304 70.2928-59.494 67.996-61.7908C65.8268-63.96 62.5092-64.598 59.702-63.7048L47.8352-75.5716L43.114-70.8504L54.8532-59.1112C53.7048-56.304 54.3428-52.7225 56.6396-50.4344Z"/>
   <path class="multicolor-1:tintColor hierarchical-1:secondary clearBehindLayer SFSymbolsPreview007AFF" d="M14.6791-26.0827L53.7247 13.0905C56.6074 15.9732 59.6264 17.4784 62.6455 17.3421C65.6645 17.3421 68.6835 15.8282 71.4299 13.0818L110.458-26.0741C113.341-28.9568 114.71-31.8395 114.855-34.8585C114.855-37.8775 113.486-40.8965 110.612-43.7793L71.6938-82.8162C68.8111-85.6989 65.7921-87.2041 62.7731-87.2041C59.754-87.2041 56.8713-85.6902 53.8523-82.8075L14.6878-43.7879C11.8051-40.9052 10.2999-37.8862 10.2912-35.0035C10.2825-31.9845 11.8051-28.9655 14.6791-26.0827ZM16.2894-27.5741C13.9405-29.9143 12.7747-32.2544 12.7747-34.8672C12.7747-37.3437 13.9492-39.8201 16.2894-42.1517L55.361-81.087C57.7012-83.4272 60.169-84.593 62.6455-84.593C65.1219-84.593 67.5984-83.4272 69.9386-81.0783L108.857-42.1517C111.197-39.8115 112.371-37.4713 112.371-34.8585C112.371-32.2458 111.205-29.9056 108.865-27.5741L69.9299 11.3613C67.5897 13.7015 65.1132 14.8672 62.6455 14.8672C60.169 14.8672 57.6925 13.6928 55.3523 11.3526L16.2894-27.5741Z"/>
  </g>
  <g id="Black-S" transform="matrix(1 0 0 1 2878.45 696)">
   <path class="multicolor-0:systemRedColor hierarchical-0:primary SFSymbolsPreviewFF3B30" d="M50.34-47.15C50.94-46.55 51.64-46.05 52.44-45.75L52.44-23.25C51.64-22.95 50.94-22.45 50.34-21.85C47.84-19.35 47.84-15.45 50.34-12.95C52.84-10.45 56.74-10.45 59.24-12.95C61.74-15.45 61.74-19.35 59.24-21.85C58.74-22.35 58.14-22.75 57.54-23.05L57.54-45.35L66.04-36.85C65.14-34.55 65.54-31.85 67.44-30.05C69.94-27.55 73.84-27.55 76.34-30.05C78.84-32.55 78.84-36.45 76.34-38.95C74.54-40.75 72.04-41.25 69.84-40.45L60.74-49.55C61.54-51.75 61.04-54.25 59.24-56.05C57.54-57.75 54.94-58.25 52.74-57.55L43.44-66.85L39.74-63.15L48.94-53.95C48.04-51.75 48.44-49.05 50.34-47.15Z"/>
   <path class="multicolor-1:tintColor hierarchical-1:secondary clearBehindLayer SFSymbolsPreview007AFF" d="M13.14-24.25L44.14 6.75C47.54 10.15 51.14 11.85 54.94 11.85C58.74 11.85 62.34 10.15 65.74 6.75L96.74-24.25C100.14-27.65 101.84-31.25 101.84-35.05C101.84-38.85 100.14-42.45 96.74-45.85L65.74-76.85C62.34-80.25 58.74-81.95 54.94-81.95C51.14-81.95 47.54-80.25 44.14-76.85L13.14-45.85C9.74-42.45 8.04-38.85 8.04-35.05C8.04-31.25 9.74-27.55 13.14-24.25ZM24.74-32.65C23.94-33.45 23.54-34.25 23.54-34.95C23.54-35.65 23.94-36.45 24.74-37.35L52.54-65.15C53.44-66.05 54.24-66.45 54.94-66.45C55.64-66.45 56.44-65.95 57.24-65.15L85.04-37.35C85.84-36.55 86.24-35.75 86.34-35.05C86.34-34.35 85.94-33.55 85.04-32.65L57.24-4.85C56.34-3.95 55.54-3.55 54.84-3.55C54.14-3.55 53.34-4.05 52.54-4.85L24.74-32.65Z"/>
  </g>
  <g id="Heavy-S" transform="matrix(1 0 0 1 2582.48 696)">
   <path class="multicolor-0:systemRedColor hierarchical-0:primary SFSymbolsPreviewFF3B30" d="M49.5788-47.15C50.1788-46.55 50.8788-46.05 51.6788-45.75L51.6788-23.25C50.8788-22.95 50.1788-22.45 49.5788-21.85C47.0788-19.35 47.0788-15.45 49.5788-12.95C52.0788-10.45 55.9788-10.45 58.4788-12.95C60.9788-15.45 60.9788-19.35 58.4788-21.85C57.9788-22.35 57.3788-22.75 56.7788-23.05L56.7788-45.35L65.2788-36.85C64.3788-34.55 64.7788-31.85 66.6788-30.05C69.1788-27.55 73.0788-27.55 75.5788-30.05C78.0788-32.55 78.0788-36.45 75.5788-38.95C73.7788-40.75 71.2788-41.25 69.0788-40.45L59.9788-49.55C60.7788-51.75 60.2788-54.25 58.4788-56.05C56.7788-57.75 54.1788-58.25 51.9788-57.55L42.6788-66.85L38.9788-63.15L48.1788-53.95C47.2788-51.75 47.7024-49.05 49.5788-47.15Z"/>
   <path class="multicolor-1:tintColor hierarchical-1:secondary clearBehindLayer SFSymbolsPreview007AFF" d="M12.9688-24.722L43.8744 6.20715C47.1564 9.48914 50.5912 11.1419 54.1788 11.1419C57.7663 11.1419 61.2011 9.51274 64.4831 6.23075L95.4359-24.7456C98.7179-28.0276 100.371-31.4624 100.347-35.05C100.347-38.6376 98.6943-42.0724 95.3887-45.3544L64.5067-76.2835C61.2247-79.5655 57.7899-81.2183 54.2024-81.2183C50.6148-81.2183 47.18-79.5891 43.898-76.3072L12.9452-45.3308C9.66322-42.0488 8.01043-38.614 8.03403-35.0264C8.05763-31.4388 9.66322-27.9276 12.9688-24.722ZM23.0111-32.2724C22.1167-33.1904 21.6459-34.1084 21.6459-34.95C21.6459-35.7916 22.0931-36.7096 23.0111-37.7276L51.4011-66.1177C52.3955-67.1121 53.3371-67.5829 54.1788-67.5829C55.0204-67.5829 55.9384-67.0357 56.8564-66.1413L85.2937-37.7276C86.2117-36.8096 86.6589-35.8916 86.7353-35.05C86.7353-34.2084 86.2645-33.2904 85.27-32.2724L56.88-3.88231C55.8856-2.88791 54.9676-2.4171 54.1024-2.4171C53.2607-2.4171 52.3427-2.9407 51.4247-3.85871L23.0111-32.2724Z"/>
  </g>
  <g id="Bold-S" transform="matrix(1 0 0 1 2286.6 696)">
   <path class="multicolor-0:systemRedColor hierarchical-0:primary SFSymbolsPreviewFF3B30" d="M48.7273-47.15C49.3273-46.55 50.0273-46.05 50.8273-45.75L50.8273-23.25C50.0273-22.95 49.3273-22.45 48.7273-21.85C46.2273-19.35 46.2273-15.45 48.7273-12.95C51.2273-10.45 55.1273-10.45 57.6273-12.95C60.1273-15.45 60.1273-19.35 57.6273-21.85C57.1273-22.35 56.5273-22.75 55.9273-23.05L55.9273-45.35L64.4273-36.85C63.5273-34.55 63.9273-31.85 65.8273-30.05C68.3273-27.55 72.2273-27.55 74.7273-30.05C77.2273-32.55 77.2273-36.45 74.7273-38.95C72.9273-40.75 70.4273-41.25 68.2273-40.45L59.1273-49.55C59.9273-51.75 59.4273-54.25 57.6273-56.05C55.9273-57.75 53.3273-58.25 51.1273-57.55L41.8273-66.85L38.1273-63.15L47.3273-53.95C46.4273-51.75 46.8773-49.05 48.7273-47.15Z"/>
   <path class="multicolor-1:tintColor hierarchical-1:secondary clearBehindLayer SFSymbolsPreview007AFF" d="M12.7773-25.25L43.5773 5.6C46.7273 8.75 49.9773 10.35 53.3273 10.35C56.6773 10.35 59.9273 8.8 63.0773 5.65L93.9773-25.3C97.1273-28.45 98.7273-31.7 98.6773-35.05C98.6773-38.4 97.0773-41.65 93.8773-44.8L63.1273-75.65C59.9773-78.8 56.7273-80.4 53.3773-80.4C50.0273-80.4 46.7773-78.85 43.6273-75.7L12.7273-44.75C9.57735-41.6 7.97735-38.35 8.02735-35C8.07735-31.65 9.57735-28.35 12.7773-25.25ZM21.0773-31.85C20.0773-32.9 19.5273-33.95 19.5273-34.95C19.5273-35.95 20.0273-37 21.0773-38.15L50.1273-67.2C51.2273-68.3 52.3273-68.85 53.3273-68.85C54.3273-68.85 55.3773-68.25 56.4273-67.25L85.5773-38.15C86.6273-37.1 87.1273-36.05 87.1773-35.05C87.1773-34.05 86.6273-33 85.5273-31.85L56.4773-2.8C55.3773-1.7 54.3273-1.15 53.2773-1.15C52.2773-1.15 51.2273-1.7 50.1773-2.75L21.0773-31.85Z"/>
  </g>
  <g id="Semibold-S" transform="matrix(1 0 0 1 1990.46 696)">
   <path class="multicolor-0:systemRedColor hierarchical-0:primary SFSymbolsPreviewFF3B30" d="M48.1403-47.15C48.7403-46.55 49.4403-46.05 50.2403-45.75L50.2403-23.25C49.4403-22.95 48.7403-22.45 48.1403-21.85C45.6403-19.35 45.6403-15.45 48.1403-12.95C50.6403-10.45 54.5403-10.45 57.0403-12.95C59.5403-15.45 59.5403-19.35 57.0403-21.85C56.5403-22.35 55.9403-22.75 55.3403-23.05L55.3403-45.35L63.8403-36.85C62.9403-34.55 63.3403-31.85 65.2403-30.05C67.7403-27.55 71.6403-27.55 74.1403-30.05C76.6403-32.55 76.6403-36.45 74.1403-38.95C72.3403-40.75 69.8403-41.25 67.6403-40.45L58.5403-49.55C59.3403-51.75 58.8403-54.25 57.0403-56.05C55.3403-57.75 52.7403-58.25 50.5403-57.55L41.2403-66.85L37.5403-63.15L46.7403-53.95C45.8403-51.75 46.3085-49.05 48.1403-47.15Z"/>
   <path class="multicolor-1:tintColor hierarchical-1:secondary clearBehindLayer SFSymbolsPreview007AFF" d="M12.6453-25.614L43.3725 5.1814C46.4315 8.2404 49.5541 9.804 52.7403 9.804C55.9265 9.804 59.0491 8.3086 62.1081 5.2496L92.9717-25.6822C96.0307-28.7412 97.5943-31.8638 97.5261-35.05C97.5261-38.2362 95.9625-41.3588 92.8353-44.4178L62.1763-75.2132C59.1173-78.2722 55.9947-79.8358 52.8085-79.8358C49.6223-79.8358 46.4997-78.3404 43.4407-75.2814L12.5771-44.3496C9.51814-41.2906 7.95454-38.168 8.02274-34.9818C8.09094-31.7956 9.51814-28.6412 12.6453-25.614ZM19.7441-31.5588C18.6713-32.6998 18.0667-33.8408 18.0667-34.95C18.0667-36.0592 18.6031-37.2002 19.7441-38.4412L49.2491-67.9462C50.4219-69.119 51.6311-69.7236 52.7403-69.7236C53.8495-69.7236 54.9905-69.0872 56.1315-68.0144L85.7729-38.4412C86.9139-37.3002 87.4503-36.1592 87.4821-35.05C87.4821-33.9408 86.8775-32.7998 85.7047-31.5588L56.1997-2.0538C55.0269-0.881 53.8859-0.2764 52.7085-0.2764C51.5993-0.2764 50.4583-0.8446 49.3173-1.9856L19.7441-31.5588Z"/>
  </g>
  <g id="Medium-S" transform="matrix(1 0 0 1 1694.18 696)">
   <path class="multicolor-0:systemRedColor hierarchical-0:primary SFSymbolsPreviewFF3B30" d="M47.6952-47.15C48.2952-46.55 48.9952-46.05 49.7952-45.75L49.7952-23.25C48.9952-22.95 48.2952-22.45 47.6952-21.85C45.1952-19.35 45.1952-15.45 47.6952-12.95C50.1952-10.45 54.0952-10.45 56.5952-12.95C59.0952-15.45 59.0952-19.35 56.5952-21.85C56.0952-22.35 55.4952-22.75 54.8952-23.05L54.8952-45.35L63.3952-36.85C62.4952-34.55 62.8952-31.85 64.7952-30.05C67.2952-27.55 71.1952-27.55 73.6952-30.05C76.1952-32.55 76.1952-36.45 73.6952-38.95C71.8952-40.75 69.3952-41.25 67.1952-40.45L58.0952-49.55C58.8952-51.75 58.3952-54.25 56.5952-56.05C54.8952-57.75 52.2952-58.25 50.0952-57.55L40.7952-66.85L37.0952-63.15L46.2952-53.95C45.3952-51.75 45.8772-49.05 47.6952-47.15Z"/>
   <path class="multicolor-1:tintColor hierarchical-1:secondary clearBehindLayer SFSymbolsPreview007AFF" d="M12.5452-25.89L43.2172 4.864C46.2072 7.854 49.2332 9.39 52.2952 9.39C55.3572 9.39 58.3832 7.936 61.3732 4.946L92.2092-25.972C95.1992-28.962 96.7352-31.988 96.6532-35.05C96.6532-38.112 95.1172-41.138 92.0452-44.128L61.4552-74.882C58.4652-77.872 55.4392-79.408 52.3772-79.408C49.3152-79.408 46.2892-77.954 43.2992-74.964L12.4632-44.046C9.47325-41.056 7.93725-38.03 8.01925-34.968C8.10125-31.906 9.47325-28.862 12.5452-25.89ZM18.7332-31.338C17.6052-32.548 16.9592-33.758 16.9592-34.95C16.9592-36.142 17.5232-37.352 18.7332-38.662L48.5832-68.512C49.8112-69.74 51.1032-70.386 52.2952-70.386C53.4872-70.386 54.6972-69.722 55.9072-68.594L85.9212-38.662C87.1312-37.452 87.6952-36.242 87.7132-35.05C87.7132-33.858 87.0672-32.648 85.8392-31.338L55.9892-1.488C54.7612-0.26 53.5512 0.386 52.2772 0.386C51.0852 0.386 49.8752-0.196 48.6652-1.406L18.7332-31.338Z"/>
  </g>
  <g id="Regular-S" transform="matrix(1 0 0 1 1398.04 696)">
   <path class="multicolor-0:systemRedColor hierarchical-0:primary SFSymbolsPreviewFF3B30" d="M47.1147-47.15C47.7147-46.55 48.4147-46.05 49.2147-45.75L49.2147-23.25C48.4147-22.95 47.7147-22.45 47.1147-21.85C44.6147-19.35 44.6147-15.45 47.1147-12.95C49.6147-10.45 53.5147-10.45 56.0147-12.95C58.5147-15.45 58.5147-19.35 56.0147-21.85C55.5147-22.35 54.9147-22.75 54.3147-23.05L54.3147-45.35L62.8147-36.85C61.9147-34.55 62.3147-31.85 64.2147-30.05C66.7147-27.55 70.6147-27.55 73.1147-30.05C75.6147-32.55 75.6147-36.45 73.1147-38.95C71.3147-40.75 68.8147-41.25 66.6147-40.45L57.5147-49.55C58.3147-51.75 57.8147-54.25 56.0147-56.05C54.3147-57.75 51.7147-58.25 49.5147-57.55L40.2147-66.85L36.5147-63.15L45.7147-53.95C44.8147-51.75 45.3147-49.05 47.1147-47.15Z"/>
   <path class="multicolor-1:tintColor hierarchical-1:secondary clearBehindLayer SFSymbolsPreview007AFF" d="M12.4147-26.25L43.0147 4.45C45.9147 7.35 48.8147 8.85 51.7147 8.85C54.6147 8.85 57.5147 7.45 60.4147 4.55L91.2147-26.35C94.1147-29.25 95.6147-32.15 95.5147-35.05C95.5147-37.95 94.0147-40.85 91.0147-43.75L60.5147-74.45C57.6147-77.35 54.7147-78.85 51.8147-78.85C48.9147-78.85 46.0147-77.45 43.1147-74.55L12.3147-43.65C9.41469-40.75 7.91469-37.85 8.01469-34.95C8.11469-32.05 9.41469-29.15 12.4147-26.25ZM17.4147-31.05C16.2147-32.35 15.5147-33.65 15.5147-34.95C15.5147-36.25 16.1147-37.55 17.4147-38.95L47.7147-69.25C49.0147-70.55 50.4147-71.25 51.7147-71.25C53.0147-71.25 54.3147-70.55 55.6147-69.35L86.1147-38.95C87.4147-37.65 88.0147-36.35 88.0147-35.05C88.0147-33.75 87.3147-32.45 86.0147-31.05L55.7147-0.75C54.4147 0.55 53.1147 1.25 51.7147 1.25C50.4147 1.25 49.1147 0.65 47.8147-0.65L17.4147-31.05Z"/>
  </g>
  <g id="Light-S" transform="matrix(1 0 0 1 1102.18 696)">
   <path class="multicolor-0:systemRedColor hierarchical-0:primary SFSymbolsPreviewFF3B30" d="M46.2638-47.15C46.8638-46.55 47.5638-46.05 48.3638-45.75L48.3638-23.25C47.5638-22.95 46.8638-22.45 46.2638-21.85C43.7638-19.35 43.7638-15.45 46.2638-12.95C48.7638-10.45 52.6638-10.45 55.1638-12.95C57.6638-15.45 57.6638-19.35 55.1638-21.85C54.6638-22.35 54.0638-22.75 53.4638-23.05L53.4638-45.35L61.9638-36.85C61.0638-34.55 61.4638-31.85 63.3638-30.05C65.8638-27.55 69.7638-27.55 72.2638-30.05C74.7638-32.55 74.7638-36.45 72.2638-38.95C70.4638-40.75 67.9638-41.25 65.7638-40.45L56.6638-49.55C57.4638-51.75 56.9638-54.25 55.1638-56.05C53.4638-57.75 50.8638-58.25 48.6638-57.55L39.3638-66.85L35.6638-63.15L44.8638-53.95C43.9638-51.75 44.4638-49.0167 46.2638-47.15Z"/>
   <path class="multicolor-1:tintColor hierarchical-1:secondary clearBehindLayer SFSymbolsPreview007AFF" d="M12.1305-26.8167L42.7305 3.88333C45.4305 6.58333 48.1638 7.98333 50.8971 7.95C53.6305 7.95 56.3638 6.61667 59.0305 3.95L89.7638-26.8833C92.4638-29.5833 93.8305-32.2833 93.7971-35.0167C93.7971-37.75 92.4305-40.4833 89.6638-43.1833L59.1638-73.85C56.4638-76.55 53.7305-77.95 50.9971-77.95C48.2638-77.95 45.5638-76.6167 42.8305-73.9167L12.0638-43.1167C9.3638-40.4167 7.9638-37.6833 8.03046-34.9833C8.09713-32.25 9.3638-29.5167 12.1305-26.8167ZM15.9638-30.4833C14.5638-31.95 13.7971-33.4167 13.7971-34.95C13.7971-36.45 14.4971-37.95 15.9638-39.4833L46.3638-69.85C47.8305-71.3167 49.3971-72.0833 50.8971-72.0833C52.3971-72.0833 53.8971-71.3167 55.3638-69.9167L85.8638-39.4833C87.3305-38.0167 88.0305-36.55 88.0305-35.0167C88.0305-33.4833 87.2638-32.0167 85.7971-30.4833L55.4305-0.116667C53.9638 1.35 52.4638 2.11667 50.8971 2.11667C49.3971 2.11667 47.8971 1.41667 46.4305-0.05L15.9638-30.4833Z"/>
  </g>
  <g id="Thin-S" transform="matrix(1 0 0 1 806.595 696)">
   <path class="multicolor-0:systemRedColor hierarchical-0:primary SFSymbolsPreviewFF3B30" d="M45.1384-47.15C45.7384-46.55 46.4384-46.05 47.2384-45.75L47.2384-23.25C46.4384-22.95 45.7384-22.45 45.1384-21.85C42.6384-19.35 42.6384-15.45 45.1384-12.95C47.6384-10.45 51.5384-10.45 54.0384-12.95C56.5384-15.45 56.5384-19.35 54.0384-21.85C53.5384-22.35 52.9384-22.75 52.3384-23.05L52.3384-45.35L60.8384-36.85C59.9384-34.55 60.3384-31.85 62.2384-30.05C64.7384-27.55 68.6384-27.55 71.1384-30.05C73.6384-32.55 73.6384-36.45 71.1384-38.95C69.3384-40.75 66.8384-41.25 64.6384-40.45L55.5384-49.55C56.3384-51.75 55.8384-54.25 54.0384-56.05C52.3384-57.75 49.7384-58.25 47.5384-57.55L38.2384-66.85L34.5384-63.15L43.7384-53.95C42.8384-51.75 43.3384-48.9726 45.1384-47.15Z"/>
   <path class="multicolor-1:tintColor hierarchical-1:secondary clearBehindLayer SFSymbolsPreview007AFF" d="M11.7545-27.5661L42.3545 3.13387C44.79 5.56935 47.3029 6.8371 49.8158 6.75968C52.3287 6.75968 54.8416 5.51452 57.1997 3.15645L87.8449-27.5887C90.2804-30.0242 91.4707-32.4597 91.5255-34.9726C91.5255-37.4855 90.3352-39.9984 87.8771-42.4339L57.3771-73.0565C54.9416-75.4919 52.4287-76.7597 49.9158-76.7597C47.4029-76.7597 44.9674-75.5145 42.4545-73.079L11.732-42.4113C9.29648-39.9758 8.02874-37.4629 8.05132-35.0274C8.0739-32.5145 9.29648-30.0016 11.7545-27.5661ZM14.0449-29.7339C12.3804-31.421 11.5255-33.1081 11.5255-34.95C11.5255-36.7145 12.3578-38.479 14.0449-40.1887L44.5771-70.6435C46.2642-72.3306 48.0513-73.1855 49.8158-73.1855C51.5804-73.1855 53.3449-72.3306 55.032-70.6661L85.532-40.1887C87.2191-38.5016 88.0513-36.8145 88.0513-34.9726C88.0513-33.1306 87.1965-31.4435 85.5094-29.7339L55.0545 0.720968C53.3674 2.40806 51.6029 3.2629 49.8158 3.2629C48.0513 3.2629 46.2868 2.43065 44.5997 0.743548L14.0449-29.7339Z"/>
  </g>
  <g id="Ultralight-S" transform="matrix(1 0 0 1 510.461 696)">
   <path class="multicolor-0:systemRedColor hierarchical-0:primary SFSymbolsPreviewFF3B30" d="M44.562-47.15C45.162-46.55 45.862-46.05 46.662-45.75L46.662-23.25C45.862-22.95 45.162-22.45 44.562-21.85C42.062-19.35 42.062-15.45 44.562-12.95C47.062-10.45 50.962-10.45 53.462-12.95C55.962-15.45 55.962-19.35 53.462-21.85C52.962-22.35 52.362-22.75 51.762-23.05L51.762-45.35L60.262-36.85C59.362-34.55 59.762-31.85 61.662-30.05C64.162-27.55 68.062-27.55 70.562-30.05C73.062-32.55 73.062-36.45 70.562-38.95C68.762-40.75 66.262-41.25 64.062-40.45L54.962-49.55C55.762-51.75 55.262-54.25 53.462-56.05C51.762-57.75 49.162-58.25 46.962-57.55L37.662-66.85L33.962-63.15L43.162-53.95C42.262-51.75 42.762-48.95 44.562-47.15Z"/>
   <path class="multicolor-1:tintColor hierarchical-1:secondary clearBehindLayer SFSymbolsPreview007AFF" d="M11.562-27.95L42.162 2.75C44.462 5.05 46.862 6.25 49.262 6.15C51.662 6.15 54.062 4.95 56.262 2.75L86.862-27.95C89.162-30.25 90.262-32.55 90.362-34.95C90.362-37.35 89.262-39.75 86.962-42.05L56.462-72.65C54.162-74.95 51.762-76.15 49.362-76.15C46.962-76.15 44.662-74.95 42.262-72.65L11.562-42.05C9.262-39.75 8.062-37.35 8.062-35.05C8.062-32.65 9.262-30.25 11.562-27.95ZM13.062-29.35C11.262-31.15 10.362-32.95 10.362-34.95C10.362-36.85 11.262-38.75 13.062-40.55L43.662-71.05C45.462-72.85 47.362-73.75 49.262-73.75C51.162-73.75 53.062-72.85 54.862-71.05L85.362-40.55C87.162-38.75 88.062-36.95 88.062-34.95C88.062-32.95 87.162-31.15 85.362-29.35L54.862 1.15C53.062 2.95 51.162 3.85 49.262 3.85C47.362 3.85 45.462 2.95 43.662 1.15L13.062-29.35Z"/>
  </g>
 </g>
</svg>
