<?xml version="1.0" encoding="UTF-8"?>
<!--Generator: Apple Native CoreSVG 149-->
<!DOCTYPE svg
PUBLIC "-//W3C//DTD SVG 1.1//EN"
       "http://www.w3.org/Graphics/SVG/1.1/DTD/svg11.dtd">
<svg version="1.1" xmlns="http://www.w3.org/2000/svg" xmlns:xlink="http://www.w3.org/1999/xlink" width="3300" height="2200">
 <!--glyph: "", point size: 100.0, font version: "17.0d9e1", template writer version: "59"-->
 <style>.multicolor-0:systemRedColor {fill:#FF3B30;opacity:1.0}

.SFSymbolsPreviewFF3B30 {fill:#FF3B30;opacity:1.0}
</style>
 <g id="Notes">
  <rect height="2200" id="artboard" style="fill:white;opacity:1" width="3300" x="0" y="0"/>
  <line style="fill:none;stroke:black;opacity:1;stroke-width:0.5;" x1="263" x2="3036" y1="292" y2="292"/>
  <text style="stroke:none;fill:black;font-family:sans-serif;font-size:13;font-weight:bold;" transform="matrix(1 0 0 1 263 322)">Weight/Scale Variations</text>
  <text style="stroke:none;fill:black;font-family:sans-serif;font-size:13;text-anchor:middle;" transform="matrix(1 0 0 1 559.711 322)">Ultralight</text>
  <text style="stroke:none;fill:black;font-family:sans-serif;font-size:13;text-anchor:middle;" transform="matrix(1 0 0 1 856.422 322)">Thin</text>
  <text style="stroke:none;fill:black;font-family:sans-serif;font-size:13;text-anchor:middle;" transform="matrix(1 0 0 1 1153.13 322)">Light</text>
  <text style="stroke:none;fill:black;font-family:sans-serif;font-size:13;text-anchor:middle;" transform="matrix(1 0 0 1 1449.84 322)">Regular</text>
  <text style="stroke:none;fill:black;font-family:sans-serif;font-size:13;text-anchor:middle;" transform="matrix(1 0 0 1 1746.56 322)">Medium</text>
  <text style="stroke:none;fill:black;font-family:sans-serif;font-size:13;text-anchor:middle;" transform="matrix(1 0 0 1 2043.27 322)">Semibold</text>
  <text style="stroke:none;fill:black;font-family:sans-serif;font-size:13;text-anchor:middle;" transform="matrix(1 0 0 1 2339.98 322)">Bold</text>
  <text style="stroke:none;fill:black;font-family:sans-serif;font-size:13;text-anchor:middle;" transform="matrix(1 0 0 1 2636.69 322)">Heavy</text>
  <text style="stroke:none;fill:black;font-family:sans-serif;font-size:13;text-anchor:middle;" transform="matrix(1 0 0 1 2933.4 322)">Black</text>
  <line style="fill:none;stroke:black;opacity:1;stroke-width:0.5;" x1="263" x2="3036" y1="1903" y2="1903"/>
  <g transform="matrix(1 0 0 1 263 1933)">
   <path d="M9.24805 0.830078Q10.8691 0.830078 12.2949 0.214844Q13.7207-0.400391 14.8096-1.49414Q15.8984-2.58789 16.5186-4.01367Q17.1387-5.43945 17.1387-7.05078Q17.1387-8.66211 16.5186-10.0879Q15.8984-11.5137 14.8047-12.6074Q13.7109-13.7012 12.2852-14.3164Q10.8594-14.9316 9.23828-14.9316Q7.62695-14.9316 6.20117-14.3164Q4.77539-13.7012 3.69141-12.6074Q2.60742-11.5137 1.9873-10.0879Q1.36719-8.66211 1.36719-7.05078Q1.36719-5.43945 1.9873-4.01367Q2.60742-2.58789 3.69629-1.49414Q4.78516-0.400391 6.21094 0.214844Q7.63672 0.830078 9.24805 0.830078ZM9.24805-0.654297Q7.91992-0.654297 6.7627-1.14746Q5.60547-1.64062 4.73145-2.51953Q3.85742-3.39844 3.36426-4.56055Q2.87109-5.72266 2.87109-7.05078Q2.87109-8.37891 3.35938-9.54102Q3.84766-10.7031 4.72168-11.582Q5.5957-12.4609 6.75293-12.9541Q7.91016-13.4473 9.23828-13.4473Q10.5762-13.4473 11.7334-12.9541Q12.8906-12.4609 13.7695-11.582Q14.6484-10.7031 15.1465-9.54102Q15.6445-8.37891 15.6445-7.05078Q15.6445-5.72266 15.1514-4.56055Q14.6582-3.39844 13.7842-2.51953Q12.9102-1.64062 11.748-1.14746Q10.5859-0.654297 9.24805-0.654297ZM5.83984-7.04102Q5.83984-6.71875 6.04492-6.51855Q6.25-6.31836 6.5918-6.31836L8.50586-6.31836L8.50586-4.39453Q8.50586-4.0625 8.70605-3.85742Q8.90625-3.65234 9.22852-3.65234Q9.56055-3.65234 9.76562-3.85742Q9.9707-4.0625 9.9707-4.39453L9.9707-6.31836L11.8945-6.31836Q12.2266-6.31836 12.4316-6.51855Q12.6367-6.71875 12.6367-7.04102Q12.6367-7.37305 12.4316-7.57812Q12.2266-7.7832 11.8945-7.7832L9.9707-7.7832L9.9707-9.69727Q9.9707-10.0391 9.76562-10.2441Q9.56055-10.4492 9.22852-10.4492Q8.90625-10.4492 8.70605-10.2441Q8.50586-10.0391 8.50586-9.69727L8.50586-7.7832L6.5918-7.7832Q6.25-7.7832 6.04492-7.57812Q5.83984-7.37305 5.83984-7.04102Z"/>
  </g>
  <g transform="matrix(1 0 0 1 281.867 1933)">
   <path d="M11.709 2.91016Q13.75 2.91016 15.5518 2.12891Q17.3535 1.34766 18.7305-0.0292969Q20.1074-1.40625 20.8887-3.20801Q21.6699-5.00977 21.6699-7.05078Q21.6699-9.0918 20.8887-10.8936Q20.1074-12.6953 18.7305-14.0723Q17.3535-15.4492 15.5469-16.2305Q13.7402-17.0117 11.6992-17.0117Q9.6582-17.0117 7.85645-16.2305Q6.05469-15.4492 4.68262-14.0723Q3.31055-12.6953 2.5293-10.8936Q1.74805-9.0918 1.74805-7.05078Q1.74805-5.00977 2.5293-3.20801Q3.31055-1.40625 4.6875-0.0292969Q6.06445 1.34766 7.86621 2.12891Q9.66797 2.91016 11.709 2.91016ZM11.709 1.25Q9.98047 1.25 8.47656 0.605469Q6.97266-0.0390625 5.83496-1.17676Q4.69727-2.31445 4.05762-3.81836Q3.41797-5.32227 3.41797-7.05078Q3.41797-8.7793 4.05762-10.2832Q4.69727-11.7871 5.83008-12.9297Q6.96289-14.0723 8.4668-14.7119Q9.9707-15.3516 11.6992-15.3516Q13.4277-15.3516 14.9316-14.7119Q16.4355-14.0723 17.5781-12.9297Q18.7207-11.7871 19.3652-10.2832Q20.0098-8.7793 20.0098-7.05078Q20.0098-5.32227 19.3701-3.81836Q18.7305-2.31445 17.5928-1.17676Q16.4551-0.0390625 14.9463 0.605469Q13.4375 1.25 11.709 1.25ZM7.39258-7.04102Q7.39258-6.68945 7.62695-6.46484Q7.86133-6.24023 8.23242-6.24023L10.8789-6.24023L10.8789-3.57422Q10.8789-3.21289 11.1035-2.9834Q11.3281-2.75391 11.6797-2.75391Q12.0508-2.75391 12.2852-2.9834Q12.5195-3.21289 12.5195-3.57422L12.5195-6.24023L15.1758-6.24023Q15.5371-6.24023 15.7715-6.46484Q16.0059-6.68945 16.0059-7.04102Q16.0059-7.41211 15.7715-7.6416Q15.5371-7.87109 15.1758-7.87109L12.5195-7.87109L12.5195-10.5176Q12.5195-10.8984 12.2852-11.1279Q12.0508-11.3574 11.6797-11.3574Q11.3281-11.3574 11.1035-11.1279Q10.8789-10.8984 10.8789-10.5176L10.8789-7.87109L8.23242-7.87109Q7.85156-7.87109 7.62207-7.6416Q7.39258-7.41211 7.39258-7.04102Z"/>
  </g>
  <g transform="matrix(1 0 0 1 305.646 1933)">
   <path d="M14.9707 5.66406Q17.0605 5.66406 18.96 5.01465Q20.8594 4.36523 22.4512 3.19336Q24.043 2.02148 25.2197 0.429688Q26.3965-1.16211 27.0459-3.06641Q27.6953-4.9707 27.6953-7.05078Q27.6953-9.14062 27.0459-11.04Q26.3965-12.9395 25.2197-14.5312Q24.043-16.123 22.4512-17.2998Q20.8594-18.4766 18.9551-19.126Q17.0508-19.7754 14.9609-19.7754Q12.8711-19.7754 10.9717-19.126Q9.07227-18.4766 7.48535-17.2998Q5.89844-16.123 4.72168-14.5312Q3.54492-12.9395 2.90039-11.04Q2.25586-9.14062 2.25586-7.05078Q2.25586-4.9707 2.90527-3.06641Q3.55469-1.16211 4.72656 0.429688Q5.89844 2.02148 7.49023 3.19336Q9.08203 4.36523 10.9814 5.01465Q12.8809 5.66406 14.9707 5.66406ZM14.9707 3.84766Q13.1641 3.84766 11.5283 3.2959Q9.89258 2.74414 8.53516 1.74805Q7.17773 0.751953 6.17676-0.610352Q5.17578-1.97266 4.62891-3.6084Q4.08203-5.24414 4.08203-7.05078Q4.08203-8.86719 4.62891-10.5029Q5.17578-12.1387 6.17188-13.501Q7.16797-14.8633 8.52539-15.8594Q9.88281-16.8555 11.5186-17.4023Q13.1543-17.9492 14.9609-17.9492Q16.7773-17.9492 18.4131-17.4023Q20.0488-16.8555 21.4111-15.8594Q22.7734-14.8633 23.7695-13.501Q24.7656-12.1387 25.3174-10.5029Q25.8691-8.86719 25.8691-7.05078Q25.8789-5.24414 25.332-3.6084Q24.7852-1.97266 23.7842-0.610352Q22.7832 0.751953 21.4209 1.74805Q20.0586 2.74414 18.4229 3.2959Q16.7871 3.84766 14.9707 3.84766ZM9.45312-7.04102Q9.45312-6.66016 9.71191-6.41113Q9.9707-6.16211 10.3711-6.16211L14.0625-6.16211L14.0625-2.46094Q14.0625-2.06055 14.3115-1.80664Q14.5605-1.55273 14.9414-1.55273Q15.3516-1.55273 15.6055-1.80664Q15.8594-2.06055 15.8594-2.46094L15.8594-6.16211L19.5605-6.16211Q19.9609-6.16211 20.2148-6.41113Q20.4688-6.66016 20.4688-7.04102Q20.4688-7.45117 20.2148-7.70508Q19.9609-7.95898 19.5605-7.95898L15.8594-7.95898L15.8594-11.6504Q15.8594-12.0605 15.6055-12.3145Q15.3516-12.5684 14.9414-12.5684Q14.5605-12.5684 14.3115-12.3096Q14.0625-12.0508 14.0625-11.6504L14.0625-7.95898L10.3711-7.95898Q9.96094-7.95898 9.70703-7.70508Q9.45312-7.45117 9.45312-7.04102Z"/>
  </g>
  <text style="stroke:none;fill:black;font-family:sans-serif;font-size:13;font-weight:bold;" transform="matrix(1 0 0 1 263 1953)">Design Variations</text>
  <text style="stroke:none;fill:black;font-family:sans-serif;font-size:13;" transform="matrix(1 0 0 1 263 1971)">Symbols are supported in up to nine weights and three scales.</text>
  <text style="stroke:none;fill:black;font-family:sans-serif;font-size:13;" transform="matrix(1 0 0 1 263 1989)">For optimal layout with text and other symbols, vertically align</text>
  <text style="stroke:none;fill:black;font-family:sans-serif;font-size:13;" transform="matrix(1 0 0 1 263 2007)">symbols with the adjacent text.</text>
  <line style="fill:none;stroke:#00AEEF;stroke-width:0.5;opacity:1.0;" x1="776" x2="776" y1="1919" y2="1933"/>
  <g transform="matrix(1 0 0 1 776 1933)">
   <path d="M3.31055 0.15625Q3.70117 0.15625 3.91602-0.00976562Q4.13086-0.175781 4.26758-0.585938L5.52734-4.0332L11.2891-4.0332L12.5488-0.585938Q12.6855-0.175781 12.9004-0.00976562Q13.1152 0.15625 13.4961 0.15625Q13.8867 0.15625 14.1162-0.0585938Q14.3457-0.273438 14.3457-0.644531Q14.3457-0.869141 14.2383-1.17188L9.6582-13.3691Q9.48242-13.8184 9.17969-14.043Q8.87695-14.2676 8.4082-14.2676Q7.5-14.2676 7.17773-13.3789L2.59766-1.16211Q2.49023-0.859375 2.49023-0.634766Q2.49023-0.263672 2.70996-0.0537109Q2.92969 0.15625 3.31055 0.15625ZM6.00586-5.51758L8.37891-12.0898L8.42773-12.0898L10.8008-5.51758Z"/>
  </g>
  <line style="fill:none;stroke:#00AEEF;stroke-width:0.5;opacity:1.0;" x1="793.197" x2="793.197" y1="1919" y2="1933"/>
  <text style="stroke:none;fill:black;font-family:sans-serif;font-size:13;font-weight:bold;" transform="matrix(1 0 0 1 776 1953)">Margins</text>
  <text style="stroke:none;fill:black;font-family:sans-serif;font-size:13;" transform="matrix(1 0 0 1 776 1971)">Leading and trailing margins on the left and right side of each symbol</text>
  <text style="stroke:none;fill:black;font-family:sans-serif;font-size:13;" transform="matrix(1 0 0 1 776 1989)">can be adjusted by modifying the x-location of the margin guidelines.</text>
  <text style="stroke:none;fill:black;font-family:sans-serif;font-size:13;" transform="matrix(1 0 0 1 776 2007)">Modifications are automatically applied proportionally to all</text>
  <text style="stroke:none;fill:black;font-family:sans-serif;font-size:13;" transform="matrix(1 0 0 1 776 2025)">scales and weights.</text>
  <g transform="matrix(1 0 0 1 1289 1933)">
   <path d="M2.8418 1.86523L4.54102 3.57422Q5.18555 4.22852 5.90332 4.17969Q6.62109 4.13086 7.31445 3.35938L18.0078-8.42773L17.041-9.4043L6.42578 2.27539Q6.16211 2.57812 5.89355 2.61719Q5.625 2.65625 5.27344 2.30469L4.10156 1.14258Q3.75 0.791016 3.79395 0.522461Q3.83789 0.253906 4.14062-0.0195312L15.6152-10.8203L14.6387-11.7871L3.04688-0.898438Q2.30469-0.214844 2.25098 0.498047Q2.19727 1.21094 2.8418 1.86523ZM9.25781-16.3281Q8.94531-16.0254 8.90625-15.6348Q8.86719-15.2441 9.04297-14.9512Q9.21875-14.6777 9.55566-14.541Q9.89258-14.4043 10.3809-14.5215Q11.4746-14.7754 12.5977-14.7314Q13.7207-14.6875 14.7949-13.9844L14.209-12.5293Q13.9551-11.9043 14.0674-11.4404Q14.1797-10.9766 14.5801-10.5664L16.875-8.25195Q17.2363-7.88086 17.5781-7.82227Q17.9199-7.76367 18.3398-7.8418L19.4043-8.03711L20.0684-7.36328L20.0293-6.80664Q20-6.43555 20.1221-6.12305Q20.2441-5.81055 20.6055-5.44922L21.3672-4.70703Q21.7285-4.3457 22.1533-4.33105Q22.5781-4.31641 22.9297-4.66797L25.8398-7.58789Q26.1914-7.93945 26.1816-8.35449Q26.1719-8.76953 25.8105-9.13086L25.0391-9.89258Q24.6875-10.2539 24.3799-10.3857Q24.0723-10.5176 23.7109-10.4883L23.1348-10.4395L22.4902-11.0742L22.7344-12.1973Q22.832-12.6172 22.6953-12.9834Q22.5586-13.3496 22.1191-13.7891L19.9219-15.9766Q18.6719-17.2168 17.2607-17.8369Q15.8496-18.457 14.4189-18.4814Q12.9883-18.5059 11.665-17.959Q10.3418-17.4121 9.25781-16.3281ZM10.752-15.957Q11.6602-16.6211 12.7002-16.9043Q13.7402-17.1875 14.8047-17.085Q15.8691-16.9824 16.8701-16.5137Q17.8711-16.0449 18.7012-15.2051L21.1328-12.793Q21.3086-12.6172 21.3525-12.4512Q21.3965-12.2852 21.3379-12.0312L21.0156-10.5469L22.5195-9.0625L23.5059-9.12109Q23.6914-9.13086 23.7891-9.09668Q23.8867-9.0625 24.0332-8.91602L24.6094-8.33984L22.168-5.89844L21.5918-6.47461Q21.4453-6.62109 21.4062-6.71875Q21.3672-6.81641 21.377-7.01172L21.4453-7.98828L19.9512-9.47266L18.4277-9.21875Q18.1836-9.16992 18.042-9.2041Q17.9004-9.23828 17.7148-9.41406L15.7129-11.416Q15.5176-11.5918 15.4932-11.7529Q15.4688-11.9141 15.5859-12.1875L16.4648-14.2773Q15.293-15.3711 13.8281-15.791Q12.3633-16.2109 10.8398-15.7617Q10.7227-15.7324 10.6885-15.8057Q10.6543-15.8789 10.752-15.957Z"/>
  </g>
  <text style="stroke:none;fill:black;font-family:sans-serif;font-size:13;font-weight:bold;" transform="matrix(1 0 0 1 1289 1953)">Exporting</text>
  <text style="stroke:none;fill:black;font-family:sans-serif;font-size:13;" transform="matrix(1 0 0 1 1289 1971)">Symbols should be outlined when exporting to ensure the</text>
  <text style="stroke:none;fill:black;font-family:sans-serif;font-size:13;" transform="matrix(1 0 0 1 1289 1989)">design is preserved when submitting to Xcode.</text>
  <text id="template-version" style="stroke:none;fill:black;font-family:sans-serif;font-size:13;text-anchor:end;" transform="matrix(1 0 0 1 3036 1933)">Template v.3.0</text>
  <text style="stroke:none;fill:black;font-family:sans-serif;font-size:13;text-anchor:end;" transform="matrix(1 0 0 1 3036 1951)">Requires Xcode 13 or greater</text>
  <text id="descriptive-name" style="stroke:none;fill:black;font-family:sans-serif;font-size:13;text-anchor:end;" transform="matrix(1 0 0 1 3036 1969)">Generated from logo.git.fill</text>
  <text style="stroke:none;fill:black;font-family:sans-serif;font-size:13;text-anchor:end;" transform="matrix(1 0 0 1 3036 1987)">Typeset at 100 points</text>
  <text style="stroke:none;fill:black;font-family:sans-serif;font-size:13;" transform="matrix(1 0 0 1 263 726)">Small</text>
  <text style="stroke:none;fill:black;font-family:sans-serif;font-size:13;" transform="matrix(1 0 0 1 263 1156)">Medium</text>
  <text style="stroke:none;fill:black;font-family:sans-serif;font-size:13;" transform="matrix(1 0 0 1 263 1586)">Large</text>
 </g>
 <g id="Guides">
  <g id="H-reference" style="fill:#27AAE1;stroke:none;" transform="matrix(1 0 0 1 339 696)">
   <path d="M0.976562 0L3.66211 0L29.3457-67.1387L30.0293-67.1387L30.0293-70.459L28.125-70.459ZM11.6699-24.4629L46.9727-24.4629L46.2402-26.709L12.4512-26.709ZM55.127 0L57.7637 0L30.6152-70.459L29.4434-70.459L29.4434-67.1387Z"/>
  </g>
  <line id="Baseline-S" style="fill:none;stroke:#27AAE1;opacity:1;stroke-width:0.5;" x1="263" x2="3036" y1="696" y2="696"/>
  <line id="Capline-S" style="fill:none;stroke:#27AAE1;opacity:1;stroke-width:0.5;" x1="263" x2="3036" y1="625.541" y2="625.541"/>
  <g id="H-reference" style="fill:#27AAE1;stroke:none;" transform="matrix(1 0 0 1 339 1126)">
   <path d="M0.976562 0L3.66211 0L29.3457-67.1387L30.0293-67.1387L30.0293-70.459L28.125-70.459ZM11.6699-24.4629L46.9727-24.4629L46.2402-26.709L12.4512-26.709ZM55.127 0L57.7637 0L30.6152-70.459L29.4434-70.459L29.4434-67.1387Z"/>
  </g>
  <line id="Baseline-M" style="fill:none;stroke:#27AAE1;opacity:1;stroke-width:0.5;" x1="263" x2="3036" y1="1126" y2="1126"/>
  <line id="Capline-M" style="fill:none;stroke:#27AAE1;opacity:1;stroke-width:0.5;" x1="263" x2="3036" y1="1055.54" y2="1055.54"/>
  <g id="H-reference" style="fill:#27AAE1;stroke:none;" transform="matrix(1 0 0 1 339 1556)">
   <path d="M0.976562 0L3.66211 0L29.3457-67.1387L30.0293-67.1387L30.0293-70.459L28.125-70.459ZM11.6699-24.4629L46.9727-24.4629L46.2402-26.709L12.4512-26.709ZM55.127 0L57.7637 0L30.6152-70.459L29.4434-70.459L29.4434-67.1387Z"/>
  </g>
  <line id="Baseline-L" style="fill:none;stroke:#27AAE1;opacity:1;stroke-width:0.5;" x1="263" x2="3036" y1="1556" y2="1556"/>
  <line id="Capline-L" style="fill:none;stroke:#27AAE1;opacity:1;stroke-width:0.5;" x1="263" x2="3036" y1="1485.54" y2="1485.54"/>
  <line id="left-margin-Regular-M" style="fill:none;stroke:#00AEEF;stroke-width:0.5;opacity:1.0;" x1="1384.34" x2="1384.34" y1="1030.73" y2="1150.14"/>
  <line id="right-margin-Regular-M" style="fill:none;stroke:#00AEEF;stroke-width:0.5;opacity:1.0;" x1="1515.35" x2="1515.35" y1="1030.73" y2="1150.14"/>
 </g>
 <g id="Symbols">
  <g id="Black-L" transform="matrix(1 0 0 1 2844.38 1556)">
   <path class="multicolor-0:systemRedColor SFSymbolsPreviewFF3B30" d="M156.717-51.597L105.84-102.474C100.481-107.832 94.8809-110.534 89.0412-110.534C83.2015-110.534 77.6037-107.875 72.2425-102.516L63.5585-93.8348L85.4576-71.9357C89.081-73.0886 93.1985-72.2651 96.1631-69.4652C99.1277-66.5006 99.9512-62.3831 98.6336-58.7597L113.621-43.772C117.245-45.0896 121.362-44.2661 124.327-41.3015C128.444-37.184 128.444-30.7607 124.327-26.6432C120.209-22.5257 113.786-22.5257 109.669-26.6432C106.704-29.6078 105.88-34.2194 107.363-37.8428L93.3632-51.8423L93.3632-15.1142C94.3514-14.6201 95.3396-13.9613 96.1631-13.1378C100.281-9.02025 100.281-2.59695 96.1631 1.52055C92.0456 5.63805 85.6223 5.63805 81.5048 1.52055C77.3873-2.59695 77.3873-9.02025 81.5048-13.1378C82.493-14.126 83.6459-14.9495 84.9635-15.4436L84.9635-52.5435C83.6459-53.0376 82.493-53.8611 81.5048-54.8493C78.3755-57.9786 77.7167-62.4255 79.199-66.2136L57.5097-87.9029L21.3207-51.6742C15.9622-46.3156 13.2603-40.7152 13.3028-34.8755C13.3028-29.0358 16.0046-23.438 21.3632-18.0768L72.2849 32.8025C77.6435 38.1611 83.244 40.8629 89.0836 40.8603C94.9233 40.8603 100.524 38.2009 105.88 32.8449L156.841-18.1617C162.2-23.5203 164.899-29.1181 164.859-34.9578C164.817-40.7576 162.118-46.3581 156.717-51.597Z"/>
  </g>
  <g id="Heavy-L" transform="matrix(1 0 0 1 2548.81 1556)">
   <path class="multicolor-0:systemRedColor SFSymbolsPreviewFF3B30" d="M154.738-50.8671L103.974-101.631C98.815-106.79 93.4608-109.406 87.9238-109.406C82.3868-109.406 77.045-106.851 71.8735-101.692L63.2177-93.0484L84.349-71.9171C87.9724-73.07 92.0899-72.2465 95.0545-69.4466C98.0191-66.482 98.8426-62.3645 97.525-58.7411L112.513-43.7534C116.136-45.071 120.254-44.2475 123.218-41.2829C127.336-37.1654 127.336-30.7421 123.218-26.6246C119.101-22.5071 112.677-22.5071 108.56-26.6246C105.595-29.5892 104.772-34.2008 106.254-37.8242L92.2546-51.8237L92.2546-15.0956C93.2428-14.6015 94.231-13.9427 95.0545-13.1192C99.172-9.00175 99.172-2.57845 95.0545 1.53905C90.937 5.65655 84.5137 5.65655 80.3962 1.53905C76.2787-2.57845 76.2787-9.00175 80.3962-13.1192C81.3844-14.1074 82.5373-14.9309 83.8549-15.425L83.8549-52.5435C82.5373-53.0376 81.3844-53.8611 80.3962-54.8493C77.2669-57.9786 76.6081-62.4255 78.0904-66.2136L57.1972-87.1068L21.0365-50.8975C15.8774-45.7385 13.2612-40.3843 13.3222-34.8473C13.3222-29.3103 15.9384-23.9685 21.0974-18.797L71.9345 31.9791C77.0936 37.1382 82.4478 39.7543 87.9847 39.742C93.5217 39.742 98.8759 37.1867 104.023 32.04L154.908-18.9189C160.067-24.078 162.671-29.4198 162.623-34.9568C162.562-40.4452 159.958-45.7994 154.738-50.8671Z"/>
  </g>
  <g id="Bold-L" transform="matrix(1 0 0 1 2253.52 1556)">
   <path class="multicolor-0:systemRedColor SFSymbolsPreviewFF3B30" d="M152.282-49.9504L101.645-100.588C96.7444-105.488 91.6951-107.991 86.5262-107.991C81.3573-107.991 76.3371-105.564 71.4075-100.664L62.7833-92.0685L82.9494-71.9023C86.5728-73.0552 90.6903-72.2317 93.6549-69.4318C96.6195-66.4672 97.443-62.3497 96.1254-58.7263L111.113-43.7386C114.737-45.0562 118.854-44.2327 121.819-41.2681C125.936-37.1506 125.936-30.7273 121.819-26.6098C117.701-22.4923 111.278-22.4923 107.16-26.6098C104.196-29.5744 103.372-34.186 104.855-37.8094L90.855-51.8089L90.855-15.0808C91.8432-14.5867 92.8314-13.9279 93.6549-13.1044C97.7724-8.98694 97.7724-2.56364 93.6549 1.55386C89.5374 5.67136 83.1141 5.67136 78.9966 1.55386C74.8791-2.56364 74.8791-8.98694 78.9966-13.1044C79.9848-14.0926 81.1377-14.9161 82.4553-15.4102L82.4553-52.5435C81.1377-53.0376 79.9848-53.8611 78.9966-54.8493C75.8673-57.9786 75.2085-62.4255 76.6908-66.2136L56.7943-86.1102L20.6651-49.9344C15.7646-45.0339 13.2619-39.9846 13.3377-34.8157C13.3377-29.6468 15.8404-24.6267 20.7409-19.697L71.4832 30.9696C76.3838 35.8701 81.433 38.3728 86.6019 38.3437C91.7708 38.3437 96.8201 35.9167 101.692 31.0453L152.48-19.8485C157.381-24.749 159.855-29.7692 159.808-34.9381C159.732-40.0604 157.259-45.1096 152.282-49.9504Z"/>
  </g>
  <g id="Semibold-L" transform="matrix(1 0 0 1 1957.79 1556)">
   <path class="multicolor-0:systemRedColor SFSymbolsPreviewFF3B30" d="M150.59-49.3184L100.039-99.8687C95.3169-104.591 90.4778-107.016 85.5627-107.016C80.6475-107.016 75.8492-104.677 71.0862-99.9547L62.4837-91.393L81.9846-71.8921C85.608-73.045 89.7255-72.2215 92.6901-69.4216C95.6547-66.457 96.4782-62.3395 95.1606-58.7161L110.148-43.7284C113.772-45.046 117.889-44.2225 120.854-41.2579C124.971-37.1404 124.971-30.7171 120.854-26.5996C116.736-22.4821 110.313-22.4821 106.195-26.5996C103.231-29.5642 102.407-34.1758 103.89-37.7992L89.8902-51.7987L89.8902-15.0706C90.8784-14.5765 91.8666-13.9177 92.6901-13.0942C96.8076-8.97674 96.8076-2.55344 92.6901 1.56406C88.5726 5.68156 82.1493 5.68156 78.0318 1.56406C73.9143-2.55344 73.9143-8.97674 78.0318-13.0942C79.02-14.0824 80.1729-14.9059 81.4905-15.4L81.4905-52.5435C80.1729-53.0376 79.02-53.8611 78.0318-54.8493C74.9025-57.9786 74.2437-62.4255 75.726-66.2136L56.5165-85.4231L20.4092-49.2705C15.6869-44.5482 13.2624-39.7091 13.3483-34.7939C13.3483-29.8788 15.7728-25.0804 20.4951-20.3174L71.1721 30.2736C75.8944 34.9959 80.7335 37.4204 85.6486 37.3797C90.5638 37.3797 95.4029 35.0412 100.084 30.3596L150.807-20.4893C155.529-25.2116 157.913-30.01 157.868-34.9252C157.782-39.795 155.398-44.6341 150.59-49.3184Z"/>
  </g>
  <g id="Medium-L" transform="matrix(1 0 0 1 1661.82 1556)">
   <path class="multicolor-0:systemRedColor SFSymbolsPreviewFF3B30" d="M149.306-48.8392L98.8217-99.3235C94.2345-103.911 89.5549-106.276 84.8321-106.276C80.1094-106.276 75.4792-104.004 70.8425-99.4172L62.2566-90.8807L81.253-71.8844C84.8764-73.0373 88.9939-72.2138 91.9585-69.4139C94.9231-66.4493 95.7466-62.3318 94.429-58.7084L109.417-43.7207C113.04-45.0383 117.158-44.2148 120.122-41.2502C124.24-37.1327 124.24-30.7094 120.122-26.5919C116.005-22.4744 109.581-22.4744 105.464-26.5919C102.499-29.5565 101.676-34.1681 103.158-37.7915L89.1586-51.791L89.1586-15.0629C90.1468-14.5688 91.135-13.91 91.9585-13.0865C96.076-8.969 96.076-2.5457 91.9585 1.5718C87.841 5.6893 81.4177 5.6893 77.3002 1.5718C73.1827-2.5457 73.1827-8.969 77.3002-13.0865C78.2884-14.0747 79.4413-14.8982 80.7589-15.3923L80.7589-52.5435C79.4413-53.0376 78.2884-53.8611 77.3002-54.8493C74.1709-57.9786 73.5121-62.4255 74.9944-66.2136L56.3059-84.9021L20.2151-48.767C15.6279-44.1799 13.2627-39.5002 13.3564-34.7774C13.3564-30.0547 15.7216-25.4245 20.3088-20.7879L70.9363 29.7459C75.5234 34.3331 80.2031 36.6982 84.9258 36.6488C89.6486 36.6488 94.3282 34.3773 98.8659 29.8396L149.538-20.9753C154.125-25.5624 156.44-30.1926 156.396-34.9154C156.303-39.5939 153.987-44.2736 149.306-48.8392Z"/>
  </g>
  <g id="Regular-L" transform="matrix(1 0 0 1 1366.08 1556)">
   <path class="multicolor-0:systemRedColor SFSymbolsPreviewFF3B30" d="M147.632-48.2141L97.2336-98.6123C92.8228-103.023 88.351-105.311 83.8792-105.311C79.4074-105.311 74.9966-103.127 70.5248-98.7161L61.9604-90.2126L80.2987-71.8743C83.9221-73.0272 88.0396-72.2037 91.0042-69.4038C93.9688-66.4392 94.7923-62.3217 93.4747-58.6983L108.462-43.7106C112.086-45.0282 116.203-44.2047 119.168-41.2401C123.285-37.1226 123.285-30.6993 119.168-26.5818C115.05-22.4643 108.627-22.4643 104.51-26.5818C101.545-29.5464 100.721-34.158 102.204-37.7814L88.2043-51.7809L88.2043-15.0528C89.1925-14.5587 90.1807-13.8999 91.0042-13.0764C95.1217-8.9589 95.1217-2.5356 91.0042 1.5819C86.8867 5.6994 80.4634 5.6994 76.3459 1.5819C72.2284-2.5356 72.2284-8.9589 76.3459-13.0764C77.3341-14.0646 78.487-14.8881 79.8046-15.3822L79.8046-52.5435C78.487-53.0376 77.3341-53.8611 76.3459-54.8493C73.2166-57.9786 72.5578-62.4255 74.0401-66.2136L56.0312-84.2225L19.9619-48.1103C15.551-43.6995 13.2632-39.2277 13.367-34.7559C13.367-30.2841 15.6548-25.8733 20.0657-21.4015L70.6286 29.0576C75.0394 33.4685 79.5112 35.7563 83.983 35.6954C88.4548 35.6954 92.9266 33.5114 97.2765 29.1614L147.882-21.6091C152.293-26.0199 154.52-30.4308 154.477-34.9026C154.373-39.3315 152.146-43.8032 147.632-48.2141Z"/>
  </g>
  <g id="Light-L" transform="matrix(1 0 0 1 1070.44 1556)">
   <path class="multicolor-0:systemRedColor SFSymbolsPreviewFF3B30" d="M145.907-47.4996L95.5085-97.8978C91.3498-102.057 87.0881-104.218 82.8265-104.218C78.5649-104.218 74.4062-102.118 70.1445-97.9596L61.5801-89.4981L79.1619-71.9163C82.7853-73.0692 86.9028-72.2457 89.8674-69.4458C92.832-66.4812 93.6555-62.3637 92.3379-58.7403L107.326-43.7526C110.949-45.0702 115.067-44.2467 118.031-41.2821C122.149-37.1646 122.149-30.7413 118.031-26.6238C113.914-22.5063 107.49-22.5063 103.373-26.6238C100.408-29.5884 99.5847-34.2 101.067-37.8234L87.0675-51.8229L87.0675-15.0948C88.0557-14.6007 89.0439-13.9419 89.8674-13.1184C93.9849-9.00093 93.9849-2.57763 89.8674 1.53987C85.7499 5.65737 79.3266 5.65737 75.2091 1.53987C71.0916-2.57763 71.0916-9.00093 75.2091-13.1184C76.1973-14.1066 77.3502-14.9301 78.6678-15.4242L78.6678-52.5435C77.3502-53.0376 76.1973-53.8611 75.2091-54.8493C72.0798-57.9786 71.421-62.4255 72.9033-66.2136L55.6509-83.466L19.5816-47.4379C15.4229-43.2792 13.2612-39.0175 13.323-34.7559C13.323-30.4943 15.4847-26.3356 19.6434-22.0739L70.2063 28.4272C74.365 32.5859 78.6266 34.7476 82.8883 34.6447C87.1499 34.6447 91.4115 32.5447 95.4673 28.489L145.989-22.1975C150.148-26.3562 152.207-30.5149 152.248-34.7765C152.186-39.0793 150.127-43.3409 145.907-47.4996Z"/>
  </g>
  <g id="Thin-L" transform="matrix(1 0 0 1 775.15 1556)">
   <path class="multicolor-0:systemRedColor SFSymbolsPreviewFF3B30" d="M143.625-46.5547L93.2268-96.9529C89.4016-100.778 85.4179-102.773 81.4342-102.773C77.4505-102.773 73.6254-100.784 69.6417-96.959L61.0773-88.5532L77.6585-71.9719C81.2819-73.1248 85.3994-72.3013 88.364-69.5014C91.3286-66.5368 92.1521-62.4193 90.8345-58.7959L105.822-43.8082C109.446-45.1258 113.563-44.3023 116.528-41.3377C120.645-37.2202 120.645-30.7969 116.528-26.6794C112.41-22.5619 105.987-22.5619 101.869-26.6794C98.9048-29.644 98.0813-34.2556 99.5636-37.879L85.5641-51.8785L85.5641-15.1504C86.5523-14.6563 87.5405-13.9975 88.364-13.174C92.4815-9.05652 92.4815-2.63322 88.364 1.48428C84.2465 5.60178 77.8232 5.60178 73.7057 1.48428C69.5882-2.63322 69.5882-9.05652 73.7057-13.174C74.6939-14.1622 75.8468-14.9857 77.1644-15.4798L77.1644-52.5435C75.8468-53.0376 74.6939-53.8611 73.7057-54.8493C70.5764-57.9786 69.9176-62.4255 71.3999-66.2136L55.1481-82.4654L19.0788-46.5485C15.2536-42.7233 13.2586-38.7396 13.2648-34.7559C13.2648-30.7722 15.2598-26.947 19.0849-22.9633L69.6478 27.5934C73.473 31.4186 77.4567 33.4135 81.4404 33.255C85.4241 33.255 89.4078 31.2662 93.0745 27.5996L143.485-22.9757C147.31-26.8009 149.147-30.626 149.299-34.6097C149.293-38.7458 147.456-42.7295 143.625-46.5547Z"/>
  </g>
  <g id="Ultralight-L" transform="matrix(1 0 0 1 479.166 1556)">
   <path class="multicolor-0:systemRedColor SFSymbolsPreviewFF3B30" d="M142.456-46.0706L92.0581-96.4688C88.4038-100.123 84.5625-102.033 80.7211-102.033C76.8798-102.033 73.2254-100.101 69.3841-96.4466L60.8197-88.0691L76.8884-72.0004C80.5118-73.1533 84.6293-72.3298 87.5939-69.5299C90.5585-66.5653 91.382-62.4478 90.0644-58.8244L105.052-43.8367C108.676-45.1543 112.793-44.3308 115.758-41.3662C119.875-37.2487 119.875-30.8254 115.758-26.7079C111.64-22.5904 105.217-22.5904 101.099-26.7079C98.1347-29.6725 97.3112-34.2841 98.7935-37.9075L84.794-51.907L84.794-15.1789C85.7822-14.6848 86.7704-14.026 87.5939-13.2025C91.7114-9.08499 91.7114-2.66169 87.5939 1.45581C83.4764 5.57331 77.0531 5.57331 72.9356 1.45581C68.8181-2.66169 68.8181-9.08499 72.9356-13.2025C73.9238-14.1907 75.0767-15.0142 76.3943-15.5083L76.3943-52.5435C75.0767-53.0376 73.9238-53.8611 72.9356-54.8493C69.8063-57.9786 69.1475-62.4255 70.6298-66.2136L54.8905-81.953L18.8212-46.0929C15.1668-42.4386 13.2573-38.5972 13.235-34.7559C13.235-30.9146 15.1445-27.2602 18.7989-23.4189L69.3618 27.1663C73.0161 30.8207 76.8575 32.7302 80.6988 32.5432C84.5402 32.5432 88.3815 30.6114 91.8489 27.144L142.202-23.3743C145.857-27.0286 147.579-30.683 147.789-34.5243C147.811-38.575 146.088-42.4163 142.456-46.0706Z"/>
  </g>
  <g id="Black-M" transform="matrix(1 0 0 1 2863.6 1126)">
   <path class="multicolor-0:systemRedColor SFSymbolsPreviewFF3B30" d="M122.882-48.4453L83.3684-87.9586C79.0796-92.2474 74.5576-94.3971 69.8016-94.3971C65.0457-94.3971 60.5231-92.2587 56.2349-87.9699L49.4827-81.2171L67.0064-63.6935C69.8136-64.5867 73.0036-63.9487 75.3004-61.7795C77.5972-59.4827 78.2352-56.2927 77.2144-53.4855L88.826-41.8739C91.6332-42.8947 94.8232-42.2567 97.12-39.9599C100.31-36.7699 100.31-31.7935 97.12-28.6035C93.93-25.4135 88.9536-25.4135 85.7636-28.6035C83.4668-30.9003 82.8288-34.4731 83.9772-37.2803L73.1312-48.1263L73.1312-19.6715C73.8968-19.2887 74.6624-18.7783 75.3004-18.1403C78.4904-14.9503 78.4904-9.97391 75.3004-6.78391C72.1104-3.59391 67.134-3.59391 63.944-6.78391C60.754-9.97391 60.754-14.9503 63.944-18.1403C64.7096-18.9059 65.6028-19.5439 66.6236-19.9267L66.6236-48.648C65.6028-49.0308 64.7096-49.6688 63.944-50.4344C61.5196-52.8588 61.0092-56.304 62.1576-59.2388L44.7722-76.6242L16.7109-48.5509C12.4221-44.2621 10.2723-39.7401 10.2836-34.9841C10.2836-30.2282 12.4334-25.7055 16.7222-21.4174L56.2462 18.0954C60.535 22.3842 65.057 24.5339 69.8129 24.5345C74.5689 24.5345 79.0909 22.3961 83.3803 18.1066L122.916-21.4399C127.205-25.7287 129.355-30.2514 129.344-35.0073C129.332-39.7513 127.182-44.2734 122.882-48.4453Z"/>
  </g>
  <g id="Heavy-M" transform="matrix(1 0 0 1 2567.9 1126)">
   <path class="multicolor-0:systemRedColor SFSymbolsPreviewFF3B30" d="M121.107-47.7976L81.7036-87.2006C77.5865-91.3176 73.2858-93.3953 68.8064-93.3953C64.327-93.3953 60.0313-91.3509 55.9093-87.2338L49.1847-80.5143L66.0275-63.6715C68.8347-64.5647 72.0247-63.9267 74.3215-61.7575C76.6183-59.4607 77.2563-56.2707 76.2355-53.4635L87.8471-41.8519C90.6543-42.8727 93.8443-42.2347 96.1411-39.9379C99.3311-36.7479 99.3311-31.7715 96.1411-28.5815C92.9511-25.3915 87.9747-25.3915 84.7847-28.5815C82.4879-30.8783 81.8499-34.4511 82.9983-37.2583L72.1523-48.1043L72.1523-19.6495C72.9179-19.2667 73.6835-18.7563 74.3215-18.1183C77.5115-14.9283 77.5115-9.95194 74.3215-6.76194C71.1315-3.57194 66.1551-3.57194 62.9651-6.76194C59.7751-9.95194 59.7751-14.9283 62.9651-18.1183C63.7307-18.8839 64.6239-19.5219 65.6447-19.9047L65.6447-48.648C64.6239-49.0308 63.7307-49.6688 62.9651-50.4344C60.5407-52.8588 60.0303-56.304 61.1787-59.2388L44.5018-75.9157L16.4681-47.8537C12.351-43.7367 10.2734-39.4359 10.3066-34.9565C10.3066-30.4771 12.3843-26.1814 16.5013-22.0594L55.9425 17.3486C60.0596 21.4656 64.3603 23.5433 68.8397 23.5383C73.3191 23.5383 77.6198 21.4939 81.7318 17.3818L121.201-22.1259C125.318-26.2429 127.391-30.5386 127.363-35.018C127.329-39.4692 125.257-43.7699 121.107-47.7976Z"/>
  </g>
  <g id="Bold-M" transform="matrix(1 0 0 1 2272.32 1126)">
   <path class="multicolor-0:systemRedColor SFSymbolsPreviewFF3B30" d="M119.121-47.0731L79.8412-86.3526C75.9163-90.2775 71.8632-92.2745 67.6931-92.2745C63.5231-92.2745 59.4812-90.3353 55.545-86.4104L48.8514-79.7281L64.9325-63.647C67.7397-64.5402 70.9297-63.9022 73.2265-61.733C75.5233-59.4362 76.1613-56.2462 75.1405-53.439L86.7521-41.8274C89.5593-42.8482 92.7493-42.2102 95.0461-39.9134C98.2361-36.7234 98.2361-31.747 95.0461-28.557C91.8561-25.367 86.8797-25.367 83.6897-28.557C81.3929-30.8538 80.7549-34.4266 81.9033-37.2338L71.0573-48.0798L71.0573-19.625C71.8229-19.2422 72.5885-18.7318 73.2265-18.0938C76.4165-14.9038 76.4165-9.92737 73.2265-6.73737C70.0365-3.54737 65.0601-3.54737 61.8701-6.73737C58.6801-9.92737 58.6801-14.9038 61.8701-18.0938C62.6357-18.8594 63.5289-19.4974 64.5497-19.8802L64.5497-48.648C63.5289-49.0308 62.6357-49.6688 61.8701-50.4344C59.4457-52.8588 58.9353-56.304 60.0837-59.2388L44.1993-75.1232L16.1964-47.0738C12.2715-43.1489 10.2745-39.0957 10.3323-34.9257C10.3323-30.7556 12.3294-26.7138 16.2543-22.7776L55.6029 16.5132C59.5278 20.4381 63.5809 22.4351 67.751 22.4238C71.921 22.4238 75.9742 20.4846 79.8878 16.571L119.283-22.8932C123.208-26.8181 125.193-30.8599 125.147-35.03C125.089-39.1536 123.103-43.2067 119.121-47.0731Z"/>
  </g>
  <g id="Semibold-M" transform="matrix(1 0 0 1 1976.39 1126)">
   <path class="multicolor-0:systemRedColor SFSymbolsPreviewFF3B30" d="M117.752-46.5737L78.5573-85.768C74.7649-89.5605 70.8825-91.5019 66.9256-91.5019C62.9688-91.5019 59.102-89.6352 55.2939-85.8428L48.6215-79.186L64.1776-63.63C66.9848-64.5232 70.1748-63.8852 72.4716-61.716C74.7684-59.4192 75.4064-56.2292 74.3856-53.422L85.9972-41.8104C88.8044-42.8312 91.9944-42.1932 94.2912-39.8964C97.4812-36.7064 97.4812-31.73 94.2912-28.54C91.1012-25.35 86.1248-25.35 82.9348-28.54C80.638-30.8368 80-34.4096 81.1484-37.2168L70.3024-48.0628L70.3024-19.608C71.068-19.2252 71.8336-18.7148 72.4716-18.0768C75.6616-14.8868 75.6616-9.91043 72.4716-6.72043C69.2816-3.53043 64.3052-3.53043 61.1152-6.72043C57.9252-9.91043 57.9252-14.8868 61.1152-18.0768C61.8808-18.8424 62.774-19.4804 63.7948-19.8632L63.7948-48.648C62.774-49.0308 61.8808-49.6688 61.1152-50.4344C58.6908-52.8588 58.1804-56.304 59.3288-59.2388L43.9908-74.5768L16.0092-46.5361C12.2167-42.7437 10.2753-38.8612 10.3501-34.9044C10.3501-30.9476 12.2915-27.0808 16.0839-23.2727L55.3687 15.9373C59.1611 19.7297 63.0436 21.6712 67.0004 21.6555C70.9572 21.6555 74.8397 19.7889 78.6165 16.0121L117.96-23.4222C121.753-27.2146 123.679-31.0814 123.619-35.0383C123.545-38.936 121.619-42.8184 117.752-46.5737Z"/>
  </g>
  <g id="Medium-M" transform="matrix(1 0 0 1 1680.27 1126)">
   <path class="multicolor-0:systemRedColor SFSymbolsPreviewFF3B30" d="M116.714-46.195L77.5838-85.3248C73.8918-89.0168 70.1388-90.916 66.3437-90.916C62.5486-90.916 58.8145-89.1044 55.1035-85.4124L48.4473-78.7751L63.6052-63.6172C66.4124-64.5104 69.6024-63.8724 71.8992-61.7032C74.196-59.4064 74.834-56.2164 73.8132-53.4092L85.4248-41.7976C88.232-42.8184 91.422-42.1804 93.7188-39.8836C96.9088-36.6936 96.9088-31.7172 93.7188-28.5272C90.5288-25.3372 85.5524-25.3372 82.3624-28.5272C80.0656-30.824 79.4276-34.3968 80.576-37.204L69.73-48.05L69.73-19.5952C70.4956-19.2124 71.2612-18.702 71.8992-18.064C75.0892-14.874 75.0892-9.89759 71.8992-6.70759C68.7092-3.51759 63.7328-3.51759 60.5428-6.70759C57.3528-9.89759 57.3528-14.874 60.5428-18.064C61.3084-18.8296 62.2016-19.4676 63.2224-19.8504L63.2224-48.648C62.2016-49.0308 61.3084-49.6688 60.5428-50.4344C58.1184-52.8588 57.608-56.304 58.7564-59.2388L43.8326-74.1625L15.8672-46.1284C12.1752-42.4364 10.2759-38.6834 10.3635-34.8882C10.3635-31.0931 12.2628-27.359 15.9548-23.6481L55.1911 15.5006C58.8831 19.1926 62.6362 21.0919 66.4313 21.073C70.2264 21.073 73.9795 19.2613 77.6525 15.5883L116.958-23.8233C120.65-27.5153 122.53-31.2494 122.461-35.0445C122.374-38.771 120.493-42.524 116.714-46.195Z"/>
  </g>
  <g id="Regular-M" transform="matrix(1 0 0 1 1384.34 1126)">
   <path class="multicolor-0:systemRedColor SFSymbolsPreviewFF3B30" d="M115.36-45.701L76.3141-84.7466C72.7531-88.3076 69.1688-90.1519 65.5846-90.1519C62.0004-90.1519 58.4394-88.412 54.8552-84.851L48.22-78.239L62.8585-63.6004C65.6657-64.4936 68.8557-63.8556 71.1525-61.6864C73.4493-59.3896 74.0873-56.1996 73.0665-53.3924L84.6781-41.7808C87.4853-42.8016 90.6753-42.1636 92.9721-39.8668C96.1621-36.6768 96.1621-31.7004 92.9721-28.5104C89.7821-25.3204 84.8057-25.3204 81.6157-28.5104C79.3189-30.8072 78.6809-34.38 79.8293-37.1872L68.9833-48.0332L68.9833-19.5784C69.7489-19.1956 70.5145-18.6852 71.1525-18.0472C74.3425-14.8572 74.3425-9.88084 71.1525-6.69084C67.9625-3.50084 62.9861-3.50084 59.7961-6.69084C56.6061-9.88084 56.6061-14.8572 59.7961-18.0472C60.5617-18.8128 61.4549-19.4508 62.4757-19.8336L62.4757-48.648C61.4549-49.0308 60.5617-49.6688 59.7961-50.4344C57.3717-52.8588 56.8613-56.304 58.0097-59.2388L43.6264-73.6222L15.682-45.5966C12.121-42.0356 10.2767-38.4514 10.3811-34.8672C10.3811-31.283 12.2254-27.722 15.7863-24.1378L54.9595 14.9311C58.5205 18.4921 62.1048 20.3364 65.689 20.3131C69.2732 20.3131 72.8574 18.5732 76.3952 15.0354L115.65-24.3465C119.211-27.9075 121.032-31.4685 120.95-35.0527C120.846-38.5558 119.025-42.14 115.36-45.701Z"/>
  </g>
  <g id="Light-M" transform="matrix(1 0 0 1 1088.59 1126)">
   <path class="multicolor-0:systemRedColor SFSymbolsPreviewFF3B30" d="M113.813-45.0604L74.7674-84.106C71.4325-87.4409 68.0366-89.1722 64.6408-89.1722C61.245-89.1722 57.9101-87.5076 54.5143-84.1727L47.8791-77.5984L61.8394-63.6381C64.6466-64.5313 67.8366-63.8933 70.1334-61.7241C72.4302-59.4273 73.0682-56.2373 72.0474-53.4301L83.659-41.8185C86.4662-42.8393 89.6562-42.2013 91.953-39.9045C95.143-36.7145 95.143-31.7381 91.953-28.5481C88.763-25.3581 83.7866-25.3581 80.5966-28.5481C78.2998-30.8449 77.6618-34.4177 78.8102-37.2249L67.9642-48.0709L67.9642-19.6161C68.7298-19.2333 69.4954-18.7229 70.1334-18.0849C73.3234-14.8949 73.3234-9.91852 70.1334-6.72852C66.9434-3.53852 61.967-3.53852 58.777-6.72852C55.587-9.91852 55.587-14.8949 58.777-18.0849C59.5426-18.8505 60.4358-19.4885 61.4566-19.8713L61.4566-48.648C60.4358-49.0308 59.5426-49.6688 58.777-50.4344C56.3526-52.8588 55.8422-56.304 56.9906-59.2388L43.2855-72.9439L15.3411-44.9937C12.0062-41.6588 10.2749-38.263 10.3416-34.8672C10.3416-31.4714 12.0729-28.1365 15.4078-24.7407L54.581 14.3659C57.9159 17.7008 61.3117 19.432 64.7075 19.3711C68.1033 19.3711 71.4991 17.7065 74.7731 14.4325L113.952-24.874C117.287-28.2089 118.957-31.5438 118.952-34.9397C118.885-38.3297 117.215-41.7255 113.813-45.0604Z"/>
  </g>
  <g id="Thin-M" transform="matrix(1 0 0 1 793.149 1126)">
   <path class="multicolor-0:systemRedColor SFSymbolsPreviewFF3B30" d="M111.767-44.2132L72.7217-83.2588C69.6858-86.2947 66.5392-87.8764 63.3926-87.8764C60.2459-87.8764 57.2101-86.3115 54.0634-83.2757L47.4282-76.7512L60.4915-63.688C63.2987-64.5812 66.4887-63.9432 68.7855-61.774C71.0823-59.4772 71.7203-56.2872 70.6995-53.48L82.3111-41.8684C85.1183-42.8892 88.3083-42.2512 90.6051-39.9544C93.7951-36.7644 93.7951-31.788 90.6051-28.598C87.4151-25.408 82.4387-25.408 79.2487-28.598C76.9519-30.8948 76.3139-34.4676 77.4623-37.2748L66.6163-48.1208L66.6163-19.666C67.3819-19.2832 68.1475-18.7728 68.7855-18.1348C71.9755-14.9448 71.9755-9.96835 68.7855-6.77835C65.5955-3.58835 60.6191-3.58835 57.4291-6.77835C54.2391-9.96835 54.2391-14.9448 57.4291-18.1348C58.1947-18.9004 59.0879-19.5384 60.1087-19.9212L60.1087-48.648C59.0879-49.0308 58.1947-49.6688 57.4291-50.4344C55.0047-52.8588 54.4943-56.304 55.6427-59.2388L42.8346-72.0469L14.8902-44.1964C11.8543-41.1605 10.2726-38.0138 10.2894-34.8672C10.2894-31.7206 11.8712-28.6847 14.9071-25.538L54.0803 13.6183C57.1161 16.6542 60.2628 18.2359 63.4094 18.1252C66.5561 18.1252 69.7027 16.5603 72.6278 13.6352L111.707-25.5717C114.743-28.6076 116.214-31.6435 116.308-34.7901C116.291-38.0307 114.82-41.1773 111.767-44.2132Z"/>
  </g>
  <g id="Ultralight-M" transform="matrix(1 0 0 1 497.09 1126)">
   <path class="multicolor-0:systemRedColor SFSymbolsPreviewFF3B30" d="M110.72-43.7793L71.674-82.8249C68.7912-85.7076 65.7722-87.2128 62.7532-87.2128C59.7342-87.2128 56.8515-85.6989 53.8325-82.8162L47.1973-76.3173L59.8011-63.7135C62.6083-64.6067 65.7983-63.9687 68.0951-61.7995C70.3919-59.5027 71.0299-56.3127 70.0091-53.5055L81.6207-41.8939C84.4279-42.9147 87.6179-42.2767 89.9147-39.9799C93.1047-36.7899 93.1047-31.8135 89.9147-28.6235C86.7247-25.4335 81.7483-25.4335 78.5583-28.6235C76.2615-30.9203 75.6235-34.4931 76.7719-37.3003L65.9259-48.1463L65.9259-19.6915C66.6915-19.3087 67.4571-18.7983 68.0951-18.1603C71.2851-14.9703 71.2851-9.99388 68.0951-6.80388C64.9051-3.61388 59.9287-3.61388 56.7387-6.80388C53.5487-9.99388 53.5487-14.9703 56.7387-18.1603C57.5043-18.9259 58.3975-19.5639 59.4183-19.9467L59.4183-48.648C58.3975-49.0308 57.5043-49.6688 56.7387-50.4344C54.3143-52.8588 53.8039-56.304 54.9523-59.2388L42.6037-71.5874L14.6593-43.7879C11.7766-40.9052 10.2714-37.8862 10.2627-34.8672C10.2627-31.8482 11.7679-28.9655 14.6506-25.9465L53.8238 13.2354C56.7065 16.1181 59.7255 17.6233 62.7445 17.487C65.7636 17.487 68.7826 15.9732 71.529 13.2267L110.557-25.9291C113.44-28.8118 114.809-31.6946 114.954-34.7136C114.963-37.8775 113.594-40.8965 110.72-43.7793Z"/>
  </g>
  <g id="Black-S" transform="matrix(1 0 0 1 2878.45 696)">
   <path class="multicolor-0:systemRedColor SFSymbolsPreviewFF3B30" d="M96.75-45.75L65.75-76.75C62.35-80.15 58.75-81.85 54.95-81.85C51.15-81.85 47.55-80.15 44.15-76.75L38.85-71.45L52.75-57.55C54.95-58.25 57.45-57.75 59.25-56.05C61.05-54.25 61.55-51.75 60.75-49.55L69.85-40.45C72.05-41.25 74.55-40.75 76.35-38.95C78.85-36.45 78.85-32.55 76.35-30.05C73.85-27.55 69.95-27.55 67.45-30.05C65.65-31.85 65.15-34.65 66.05-36.85L57.55-45.35L57.55-23.05C58.15-22.75 58.75-22.35 59.25-21.85C61.75-19.35 61.75-15.45 59.25-12.95C56.75-10.45 52.85-10.45 50.35-12.95C47.85-15.45 47.85-19.35 50.35-21.85C50.95-22.45 51.65-22.95 52.45-23.25L52.45-45.75C51.65-46.05 50.95-46.55 50.35-47.15C48.45-49.05 48.05-51.75 48.95-54.05L35.15-67.85L13.15-45.85C9.75-42.45 8.05-38.85 8.05-35.05C8.05-31.25 9.75-27.65 13.15-24.25L44.15 6.75C47.55 10.15 51.15 11.85 54.95 11.85C58.75 11.85 62.35 10.15 65.75 6.75L96.75-24.25C100.15-27.65 101.85-31.25 101.85-35.05C101.85-38.85 100.15-42.45 96.75-45.75Z"/>
  </g>
  <g id="Heavy-S" transform="matrix(1 0 0 1 2582.48 696)">
   <path class="multicolor-0:systemRedColor SFSymbolsPreviewFF3B30" d="M95.4294-45.278L64.5238-76.1835C61.2418-79.4655 57.807-81.1183 54.2194-81.1183C50.6319-81.1183 47.1971-79.4891 43.9151-76.2072L38.6387-70.9308L52.043-57.5264C54.243-58.2264 56.743-57.7264 58.543-56.0264C60.343-54.2264 60.843-51.7264 60.043-49.5264L69.143-40.4264C71.343-41.2264 73.843-40.7264 75.643-38.9264C78.143-36.4264 78.143-32.5264 75.643-30.0264C73.143-27.5264 69.243-27.5264 66.743-30.0264C64.943-31.8264 64.443-34.6264 65.343-36.8264L56.843-45.3264L56.843-23.0264C57.443-22.7264 58.043-22.3264 58.543-21.8264C61.043-19.3264 61.043-15.4264 58.543-12.9264C56.043-10.4264 52.143-10.4264 49.643-12.9264C47.143-15.4264 47.143-19.3264 49.643-21.8264C50.243-22.4264 50.943-22.9264 51.743-23.2264L51.743-45.75C50.943-46.05 50.243-46.55 49.643-47.15C47.743-49.05 47.343-51.75 48.243-54.05L34.9623-67.3308L12.9859-45.3308C9.7039-42.0488 8.05111-38.614 8.07471-35.0264C8.07471-31.4388 9.72751-28.004 13.0095-24.722L43.9387 6.18355C47.2207 9.46554 50.6555 11.1183 54.243 11.1183C57.8306 11.1183 61.2654 9.48914 64.5474 6.20715L95.5002-24.7692C98.7822-28.0512 100.435-31.486 100.411-35.0736C100.388-38.6376 98.735-42.0724 95.4294-45.278Z"/>
  </g>
  <g id="Bold-S" transform="matrix(1 0 0 1 2286.6 696)">
   <path class="multicolor-0:systemRedColor SFSymbolsPreviewFF3B30" d="M93.9523-44.75L63.1523-75.55C60.0023-78.7 56.7523-80.3 53.4023-80.3C50.0523-80.3 46.8023-78.75 43.6523-75.6L38.4023-70.35L51.2523-57.5C53.4523-58.2 55.9523-57.7 57.7523-56C59.5523-54.2 60.0523-51.7 59.2523-49.5L68.3523-40.4C70.5523-41.2 73.0523-40.7 74.8523-38.9C77.3523-36.4 77.3523-32.5 74.8523-30C72.3523-27.5 68.4523-27.5 65.9523-30C64.1523-31.8 63.6523-34.6 64.5523-36.8L56.0523-45.3L56.0523-23C56.6523-22.7 57.2523-22.3 57.7523-21.8C60.2523-19.3 60.2523-15.4 57.7523-12.9C55.2523-10.4 51.3523-10.4 48.8523-12.9C46.3523-15.4 46.3523-19.3 48.8523-21.8C49.4523-22.4 50.1523-22.9 50.9523-23.2L50.9523-45.75C50.1523-46.05 49.4523-46.55 48.8523-47.15C46.9523-49.05 46.5523-51.75 47.4523-54.05L34.7523-66.75L12.8023-44.75C9.65235-41.6 8.05235-38.35 8.10235-35C8.10235-31.65 9.70235-28.4 12.8523-25.25L43.7023 5.55C46.8523 8.7 50.1023 10.3 53.4523 10.3C56.8023 10.3 60.0523 8.75 63.2023 5.6L94.1023-25.35C97.2523-28.5 98.8523-31.75 98.8023-35.1C98.7523-38.4 97.1523-41.65 93.9523-44.75Z"/>
  </g>
  <g id="Semibold-S" transform="matrix(1 0 0 1 1990.46 696)">
   <path class="multicolor-0:systemRedColor SFSymbolsPreviewFF3B30" d="M92.934-44.386L62.2068-75.1132C59.1478-78.1722 56.0252-79.7358 52.839-79.7358C49.6528-79.7358 46.5302-78.2404 43.4712-75.1814L38.2394-69.9496L50.7072-57.4818C52.9072-58.1818 55.4072-57.6818 57.2072-55.9818C59.0072-54.1818 59.5072-51.6818 58.7072-49.4818L67.8072-40.3818C70.0072-41.1818 72.5072-40.6818 74.3072-38.8818C76.8072-36.3818 76.8072-32.4818 74.3072-29.9818C71.8072-27.4818 67.9072-27.4818 65.4072-29.9818C63.6072-31.7818 63.1072-34.5818 64.0072-36.7818L55.5072-45.2818L55.5072-22.9818C56.1072-22.6818 56.7072-22.2818 57.2072-21.7818C59.7072-19.2818 59.7072-15.3818 57.2072-12.8818C54.7072-10.3818 50.8072-10.3818 48.3072-12.8818C45.8072-15.3818 45.8072-19.2818 48.3072-21.7818C48.9072-22.3818 49.6072-22.8818 50.4072-23.1818L50.4072-45.75C49.6072-46.05 48.9072-46.55 48.3072-47.15C46.4072-49.05 46.0072-51.75 46.9072-54.05L34.6076-66.3496L12.6758-44.3496C9.6168-41.2906 8.0532-38.168 8.1214-34.9818C8.1214-31.7956 9.685-28.673 12.744-25.614L43.5394 5.1132C46.5984 8.1722 49.721 9.7358 52.9072 9.7358C56.0934 9.7358 59.216 8.2404 62.275 5.1814L93.1386-25.7504C96.1976-28.8094 97.7612-31.932 97.693-35.1182C97.6248-38.2362 96.0612-41.3588 92.934-44.386Z"/>
  </g>
  <g id="Medium-S" transform="matrix(1 0 0 1 1694.18 696)">
   <path class="multicolor-0:systemRedColor SFSymbolsPreviewFF3B30" d="M92.1618-44.11L61.4898-74.782C58.4998-77.772 55.4738-79.308 52.4118-79.308C49.3498-79.308 46.3238-77.854 43.3338-74.864L38.1158-69.646L50.2938-57.468C52.4938-58.168 54.9938-57.668 56.7938-55.968C58.5938-54.168 59.0938-51.668 58.2938-49.468L67.3938-40.368C69.5938-41.168 72.0938-40.668 73.8938-38.868C76.3938-36.368 76.3938-32.468 73.8938-29.968C71.3938-27.468 67.4938-27.468 64.9938-29.968C63.1938-31.768 62.6938-34.568 63.5938-36.768L55.0938-45.268L55.0938-22.968C55.6938-22.668 56.2938-22.268 56.7938-21.768C59.2938-19.268 59.2938-15.368 56.7938-12.868C54.2938-10.368 50.3938-10.368 47.8938-12.868C45.3938-15.368 45.3938-19.268 47.8938-21.768C48.4938-22.368 49.1938-22.868 49.9938-23.168L49.9938-45.75C49.1938-46.05 48.4938-46.55 47.8938-47.15C45.9938-49.05 45.5938-51.75 46.4938-54.05L34.4978-66.046L12.5798-44.046C9.58985-41.056 8.05385-38.03 8.13585-34.968C8.13585-31.906 9.67185-28.88 12.6618-25.89L43.4158 4.782C46.4058 7.772 49.4318 9.308 52.4938 9.308C55.5558 9.308 58.5818 7.854 61.5718 4.864L92.4078-26.054C95.3978-29.044 96.9338-32.07 96.8518-35.132C96.7698-38.112 95.2338-41.138 92.1618-44.11Z"/>
  </g>
  <g id="Regular-S" transform="matrix(1 0 0 1 1398.04 696)">
   <path class="multicolor-0:systemRedColor SFSymbolsPreviewFF3B30" d="M91.1547-43.75L60.5547-74.35C57.6547-77.25 54.7547-78.75 51.8547-78.75C48.9547-78.75 46.0547-77.35 43.1547-74.45L37.9547-69.25L49.7547-57.45C51.9547-58.15 54.4547-57.65 56.2547-55.95C58.0547-54.15 58.5547-51.65 57.7547-49.45L66.8547-40.35C69.0547-41.15 71.5547-40.65 73.3547-38.85C75.8547-36.35 75.8547-32.45 73.3547-29.95C70.8547-27.45 66.9547-27.45 64.4547-29.95C62.6547-31.75 62.1547-34.55 63.0547-36.75L54.5547-45.25L54.5547-22.95C55.1547-22.65 55.7547-22.25 56.2547-21.75C58.7547-19.25 58.7547-15.35 56.2547-12.85C53.7547-10.35 49.8547-10.35 47.3547-12.85C44.8547-15.35 44.8547-19.25 47.3547-21.75C47.9547-22.35 48.6547-22.85 49.4547-23.15L49.4547-45.75C48.6547-46.05 47.9547-46.55 47.3547-47.15C45.4547-49.05 45.0547-51.75 45.9547-54.05L34.3547-65.65L12.4547-43.65C9.55469-40.75 8.05469-37.85 8.15469-34.95C8.15469-32.05 9.65469-29.15 12.5547-26.25L43.2547 4.35C46.1547 7.25 49.0547 8.75 51.9547 8.75C54.8547 8.75 57.7547 7.35 60.6547 4.45L91.4547-26.45C94.3547-29.35 95.8547-32.25 95.7547-35.15C95.6547-37.95 94.1547-40.85 91.1547-43.75Z"/>
  </g>
  <g id="Light-S" transform="matrix(1 0 0 1 1102.18 696)">
   <path class="multicolor-0:systemRedColor SFSymbolsPreviewFF3B30" d="M89.7865-43.1833L59.1865-73.7833C56.4865-76.4833 53.7531-77.8833 51.0198-77.8833C48.2865-77.8833 45.5865-76.55 42.8531-73.85L37.6531-68.6833L48.8531-57.4833C51.0531-58.1833 53.5531-57.6833 55.3531-55.9833C57.1531-54.1833 57.6531-51.6833 56.8531-49.4833L65.9531-40.3833C68.1531-41.1833 70.6531-40.6833 72.4531-38.8833C74.9531-36.3833 74.9531-32.4833 72.4531-29.9833C69.9531-27.4833 66.0531-27.4833 63.5531-29.9833C61.7531-31.7833 61.2531-34.5833 62.1531-36.7833L53.6531-45.2833L53.6531-22.9833C54.2531-22.6833 54.8531-22.2833 55.3531-21.7833C57.8531-19.2833 57.8531-15.3833 55.3531-12.8833C52.8531-10.3833 48.9531-10.3833 46.4531-12.8833C43.9531-15.3833 43.9531-19.2833 46.4531-21.7833C47.0531-22.3833 47.7531-22.8833 48.5531-23.1833L48.5531-45.75C47.7531-46.05 47.0531-46.55 46.4531-47.15C44.5531-49.05 44.1531-51.75 45.0531-54.05L34.0531-65.05L12.1531-43.1167C9.45313-40.4167 8.05313-37.6833 8.1198-34.95C8.1198-32.2167 9.5198-29.5167 12.2198-26.7833L42.9198 3.85C45.6198 6.55 48.3531 7.95 51.0865 7.91667C53.8198 7.91667 56.5531 6.58333 59.2198 3.91667L89.9531-26.9167C92.6531-29.6167 94.0198-32.3167 93.9865-35.05C93.9198-37.75 92.5531-40.4833 89.7865-43.1833Z"/>
  </g>
  <g id="Thin-S" transform="matrix(1 0 0 1 806.595 696)">
   <path class="multicolor-0:systemRedColor SFSymbolsPreviewFF3B30" d="M87.9769-42.4339L57.3769-73.0339C54.9414-75.4694 52.4285-76.7371 49.9156-76.7371C47.4027-76.7371 44.9672-75.4919 42.4543-73.0565L37.2543-67.9339L47.6607-57.5274C49.8607-58.2274 52.3607-57.7274 54.1607-56.0274C55.9607-54.2274 56.4607-51.7274 55.6607-49.5274L64.7607-40.4274C66.9607-41.2274 69.4607-40.7274 71.2607-38.9274C73.7607-36.4274 73.7607-32.5274 71.2607-30.0274C68.7607-27.5274 64.8607-27.5274 62.3607-30.0274C60.5607-31.8274 60.0607-34.6274 60.9607-36.8274L52.4607-45.3274L52.4607-23.0274C53.0607-22.7274 53.6607-22.3274 54.1607-21.8274C56.6607-19.3274 56.6607-15.4274 54.1607-12.9274C51.6607-10.4274 47.7607-10.4274 45.2607-12.9274C42.7607-15.4274 42.7607-19.3274 45.2607-21.8274C45.8607-22.4274 46.5607-22.9274 47.3607-23.2274L47.3607-45.75C46.5607-46.05 45.8607-46.55 45.2607-47.15C43.3607-49.05 42.9607-51.75 43.8607-54.05L33.6543-64.2565L11.7543-42.4113C9.3188-39.9758 8.05106-37.4629 8.07364-34.95C8.07364-32.4371 9.34138-30.0016 11.7769-27.4887L42.4769 3.18871C44.9124 5.62419 47.4253 6.89194 49.9382 6.81452C52.4511 6.81452 54.964 5.56935 57.322 3.21129L87.9672-27.5339C90.4027-29.9694 91.593-32.4048 91.6478-34.9177C91.6253-37.4855 90.4349-39.9984 87.9769-42.4339Z"/>
  </g>
  <g id="Ultralight-S" transform="matrix(1 0 0 1 510.461 696)">
   <path class="multicolor-0:systemRedColor SFSymbolsPreviewFF3B30" d="M87.05-42.05L56.45-72.65C54.15-74.95 51.75-76.15 49.35-76.15C46.95-76.15 44.65-74.95 42.25-72.65L37.05-67.55L47.05-57.55C49.25-58.25 51.75-57.75 53.55-56.05C55.35-54.25 55.85-51.75 55.05-49.55L64.15-40.45C66.35-41.25 68.85-40.75 70.65-38.95C73.15-36.45 73.15-32.55 70.65-30.05C68.15-27.55 64.25-27.55 61.75-30.05C59.95-31.85 59.45-34.65 60.35-36.85L51.85-45.35L51.85-23.05C52.45-22.75 53.05-22.35 53.55-21.85C56.05-19.35 56.05-15.45 53.55-12.95C51.05-10.45 47.15-10.45 44.65-12.95C42.15-15.45 42.15-19.35 44.65-21.85C45.25-22.45 45.95-22.95 46.75-23.25L46.75-45.75C45.95-46.05 45.25-46.55 44.65-47.15C42.75-49.05 42.35-51.75 43.25-54.05L33.45-63.85L11.55-42.05C9.25-39.75 8.05-37.35 8.05-34.95C8.05-32.55 9.25-30.25 11.55-27.85L42.25 2.85C44.55 5.15 46.95 6.35 49.35 6.25C51.75 6.25 54.15 5.05 56.35 2.85L86.95-27.85C89.25-30.15 90.35-32.45 90.45-34.85C90.45-37.35 89.35-39.75 87.05-42.05Z"/>
  </g>
 </g>
</svg>
