<?xml version="1.0" encoding="UTF-8"?>
<!--Generator: Apple Native CoreSVG 149-->
<!DOCTYPE svg
PUBLIC "-//W3C//DTD SVG 1.1//EN"
       "http://www.w3.org/Graphics/SVG/1.1/DTD/svg11.dtd">
<svg version="1.1" xmlns="http://www.w3.org/2000/svg" xmlns:xlink="http://www.w3.org/1999/xlink" width="3300" height="2200">
 <!--glyph: "", point size: 100.0, font version: "17.0d9e1", template writer version: "59"-->
 <g id="Notes">
  <rect height="2200" id="artboard" style="fill:white;opacity:1" width="3300" x="0" y="0"/>
  <line style="fill:none;stroke:black;opacity:1;stroke-width:0.5;" x1="263" x2="3036" y1="292" y2="292"/>
  <text style="stroke:none;fill:black;font-family:sans-serif;font-size:13;font-weight:bold;" transform="matrix(1 0 0 1 263 322)">Weight/Scale Variations</text>
  <text style="stroke:none;fill:black;font-family:sans-serif;font-size:13;text-anchor:middle;" transform="matrix(1 0 0 1 559.711 322)">Ultralight</text>
  <text style="stroke:none;fill:black;font-family:sans-serif;font-size:13;text-anchor:middle;" transform="matrix(1 0 0 1 856.422 322)">Thin</text>
  <text style="stroke:none;fill:black;font-family:sans-serif;font-size:13;text-anchor:middle;" transform="matrix(1 0 0 1 1153.13 322)">Light</text>
  <text style="stroke:none;fill:black;font-family:sans-serif;font-size:13;text-anchor:middle;" transform="matrix(1 0 0 1 1449.84 322)">Regular</text>
  <text style="stroke:none;fill:black;font-family:sans-serif;font-size:13;text-anchor:middle;" transform="matrix(1 0 0 1 1746.56 322)">Medium</text>
  <text style="stroke:none;fill:black;font-family:sans-serif;font-size:13;text-anchor:middle;" transform="matrix(1 0 0 1 2043.27 322)">Semibold</text>
  <text style="stroke:none;fill:black;font-family:sans-serif;font-size:13;text-anchor:middle;" transform="matrix(1 0 0 1 2339.98 322)">Bold</text>
  <text style="stroke:none;fill:black;font-family:sans-serif;font-size:13;text-anchor:middle;" transform="matrix(1 0 0 1 2636.69 322)">Heavy</text>
  <text style="stroke:none;fill:black;font-family:sans-serif;font-size:13;text-anchor:middle;" transform="matrix(1 0 0 1 2933.4 322)">Black</text>
  <line style="fill:none;stroke:black;opacity:1;stroke-width:0.5;" x1="263" x2="3036" y1="1903" y2="1903"/>
  <g transform="matrix(1 0 0 1 263 1933)">
   <path d="M9.24805 0.830078Q10.8691 0.830078 12.2949 0.214844Q13.7207-0.400391 14.8096-1.49414Q15.8984-2.58789 16.5186-4.01367Q17.1387-5.43945 17.1387-7.05078Q17.1387-8.66211 16.5186-10.0879Q15.8984-11.5137 14.8047-12.6074Q13.7109-13.7012 12.2852-14.3164Q10.8594-14.9316 9.23828-14.9316Q7.62695-14.9316 6.20117-14.3164Q4.77539-13.7012 3.69141-12.6074Q2.60742-11.5137 1.9873-10.0879Q1.36719-8.66211 1.36719-7.05078Q1.36719-5.43945 1.9873-4.01367Q2.60742-2.58789 3.69629-1.49414Q4.78516-0.400391 6.21094 0.214844Q7.63672 0.830078 9.24805 0.830078ZM9.24805-0.654297Q7.91992-0.654297 6.7627-1.14746Q5.60547-1.64062 4.73145-2.51953Q3.85742-3.39844 3.36426-4.56055Q2.87109-5.72266 2.87109-7.05078Q2.87109-8.37891 3.35938-9.54102Q3.84766-10.7031 4.72168-11.582Q5.5957-12.4609 6.75293-12.9541Q7.91016-13.4473 9.23828-13.4473Q10.5762-13.4473 11.7334-12.9541Q12.8906-12.4609 13.7695-11.582Q14.6484-10.7031 15.1465-9.54102Q15.6445-8.37891 15.6445-7.05078Q15.6445-5.72266 15.1514-4.56055Q14.6582-3.39844 13.7842-2.51953Q12.9102-1.64062 11.748-1.14746Q10.5859-0.654297 9.24805-0.654297ZM5.83984-7.04102Q5.83984-6.71875 6.04492-6.51855Q6.25-6.31836 6.5918-6.31836L8.50586-6.31836L8.50586-4.39453Q8.50586-4.0625 8.70605-3.85742Q8.90625-3.65234 9.22852-3.65234Q9.56055-3.65234 9.76562-3.85742Q9.9707-4.0625 9.9707-4.39453L9.9707-6.31836L11.8945-6.31836Q12.2266-6.31836 12.4316-6.51855Q12.6367-6.71875 12.6367-7.04102Q12.6367-7.37305 12.4316-7.57812Q12.2266-7.7832 11.8945-7.7832L9.9707-7.7832L9.9707-9.69727Q9.9707-10.0391 9.76562-10.2441Q9.56055-10.4492 9.22852-10.4492Q8.90625-10.4492 8.70605-10.2441Q8.50586-10.0391 8.50586-9.69727L8.50586-7.7832L6.5918-7.7832Q6.25-7.7832 6.04492-7.57812Q5.83984-7.37305 5.83984-7.04102Z"/>
  </g>
  <g transform="matrix(1 0 0 1 281.867 1933)">
   <path d="M11.709 2.91016Q13.75 2.91016 15.5518 2.12891Q17.3535 1.34766 18.7305-0.0292969Q20.1074-1.40625 20.8887-3.20801Q21.6699-5.00977 21.6699-7.05078Q21.6699-9.0918 20.8887-10.8936Q20.1074-12.6953 18.7305-14.0723Q17.3535-15.4492 15.5469-16.2305Q13.7402-17.0117 11.6992-17.0117Q9.6582-17.0117 7.85645-16.2305Q6.05469-15.4492 4.68262-14.0723Q3.31055-12.6953 2.5293-10.8936Q1.74805-9.0918 1.74805-7.05078Q1.74805-5.00977 2.5293-3.20801Q3.31055-1.40625 4.6875-0.0292969Q6.06445 1.34766 7.86621 2.12891Q9.66797 2.91016 11.709 2.91016ZM11.709 1.25Q9.98047 1.25 8.47656 0.605469Q6.97266-0.0390625 5.83496-1.17676Q4.69727-2.31445 4.05762-3.81836Q3.41797-5.32227 3.41797-7.05078Q3.41797-8.7793 4.05762-10.2832Q4.69727-11.7871 5.83008-12.9297Q6.96289-14.0723 8.4668-14.7119Q9.9707-15.3516 11.6992-15.3516Q13.4277-15.3516 14.9316-14.7119Q16.4355-14.0723 17.5781-12.9297Q18.7207-11.7871 19.3652-10.2832Q20.0098-8.7793 20.0098-7.05078Q20.0098-5.32227 19.3701-3.81836Q18.7305-2.31445 17.5928-1.17676Q16.4551-0.0390625 14.9463 0.605469Q13.4375 1.25 11.709 1.25ZM7.39258-7.04102Q7.39258-6.68945 7.62695-6.46484Q7.86133-6.24023 8.23242-6.24023L10.8789-6.24023L10.8789-3.57422Q10.8789-3.21289 11.1035-2.9834Q11.3281-2.75391 11.6797-2.75391Q12.0508-2.75391 12.2852-2.9834Q12.5195-3.21289 12.5195-3.57422L12.5195-6.24023L15.1758-6.24023Q15.5371-6.24023 15.7715-6.46484Q16.0059-6.68945 16.0059-7.04102Q16.0059-7.41211 15.7715-7.6416Q15.5371-7.87109 15.1758-7.87109L12.5195-7.87109L12.5195-10.5176Q12.5195-10.8984 12.2852-11.1279Q12.0508-11.3574 11.6797-11.3574Q11.3281-11.3574 11.1035-11.1279Q10.8789-10.8984 10.8789-10.5176L10.8789-7.87109L8.23242-7.87109Q7.85156-7.87109 7.62207-7.6416Q7.39258-7.41211 7.39258-7.04102Z"/>
  </g>
  <g transform="matrix(1 0 0 1 305.646 1933)">
   <path d="M14.9707 5.66406Q17.0605 5.66406 18.96 5.01465Q20.8594 4.36523 22.4512 3.19336Q24.043 2.02148 25.2197 0.429688Q26.3965-1.16211 27.0459-3.06641Q27.6953-4.9707 27.6953-7.05078Q27.6953-9.14062 27.0459-11.04Q26.3965-12.9395 25.2197-14.5312Q24.043-16.123 22.4512-17.2998Q20.8594-18.4766 18.9551-19.126Q17.0508-19.7754 14.9609-19.7754Q12.8711-19.7754 10.9717-19.126Q9.07227-18.4766 7.48535-17.2998Q5.89844-16.123 4.72168-14.5312Q3.54492-12.9395 2.90039-11.04Q2.25586-9.14062 2.25586-7.05078Q2.25586-4.9707 2.90527-3.06641Q3.55469-1.16211 4.72656 0.429688Q5.89844 2.02148 7.49023 3.19336Q9.08203 4.36523 10.9814 5.01465Q12.8809 5.66406 14.9707 5.66406ZM14.9707 3.84766Q13.1641 3.84766 11.5283 3.2959Q9.89258 2.74414 8.53516 1.74805Q7.17773 0.751953 6.17676-0.610352Q5.17578-1.97266 4.62891-3.6084Q4.08203-5.24414 4.08203-7.05078Q4.08203-8.86719 4.62891-10.5029Q5.17578-12.1387 6.17188-13.501Q7.16797-14.8633 8.52539-15.8594Q9.88281-16.8555 11.5186-17.4023Q13.1543-17.9492 14.9609-17.9492Q16.7773-17.9492 18.4131-17.4023Q20.0488-16.8555 21.4111-15.8594Q22.7734-14.8633 23.7695-13.501Q24.7656-12.1387 25.3174-10.5029Q25.8691-8.86719 25.8691-7.05078Q25.8789-5.24414 25.332-3.6084Q24.7852-1.97266 23.7842-0.610352Q22.7832 0.751953 21.4209 1.74805Q20.0586 2.74414 18.4229 3.2959Q16.7871 3.84766 14.9707 3.84766ZM9.45312-7.04102Q9.45312-6.66016 9.71191-6.41113Q9.9707-6.16211 10.3711-6.16211L14.0625-6.16211L14.0625-2.46094Q14.0625-2.06055 14.3115-1.80664Q14.5605-1.55273 14.9414-1.55273Q15.3516-1.55273 15.6055-1.80664Q15.8594-2.06055 15.8594-2.46094L15.8594-6.16211L19.5605-6.16211Q19.9609-6.16211 20.2148-6.41113Q20.4688-6.66016 20.4688-7.04102Q20.4688-7.45117 20.2148-7.70508Q19.9609-7.95898 19.5605-7.95898L15.8594-7.95898L15.8594-11.6504Q15.8594-12.0605 15.6055-12.3145Q15.3516-12.5684 14.9414-12.5684Q14.5605-12.5684 14.3115-12.3096Q14.0625-12.0508 14.0625-11.6504L14.0625-7.95898L10.3711-7.95898Q9.96094-7.95898 9.70703-7.70508Q9.45312-7.45117 9.45312-7.04102Z"/>
  </g>
  <text style="stroke:none;fill:black;font-family:sans-serif;font-size:13;font-weight:bold;" transform="matrix(1 0 0 1 263 1953)">Design Variations</text>
  <text style="stroke:none;fill:black;font-family:sans-serif;font-size:13;" transform="matrix(1 0 0 1 263 1971)">Symbols are supported in up to nine weights and three scales.</text>
  <text style="stroke:none;fill:black;font-family:sans-serif;font-size:13;" transform="matrix(1 0 0 1 263 1989)">For optimal layout with text and other symbols, vertically align</text>
  <text style="stroke:none;fill:black;font-family:sans-serif;font-size:13;" transform="matrix(1 0 0 1 263 2007)">symbols with the adjacent text.</text>
  <line style="fill:none;stroke:#00AEEF;stroke-width:0.5;opacity:1.0;" x1="776" x2="776" y1="1919" y2="1933"/>
  <g transform="matrix(1 0 0 1 776 1933)">
   <path d="M3.31055 0.15625Q3.70117 0.15625 3.91602-0.00976562Q4.13086-0.175781 4.26758-0.585938L5.52734-4.0332L11.2891-4.0332L12.5488-0.585938Q12.6855-0.175781 12.9004-0.00976562Q13.1152 0.15625 13.4961 0.15625Q13.8867 0.15625 14.1162-0.0585938Q14.3457-0.273438 14.3457-0.644531Q14.3457-0.869141 14.2383-1.17188L9.6582-13.3691Q9.48242-13.8184 9.17969-14.043Q8.87695-14.2676 8.4082-14.2676Q7.5-14.2676 7.17773-13.3789L2.59766-1.16211Q2.49023-0.859375 2.49023-0.634766Q2.49023-0.263672 2.70996-0.0537109Q2.92969 0.15625 3.31055 0.15625ZM6.00586-5.51758L8.37891-12.0898L8.42773-12.0898L10.8008-5.51758Z"/>
  </g>
  <line style="fill:none;stroke:#00AEEF;stroke-width:0.5;opacity:1.0;" x1="793.197" x2="793.197" y1="1919" y2="1933"/>
  <text style="stroke:none;fill:black;font-family:sans-serif;font-size:13;font-weight:bold;" transform="matrix(1 0 0 1 776 1953)">Margins</text>
  <text style="stroke:none;fill:black;font-family:sans-serif;font-size:13;" transform="matrix(1 0 0 1 776 1971)">Leading and trailing margins on the left and right side of each symbol</text>
  <text style="stroke:none;fill:black;font-family:sans-serif;font-size:13;" transform="matrix(1 0 0 1 776 1989)">can be adjusted by modifying the x-location of the margin guidelines.</text>
  <text style="stroke:none;fill:black;font-family:sans-serif;font-size:13;" transform="matrix(1 0 0 1 776 2007)">Modifications are automatically applied proportionally to all</text>
  <text style="stroke:none;fill:black;font-family:sans-serif;font-size:13;" transform="matrix(1 0 0 1 776 2025)">scales and weights.</text>
  <g transform="matrix(1 0 0 1 1289 1933)">
   <path d="M2.8418 1.86523L4.54102 3.57422Q5.18555 4.22852 5.90332 4.17969Q6.62109 4.13086 7.31445 3.35938L18.0078-8.42773L17.041-9.4043L6.42578 2.27539Q6.16211 2.57812 5.89355 2.61719Q5.625 2.65625 5.27344 2.30469L4.10156 1.14258Q3.75 0.791016 3.79395 0.522461Q3.83789 0.253906 4.14062-0.0195312L15.6152-10.8203L14.6387-11.7871L3.04688-0.898438Q2.30469-0.214844 2.25098 0.498047Q2.19727 1.21094 2.8418 1.86523ZM9.25781-16.3281Q8.94531-16.0254 8.90625-15.6348Q8.86719-15.2441 9.04297-14.9512Q9.21875-14.6777 9.55566-14.541Q9.89258-14.4043 10.3809-14.5215Q11.4746-14.7754 12.5977-14.7314Q13.7207-14.6875 14.7949-13.9844L14.209-12.5293Q13.9551-11.9043 14.0674-11.4404Q14.1797-10.9766 14.5801-10.5664L16.875-8.25195Q17.2363-7.88086 17.5781-7.82227Q17.9199-7.76367 18.3398-7.8418L19.4043-8.03711L20.0684-7.36328L20.0293-6.80664Q20-6.43555 20.1221-6.12305Q20.2441-5.81055 20.6055-5.44922L21.3672-4.70703Q21.7285-4.3457 22.1533-4.33105Q22.5781-4.31641 22.9297-4.66797L25.8398-7.58789Q26.1914-7.93945 26.1816-8.35449Q26.1719-8.76953 25.8105-9.13086L25.0391-9.89258Q24.6875-10.2539 24.3799-10.3857Q24.0723-10.5176 23.7109-10.4883L23.1348-10.4395L22.4902-11.0742L22.7344-12.1973Q22.832-12.6172 22.6953-12.9834Q22.5586-13.3496 22.1191-13.7891L19.9219-15.9766Q18.6719-17.2168 17.2607-17.8369Q15.8496-18.457 14.4189-18.4814Q12.9883-18.5059 11.665-17.959Q10.3418-17.4121 9.25781-16.3281ZM10.752-15.957Q11.6602-16.6211 12.7002-16.9043Q13.7402-17.1875 14.8047-17.085Q15.8691-16.9824 16.8701-16.5137Q17.8711-16.0449 18.7012-15.2051L21.1328-12.793Q21.3086-12.6172 21.3525-12.4512Q21.3965-12.2852 21.3379-12.0312L21.0156-10.5469L22.5195-9.0625L23.5059-9.12109Q23.6914-9.13086 23.7891-9.09668Q23.8867-9.0625 24.0332-8.91602L24.6094-8.33984L22.168-5.89844L21.5918-6.47461Q21.4453-6.62109 21.4062-6.71875Q21.3672-6.81641 21.377-7.01172L21.4453-7.98828L19.9512-9.47266L18.4277-9.21875Q18.1836-9.16992 18.042-9.2041Q17.9004-9.23828 17.7148-9.41406L15.7129-11.416Q15.5176-11.5918 15.4932-11.7529Q15.4688-11.9141 15.5859-12.1875L16.4648-14.2773Q15.293-15.3711 13.8281-15.791Q12.3633-16.2109 10.8398-15.7617Q10.7227-15.7324 10.6885-15.8057Q10.6543-15.8789 10.752-15.957Z"/>
  </g>
  <text style="stroke:none;fill:black;font-family:sans-serif;font-size:13;font-weight:bold;" transform="matrix(1 0 0 1 1289 1953)">Exporting</text>
  <text style="stroke:none;fill:black;font-family:sans-serif;font-size:13;" transform="matrix(1 0 0 1 1289 1971)">Symbols should be outlined when exporting to ensure the</text>
  <text style="stroke:none;fill:black;font-family:sans-serif;font-size:13;" transform="matrix(1 0 0 1 1289 1989)">design is preserved when submitting to Xcode.</text>
  <text id="template-version" style="stroke:none;fill:black;font-family:sans-serif;font-size:13;text-anchor:end;" transform="matrix(1 0 0 1 3036 1933)">Template v.3.0</text>
  <text style="stroke:none;fill:black;font-family:sans-serif;font-size:13;text-anchor:end;" transform="matrix(1 0 0 1 3036 1951)">Requires Xcode 13 or greater</text>
  <text id="descriptive-name" style="stroke:none;fill:black;font-family:sans-serif;font-size:13;text-anchor:end;" transform="matrix(1 0 0 1 3036 1969)">Generated from logo.markdown</text>
  <text style="stroke:none;fill:black;font-family:sans-serif;font-size:13;text-anchor:end;" transform="matrix(1 0 0 1 3036 1987)">Typeset at 100 points</text>
  <text style="stroke:none;fill:black;font-family:sans-serif;font-size:13;" transform="matrix(1 0 0 1 263 726)">Small</text>
  <text style="stroke:none;fill:black;font-family:sans-serif;font-size:13;" transform="matrix(1 0 0 1 263 1156)">Medium</text>
  <text style="stroke:none;fill:black;font-family:sans-serif;font-size:13;" transform="matrix(1 0 0 1 263 1586)">Large</text>
 </g>
 <g id="Guides">
  <g id="H-reference" style="fill:#27AAE1;stroke:none;" transform="matrix(1 0 0 1 339 696)">
   <path d="M0.976562 0L3.66211 0L29.3457-67.1387L30.0293-67.1387L30.0293-70.459L28.125-70.459ZM11.6699-24.4629L46.9727-24.4629L46.2402-26.709L12.4512-26.709ZM55.127 0L57.7637 0L30.6152-70.459L29.4434-70.459L29.4434-67.1387Z"/>
  </g>
  <line id="Baseline-S" style="fill:none;stroke:#27AAE1;opacity:1;stroke-width:0.5;" x1="263" x2="3036" y1="696" y2="696"/>
  <line id="Capline-S" style="fill:none;stroke:#27AAE1;opacity:1;stroke-width:0.5;" x1="263" x2="3036" y1="625.541" y2="625.541"/>
  <g id="H-reference" style="fill:#27AAE1;stroke:none;" transform="matrix(1 0 0 1 339 1126)">
   <path d="M0.976562 0L3.66211 0L29.3457-67.1387L30.0293-67.1387L30.0293-70.459L28.125-70.459ZM11.6699-24.4629L46.9727-24.4629L46.2402-26.709L12.4512-26.709ZM55.127 0L57.7637 0L30.6152-70.459L29.4434-70.459L29.4434-67.1387Z"/>
  </g>
  <line id="Baseline-M" style="fill:none;stroke:#27AAE1;opacity:1;stroke-width:0.5;" x1="263" x2="3036" y1="1126" y2="1126"/>
  <line id="Capline-M" style="fill:none;stroke:#27AAE1;opacity:1;stroke-width:0.5;" x1="263" x2="3036" y1="1055.54" y2="1055.54"/>
  <g id="H-reference" style="fill:#27AAE1;stroke:none;" transform="matrix(1 0 0 1 339 1556)">
   <path d="M0.976562 0L3.66211 0L29.3457-67.1387L30.0293-67.1387L30.0293-70.459L28.125-70.459ZM11.6699-24.4629L46.9727-24.4629L46.2402-26.709L12.4512-26.709ZM55.127 0L57.7637 0L30.6152-70.459L29.4434-70.459L29.4434-67.1387Z"/>
  </g>
  <line id="Baseline-L" style="fill:none;stroke:#27AAE1;opacity:1;stroke-width:0.5;" x1="263" x2="3036" y1="1556" y2="1556"/>
  <line id="Capline-L" style="fill:none;stroke:#27AAE1;opacity:1;stroke-width:0.5;" x1="263" x2="3036" y1="1485.54" y2="1485.54"/>
  <line id="left-margin-Regular-M" style="fill:none;stroke:#00AEEF;stroke-width:0.5;opacity:1.0;" x1="1328.58" x2="1328.58" y1="1030.73" y2="1150.14"/>
  <line id="right-margin-Regular-M" style="fill:none;stroke:#00AEEF;stroke-width:0.5;opacity:1.0;" x1="1571.1" x2="1571.1" y1="1030.73" y2="1150.14"/>
 </g>
 <g id="Symbols">
  <g id="Black-L" transform="matrix(1 0 0 1 2775.46 1556)">
   <path d="M126.323-43.3122C125.5-42.9828 125.215-42.4914 125.008-42.0397C113.92-28.199 102.789-14.2387 91.7003-0.397961C90.263 1.36866 90.263 1.36866 88.9481-0.397961C77.7399-14.3557 66.6514-28.1964 55.5629-41.9946C55.2335-42.4861 54.7845-42.8181 54.41-43.4318C54.0832-42.6508 54.1257-41.9946 54.1257-41.3358C54.1257-19.8176 54.1257 1.74314 54.1257 23.1391C54.1257 23.7953 54.1257 24.4117 54.1257 25.0678C54.1257 26.0534 53.6342 26.505 52.6884 26.505C41.4352 26.505 30.182 26.505 18.7693 26.505C17.7838 26.505 17.3321 26.1756 17.3321 25.0678C17.3321 24.5737 17.3321 24.1247 17.3321 23.6306C17.3321-15.7531 17.3321-55.1341 17.3321-94.3982C17.3321-97.1503 17.3321-97.1503 20.2039-97.1503C30.7983-97.1503 41.4352-97.1503 52.0296-97.1503C53.4669-97.1503 54.4524-96.6562 55.3955-95.5484C66.6461-81.543 77.7797-67.5376 88.9879-53.4576C90.2604-51.8557 90.2604-51.8557 91.5754-53.4576C102.664-67.418 113.915-81.2613 125.003-95.2641C125.991-96.5366 127.096-97.0307 128.698-97.0307C139.457-97.0307 150.094-97.0307 160.853-97.0307C163.114-97.0307 163.114-97.0307 163.114-94.7726C163.114-55.0596 163.114-15.3491 163.114 24.3639C163.114 26.622 163.114 26.622 160.856 26.622C150.097 26.622 139.338 26.622 128.536 26.622C126.44 26.622 126.321 26.622 126.321 24.3639C126.321 2.47384 126.321-19.3738 126.321-41.2639C126.323-41.9946 126.323-42.4887 126.323-43.3122ZM262.951-65.4867C262.951-55.8353 262.951-46.0644 262.951-36.368C262.951-33.7805 262.951-33.7805 265.538-33.7805C275.968-33.7805 286.278-33.7805 296.708-33.7805C297.367-33.7805 298.472-34.1099 298.801-33.3315C299.131-32.6727 298.188-32.2237 297.813-31.7296C280.606-12.7564 263.397 6.21685 246.191 25.0254C244.753 26.6273 244.753 26.6273 243.316 25.0254C225.868 6.05215 208.616-12.9211 191.29-31.9394C190.96-32.3884 190.182-32.7603 190.347-33.3766C190.631-34.0354 191.454-33.8681 191.991-33.8681C202.585-33.8681 213.222-33.8681 223.817-33.8681C226.075-33.8681 226.077-33.8681 226.077-36.1288C226.077-55.2667 226.077-74.5667 226.077-93.7073C226.077-94.321 226.077-94.8575 226.077-95.4713C226.077-96.7438 226.407-97.3999 227.841-97.2379C228.455-97.2379 228.992-97.2379 229.605-97.2379C240.035-97.2379 250.345-97.2379 260.775-97.2379C262.868-97.2379 262.868-97.2379 262.868-95.1445C262.951-85.2383 262.951-75.3027 262.951-65.4867Z"/>
  </g>
  <g id="Heavy-L" transform="matrix(1 0 0 1 2479.12 1556)">
   <path d="M126.497-43.1258C125.673-42.7964 125.417-42.3147 125.192-41.8815C114.292-28.2676 103.331-14.5623 92.4315-0.948343C91.0225 0.790044 91.0225 0.790044 89.7172-0.948343C78.7262-14.6413 67.8265-28.2552 56.9268-41.8082C56.5974-42.2899 56.1766-42.6317 55.7739-43.2172C55.4568-42.4546 55.5178-41.8082 55.5178-41.1494C55.5178-20.0088 55.5178 1.19276 55.5178 22.2296C55.5178 22.8761 55.5178 23.4739 55.5178 24.1203C55.5178 25.0962 55.036 25.5293 54.1088 25.5293C43.0444 25.5293 31.98 25.5293 20.7756 25.5293C19.7998 25.5293 19.3666 25.1999 19.3666 24.1203C19.3666 23.6262 19.3666 23.2055 19.3666 22.7114C19.3666-16.0017 19.3666-54.7024 19.3666-93.324C19.3666-96.0383 19.3666-96.0383 22.1722-96.0383C32.5778-96.0383 43.0444-96.0383 53.45-96.0383C54.859-96.0383 55.8348-95.5442 56.7497-94.4646C67.8017-80.6859 78.7747-66.9073 89.7658-53.1106C91.0101-51.5369 91.0101-51.5369 92.3154-53.1106C103.215-66.8159 114.267-80.4422 125.167-94.2085C126.155-95.4528 127.222-95.9469 128.796-95.9469C139.366-95.9469 149.833-95.9469 160.403-95.9469C162.636-95.9469 162.636-95.9469 162.636-93.7267C162.636-54.6843 162.636-15.6542 162.636 23.3882C162.636 25.6084 162.636 25.6084 160.415 25.6084C149.845 25.6084 139.275 25.6084 128.644 25.6084C126.576 25.6084 126.484 25.6084 126.484 23.3882C126.484 1.85727 126.484-19.6127 126.484-41.1437C126.497-41.8082 126.497-42.3023 126.497-43.1258ZM260.781-64.9128C260.781-55.4221 260.781-45.84 260.781-36.276C260.781-33.7265 260.781-33.7265 263.331-33.7265C273.572-33.7265 283.721-33.7265 293.962-33.7265C294.621-33.7265 295.688-34.0559 296.018-33.3057C296.347-32.6469 295.432-32.2261 295.03-31.732C278.116-13.08 261.19 5.57206 244.276 24.0594C242.867 25.6331 242.867 25.6331 241.458 24.0594C224.35 5.40736 207.363-13.2447 190.358-31.97C190.028-32.3908 189.278-32.7812 189.443-33.379C189.699-34.0378 190.522-33.8607 191.077-33.8607C201.483-33.8607 211.949-33.8607 222.355-33.8607C224.575-33.8607 224.588-33.8607 224.588-36.0932C224.588-54.91 224.588-73.879 224.588-92.7081C224.588-93.2936 224.588-93.8487 224.588-94.4341C224.588-95.6784 224.917-96.3249 226.314-96.1725C226.899-96.1725 227.454-96.1725 228.04-96.1725C238.28-96.1725 248.43-96.1725 258.671-96.1725C260.726-96.1725 260.726-96.1725 260.726-94.1171C260.781-84.3151 260.781-74.5683 260.781-64.9128Z"/>
  </g>
  <g id="Bold-L" transform="matrix(1 0 0 1 2182.88 1556)">
   <path d="M126.668-42.924C125.844-42.5946 125.62-42.1297 125.379-41.7113C114.703-28.3688 103.95-14.9664 93.2734-1.62387C91.896 0.0829433 91.896 0.0829433 90.6076-1.62387C79.8711-14.9971 69.1944-28.3396 58.5177-41.6064C58.1883-42.0714 57.7991-42.4299 57.3648-42.9838C57.0645-42.2361 57.1403-41.6064 57.1403-40.9476C57.1403-20.2531 57.1403 0.517235 57.1403 21.1229C57.1403 21.7525 57.1403 22.3356 57.1403 22.9652C57.1403 23.9243 56.6753 24.3426 55.7629 24.3426C44.9215 24.3426 34.0801 24.3426 23.1323 24.3426C22.1733 24.3426 21.7549 24.0132 21.7549 22.9652C21.7549 22.4711 21.7549 22.0819 21.7549 21.5878C21.7549-16.3279 21.7549-54.2144 21.7549-92.0703C21.7549-94.7362 21.7549-94.7362 24.4806-94.7362C34.6632-94.7362 44.9215-94.7362 55.1041-94.7362C56.4815-94.7362 57.4406-94.2421 58.3239-93.1941C69.1361-79.6868 79.9177-66.1796 90.6542-52.7174C91.8669-51.1753 91.8669-51.1753 93.1553-52.7174C103.832-66.1198 114.644-79.4915 125.321-92.9696C126.309-94.1823 127.328-94.6764 128.87-94.6764C139.217-94.6764 149.476-94.6764 159.823-94.6764C162.024-94.6764 162.024-94.6764 162.024-92.5046C162.024-54.2595 162.024-16.0436 162.024 22.2015C162.024 24.3733 162.024 24.3733 159.852 24.3733C149.505 24.3733 139.158 24.3733 128.735 24.3733C126.698 24.3733 126.639 24.3733 126.639 22.2015C126.639 1.10182 126.639-19.9221 126.639-41.0219C126.668-41.6064 126.668-42.1005 126.668-42.924ZM258.161-64.2483C258.161-54.949 258.161-45.5899 258.161-36.1858C258.161-33.6846 258.161-33.6846 260.662-33.6846C270.68-33.6846 280.638-33.6846 290.656-33.6846C291.314-33.6846 292.333-34.014 292.663-33.2954C292.992-32.6366 292.109-32.2474 291.675-31.7533C275.112-13.4841 258.521 4.78502 241.958 22.8895C240.581 24.4316 240.581 24.4316 239.204 22.8895C222.493 4.62032 205.825-13.6488 189.203-32.0229C188.874-32.4121 188.155-32.8172 188.32-33.4003C188.544-34.0591 189.368-33.8652 189.938-33.8652C200.12-33.8652 210.379-33.8652 220.561-33.8652C222.733-33.8652 222.762-33.8652 222.762-36.0661C222.762-54.5 222.762-73.0694 222.762-91.5324C222.762-92.0863 222.762-92.6561 222.762-93.21C222.762-94.4227 223.092-95.0524 224.44-94.9168C224.994-94.9168 225.564-94.9168 226.117-94.9168C236.135-94.9168 246.093-94.9168 256.111-94.9168C258.118-94.9168 258.118-94.9168 258.118-92.9098C258.161-83.236 258.161-73.7122 258.161-64.2483Z"/>
  </g>
  <g id="Semibold-L" transform="matrix(1 0 0 1 1886.5 1556)">
   <path d="M126.786-42.7849C125.962-42.4555 125.759-42.0021 125.509-41.594C114.986-28.4385 104.377-15.245 93.8539-2.08957C92.4982-0.404528 92.4982-0.404528 91.2213-2.08957C80.6604-15.2424 70.1374-28.3978 59.6145-41.4673C59.2851-41.9208 58.9177-42.2908 58.4616-42.823C58.1729-42.0855 58.2589-41.4673 58.2589-40.8085C58.2589-20.4215 58.2589 0.0515341 58.2589 20.3599C58.2589 20.978 58.2589 21.5508 58.2589 22.1689C58.2589 23.1164 57.8055 23.5245 56.9032 23.5245C46.2156 23.5245 35.528 23.5245 24.757 23.5245C23.8095 23.5245 23.4014 23.1951 23.4014 22.1689C23.4014 21.6748 23.4014 21.3074 23.4014 20.8133C23.4014-16.5527 23.4014-53.8781 23.4014-91.206C23.4014-93.8386 23.4014-93.8386 26.072-93.8386C36.1008-93.8386 46.2156-93.8386 56.2444-93.8386C57.6001-93.8386 58.5476-93.3445 59.4091-92.3182C70.056-78.9981 80.7056-65.6779 91.2666-52.4463C92.4575-50.926 92.4575-50.926 93.7344-52.4463C104.257-65.6398 114.904-78.836 125.427-92.1155C126.415-93.3064 127.401-93.8005 128.921-93.8005C139.115-93.8005 149.23-93.8005 159.423-93.8005C161.602-93.8005 161.602-93.8005 161.602-91.6621C161.602-53.9667 161.602-16.312 161.602 21.3834C161.602 23.5219 161.602 23.5219 159.464 23.5219C149.27 23.5219 139.077 23.5219 128.797 23.5219C126.783 23.5219 126.745 23.5219 126.745 21.3834C126.745 0.581011 126.745-20.1354 126.745-40.9379C126.786-41.4673 126.786-41.9614 126.786-42.7849ZM256.354-63.7901C256.354-54.6228 256.354-45.4175 256.354-36.1235C256.354-33.6557 256.354-33.6557 258.822-33.6557C268.686-33.6557 278.512-33.6557 288.376-33.6557C289.035-33.6557 290.02-33.9851 290.35-33.2883C290.679-32.6295 289.818-32.262 289.362-31.7679C273.042-13.7627 256.681 4.24245 240.361 22.0829C239.005 23.6033 239.005 23.6033 237.649 22.0829C221.212 4.07775 204.766-13.9274 188.407-32.0593C188.078-32.4267 187.381-32.8421 187.546-33.4149C187.749-34.0737 188.572-33.8683 189.152-33.8683C199.181-33.8683 209.296-33.8683 219.325-33.8683C221.463-33.8683 221.504-33.8683 221.504-36.0475C221.504-54.2173 221.504-72.5112 221.504-90.7218C221.504-91.2539 221.504-91.834 221.504-92.3662C221.504-93.5571 221.833-94.1752 223.148-94.0512C223.68-94.0512 224.26-94.0512 224.792-94.0512C234.656-94.0512 244.483-94.0512 254.347-94.0512C256.32-94.0512 256.32-94.0512 256.32-92.0774C256.354-82.4921 256.354-73.1221 256.354-63.7901Z"/>
  </g>
  <g id="Medium-L" transform="matrix(1 0 0 1 1590.04 1556)">
   <path d="M126.875-42.6795C126.051-42.3501 125.865-41.9055 125.607-41.5051C115.2-28.4914 104.7-15.4563 94.294-2.44268C92.9548-0.774149 92.9548-0.774149 91.6867-2.44268C81.2588-15.4284 70.8525-28.442 60.4461-41.3619C60.1167-41.8065 59.7658-42.1854 59.2932-42.701C59.0133-41.9712 59.107-41.3619 59.107-40.7031C59.107-20.5492 59.107-0.30158 59.107 19.7813C59.107 20.3907 59.107 20.9558 59.107 21.5651C59.107 22.5038 58.6624 22.9042 57.7679 22.9042C47.1968 22.9042 36.6258 22.9042 25.9889 22.9042C25.0502 22.9042 24.6498 22.5748 24.6498 21.5651C24.6498 21.071 24.6498 20.7201 24.6498 20.226C24.6498-16.7233 24.6498-53.623 24.6498-90.5507C24.6498-93.1579 24.6498-93.1579 27.2786-93.1579C37.1909-93.1579 47.1968-93.1579 57.1091-93.1579C58.4482-93.1579 59.3869-92.6638 60.232-91.6541C70.7535-78.4758 81.3031-65.2975 91.7309-52.2408C92.9054-50.737 92.9054-50.737 94.1735-52.2408C104.58-65.2759 115.101-78.339 125.508-91.4679C126.496-92.6423 127.456-93.1364 128.96-93.1364C139.037-93.1364 149.043-93.1364 159.12-93.1364C161.283-93.1364 161.283-93.1364 161.283-91.0232C161.283-53.7446 161.283-16.5155 161.283 20.7631C161.283 22.8763 161.283 22.8763 159.169 22.8763C149.092 22.8763 139.016 22.8763 128.845 22.8763C126.847 22.8763 126.825 22.8763 126.825 20.7631C126.825 0.186115 126.825-20.2972 126.825-40.8742C126.875-41.3619 126.875-41.856 126.875-42.6795ZM254.984-63.4427C254.984-54.3755 254.984-45.2867 254.984-36.0764C254.984-33.6338 254.984-33.6338 257.427-33.6338C267.174-33.6338 276.9-33.6338 286.648-33.6338C287.306-33.6338 288.267-33.9632 288.596-33.2829C288.926-32.6241 288.08-32.2731 287.608-31.779C271.471-13.974 255.285 3.83105 239.149 21.4714C237.81 22.9752 237.81 22.9752 236.471 21.4714C220.242 3.66635 203.962-14.1387 187.804-32.0869C187.475-32.4378 186.794-32.8609 186.959-33.426C187.145-34.0848 187.969-33.8707 188.556-33.8707C198.469-33.8707 208.475-33.8707 218.387-33.8707C220.5-33.8707 220.549-33.8707 220.549-36.0333C220.549-54.003 220.549-72.088 220.549-90.1072C220.549-90.6228 220.549-91.2106 220.549-91.7263C220.549-92.9007 220.879-93.51 222.169-93.3948C222.684-93.3948 223.272-93.3948 223.788-93.3948C233.535-93.3948 243.261-93.3948 253.009-93.3948C254.957-93.3948 254.957-93.3948 254.957-91.4463C254.984-81.9281 254.984-72.6746 254.984-63.4427Z"/>
  </g>
  <g id="Regular-L" transform="matrix(1 0 0 1 1293.65 1556)">
   <path d="M126.991-42.5419C126.168-42.2125 126.003-41.7793 125.735-41.389C115.48-28.5604 105.122-15.7318 94.868-2.90326C93.5504-1.25626 93.5504-1.25626 92.2937-2.90326C82.0394-15.6709 71.7852-28.4995 61.5309-41.2243C61.2015-41.6575 60.8721-42.0478 60.378-42.5419C60.1095-41.8222 60.2133-41.2243 60.2133-40.5655C60.2133-20.7157 60.2133-0.762163 60.2133 19.0267C60.2133 19.6246 60.2133 20.1796 60.2133 20.7775C60.2133 21.7048 59.7801 22.0951 58.8957 22.0951C48.4767 22.0951 38.0577 22.0951 27.5958 22.0951C26.6685 22.0951 26.2782 21.7657 26.2782 20.7775C26.2782 20.2834 26.2782 19.954 26.2782 19.4599C26.2782-16.9457 26.2782-53.2903 26.2782-89.6959C26.2782-92.2702 26.2782-92.2702 28.8525-92.2702C38.6127-92.2702 48.4767-92.2702 58.2369-92.2702C59.5545-92.2702 60.4818-91.7761 61.3053-90.7879C71.6633-77.7946 82.0823-64.8013 92.3366-51.9727C93.4895-50.4904 93.4895-50.4904 94.7462-51.9727C105.001-64.8013 115.359-77.6908 125.613-90.6232C126.601-91.7761 127.528-92.2702 129.011-92.2702C138.936-92.2702 148.8-92.2702 158.724-92.2702C160.866-92.2702 160.866-92.2702 160.866-90.19C160.866-53.455 160.866-16.781 160.866 19.954C160.866 22.0342 160.866 22.0342 158.785 22.0342C148.86 22.0342 138.936 22.0342 128.907 22.0342C126.93 22.0342 126.93 22.0342 126.93 19.954C126.93-0.328968 126.93-20.5081 126.93-40.7911C126.991-41.2243 126.991-41.7184 126.991-42.5419ZM253.197-62.9896C253.197-54.0529 253.197-45.1162 253.197-36.0148C253.197-33.6052 253.197-33.6052 255.607-33.6052C265.202-33.6052 274.798-33.6052 284.393-33.6052C285.052-33.6052 285.979-33.9346 286.309-33.2758C286.638-32.617 285.815-32.2876 285.32-31.7935C269.423-14.2495 253.466 3.29443 237.569 20.6737C236.251 22.156 236.251 22.156 234.933 20.6737C218.975 3.12973 202.914-14.4142 187.017-32.1229C186.687-32.4523 186.029-32.8855 186.193-33.4405C186.358-34.0993 187.182-33.8737 187.779-33.8737C197.54-33.8737 207.404-33.8737 217.164-33.8737C219.244-33.8737 219.305-33.8737 219.305-36.0148C219.305-53.7235 219.305-71.536 219.305-89.3056C219.305-89.7997 219.305-90.3976 219.305-90.8917C219.305-92.0446 219.634-92.6425 220.891-92.5387C221.385-92.5387 221.983-92.5387 222.477-92.5387C232.073-92.5387 241.668-92.5387 251.264-92.5387C253.179-92.5387 253.179-92.5387 253.179-90.6232C253.197-81.1924 253.197-72.091 253.197-62.9896Z"/>
  </g>
  <g id="Light-L" transform="matrix(1 0 0 1 997.382 1556)">
   <path d="M126.826-42.5903C126.003-42.2609 125.838-41.8698 125.612-41.4374C115.441-28.7349 105.209-16.0324 95.0391-3.32994C93.7215-1.68294 93.7215-1.68294 92.5068-3.32994C82.3366-15.9295 72.1664-28.632 61.9961-41.2727C61.6667-41.6639 61.3373-42.0962 60.8432-42.5903C60.6168-41.8286 60.6785-41.2727 60.6785-40.6139C60.6785-20.9323 60.6785-1.18884 60.6785 18.3899C60.6785 18.9458 60.6785 19.5428 60.6785 20.0987C60.6785 20.9839 60.2874 21.4163 59.3609 21.4163C49.026 21.4163 38.6911 21.4163 28.3973 21.4163C27.512 21.4163 27.0797 21.0869 27.0797 20.0987C27.0797 19.6046 27.0797 19.2752 27.0797 18.7811C27.0797-17.2883 27.0797-53.2547 27.0797-89.324C27.0797-91.8563 27.0797-91.8563 29.612-91.8563C39.2881-91.8563 49.026-91.8563 58.7021-91.8563C60.0197-91.8563 60.905-91.3622 61.7285-90.374C71.9605-77.5068 82.2954-64.6396 92.4657-51.9371C93.6186-50.4548 93.6186-50.4548 94.8332-51.9371C105.003-64.6396 115.235-77.445 125.406-90.2093C126.394-91.3622 127.279-91.8563 128.761-91.8563C138.602-91.8563 148.34-91.8563 158.181-91.8563C160.322-91.8563 160.322-91.8563 160.322-89.8181C160.322-53.4194 160.322-17.1236 160.322 19.2752C160.322 21.3133 160.322 21.3133 158.284 21.3133C148.443 21.3133 138.602 21.3133 128.7 21.3133C126.723 21.3133 126.723 21.3133 126.723 19.2752C126.723-0.797677 126.723-20.8087 126.723-40.8816C126.826-41.2727 126.826-41.7668 126.826-42.5903ZM251.813-62.8279C251.813-53.9752 251.813-45.1226 251.813-36.1053C251.813-33.7377 251.813-33.7377 254.181-33.7377C263.692-33.7377 273.203-33.7377 282.715-33.7377C283.374-33.7377 284.259-34.0671 284.588-33.4083C284.918-32.7495 284.094-32.4201 283.6-31.926C267.871-14.5501 252.04 2.82572 236.311 20.0369C234.993 21.5192 234.993 21.5192 233.675 20.0369C217.844 2.66102 201.95-14.7148 186.221-32.2554C185.892-32.5848 185.233-32.976 185.398-33.573C185.562-34.2318 186.386-33.9642 186.942-33.9642C196.618-33.9642 206.356-33.9642 216.032-33.9642C218.07-33.9642 218.173-33.9642 218.173-36.1053C218.173-53.6458 218.173-71.2482 218.173-88.8917C218.173-89.3858 218.173-89.9416 218.173-90.4357C218.173-91.5886 218.502-92.1445 219.717-92.0827C220.211-92.0827 220.767-92.0827 221.261-92.0827C230.773-92.0827 240.284-92.0827 249.795-92.0827C251.669-92.0827 251.669-92.0827 251.669-90.2093C251.813-80.8625 251.813-71.8452 251.813-62.8279Z"/>
  </g>
  <g id="Thin-L" transform="matrix(1 0 0 1 701.254 1556)">
   <path d="M126.608-42.6544C125.784-42.325 125.62-41.9894 125.449-41.5015C115.39-28.9657 105.324-16.43 95.2653-3.89426C93.9477-2.24726 93.9477-2.24726 92.7886-3.89426C82.7296-16.2715 72.6705-28.8072 62.6115-41.3368C62.2821-41.6724 61.9527-42.1603 61.4586-42.6544C61.2877-41.8371 61.2939-41.3368 61.2939-40.678C61.2939-21.2187 61.2939-1.75316 61.2939 17.5476C61.2939 18.0479 61.2939 18.7005 61.2939 19.2008C61.2939 20.0305 60.9583 20.5184 59.9763 20.5184C49.7525 20.5184 39.5288 20.5184 29.4573 20.5184C28.6277 20.5184 28.1397 20.189 28.1397 19.2008C28.1397 18.7067 28.1397 18.3773 28.1397 17.8832C28.1397-17.7414 28.1397-53.2075 28.1397-88.8322C28.1397-91.3089 28.1397-91.3089 30.6164-91.3089C40.1814-91.3089 49.7525-91.3089 59.3175-91.3089C60.6351-91.3089 61.4647-90.8148 62.2882-89.8266C72.3535-77.1261 82.5772-64.4257 92.6363-51.8899C93.7892-50.4076 93.7892-50.4076 94.9483-51.8899C105.007-64.4257 115.073-77.1199 125.132-89.6619C126.12-90.8148 126.95-91.3089 128.432-91.3089C138.161-91.3089 147.733-91.3089 157.462-91.3089C159.603-91.3089 159.603-91.3089 159.603-89.3263C159.603-53.3722 159.603-17.5767 159.603 18.3773C159.603 20.3599 159.603 20.3599 157.621 20.3599C147.891 20.3599 138.161 20.3599 128.426 20.3599C126.449 20.3599 126.449 20.3599 126.449 18.3773C126.449-1.41758 126.449-21.2063 126.449-41.0012C126.608-41.3368 126.608-41.8309 126.608-42.6544ZM249.983-62.614C249.983-53.8725 249.983-45.1311 249.983-36.2249C249.983-33.9129 249.983-33.9129 252.295-33.9129C261.695-33.9129 271.095-33.9129 280.495-33.9129C281.154-33.9129 281.984-34.2423 282.313-33.5835C282.643-32.9247 281.819-32.5953 281.325-32.1012C265.818-14.9477 250.153 2.20582 234.647 19.1946C233.329 20.6769 233.329 20.6769 232.012 19.1946C216.347 2.04112 200.675-15.1124 185.169-32.4306C184.84-32.76 184.181-33.0956 184.345-33.7482C184.51-34.407 185.334-34.0838 185.834-34.0838C195.399-34.0838 204.97-34.0838 214.535-34.0838C216.518-34.0838 216.676-34.0838 216.676-36.2249C216.676-53.5431 216.676-70.8675 216.676-88.3443C216.676-88.8384 216.676-89.3386 216.676-89.8327C216.676-90.9856 217.005-91.4859 218.165-91.4797C218.659-91.4797 219.159-91.4797 219.653-91.4797C229.053-91.4797 238.454-91.4797 247.854-91.4797C249.672-91.4797 249.672-91.4797 249.672-89.6619C249.983-80.4263 249.983-71.5201 249.983-62.614Z"/>
  </g>
  <g id="Ultralight-L" transform="matrix(1 0 0 1 404.842 1556)">
   <path d="M126.496-42.6872C125.672-42.3578 125.508-42.0507 125.365-41.5343C115.363-29.084 105.383-16.6336 95.3812-4.18331C94.0636-2.53631 94.0636-2.53631 92.933-4.18331C82.9309-16.4466 72.9288-28.897 62.9266-41.3696C62.5972-41.6767 62.2678-42.1931 61.7737-42.6872C61.6313-41.8414 61.609-41.3696 61.609-40.7108C61.609-21.3653 61.609-2.04221 61.609 17.1162C61.609 17.588 61.609 18.2691 61.609 18.7409C61.609 19.5422 61.3019 20.0585 60.2914 20.0585C50.1246 20.0585 39.9578 20.0585 30.0003 20.0585C29.1991 20.0585 28.6827 19.7291 28.6827 18.7409C28.6827 18.2468 28.6827 17.9174 28.6827 17.4233C28.6827-17.9735 28.6827-53.1834 28.6827-88.5803C28.6827-91.0285 28.6827-91.0285 31.1309-91.0285C40.6389-91.0285 50.1246-91.0285 59.6326-91.0285C60.9502-91.0285 61.7515-90.5344 62.575-89.5462C72.5548-76.9311 82.7216-64.3161 92.7237-51.8658C93.8766-50.3835 93.8766-50.3835 95.0072-51.8658C105.009-64.3161 114.989-76.9534 124.991-89.3815C125.979-90.5344 126.781-91.0285 128.263-91.0285C137.936-91.0285 147.421-91.0285 157.094-91.0285C159.235-91.0285 159.235-91.0285 159.235-89.0744C159.235-53.3481 159.235-17.8088 159.235 17.9174C159.235 19.8716 159.235 19.8716 157.281 19.8716C147.608 19.8716 137.936 19.8716 128.285 19.8716C126.309 19.8716 126.309 19.8716 126.309 17.9174C126.309-1.7351 126.309-21.4099 126.309-41.0625C126.496-41.3696 126.496-41.8637 126.496-42.6872ZM249.045-62.5044C249.045-53.8199 249.045-45.1354 249.045-36.2862C249.045-34.0027 249.045-34.0027 251.329-34.0027C260.672-34.0027 270.015-34.0027 279.358-34.0027C280.017-34.0027 280.818-34.3321 281.148-33.6733C281.477-33.0145 280.654-32.6851 280.16-32.191C264.767-15.1513 249.187 1.8883 233.795 18.7632C232.477 20.2455 232.477 20.2455 231.16 18.7632C215.58 1.7236 200.023-15.316 184.63-32.5204C184.301-32.8498 183.642-33.1569 183.806-33.838C183.971-34.4968 184.795-34.1451 185.267-34.1451C194.775-34.1451 204.26-34.1451 213.768-34.1451C215.722-34.1451 215.909-34.1451 215.909-36.2862C215.909-53.4905 215.909-70.6725 215.909-88.0639C215.909-88.558 215.909-89.0298 215.909-89.5239C215.909-90.6768 216.239-91.1486 217.369-91.1709C217.863-91.1709 218.335-91.1709 218.829-91.1709C228.173-91.1709 237.516-91.1709 246.859-91.1709C248.649-91.1709 248.649-91.1709 248.649-89.3815C249.045-80.2029 249.045-71.3536 249.045-62.5044Z"/>
  </g>
  <g id="Black-M" transform="matrix(1 0 0 1 2810.78 1126)">
   <path d="M97.6964-41.6629C97.0584-41.4077 96.8139-41.0243 96.675-40.6528C87.9334-29.752 79.1804-18.7343 70.4388-7.83346C69.3011-6.44052 69.3011-6.44052 68.2796-7.83346C59.4211-18.8518 50.6794-29.7526 41.9378-40.6421C41.6826-41.0256 41.3104-41.2801 41.0446-41.7799C40.7887-41.1532 40.8-40.6421 40.8-40.1317C40.8-23.1588 40.8-6.17466 40.8 10.6819C40.8 11.1929 40.8 11.6921 40.8 12.2031C40.8 12.9693 40.4166 13.3408 39.6623 13.3408C30.7931 13.3408 21.9238 13.3408 12.9257 13.3408C12.1595 13.3408 11.788 13.0856 11.788 12.2031C11.788 11.8203 11.788 11.4481 11.788 11.0653C11.788-19.9776 11.788-51.0212 11.788-81.9473C11.788-84.1065 11.788-84.1065 14.0641-84.1065C22.4229-84.1065 30.7931-84.1065 39.1519-84.1065C40.2896-84.1065 41.0559-83.7237 41.8108-82.8411C50.6807-71.8127 59.433-60.7843 68.2916-49.6496C69.3017-48.3843 69.3017-48.3843 70.3231-49.6496C79.0648-60.6674 87.9346-71.5676 96.6763-82.5966C97.4419-83.6067 98.325-83.9895 99.5904-83.9895C108.077-83.9895 116.447-83.9895 124.933-83.9895C126.709-83.9895 126.709-83.9895 126.709-82.2132C126.709-50.915 126.709-19.6162 126.709 11.682C126.709 13.4584 126.709 13.4584 124.933 13.4584C116.446 13.4584 107.96 13.4584 99.4621 13.4584C97.814 13.4584 97.6971 13.4584 97.6971 11.682C97.6971-5.55737 97.6971-22.7855 97.6971-40.0248C97.6964-40.6421 97.6964-41.0249 97.6964-41.6629ZM205.396-59.1469C205.396-51.5429 205.396-43.8221 205.396-36.2075C205.396-34.176 205.396-34.176 207.427-34.176C215.659-34.176 223.773-34.176 232.004-34.176C232.515-34.176 233.398-34.4312 233.653-33.8038C233.908-33.2934 233.153-32.9213 232.887-32.5385C219.328-17.5859 205.769-2.63323 192.209 12.1918C191.071 13.4571 191.071 13.4571 189.933 12.1918C176.141-2.76083 162.57-17.7135 148.894-32.6768C148.638-33.0489 148.011-33.3154 148.139-33.8145C148.383-34.3249 149.021-34.1979 149.415-34.1979C157.774-34.1979 166.144-34.1979 174.503-34.1979C176.279-34.1979 176.279-34.1979 176.279-35.9736C176.279-51.0539 176.279-66.2623 176.279-81.3419C176.279-81.8417 176.279-82.2357 176.279-82.7355C176.279-83.7456 176.534-84.2566 177.672-84.1284C178.172-84.1284 178.566-84.1284 179.066-84.1284C187.297-84.1284 195.411-84.1284 203.643-84.1284C205.291-84.1284 205.291-84.1284 205.291-82.4797C205.396-74.7268 205.396-66.8784 205.396-59.1469Z"/>
  </g>
  <g id="Heavy-M" transform="matrix(1 0 0 1 2514.39 1126)">
   <path d="M97.8813-41.4762C97.2433-41.221 97.0264-40.8432 96.8655-40.4937C88.3007-29.8029 79.7026-19.0229 71.1378-8.33213C70.0277-6.96679 70.0277-6.96679 69.0119-8.33213C60.3577-19.1072 51.7929-29.7979 43.2281-40.4554C42.9729-40.8332 42.6284-41.0934 42.3349-41.5656C42.0847-40.9608 42.118-40.4554 42.118-39.945C42.118-23.3258 42.118-6.67333 42.118 9.85154C42.118 10.3569 42.118 10.8341 42.118 11.3395C42.118 12.1001 41.7402 12.4496 41.0079 12.4496C32.3154 12.4496 23.623 12.4496 14.813 12.4496C14.0525 12.4496 13.7029 12.1944 13.7029 11.3395C13.7029 10.9567 13.7029 10.6121 13.7029 10.2293C13.7029-20.1891 13.7029-50.6025 13.7029-80.9316C13.7029-83.0575 13.7029-83.0575 15.9182-83.0575C24.1002-83.0575 32.3154-83.0575 40.4975-83.0575C41.6076-83.0575 42.3682-82.6747 43.0955-81.8198C51.7829-71.0014 60.386-60.1831 69.0401-49.3137C70.0227-48.076 70.0227-48.076 71.0385-49.3137C79.6033-60.0938 88.2907-70.7895 96.8555-81.6028C97.6211-82.5854 98.471-82.9682 99.7088-82.9682C108.018-82.9682 116.234-82.9682 124.543-82.9682C126.291-82.9682 126.291-82.9682 126.291-81.225C126.291-50.5514 126.291-19.8828 126.291 10.7908C126.291 12.5339 126.291 12.5339 124.548 12.5339C116.239 12.5339 107.929 12.5339 99.5862 12.5339C97.9656 12.5339 97.8763 12.5339 97.8763 10.7908C97.8763-6.11686 97.8763-22.9913 97.8763-39.899C97.8813-40.4554 97.8813-40.8382 97.8813-41.4762ZM203.403-58.6008C203.403-51.1462 203.403-43.6021 203.403-36.1092C203.403-34.1109 203.403-34.1109 205.401-34.1109C213.456-34.1109 221.421-34.1109 229.475-34.1109C229.986-34.1109 230.835-34.3661 231.091-33.7663C231.346-33.2559 230.618-32.9114 230.325-32.5286C217.036-17.8745 203.742-3.22033 190.454 11.3062C189.343 12.544 189.343 12.544 188.233 11.3062C174.761-3.34793 161.434-18.0021 148.056-32.6945C147.8-33.039 147.201-33.3275 147.328-33.8046C147.545-34.315 148.183-34.1824 148.599-34.1824C156.781-34.1824 164.997-34.1824 173.179-34.1824C174.922-34.1824 174.927-34.1824 174.927-35.9305C174.927-50.7123 174.927-65.6166 174.927-80.4034C174.927-80.8755 174.927-81.2916 174.927-81.7637C174.927-82.7462 175.182-83.2516 176.287-83.129C176.759-83.129 177.175-83.129 177.647-83.129C185.702-83.129 193.667-83.129 201.721-83.129C203.337-83.129 203.337-83.129 203.337-81.5135C203.403-73.8547 203.403-66.1831 203.403-58.6008Z"/>
  </g>
  <g id="Bold-M" transform="matrix(1 0 0 1 2218.04 1126)">
   <path d="M98.0881-41.2673C97.4501-41.0121 97.264-40.6407 97.0786-40.3157C88.7116-29.8599 80.2868-19.3457 71.9198-8.88997C70.8405-7.5555 70.8405-7.5555 69.831-8.88997C61.4056-19.3929 53.0386-29.8486 44.6716-40.2465C44.4164-40.618 44.1027-40.8845 43.7784-41.3258C43.5345-40.7456 43.5923-40.2465 43.5923-39.7361C43.5923-23.5126 43.5923-7.23117 43.5923 8.92263C43.5923 9.42173 43.5923 9.8743 43.5923 10.3734C43.5923 11.1277 43.2208 11.4527 42.5131 11.4527C34.0185 11.4527 25.5239 11.4527 16.9243 11.4527C16.17 11.4527 15.845 11.1975 15.845 10.3734C15.845 9.99059 15.845 9.67693 15.845 9.29413C15.845-20.4256 15.845-50.1341 15.845-79.7954C15.845-81.8841 15.845-81.8841 17.9923-81.8841C25.9765-81.8841 34.0185-81.8841 42.0027-81.8841C43.0819-81.8841 43.8362-81.5013 44.5327-80.6773C53.016-70.0939 61.4521-59.5106 69.8775-48.9379C70.8292-47.731 70.8292-47.731 71.8387-48.9379C80.2057-59.4521 88.689-69.9191 97.056-80.4912C97.8216-81.4429 98.6343-81.8257 99.8412-81.8257C107.953-81.8257 115.995-81.8257 124.107-81.8257C125.824-81.8257 125.824-81.8257 125.824-80.1197C125.824-50.1447 125.824-20.1811 125.824 9.79386C125.824 11.4998 125.824 11.4998 124.118 11.4998C116.006 11.4998 107.895 11.4998 99.7249 11.4998C98.1352 11.4998 98.0768 11.4998 98.0768 9.79386C98.0768-6.74274 98.0768-23.2215 98.0768-39.7581C98.0881-40.2465 98.0881-40.6293 98.0881-41.2673ZM201.173-57.99C201.173-50.7023 201.173-43.3561 201.173-35.9993C201.173-34.0381 201.173-34.0381 203.135-34.0381C210.991-34.0381 218.789-34.0381 226.646-34.0381C227.156-34.0381 227.969-34.2933 228.224-33.7244C228.479-33.214 227.783-32.9004 227.459-32.5176C214.473-18.1973 201.476-3.87708 188.49 10.3156C187.411 11.5224 187.411 11.5224 186.332 10.3156C173.217-4.00468 160.163-18.3249 147.118-32.7143C146.863-33.028 146.294-33.341 146.422-33.7936C146.608-34.304 147.246-34.1651 147.687-34.1651C155.671-34.1651 163.713-34.1651 171.697-34.1651C173.403-34.1651 173.414-34.1651 173.414-35.8823C173.414-50.3302 173.414-64.8943 173.414-79.3535C173.414-79.7947 173.414-80.2353 173.414-80.6766C173.414-81.6283 173.669-82.1274 174.737-82.0111C175.179-82.0111 175.619-82.0111 176.061-82.0111C183.917-82.0111 191.715-82.0111 199.572-82.0111C201.15-82.0111 201.15-82.0111 201.15-80.4327C201.173-72.8791 201.173-65.4053 201.173-57.99Z"/>
  </g>
  <g id="Semibold-M" transform="matrix(1 0 0 1 1921.57 1126)">
   <path d="M98.2306-41.1234C97.5926-40.8682 97.4278-40.501 97.2255-40.193C88.9949-29.8992 80.6895-19.5683 72.4589-9.27454C71.4009-7.96136 71.4009-7.96136 70.3957-9.27454C62.1279-19.5898 53.8973-29.8836 45.6667-40.1026C45.4115-40.4697 45.1191-40.7406 44.7735-41.1605C44.5339-40.5973 44.6087-40.1026 44.6087-39.5922C44.6087-23.6413 44.6087-7.61574 44.6087 8.28225C44.6087 8.777 44.6087 9.21264 44.6087 9.70739C44.6087 10.4573 44.2416 10.7654 43.5507 10.7654C35.1925 10.7654 26.8343 10.7654 18.3798 10.7654C17.6298 10.7654 17.3218 10.5102 17.3218 9.70739C17.3218 9.32459 17.3218 9.0322 17.3218 8.6494C17.3218-20.5887 17.3218-49.8111 17.3218-79.012C17.3218-81.0752 17.3218-81.0752 19.4221-81.0752C27.2699-81.0752 35.1925-81.0752 43.0403-81.0752C44.0983-81.0752 44.8483-80.6924 45.5235-79.8896C53.866-69.4683 62.187-59.0469 70.4548-48.6788C71.3852-47.4932 71.3852-47.4932 72.3904-48.6788C80.621-59.0097 88.9636-69.3191 97.1942-79.7248C97.9598-80.6552 98.7469-81.038 99.9325-81.038C107.908-81.038 115.83-81.038 123.806-81.038C125.502-81.038 125.502-81.038 125.502-79.3577C125.502-49.8644 125.502-20.3867 125.502 9.10657C125.502 10.7869 125.502 10.7869 123.822 10.7869C115.846 10.7869 107.871 10.7869 99.8205 10.7869C98.2522 10.7869 98.215 10.7869 98.215 9.10657C98.215-7.17422 98.215-23.3802 98.215-39.661C98.2306-40.1026 98.2306-40.4854 98.2306-41.1234ZM199.637-57.5689C199.637-50.3963 199.637-43.1865 199.637-35.9235C199.637-33.9879 199.637-33.9879 201.572-33.9879C209.292-33.9879 216.975-33.9879 224.696-33.9879C225.206-33.9879 225.993-34.2431 226.248-33.6955C226.503-33.1851 225.828-32.8927 225.483-32.5099C212.706-18.4199 199.913-4.32983 187.136 9.63262C186.078 10.8182 186.078 10.8182 185.02 9.63262C172.154-4.45743 159.286-18.5475 146.472-32.728C146.217-33.0203 145.669-33.3503 145.797-33.7859C145.962-34.2963 146.6-34.1531 147.057-34.1531C154.905-34.1531 162.828-34.1531 170.676-34.1531C172.356-34.1531 172.372-34.1531 172.372-35.8491C172.372-50.0667 172.372-64.3963 172.372-78.6296C172.372-79.0496 172.372-79.5072 172.372-79.9272C172.372-80.8576 172.627-81.3523 173.669-81.2404C174.089-81.2404 174.547-81.2404 174.967-81.2404C182.687-81.2404 190.37-81.2404 198.09-81.2404C199.643-81.2404 199.643-81.2404 199.643-79.6876C199.637-72.2066 199.637-64.8692 199.637-57.5689Z"/>
  </g>
  <g id="Medium-M" transform="matrix(1 0 0 1 1625.05 1126)">
   <path d="M98.3387-41.0142C97.7007-40.759 97.5521-40.3951 97.3368-40.0999C89.2096-29.929 80.9948-19.7371 72.8676-9.56614C71.8258-8.26909 71.8258-8.26909 70.8239-9.56614C62.6757-19.7392 54.5484-29.9101 46.4212-39.9934C46.166-40.3572 45.8898-40.6314 45.528-41.0352C45.2918-40.4848 45.3794-39.9934 45.3794-39.483C45.3794-23.739 45.3794-7.90734 45.3794 7.79669C45.3794 8.28815 45.3794 8.71094 45.3794 9.20239C45.3794 9.94905 45.0155 10.2442 44.3375 10.2442C36.0827 10.2442 27.8279 10.2442 19.4834 10.2442C18.7367 10.2442 18.4416 9.98904 18.4416 9.20239C18.4416 8.81959 18.4416 8.54335 18.4416 8.16055C18.4416-20.7123 18.4416-49.5663 18.4416-78.4181C18.4416-80.4618 18.4416-80.4618 20.5063-80.4618C28.2507-80.4618 36.0827-80.4618 43.8271-80.4618C44.869-80.4618 45.6156-80.079 46.2747-79.2924C54.5106-68.9939 62.7443-58.6953 70.8926-48.4823C71.8068-47.3129 71.8068-47.3129 72.8087-48.4823C80.9359-58.6743 89.1718-68.8642 97.299-79.1437C98.0646-80.058 98.8323-80.4408 100.002-80.4408C107.874-80.4408 115.706-80.4408 123.578-80.4408C125.258-80.4408 125.258-80.4408 125.258-78.7799C125.258-49.6518 125.258-20.5426 125.258 8.58544C125.258 10.2464 125.258 10.2464 123.597 10.2464C115.725 10.2464 107.853 10.2464 99.8931 10.2464C98.3408 10.2464 98.3198 10.2464 98.3198 8.58544C98.3198-7.50138 98.3198-23.5006 98.3198-39.5874C98.3387-39.9934 98.3387-40.3762 98.3387-41.0142ZM198.471-57.2496C198.471-50.1643 198.471-43.0579 198.471-35.866C198.471-33.9499 198.471-33.9499 200.387-33.9499C208.004-33.9499 215.6-33.9499 223.217-33.9499C223.727-33.9499 224.495-34.2051 224.75-33.6736C225.005-33.1632 224.346-32.887 223.984-32.5042C211.366-18.5887 198.728-4.67313 186.11 9.11478C185.068 10.2842 185.068 10.2842 184.026 9.11478C171.347-4.80073 158.622-18.7163 145.982-32.7383C145.727-33.0146 145.196-33.3574 145.323-33.7802C145.472-34.2906 146.11-34.144 146.58-34.144C154.325-34.144 162.157-34.144 169.901-34.144C171.562-34.144 171.581-34.144 171.581-35.8239C171.581-49.867 171.581-64.0188 171.581-78.0808C171.581-78.4847 171.581-78.9551 171.581-79.3589C171.581-80.2732 171.836-80.7646 172.859-80.656C173.263-80.656 173.733-80.656 174.137-80.656C181.754-80.656 189.35-80.656 196.967-80.656C198.5-80.656 198.5-80.656 198.5-79.1227C198.471-71.6966 198.471-64.4626 198.471-57.2496Z"/>
  </g>
  <g id="Regular-M" transform="matrix(1 0 0 1 1328.58 1126)">
   <path d="M98.4797-40.8718C97.8417-40.6166 97.7141-40.257 97.4821-39.9786C89.4898-29.9679 81.3931-19.9572 73.4008-9.94648C72.38-8.67048 72.38-8.67048 71.3824-9.94648C63.3901-19.9339 55.3977-29.9446 47.4054-39.851C47.1502-40.2105 46.895-40.489 46.5122-40.8718C46.2802-40.3381 46.3846-39.851 46.3846-39.3406C46.3846-23.8663 46.3846-8.28768 46.3846 7.16334C46.3846 7.65051 46.3846 8.05654 46.3846 8.54371C46.3846 9.28607 46.025 9.56451 45.3638 9.56451C37.2439 9.56451 29.124 9.56451 20.9229 9.56451C20.1805 9.56451 19.9021 9.30931 19.9021 8.54371C19.9021 8.16091 19.9021 7.90571 19.9021 7.52291C19.9021-20.8736 19.9021-49.2469 19.9021-77.6434C19.9021-79.6618 19.9021-79.6618 21.9205-79.6618C29.53-79.6618 37.2439-79.6618 44.8534-79.6618C45.8742-79.6618 46.6166-79.279 47.2546-78.5134C55.3513-68.3751 63.4712-58.2368 71.4635-48.2261C72.3567-47.0777 72.3567-47.0777 73.3543-48.2261C81.3466-58.2368 89.4433-68.2707 97.4357-78.3858C98.2013-79.279 98.9436-79.6618 100.092-79.6618C107.829-79.6618 115.543-79.6618 123.28-79.6618C124.939-79.6618 124.939-79.6618 124.939-78.0262C124.939-49.3745 124.939-20.746 124.939 7.90571C124.939 9.54127 124.939 9.54127 123.303 9.54127C115.566 9.54127 107.829 9.54127 99.9877 9.54127C98.4565 9.54127 98.4565 9.54127 98.4565 7.90571C98.4565-7.92812 98.4565-23.6576 98.4565-39.4914C98.4797-39.851 98.4797-40.2338 98.4797-40.8718ZM196.951-56.8332C196.951-49.8617 196.951-42.8901 196.951-35.791C196.951-33.9002 196.951-33.9002 198.842-33.9002C206.324-33.9002 213.806-33.9002 221.288-33.9002C221.798-33.9002 222.54-34.1554 222.796-33.645C223.051-33.1346 222.413-32.8794 222.03-32.4966C209.618-18.8088 197.183-5.12092 184.771 8.43934C183.75 9.58774 183.75 9.58774 182.73 8.43934C170.294-5.24852 157.755-18.9364 145.343-32.7518C145.088-33.007 144.578-33.3666 144.705-33.7726C144.833-34.283 145.471-34.1322 145.958-34.1322C153.567-34.1322 161.281-34.1322 168.891-34.1322C170.526-34.1322 170.55-34.1322 170.55-35.791C170.55-49.6065 170.55-63.5263 170.55-77.365C170.55-77.7478 170.55-78.2349 170.55-78.6177C170.55-79.5109 170.805-79.9981 171.802-79.8937C172.185-79.8937 172.672-79.8937 173.055-79.8937C180.537-79.8937 188.019-79.8937 195.501-79.8937C197.009-79.8937 197.009-79.8937 197.009-78.3858C196.951-71.0314 196.951-63.9323 196.951-56.8332Z"/>
  </g>
  <g id="Light-M" transform="matrix(1 0 0 1 1032.27 1126)">
   <path d="M98.3316-40.9152C97.6936-40.66 97.566-40.3381 97.3717-40.022C89.4547-30.1243 81.4711-20.2267 73.5541-10.329C72.5333-9.05302 72.5333-9.05302 71.5734-10.329C63.6565-20.1658 55.7395-30.0634 47.8225-39.8944C47.5673-40.2163 47.3121-40.5324 46.9293-40.9152C46.7351-40.3439 46.8017-39.8944 46.8017-39.384C46.8017-24.0604 46.8017-8.67022 46.8017 6.5924C46.8017 7.04188 46.8017 7.4856 46.8017 7.93508C46.8017 8.63976 46.4799 8.95588 45.7809 8.95588C37.7364 8.95588 29.6918 8.95588 21.6415 8.95588C20.9368 8.95588 20.6207 8.70068 20.6207 7.93508C20.6207 7.55228 20.6207 7.29708 20.6207 6.91428C20.6207-21.1808 20.6207-49.2149 20.6207-77.31C20.6207-79.2907 20.6207-79.2907 22.6014-79.2907C30.1355-79.2907 37.7364-79.2907 45.2705-79.2907C46.2913-79.2907 46.996-78.9079 47.634-78.1423C55.6177-68.117 63.6622-58.0918 71.5792-48.1941C72.4724-47.0457 72.4724-47.0457 73.4323-48.1941C81.3493-58.0918 89.3329-68.0504 97.2499-78.0147C98.0155-78.9079 98.7202-79.2907 99.8686-79.2907C107.53-79.2907 115.131-79.2907 122.793-79.2907C124.452-79.2907 124.452-79.2907 124.452-77.6928C124.452-49.3425 124.452-21.0532 124.452 7.29708C124.452 8.89496 124.452 8.89496 122.854 8.89496C115.192 8.89496 107.53 8.89496 99.8019 8.89496C98.2707 8.89496 98.2707 8.89496 98.2707 7.29708C98.2707-8.34834 98.2707-23.9271 98.2707-39.5725C98.3316-39.8944 98.3316-40.2772 98.3316-40.9152ZM195.71-56.6882C195.71-49.792 195.71-42.8959 195.71-35.8721C195.71-34.019 195.71-34.019 197.563-34.019C204.97-34.019 212.376-34.019 219.783-34.019C220.293-34.019 220.998-34.2742 221.253-33.7638C221.508-33.2534 220.87-32.9982 220.488-32.6154C208.227-19.0783 195.905-5.54114 183.643 7.8684C182.623 9.0168 182.623 9.0168 181.602 7.8684C169.28-5.66874 156.891-19.2059 144.63-32.8706C144.375-33.1258 143.864-33.4477 143.992-33.8914C144.119-34.4018 144.757-34.2133 145.207-34.2133C152.741-34.2133 160.342-34.2133 167.876-34.2133C169.474-34.2133 169.535-34.2133 169.535-35.8721C169.535-49.5368 169.535-63.2682 169.535-76.9939C169.535-77.3767 169.535-77.8262 169.535-78.209C169.535-79.1022 169.79-79.5517 170.75-79.485C171.133-79.485 171.582-79.485 171.965-79.485C179.372-79.485 186.778-79.485 194.185-79.485C195.655-79.485 195.655-79.485 195.655-78.0147C195.71-70.7357 195.71-63.712 195.71-56.6882Z"/>
  </g>
  <g id="Thin-M" transform="matrix(1 0 0 1 736.081 1126)">
   <path d="M98.1357-40.9726C97.4977-40.7174 97.3701-40.4453 97.2257-40.0794C89.4084-30.3312 81.5743-20.5831 73.757-10.835C72.7362-9.55897 72.7362-9.55897 71.8261-10.835C64.0088-20.4724 56.1915-30.2205 48.3742-39.9518C48.119-40.2238 47.8638-40.5898 47.481-40.9726C47.3366-40.3514 47.3534-39.9518 47.3534-39.4414C47.3534-24.3172 47.3534-9.17617 47.3534 5.83727C47.3534 6.23692 47.3534 6.73047 47.3534 7.13012C47.3534 7.78497 47.0814 8.15092 46.3326 8.15092C38.3877 8.15092 30.4428 8.15092 22.5919 8.15092C21.937 8.15092 21.5711 7.89572 21.5711 7.13012C21.5711 6.74732 21.5711 6.49212 21.5711 6.10932C21.5711-21.5871 21.5711-49.1727 21.5711-76.8691C21.5711-78.7999 21.5711-78.7999 23.5019-78.7999C30.9364-78.7999 38.3877-78.7999 45.8222-78.7999C46.843-78.7999 47.4979-78.4171 48.1359-77.6515C55.97-67.7758 63.9149-57.9 71.7322-48.1519C72.6254-47.0035 72.6254-47.0035 73.5355-48.1519C81.3528-57.9 89.1869-67.7589 97.0042-77.5239C97.7698-78.4171 98.4246-78.7999 99.573-78.7999C107.135-78.7999 114.586-78.7999 122.149-78.7999C123.807-78.7999 123.807-78.7999 123.807-77.2519C123.807-49.3003 123.807-21.4595 123.807 6.49212C123.807 8.04017 123.807 8.04017 122.259 8.04017C114.697 8.04017 107.135 8.04017 99.5562 8.04017C98.025 8.04017 98.025 8.04017 98.025 6.49212C98.025-8.90412 98.025-24.2835 98.025-39.6797C98.1357-39.9518 98.1357-40.3346 98.1357-40.9726ZM194.069-56.4964C194.069-49.6999 194.069-42.9034 194.069-35.9793C194.069-34.1761 194.069-34.1761 195.872-34.1761C203.179-34.1761 210.486-34.1761 217.793-34.1761C218.303-34.1761 218.958-34.4313 219.213-33.9209C219.469-33.4105 218.831-33.1553 218.448-32.7725C206.386-19.4347 194.214-6.09692 182.152 7.11327C181.131 8.26167 181.131 8.26167 180.11 7.11327C167.938-6.22452 155.748-19.5623 143.686-33.0277C143.431-33.2829 142.921-33.5549 143.048-34.0485C143.176-34.5589 143.814-34.3205 144.214-34.3205C151.648-34.3205 159.1-34.3205 166.534-34.3205C168.082-34.3205 168.193-34.3205 168.193-35.9793C168.193-49.4447 168.193-62.927 168.193-76.5031C168.193-76.8859 168.193-77.2856 168.193-77.6684C168.193-78.5616 168.448-78.9612 169.358-78.9444C169.741-78.9444 170.141-78.9444 170.523-78.9444C177.83-78.9444 185.137-78.9444 192.444-78.9444C193.864-78.9444 193.864-78.9444 193.864-77.5239C194.069-70.3446 194.069-63.4205 194.069-56.4964Z"/>
  </g>
  <g id="Ultralight-M" transform="matrix(1 0 0 1 439.638 1126)">
   <path d="M98.0354-41.002C97.3974-40.7468 97.2698-40.5003 97.1509-40.1088C89.3847-30.4372 81.6271-20.7657 73.8609-11.0941C72.8401-9.81811 72.8401-9.81811 71.9555-11.0941C64.1893-20.6294 56.423-30.301 48.6568-39.9812C48.4016-40.2277 48.1464-40.6192 47.7636-41.002C47.6447-40.3553 47.636-39.9812 47.636-39.4708C47.636-24.4487 47.636-9.43531 47.636 5.4505C47.636 5.82462 47.636 6.3437 47.636 6.71782C47.636 7.34714 47.3895 7.73862 46.6152 7.73862C38.7214 7.73862 30.8275 7.73862 23.0786 7.73862C22.4493 7.73862 22.0578 7.48342 22.0578 6.71782C22.0578 6.33502 22.0578 6.07982 22.0578 5.69702C22.0578-21.7951 22.0578-49.151 22.0578-76.6432C22.0578-78.5485 22.0578-78.5485 23.9632-78.5485C31.3466-78.5485 38.7214-78.5485 46.1048-78.5485C47.1256-78.5485 47.7549-78.1657 48.3929-77.4001C56.1505-67.601 64.0443-57.8018 71.8106-48.1302C72.7038-46.9818 72.7038-46.9818 73.5883-48.1302C81.3545-57.8018 89.1121-67.6096 96.8783-77.2725C97.6439-78.1657 98.2733-78.5485 99.4217-78.5485C106.933-78.5485 114.307-78.5485 121.819-78.5485C123.477-78.5485 123.477-78.5485 123.477-77.026C123.477-49.2786 123.477-21.6675 123.477 6.07982C123.477 7.60234 123.477 7.60234 121.955 7.60234C114.444 7.60234 106.933 7.60234 99.4303 7.60234C97.8991 7.60234 97.8991 7.60234 97.8991 6.07982C97.8991-9.18878 97.8991-24.4661 97.8991-39.7347C98.0354-39.9812 98.0354-40.364 98.0354-41.002ZM193.229-56.3982C193.229-49.6528 193.229-42.9073 193.229-36.0343C193.229-34.2566 193.229-34.2566 195.006-34.2566C202.262-34.2566 209.518-34.2566 216.774-34.2566C217.284-34.2566 217.914-34.5118 218.169-34.0014C218.424-33.491 217.786-33.2358 217.403-32.853C205.443-19.6173 193.347-6.38158 181.388 6.7265C180.367 7.8749 180.367 7.8749 179.346 6.7265C167.25-6.50918 155.163-19.7449 143.203-33.1082C142.948-33.3634 142.438-33.6099 142.565-34.129C142.693-34.6394 143.331-34.3755 143.705-34.3755C151.088-34.3755 158.463-34.3755 165.847-34.3755C167.369-34.3755 167.505-34.3755 167.505-36.0343C167.505-49.3976 167.505-62.7522 167.505-76.2517C167.505-76.6345 167.505-77.0087 167.505-77.3915C167.505-78.2847 167.761-78.6588 168.645-78.6675C169.028-78.6675 169.402-78.6675 169.785-78.6675C177.041-78.6675 184.297-78.6675 191.552-78.6675C192.947-78.6675 192.947-78.6675 192.947-77.2725C193.229-70.1443 193.229-63.2712 193.229-56.3982Z"/>
  </g>
  <g id="Black-S" transform="matrix(1 0 0 1 2837.23 696)">
   <path d="M76.5-40.3349C76-40.1349 75.8-39.8349 75.7-39.5349C68.8-30.9349 61.9-22.2349 55-13.6349C54.1-12.5349 54.1-12.5349 53.3-13.6349C46.3-22.3349 39.4-30.9349 32.5-39.5349C32.3-39.8349 32-40.0349 31.8-40.4349C31.6-39.9349 31.6-39.5349 31.6-39.1349C31.6-25.7349 31.6-12.3349 31.6 0.965102C31.6 1.3651 31.6 1.7651 31.6 2.1651C31.6 2.7651 31.3 3.0651 30.7 3.0651C23.7 3.0651 16.7 3.0651 9.6 3.0651C9 3.0651 8.7 2.8651 8.7 2.1651C8.7 1.8651 8.7 1.5651 8.7 1.2651C8.7-23.2349 8.7-47.7349 8.7-72.1349C8.7-73.8349 8.7-73.8349 10.5-73.8349C17.1-73.8349 23.7-73.8349 30.3-73.8349C31.2-73.8349 31.8-73.5349 32.4-72.8349C39.4-64.1349 46.3-55.4349 53.3-46.6349C54.1-45.6349 54.1-45.6349 54.9-46.6349C61.8-55.3349 68.8-63.9349 75.7-72.6349C76.3-73.4349 77-73.7349 78-73.7349C84.7-73.7349 91.3-73.7349 98-73.7349C99.4-73.7349 99.4-73.7349 99.4-72.3349C99.4-47.6349 99.4-22.9349 99.4 1.7651C99.4 3.1651 99.4 3.1651 98 3.1651C91.3 3.1651 84.6 3.1651 77.9 3.1651C76.6 3.1651 76.5 3.1651 76.5 1.7651C76.5-11.8349 76.5-25.4349 76.5-39.0349C76.5-39.5349 76.5-39.8349 76.5-40.3349ZM161.5-54.1349C161.5-48.1349 161.5-42.0349 161.5-36.0349C161.5-34.4349 161.5-34.4349 163.1-34.4349C169.6-34.4349 176-34.4349 182.5-34.4349C182.9-34.4349 183.6-34.6349 183.8-34.1349C184-33.7349 183.4-33.4349 183.2-33.1349C172.5-21.3349 161.8-9.5349 151.1 2.1651C150.2 3.1651 150.2 3.1651 149.3 2.1651C138.4-9.6349 127.7-21.4349 116.9-33.2349C116.7-33.5349 116.2-33.7349 116.3-34.1349C116.5-34.5349 117-34.4349 117.3-34.4349C123.9-34.4349 130.5-34.4349 137.1-34.4349C138.5-34.4349 138.5-34.4349 138.5-35.8349C138.5-47.7349 138.5-59.7349 138.5-71.6349C138.5-72.0349 138.5-72.3349 138.5-72.7349C138.5-73.5349 138.7-73.9349 139.6-73.8349C140-73.8349 140.3-73.8349 140.7-73.8349C147.2-73.8349 153.6-73.8349 160.1-73.8349C161.4-73.8349 161.4-73.8349 161.4-72.5349C161.5-66.4349 161.5-60.2349 161.5-54.1349Z"/>
  </g>
  <g id="Heavy-S" transform="matrix(1 0 0 1 2540.74 696)">
   <path d="M76.677-40.1697C76.177-39.9697 76.0006-39.6697 75.877-39.3933C69.1186-30.9585 62.3366-22.4473 55.5783-14.0125C54.7019-12.9361 54.7019-12.9361 53.9019-14.0125C47.0671-22.5237 40.3087-30.9585 33.5503-39.3697C33.3503-39.6697 33.0739-39.8697 32.8503-40.2461C32.6503-39.7697 32.6739-39.3697 32.6739-38.9697C32.6739-25.8529 32.6739-12.7125 32.6739 0.327869C32.6739 0.727869 32.6739 1.10427 32.6739 1.50427C32.6739 2.10427 32.3739 2.38067 31.7975 2.38067C24.9391 2.38067 18.0807 2.38067 11.1223 2.38067C10.5223 2.38067 10.2459 2.18067 10.2459 1.50427C10.2459 1.20427 10.2459 0.927869 10.2459 0.627869C10.2459-23.3765 10.2459-47.3808 10.2459-71.3088C10.2459-72.9852 10.2459-72.9852 11.9987-72.9852C18.4571-72.9852 24.9391-72.9852 31.3975-72.9852C32.2739-72.9852 32.8739-72.6852 33.4503-72.0088C40.3087-63.474 47.0907-54.9392 53.9255-46.3516C54.7019-45.3753 54.7019-45.3753 55.5019-46.3516C62.2602-54.8628 69.1186-63.2976 75.877-71.8324C76.477-72.6088 77.1534-72.9088 78.1298-72.9088C84.6882-72.9088 91.1702-72.9088 97.7286-72.9088C99.105-72.9088 99.105-72.9088 99.105-71.5324C99.105-47.328 99.105-23.1237 99.105 1.08067C99.105 2.45706 99.105 2.45706 97.7286 2.45706C91.1702 2.45706 84.6118 2.45706 78.0298 2.45706C76.7534 2.45706 76.677 2.45706 76.677 1.08067C76.677-12.2597 76.677-25.5765 76.677-38.9169C76.677-39.3697 76.677-39.6697 76.677-40.1697ZM159.954-53.6864C159.954-47.8044 159.954-41.8461 159.954-35.9405C159.954-34.3641 159.954-34.3641 161.53-34.3641C167.889-34.3641 174.171-34.3641 180.529-34.3641C180.929-34.3641 181.606-34.5641 181.806-34.0877C182.006-33.6877 181.429-33.4113 181.206-33.1113C170.718-21.5473 160.23-9.98331 149.743 1.48067C148.866 2.45706 148.866 2.45706 147.99 1.48067C137.35-10.0833 126.839-21.6473 116.275-33.2349C116.075-33.5113 115.598-33.7349 115.698-34.1113C115.875-34.5113 116.375-34.4113 116.698-34.4113C123.157-34.4113 129.639-34.4113 136.097-34.4113C137.473-34.4113 137.473-34.4113 137.473-35.7877C137.473-47.4516 137.473-59.2156 137.473-70.8796C137.473-71.256 137.473-71.5796 137.473-71.956C137.473-72.7324 137.673-73.1324 138.55-73.0324C138.926-73.0324 139.25-73.0324 139.626-73.0324C145.984-73.0324 152.266-73.0324 158.625-73.0324C159.901-73.0324 159.901-73.0324 159.901-71.756C159.954-65.7268 159.954-59.6684 159.954-53.6864Z"/>
  </g>
  <g id="Bold-S" transform="matrix(1 0 0 1 2244.28 696)">
   <path d="M76.875-39.9848C76.375-39.7848 76.225-39.4848 76.075-39.2348C69.475-30.9848 62.825-22.6848 56.225-14.4348C55.375-13.3848 55.375-13.3848 54.575-14.4348C47.925-22.7348 41.325-30.9848 34.725-39.1848C34.525-39.4848 34.275-39.6848 34.025-40.0348C33.825-39.5848 33.875-39.1848 33.875-38.7848C33.875-25.9848 33.875-13.1348 33.875-0.384846C33.875 0.0151539 33.875 0.365154 33.875 0.765154C33.875 1.36515 33.575 1.61515 33.025 1.61515C26.325 1.61515 19.625 1.61515 12.825 1.61515C12.225 1.61515 11.975 1.41515 11.975 0.765154C11.975 0.465154 11.975 0.215154 11.975-0.0848461C11.975-23.5348 11.975-46.9848 11.975-70.3848C11.975-72.0348 11.975-72.0348 13.675-72.0348C19.975-72.0348 26.325-72.0348 32.625-72.0348C33.475-72.0348 34.075-71.7348 34.625-71.0848C41.325-62.7348 47.975-54.3848 54.625-46.0348C55.375-45.0848 55.375-45.0848 56.175-46.0348C62.775-54.3348 69.475-62.5848 76.075-70.9348C76.675-71.6848 77.325-71.9848 78.275-71.9848C84.675-71.9848 91.025-71.9848 97.425-71.9848C98.775-71.9848 98.775-71.9848 98.775-70.6348C98.775-46.9848 98.775-23.3348 98.775 0.315154C98.775 1.66515 98.775 1.66515 97.425 1.66515C91.025 1.66515 84.625 1.66515 78.175 1.66515C76.925 1.66515 76.875 1.66515 76.875 0.315154C76.875-12.7348 76.875-25.7348 76.875-38.7848C76.875-39.1848 76.875-39.4848 76.875-39.9848ZM158.225-53.1848C158.225-47.4348 158.225-41.6348 158.225-35.8348C158.225-34.2848 158.225-34.2848 159.775-34.2848C165.975-34.2848 172.125-34.2848 178.325-34.2848C178.725-34.2848 179.375-34.4848 179.575-34.0348C179.775-33.6348 179.225-33.3848 178.975-33.0848C168.725-21.7848 158.475-10.4848 148.225 0.715154C147.375 1.66515 147.375 1.66515 146.525 0.715154C136.175-10.5848 125.875-21.8848 115.575-33.2348C115.375-33.4848 114.925-33.7348 115.025-34.0848C115.175-34.4848 115.675-34.3848 116.025-34.3848C122.325-34.3848 128.675-34.3848 134.975-34.3848C136.325-34.3848 136.325-34.3848 136.325-35.7348C136.325-47.1348 136.325-58.6348 136.325-70.0348C136.325-70.3848 136.325-70.7348 136.325-71.0848C136.325-71.8348 136.525-72.2348 137.375-72.1348C137.725-72.1348 138.075-72.1348 138.425-72.1348C144.625-72.1348 150.775-72.1348 156.975-72.1348C158.225-72.1348 158.225-72.1348 158.225-70.8848C158.225-64.9348 158.225-59.0348 158.225-53.1848Z"/>
  </g>
  <g id="Semibold-S" transform="matrix(1 0 0 1 1947.74 696)">
   <path d="M77.0115-39.8574C76.5115-39.6574 76.3797-39.3574 76.2115-39.1256C69.7207-31.003 63.1617-22.8486 56.6709-14.726C55.8391-13.6942 55.8391-13.6942 55.0391-14.726C48.5165-22.8804 42.0257-31.003 35.5349-39.0574C35.3349-39.3574 35.1031-39.5574 34.8349-39.8892C34.6349-39.4574 34.7031-39.0574 34.7031-38.6574C34.7031-26.0758 34.7031-13.426 34.7031-0.876227C34.7031-0.476227 34.7031-0.144427 34.7031 0.255573C34.7031 0.855573 34.4031 1.08737 33.8713 1.08737C27.2805 1.08737 20.6897 1.08737 13.9989 1.08737C13.3989 1.08737 13.1671 0.887373 13.1671 0.255573C13.1671-0.044427 13.1671-0.276227 13.1671-0.576227C13.1671-23.644 13.1671-46.7118 13.1671-69.7478C13.1671-71.3796 13.1671-71.3796 14.8307-71.3796C21.0215-71.3796 27.2805-71.3796 33.4713-71.3796C34.3031-71.3796 34.9031-71.0796 35.4349-70.4478C42.0257-62.2252 48.5847-54.0026 55.1073-45.8164C55.8391-44.8846 55.8391-44.8846 56.6391-45.8164C63.1299-53.9708 69.7207-62.0934 76.2115-70.316C76.8115-71.0478 77.4433-71.3478 78.3751-71.3478C84.6659-71.3478 90.9249-71.3478 97.2157-71.3478C98.5475-71.3478 98.5475-71.3478 98.5475-70.016C98.5475-46.7482 98.5475-23.4804 98.5475-0.212627C98.5475 1.11917 98.5475 1.11917 97.2157 1.11917C90.9249 1.11917 84.6341 1.11917 78.2751 1.11917C77.0433 1.11917 77.0115 1.11917 77.0115-0.212627C77.0115-13.0624 77.0115-25.844 77.0115-38.6938C77.0115-39.0574 77.0115-39.3574 77.0115-39.8574ZM157.033-52.839C157.033-47.18 157.033-41.4892 157.033-35.762C157.033-34.2302 157.033-34.2302 158.565-34.2302C164.656-34.2302 170.714-34.2302 176.805-34.2302C177.205-34.2302 177.837-34.4302 178.037-33.9984C178.237-33.5984 177.705-33.3666 177.437-33.0666C167.351-21.9486 157.265-10.8306 147.179 0.187373C146.347 1.11917 146.347 1.11917 145.515 0.187373C135.365-10.9306 125.211-22.0486 115.093-33.2348C114.893-33.4666 114.461-33.7348 114.561-34.0666C114.693-34.4666 115.193-34.3666 115.561-34.3666C121.752-34.3666 128.011-34.3666 134.202-34.3666C135.533-34.3666 135.533-34.3666 135.533-35.6984C135.533-46.9164 135.533-58.2344 135.533-69.4524C135.533-69.7842 135.533-70.1524 135.533-70.4842C135.533-71.216 135.733-71.616 136.565-71.516C136.897-71.516 137.265-71.516 137.597-71.516C143.688-71.516 149.747-71.516 155.838-71.516C157.069-71.516 157.069-71.516 157.069-70.2842C157.033-64.3888 157.033-58.598 157.033-52.839Z"/>
  </g>
  <g id="Medium-S" transform="matrix(1 0 0 1 1651.16 696)">
   <path d="M77.115-39.7608C76.615-39.5608 76.497-39.2608 76.315-39.0428C69.907-31.0168 63.417-22.9728 57.009-14.9468C56.191-13.9288 56.191-13.9288 55.391-14.9468C48.965-22.9908 42.557-31.0168 36.149-38.9608C35.949-39.2608 35.731-39.4608 35.449-39.7788C35.249-39.3608 35.331-38.9608 35.331-38.5608C35.331-26.1448 35.331-13.6468 35.331-1.24881C35.331-0.848813 35.331-0.530813 35.331-0.130813C35.331 0.469187 35.031 0.687187 34.513 0.687187C28.005 0.687187 21.497 0.687187 14.889 0.687187C14.289 0.687187 14.071 0.487187 14.071-0.130813C14.071-0.430813 14.071-0.648813 14.071-0.948813C14.071-23.7268 14.071-46.5048 14.071-69.2648C14.071-70.8828 14.071-70.8828 15.707-70.8828C21.815-70.8828 28.005-70.8828 34.113-70.8828C34.931-70.8828 35.531-70.5828 36.049-69.9648C42.557-61.8388 49.047-53.7128 55.473-45.6508C56.191-44.7328 56.191-44.7328 56.991-45.6508C63.399-53.6948 69.907-61.7208 76.315-69.8468C76.915-70.5648 77.533-70.8648 78.451-70.8648C84.659-70.8648 90.849-70.8648 97.057-70.8648C98.375-70.8648 98.375-70.8648 98.375-69.5468C98.375-46.5688 98.375-23.5908 98.375-0.612813C98.375 0.705187 98.375 0.705187 97.057 0.705187C90.849 0.705187 84.641 0.705187 78.351 0.705187C77.133 0.705187 77.115 0.705187 77.115-0.612813C77.115-13.3108 77.115-25.9268 77.115-38.6248C77.115-38.9608 77.115-39.2608 77.115-39.7608ZM156.129-52.5768C156.129-46.9868 156.129-41.3788 156.129-35.7068C156.129-34.1888 156.129-34.1888 157.647-34.1888C163.655-34.1888 169.645-34.1888 175.653-34.1888C176.053-34.1888 176.671-34.3888 176.871-33.9708C177.071-33.5708 176.553-33.3528 176.271-33.0528C166.309-22.0728 156.347-11.0928 146.385-0.212813C145.567 0.705187 145.567 0.705187 144.749-0.212813C134.751-11.1928 124.707-22.1728 114.727-33.2348C114.527-33.4528 114.109-33.7348 114.209-34.0528C114.327-34.4528 114.827-34.3528 115.209-34.3528C121.317-34.3528 127.507-34.3528 133.615-34.3528C134.933-34.3528 134.933-34.3528 134.933-35.6708C134.933-46.7508 134.933-57.9308 134.933-69.0108C134.933-69.3288 134.933-69.7108 134.933-70.0288C134.933-70.7468 135.133-71.1468 135.951-71.0468C136.269-71.0468 136.651-71.0468 136.969-71.0468C142.977-71.0468 148.967-71.0468 154.975-71.0468C156.193-71.0468 156.193-71.0468 156.193-69.8288C156.129-63.9748 156.129-58.2668 156.129-52.5768Z"/>
  </g>
  <g id="Regular-S" transform="matrix(1 0 0 1 1354.62 696)">
   <path d="M77.25-39.6348C76.75-39.4348 76.65-39.1348 76.45-38.9348C70.15-31.0348 63.75-23.1348 57.45-15.2348C56.65-14.2348 56.65-14.2348 55.85-15.2348C49.55-23.1348 43.25-31.0348 36.95-38.8348C36.75-39.1348 36.55-39.3348 36.25-39.6348C36.05-39.2348 36.15-38.8348 36.15-38.4348C36.15-26.2348 36.15-13.9348 36.15-1.73479C36.15-1.33479 36.15-1.03479 36.15-0.634794C36.15-0.0347937 35.85 0.165206 35.35 0.165206C28.95 0.165206 22.55 0.165206 16.05 0.165206C15.45 0.165206 15.25-0.0347937 15.25-0.634794C15.25-0.934794 15.25-1.13479 15.25-1.43479C15.25-23.8348 15.25-46.2348 15.25-68.6348C15.25-70.2348 15.25-70.2348 16.85-70.2348C22.85-70.2348 28.95-70.2348 34.95-70.2348C35.75-70.2348 36.35-69.9348 36.85-69.3348C43.25-61.3348 49.65-53.3348 55.95-45.4348C56.65-44.5348 56.65-44.5348 57.45-45.4348C63.75-53.3348 70.15-61.2348 76.45-69.2348C77.05-69.9348 77.65-70.2348 78.55-70.2348C84.65-70.2348 90.75-70.2348 96.85-70.2348C98.15-70.2348 98.15-70.2348 98.15-68.9348C98.15-46.3348 98.15-23.7348 98.15-1.13479C98.15 0.165206 98.15 0.165206 96.85 0.165206C90.75 0.165206 84.65 0.165206 78.45 0.165206C77.25 0.165206 77.25 0.165206 77.25-1.13479C77.25-13.6348 77.25-26.0348 77.25-38.5348C77.25-38.8348 77.25-39.1348 77.25-39.6348ZM154.95-52.2348C154.95-46.7348 154.95-41.2348 154.95-35.6348C154.95-34.1348 154.95-34.1348 156.45-34.1348C162.35-34.1348 168.25-34.1348 174.15-34.1348C174.55-34.1348 175.15-34.3348 175.35-33.9348C175.55-33.5348 175.05-33.3348 174.75-33.0348C164.95-22.2348 155.15-11.4348 145.35-0.734794C144.55 0.165206 144.55 0.165206 143.75-0.734794C133.95-11.5348 124.05-22.3348 114.25-33.2348C114.05-33.4348 113.65-33.7348 113.75-34.0348C113.85-34.4348 114.35-34.3348 114.75-34.3348C120.75-34.3348 126.85-34.3348 132.85-34.3348C134.15-34.3348 134.15-34.3348 134.15-35.6348C134.15-46.5348 134.15-57.5348 134.15-68.4348C134.15-68.7348 134.15-69.1348 134.15-69.4348C134.15-70.1348 134.35-70.5348 135.15-70.4348C135.45-70.4348 135.85-70.4348 136.15-70.4348C142.05-70.4348 147.95-70.4348 153.85-70.4348C155.05-70.4348 155.05-70.4348 155.05-69.2348C154.95-63.4348 154.95-57.8348 154.95-52.2348Z"/>
  </g>
  <g id="Light-S" transform="matrix(1 0 0 1 1058.26 696)">
   <path d="M77.119-39.6732C76.619-39.4732 76.519-39.2065 76.3523-38.9732C70.119-31.1732 63.819-23.3732 57.5857-15.5732C56.7857-14.5732 56.7857-14.5732 56.019-15.5732C49.7857-23.3399 43.5523-31.1399 37.319-38.8732C37.119-39.1399 36.919-39.3732 36.619-39.6732C36.4523-39.2399 36.519-38.8732 36.519-38.4732C36.519-26.4065 36.519-14.2732 36.519-2.23986C36.519-1.8732 36.519-1.53986 36.519-1.1732C36.519-0.606529 36.2523-0.373196 35.719-0.373196C29.3857-0.373196 23.0523-0.373196 16.6857-0.373196C16.119-0.373196 15.8857-0.573196 15.8857-1.1732C15.8857-1.4732 15.8857-1.6732 15.8857-1.9732C15.8857-24.1065 15.8857-46.2065 15.8857-68.3399C15.8857-69.9065 15.8857-69.9065 17.4523-69.9065C23.3857-69.9065 29.3857-69.9065 35.319-69.9065C36.119-69.9065 36.6857-69.6065 37.1857-69.0065C43.4857-61.1065 49.819-53.2065 56.0523-45.4065C56.7523-44.5065 56.7523-44.5065 57.519-45.4065C63.7523-53.2065 70.0523-61.0399 76.2857-68.9065C76.8857-69.6065 77.4523-69.9065 78.3523-69.9065C84.3857-69.9065 90.3857-69.9065 96.419-69.9065C97.719-69.9065 97.719-69.9065 97.719-68.6399C97.719-46.3065 97.719-24.0065 97.719-1.6732C97.719-0.406529 97.719-0.406529 96.4523-0.406529C90.419-0.406529 84.3857-0.406529 78.2857-0.406529C77.0857-0.406529 77.0857-0.406529 77.0857-1.6732C77.0857-14.0065 77.0857-26.2732 77.0857-38.6065C77.119-38.8732 77.119-39.1732 77.119-39.6732ZM153.852-52.1065C153.852-46.6732 153.852-41.2399 153.852-35.7065C153.852-34.2399 153.852-34.2399 155.319-34.2399C161.152-34.2399 166.986-34.2399 172.819-34.2399C173.219-34.2399 173.786-34.4399 173.986-34.0399C174.186-33.6399 173.686-33.4399 173.386-33.1399C163.719-22.4732 154.019-11.8065 144.352-1.23986C143.552-0.339862 143.552-0.339862 142.752-1.23986C133.052-11.9065 123.286-22.5732 113.619-33.3399C113.419-33.5399 113.019-33.8065 113.119-34.1399C113.219-34.5399 113.719-34.4065 114.086-34.4065C120.019-34.4065 126.019-34.4065 131.952-34.4065C133.219-34.4065 133.252-34.4065 133.252-35.7065C133.252-46.4732 133.252-57.3065 133.252-68.1065C133.252-68.4065 133.252-68.7732 133.252-69.0732C133.252-69.7732 133.452-70.1399 134.219-70.0732C134.519-70.0732 134.886-70.0732 135.186-70.0732C141.019-70.0732 146.852-70.0732 152.686-70.0732C153.852-70.0732 153.852-70.0732 153.852-68.9065C153.852-63.1732 153.852-57.6399 153.852-52.1065Z"/>
  </g>
  <g id="Thin-S" transform="matrix(1 0 0 1 762.012 696)">
   <path d="M76.9457-39.724C76.4457-39.524 76.3457-39.3014 76.2232-39.024C70.078-31.3562 63.9103-23.6885 57.7651-16.0208C56.9651-15.0208 56.9651-15.0208 56.2425-16.0208C50.0974-23.6111 43.9522-31.2788 37.807-38.924C37.607-39.1466 37.407-39.424 37.107-39.724C36.9845-39.2466 37.007-38.924 37.007-38.524C37.007-26.6337 37.007-14.7208 37.007-2.90786C37.007-2.58528 37.007-2.20786 37.007-1.88528C37.007-1.3627 36.7845-1.08528 36.207-1.08528C29.9619-1.08528 23.7167-1.08528 17.5264-1.08528C17.0038-1.08528 16.7264-1.28528 16.7264-1.88528C16.7264-2.18528 16.7264-2.38528 16.7264-2.68528C16.7264-24.4659 16.7264-46.1691 16.7264-67.9498C16.7264-69.4724 16.7264-69.4724 18.249-69.4724C24.0941-69.4724 29.9619-69.4724 35.807-69.4724C36.607-69.4724 37.1296-69.1724 37.6296-68.5724C43.7974-60.8046 50.0425-53.0369 56.1877-45.3691C56.8877-44.4691 56.8877-44.4691 57.6103-45.3691C63.7554-53.0369 69.9232-60.7821 76.0683-68.4724C76.6683-69.1724 77.1909-69.4724 78.0909-69.4724C84.0361-69.4724 89.9038-69.4724 95.849-69.4724C97.149-69.4724 97.149-69.4724 97.149-68.2498C97.149-46.2691 97.149-24.3659 97.149-2.38528C97.149-1.1627 97.149-1.1627 95.9264-1.1627C89.9812-1.1627 84.0361-1.1627 78.0683-1.1627C76.8683-1.1627 76.8683-1.1627 76.8683-2.38528C76.8683-14.4982 76.8683-26.5885 76.8683-38.7014C76.9457-38.924 76.9457-39.224 76.9457-39.724ZM152.401-51.9369C152.401-46.5917 152.401-41.2466 152.401-35.8014C152.401-34.3788 152.401-34.3788 153.823-34.3788C159.568-34.3788 165.313-34.3788 171.059-34.3788C171.459-34.3788 171.981-34.5788 172.181-34.1788C172.381-33.7788 171.881-33.5788 171.581-33.2788C162.091-22.7885 152.523-12.2982 143.033-1.90786C142.233-1.00786 142.233-1.00786 141.433-1.90786C131.865-12.3982 122.275-22.8885 112.784-33.4788C112.584-33.6788 112.184-33.9014 112.284-34.2788C112.384-34.6788 112.884-34.5014 113.207-34.5014C119.052-34.5014 124.92-34.5014 130.765-34.5014C131.988-34.5014 132.065-34.5014 132.065-35.8014C132.065-46.3917 132.065-57.0046 132.065-67.6724C132.065-67.9724 132.065-68.295 132.065-68.595C132.065-69.295 132.265-69.6175 132.988-69.595C133.288-69.595 133.61-69.595 133.91-69.595C139.655-69.595 145.401-69.595 151.146-69.595C152.268-69.595 152.268-69.595 152.268-68.4724C152.401-62.8272 152.401-57.3821 152.401-51.9369Z"/>
  </g>
  <g id="Ultralight-S" transform="matrix(1 0 0 1 465.538 696)">
   <path d="M76.857-39.75C76.357-39.55 76.257-39.35 76.157-39.05C70.057-31.45 63.957-23.85 57.857-16.25C57.057-15.25 57.057-15.25 56.357-16.25C50.257-23.75 44.157-31.35 38.057-38.95C37.857-39.15 37.657-39.45 37.357-39.75C37.257-39.25 37.257-38.95 37.257-38.55C37.257-26.75 37.257-14.95 37.257-3.25C37.257-2.95 37.257-2.55 37.257-2.25C37.257-1.75 37.057-1.45 36.457-1.45C30.257-1.45 24.057-1.45 17.957-1.45C17.457-1.45 17.157-1.65 17.157-2.25C17.157-2.55 17.157-2.75 17.157-3.05C17.157-24.65 17.157-46.15 17.157-67.75C17.157-69.25 17.157-69.25 18.657-69.25C24.457-69.25 30.257-69.25 36.057-69.25C36.857-69.25 37.357-68.95 37.857-68.35C43.957-60.65 50.157-52.95 56.257-45.35C56.957-44.45 56.957-44.45 57.657-45.35C63.757-52.95 69.857-60.65 75.957-68.25C76.557-68.95 77.057-69.25 77.957-69.25C83.857-69.25 89.657-69.25 95.557-69.25C96.857-69.25 96.857-69.25 96.857-68.05C96.857-46.25 96.857-24.55 96.857-2.75C96.857-1.55 96.857-1.55 95.657-1.55C89.757-1.55 83.857-1.55 77.957-1.55C76.757-1.55 76.757-1.55 76.757-2.75C76.757-14.75 76.757-26.75 76.757-38.75C76.857-38.95 76.857-39.25 76.857-39.75ZM151.657-51.85C151.657-46.55 151.657-41.25 151.657-35.85C151.657-34.45 151.657-34.45 153.057-34.45C158.757-34.45 164.457-34.45 170.157-34.45C170.557-34.45 171.057-34.65 171.257-34.25C171.457-33.85 170.957-33.65 170.657-33.35C161.257-22.95 151.757-12.55 142.357-2.25C141.557-1.35 141.557-1.35 140.757-2.25C131.257-12.65 121.757-23.05 112.357-33.55C112.157-33.75 111.757-33.95 111.857-34.35C111.957-34.75 112.457-34.55 112.757-34.55C118.557-34.55 124.357-34.55 130.157-34.55C131.357-34.55 131.457-34.55 131.457-35.85C131.457-46.35 131.457-56.85 131.457-67.45C131.457-67.75 131.457-68.05 131.457-68.35C131.457-69.05 131.657-69.35 132.357-69.35C132.657-69.35 132.957-69.35 133.257-69.35C138.957-69.35 144.657-69.35 150.357-69.35C151.457-69.35 151.457-69.35 151.457-68.25C151.657-62.65 151.657-57.25 151.657-51.85Z"/>
  </g>
 </g>
</svg>
