<?xml version="1.0" encoding="UTF-8"?>
<!--Generator: Apple Native CoreSVG 175.5-->
<!DOCTYPE svg
PUBLIC "-//W3C//DTD SVG 1.1//EN"
       "http://www.w3.org/Graphics/SVG/1.1/DTD/svg11.dtd">
<svg version="1.1" xmlns="http://www.w3.org/2000/svg" xmlns:xlink="http://www.w3.org/1999/xlink" width="3300" height="2200">
 <!--glyph: "", point size: 100.0, font version: "18.0d12e2", template writer version: "101"-->
 <g id="Notes">
  <rect height="2200" id="artboard" style="fill:white;opacity:1" width="3300" x="0" y="0"/>
  <line style="fill:none;stroke:black;opacity:1;stroke-width:0.5;" x1="263" x2="3036" y1="292" y2="292"/>
  <text style="stroke:none;fill:black;font-family:sans-serif;font-size:13;font-weight:bold;" transform="matrix(1 0 0 1 263 322)">Weight/Scale Variations</text>
  <text style="stroke:none;fill:black;font-family:sans-serif;font-size:13;text-anchor:middle;" transform="matrix(1 0 0 1 559.711 322)">Ultralight</text>
  <text style="stroke:none;fill:black;font-family:sans-serif;font-size:13;text-anchor:middle;" transform="matrix(1 0 0 1 856.422 322)">Thin</text>
  <text style="stroke:none;fill:black;font-family:sans-serif;font-size:13;text-anchor:middle;" transform="matrix(1 0 0 1 1153.13 322)">Light</text>
  <text style="stroke:none;fill:black;font-family:sans-serif;font-size:13;text-anchor:middle;" transform="matrix(1 0 0 1 1449.84 322)">Regular</text>
  <text style="stroke:none;fill:black;font-family:sans-serif;font-size:13;text-anchor:middle;" transform="matrix(1 0 0 1 1746.56 322)">Medium</text>
  <text style="stroke:none;fill:black;font-family:sans-serif;font-size:13;text-anchor:middle;" transform="matrix(1 0 0 1 2043.27 322)">Semibold</text>
  <text style="stroke:none;fill:black;font-family:sans-serif;font-size:13;text-anchor:middle;" transform="matrix(1 0 0 1 2339.98 322)">Bold</text>
  <text style="stroke:none;fill:black;font-family:sans-serif;font-size:13;text-anchor:middle;" transform="matrix(1 0 0 1 2636.69 322)">Heavy</text>
  <text style="stroke:none;fill:black;font-family:sans-serif;font-size:13;text-anchor:middle;" transform="matrix(1 0 0 1 2933.4 322)">Black</text>
  <line style="fill:none;stroke:black;opacity:1;stroke-width:0.5;" x1="263" x2="3036" y1="1903" y2="1903"/>
  <g transform="matrix(1 0 0 1 263 1933)">
   <path d="M9.24805 0.830078C13.5547 0.830078 17.1387-2.74414 17.1387-7.05078C17.1387-11.3574 13.5449-14.9316 9.23828-14.9316C4.94141-14.9316 1.36719-11.3574 1.36719-7.05078C1.36719-2.74414 4.95117 0.830078 9.24805 0.830078ZM9.24805-0.654297C5.70312-0.654297 2.87109-3.49609 2.87109-7.05078C2.87109-10.6055 5.69336-13.4473 9.23828-13.4473C12.793-13.4473 15.6445-10.6055 15.6445-7.05078C15.6445-3.49609 12.8027-0.654297 9.24805-0.654297ZM5.6543-7.05078C5.6543-6.62109 5.95703-6.32812 6.40625-6.32812L8.50586-6.32812L8.50586-4.20898C8.50586-3.76953 8.79883-3.4668 9.22852-3.4668C9.67773-3.4668 9.9707-3.76953 9.9707-4.20898L9.9707-6.32812L12.0898-6.32812C12.5293-6.32812 12.832-6.62109 12.832-7.05078C12.832-7.49023 12.5293-7.79297 12.0898-7.79297L9.9707-7.79297L9.9707-9.90234C9.9707-10.3516 9.67773-10.6543 9.22852-10.6543C8.79883-10.6543 8.50586-10.3516 8.50586-9.90234L8.50586-7.79297L6.40625-7.79297C5.95703-7.79297 5.6543-7.49023 5.6543-7.05078Z"/>
  </g>
  <g transform="matrix(1 0 0 1 281.867 1933)">
   <path d="M11.709 2.91016C17.1582 2.91016 21.6699-1.61133 21.6699-7.05078C21.6699-12.5 17.1484-17.0117 11.6992-17.0117C6.25977-17.0117 1.74805-12.5 1.74805-7.05078C1.74805-1.61133 6.26953 2.91016 11.709 2.91016ZM11.709 1.25C7.09961 1.25 3.41797-2.44141 3.41797-7.05078C3.41797-11.6602 7.08984-15.3516 11.6992-15.3516C16.3086-15.3516 20.0098-11.6602 20.0098-7.05078C20.0098-2.44141 16.3184 1.25 11.709 1.25ZM7.17773-7.05078C7.17773-6.57227 7.50977-6.25 8.00781-6.25L10.8789-6.25L10.8789-3.36914C10.8789-2.88086 11.2109-2.53906 11.6895-2.53906C12.1777-2.53906 12.5195-2.87109 12.5195-3.36914L12.5195-6.25L15.4004-6.25C15.8887-6.25 16.2305-6.57227 16.2305-7.05078C16.2305-7.53906 15.8887-7.88086 15.4004-7.88086L12.5195-7.88086L12.5195-10.752C12.5195-11.25 12.1777-11.5918 11.6895-11.5918C11.2109-11.5918 10.8789-11.25 10.8789-10.752L10.8789-7.88086L8.00781-7.88086C7.50977-7.88086 7.17773-7.53906 7.17773-7.05078Z"/>
  </g>
  <g transform="matrix(1 0 0 1 305.646 1933)">
   <path d="M14.9707 5.66406C21.9336 5.66406 27.6953-0.0976562 27.6953-7.05078C27.6953-14.0137 21.9238-19.7754 14.9609-19.7754C8.00781-19.7754 2.25586-14.0137 2.25586-7.05078C2.25586-0.0976562 8.01758 5.66406 14.9707 5.66406ZM14.9707 3.84766C8.93555 3.84766 4.08203-1.01562 4.08203-7.05078C4.08203-13.0957 8.92578-17.9492 14.9609-17.9492C21.0059-17.9492 25.8691-13.0957 25.8691-7.05078C25.8691-1.01562 21.0156 3.84766 14.9707 3.84766ZM9.19922-7.05078C9.19922-6.5332 9.57031-6.17188 10.1172-6.17188L14.0625-6.17188L14.0625-2.2168C14.0625-1.67969 14.4336-1.29883 14.9512-1.29883C15.4883-1.29883 15.8594-1.66992 15.8594-2.2168L15.8594-6.17188L19.8145-6.17188C20.3516-6.17188 20.7324-6.5332 20.7324-7.05078C20.7324-7.59766 20.3613-7.96875 19.8145-7.96875L15.8594-7.96875L15.8594-11.9141C15.8594-12.4609 15.4883-12.8418 14.9512-12.8418C14.4336-12.8418 14.0625-12.4609 14.0625-11.9141L14.0625-7.96875L10.1172-7.96875C9.57031-7.96875 9.19922-7.59766 9.19922-7.05078Z"/>
  </g>
  <text style="stroke:none;fill:black;font-family:sans-serif;font-size:13;font-weight:bold;" transform="matrix(1 0 0 1 263 1953)">Design Variations</text>
  <text style="stroke:none;fill:black;font-family:sans-serif;font-size:13;" transform="matrix(1 0 0 1 263 1971)">Symbols are supported in up to nine weights and three scales.</text>
  <text style="stroke:none;fill:black;font-family:sans-serif;font-size:13;" transform="matrix(1 0 0 1 263 1989)">For optimal layout with text and other symbols, vertically align</text>
  <text style="stroke:none;fill:black;font-family:sans-serif;font-size:13;" transform="matrix(1 0 0 1 263 2007)">symbols with the adjacent text.</text>
  <line style="fill:none;stroke:#00AEEF;stroke-width:0.5;opacity:1.0;" x1="776" x2="776" y1="1919" y2="1933"/>
  <g transform="matrix(1 0 0 1 776 1933)">
   <path d="M3.31055 0.15625C3.82812 0.15625 4.08203-0.0390625 4.26758-0.585938L5.52734-4.0332L11.2891-4.0332L12.5488-0.585938C12.7344-0.0390625 12.9883 0.15625 13.4961 0.15625C14.0137 0.15625 14.3457-0.15625 14.3457-0.644531C14.3457-0.810547 14.3164-0.966797 14.2383-1.17188L9.6582-13.3691C9.43359-13.9648 9.0332-14.2676 8.4082-14.2676C7.80273-14.2676 7.39258-13.9746 7.17773-13.3789L2.59766-1.16211C2.51953-0.957031 2.49023-0.800781 2.49023-0.634766C2.49023-0.146484 2.80273 0.15625 3.31055 0.15625ZM6.00586-5.51758L8.37891-12.0898L8.42773-12.0898L10.8008-5.51758Z"/>
  </g>
  <line style="fill:none;stroke:#00AEEF;stroke-width:0.5;opacity:1.0;" x1="793.197" x2="793.197" y1="1919" y2="1933"/>
  <text style="stroke:none;fill:black;font-family:sans-serif;font-size:13;font-weight:bold;" transform="matrix(1 0 0 1 776 1953)">Margins</text>
  <text style="stroke:none;fill:black;font-family:sans-serif;font-size:13;" transform="matrix(1 0 0 1 776 1971)">Leading and trailing margins on the left and right side of each symbol</text>
  <text style="stroke:none;fill:black;font-family:sans-serif;font-size:13;" transform="matrix(1 0 0 1 776 1989)">can be adjusted by modifying the x-location of the margin guidelines.</text>
  <text style="stroke:none;fill:black;font-family:sans-serif;font-size:13;" transform="matrix(1 0 0 1 776 2007)">Modifications are automatically applied proportionally to all</text>
  <text style="stroke:none;fill:black;font-family:sans-serif;font-size:13;" transform="matrix(1 0 0 1 776 2025)">scales and weights.</text>
  <g transform="matrix(1 0 0 1 1289 1933)">
   <path d="M2.8418 1.86523L4.54102 3.57422C5.40039 4.44336 6.38672 4.38477 7.31445 3.35938L18.0078-8.42773L17.041-9.4043L6.42578 2.27539C6.07422 2.67578 5.74219 2.77344 5.27344 2.30469L4.10156 1.14258C3.63281 0.683594 3.74023 0.341797 4.14062-0.0195312L15.6152-10.8203L14.6387-11.7871L3.04688-0.898438C2.06055 0.0195312 1.98242 0.996094 2.8418 1.86523ZM9.25781-16.3281C8.83789-15.918 8.80859-15.3418 9.04297-14.9512C9.27734-14.5898 9.73633-14.3555 10.3809-14.5215C11.8457-14.8633 13.3691-14.9219 14.7949-13.9844L14.209-12.5293C13.8672-11.6992 14.043-11.1133 14.5801-10.5664L16.875-8.25195C17.3633-7.76367 17.7734-7.74414 18.3398-7.8418L19.4043-8.03711L20.0684-7.36328L20.0293-6.80664C19.9902-6.30859 20.1172-5.92773 20.6055-5.44922L21.3672-4.70703C21.8457-4.22852 22.4609-4.19922 22.9297-4.66797L25.8398-7.58789C26.3086-8.05664 26.2891-8.65234 25.8105-9.13086L25.0391-9.89258C24.5605-10.3711 24.1895-10.5273 23.7109-10.4883L23.1348-10.4395L22.4902-11.0742L22.7344-12.1973C22.8613-12.7637 22.7051-13.2031 22.1191-13.7891L19.9219-15.9766C16.582-19.2969 12.1484-19.2188 9.25781-16.3281ZM10.752-15.957C13.1836-17.7344 16.4746-17.4316 18.7012-15.2051L21.1328-12.793C21.3672-12.5586 21.4062-12.373 21.3379-12.0312L21.0156-10.5469L22.5195-9.0625L23.5059-9.12109C23.7598-9.13086 23.8379-9.11133 24.0332-8.91602L24.6094-8.33984L22.168-5.89844L21.5918-6.47461C21.3965-6.66992 21.3672-6.74805 21.377-7.01172L21.4453-7.98828L19.9512-9.47266L18.4277-9.21875C18.1055-9.15039 17.959-9.17969 17.7148-9.41406L15.7129-11.416C15.459-11.6504 15.4297-11.8164 15.5859-12.1875L16.4648-14.2773C14.9023-15.7324 12.8711-16.3574 10.8398-15.7617C10.6836-15.7227 10.625-15.8496 10.752-15.957Z"/>
  </g>
  <text style="stroke:none;fill:black;font-family:sans-serif;font-size:13;font-weight:bold;" transform="matrix(1 0 0 1 1289 1953)">Exporting</text>
  <text style="stroke:none;fill:black;font-family:sans-serif;font-size:13;" transform="matrix(1 0 0 1 1289 1971)">Symbols should be outlined when exporting to ensure the</text>
  <text style="stroke:none;fill:black;font-family:sans-serif;font-size:13;" transform="matrix(1 0 0 1 1289 1989)">design is preserved when submitting to Xcode.</text>
  <text id="template-version" style="stroke:none;fill:black;font-family:sans-serif;font-size:13;text-anchor:end;" transform="matrix(1 0 0 1 3036 1933)">Template v.3.0</text>
  <text style="stroke:none;fill:black;font-family:sans-serif;font-size:13;text-anchor:end;" transform="matrix(1 0 0 1 3036 1951)">Requires Xcode 13 or greater</text>
  <text id="descriptive-name" style="stroke:none;fill:black;font-family:sans-serif;font-size:13;text-anchor:end;" transform="matrix(1 0 0 1 3036 1969)">Generated from custom.juicebox.2</text>
  <text style="stroke:none;fill:black;font-family:sans-serif;font-size:13;text-anchor:end;" transform="matrix(1 0 0 1 3036 1987)">Typeset at 100 points</text>
  <text style="stroke:none;fill:black;font-family:sans-serif;font-size:13;" transform="matrix(1 0 0 1 263 726)">Small</text>
  <text style="stroke:none;fill:black;font-family:sans-serif;font-size:13;" transform="matrix(1 0 0 1 263 1156)">Medium</text>
  <text style="stroke:none;fill:black;font-family:sans-serif;font-size:13;" transform="matrix(1 0 0 1 263 1586)">Large</text>
 </g>
 <g id="Guides">
  <g id="H-reference" style="fill:#27AAE1;stroke:none;" transform="matrix(1 0 0 1 339 696)">
   <path d="M0.993654 0L3.63775 0L29.3281-67.1323L30.0303-67.1323L30.0303-70.459L28.1226-70.459ZM11.6885-24.4799L46.9815-24.4799L46.2315-26.7285L12.4385-26.7285ZM55.1196 0L57.7637 0L30.6382-70.459L29.4326-70.459L29.4326-67.1323Z"/>
  </g>
  <line id="Baseline-S" style="fill:none;stroke:#27AAE1;opacity:1;stroke-width:0.5;" x1="263" x2="3036" y1="696" y2="696"/>
  <line id="Capline-S" style="fill:none;stroke:#27AAE1;opacity:1;stroke-width:0.5;" x1="263" x2="3036" y1="625.541" y2="625.541"/>
  <g id="H-reference" style="fill:#27AAE1;stroke:none;" transform="matrix(1 0 0 1 339 1126)">
   <path d="M0.993654 0L3.63775 0L29.3281-67.1323L30.0303-67.1323L30.0303-70.459L28.1226-70.459ZM11.6885-24.4799L46.9815-24.4799L46.2315-26.7285L12.4385-26.7285ZM55.1196 0L57.7637 0L30.6382-70.459L29.4326-70.459L29.4326-67.1323Z"/>
  </g>
  <line id="Baseline-M" style="fill:none;stroke:#27AAE1;opacity:1;stroke-width:0.5;" x1="263" x2="3036" y1="1126" y2="1126"/>
  <line id="Capline-M" style="fill:none;stroke:#27AAE1;opacity:1;stroke-width:0.5;" x1="263" x2="3036" y1="1055.54" y2="1055.54"/>
  <g id="H-reference" style="fill:#27AAE1;stroke:none;" transform="matrix(1 0 0 1 339 1556)">
   <path d="M0.993654 0L3.63775 0L29.3281-67.1323L30.0303-67.1323L30.0303-70.459L28.1226-70.459ZM11.6885-24.4799L46.9815-24.4799L46.2315-26.7285L12.4385-26.7285ZM55.1196 0L57.7637 0L30.6382-70.459L29.4326-70.459L29.4326-67.1323Z"/>
  </g>
  <line id="Baseline-L" style="fill:none;stroke:#27AAE1;opacity:1;stroke-width:0.5;" x1="263" x2="3036" y1="1556" y2="1556"/>
  <line id="Capline-L" style="fill:none;stroke:#27AAE1;opacity:1;stroke-width:0.5;" x1="263" x2="3036" y1="1485.54" y2="1485.54"/>
  <line id="left-margin-Ultralight-S" style="fill:none;stroke:#00AEEF;stroke-width:0.5;opacity:1.0;" x1="515.649" x2="515.649" y1="600.785" y2="720.121"/>
  <line id="right-margin-Ultralight-S" style="fill:none;stroke:#00AEEF;stroke-width:0.5;opacity:1.0;" x1="603.773" x2="603.773" y1="600.785" y2="720.121"/>
  <line id="left-margin-Regular-S" style="fill:none;stroke:#00AEEF;stroke-width:0.5;opacity:1.0;" x1="1403.58" x2="1403.58" y1="600.785" y2="720.121"/>
  <line id="right-margin-Regular-S" style="fill:none;stroke:#00AEEF;stroke-width:0.5;opacity:1.0;" x1="1496.11" x2="1496.11" y1="600.785" y2="720.121"/>
  <line id="left-margin-Black-S" style="fill:none;stroke:#00AEEF;stroke-width:0.5;opacity:1.0;" x1="2884.57" x2="2884.57" y1="600.785" y2="720.121"/>
  <line id="right-margin-Black-S" style="fill:none;stroke:#00AEEF;stroke-width:0.5;opacity:1.0;" x1="2982.23" x2="2982.23" y1="600.785" y2="720.121"/>
 </g>
 <g id="Symbols">
  <g id="Black-S" transform="matrix(1 0 0 1 2884.57 696)">
   <path d="M77.399-63.7734C77.3365-64.2969 77.0868-64.75 76.6734-65.1172C76.2911-65.4609 75.7994-65.6797 75.4093-65.8594L75.066-66.0234C74.2624-66.4062 73.4587-66.7812 72.6316-67.1562L72.1557-67.3672C71.2662-67.7578 70.3689-68.1484 69.4717-68.5312C69.4717-68.5312 66.46-69.8203 65.8279-70.0938C64.9462-70.4766 64.0568-70.8359 63.1673-71.1875L61.7628-71.7578C60.2726-72.3672 58.7355-73 57.1048-73C56.0202-73 55.0605-72.7188 54.1633-72.1484C53.1255-71.5 52.4701-70.5234 52.2205-69.25C51.8928-67.6875 51.0501-64.2812 50.2854-61.2344C50.1138-60.5625 49.4506-60.1406 48.7718-60.2656C47.4298-60.5156 46.0799-60.75 44.7301-60.9766C42.8809-61.2812 41.0474-61.7891 39.1592-61.9297C37.2788-62.0547 35.4374-61.5312 33.6194-61.0859C29.648-60.1328 25.7546-58.7891 22.0562-57.0234C21.0887-56.5469 20.8546-56.0703 20.839-55.0391C20.761-51.25 20.1758-47.3984 19.9496-43.6094C19.6999-39.4844 19.5516-35.3594 19.4736-31.2109C19.3332-22.8047 19.4736-14.2891 20.7688-5.95312C20.8156-5.67188 20.9249-5.35156 20.9093-5.0625C20.9093-4.84375 20.9561-4.61719 21.0809-4.41406C21.2838-4.04688 21.8846-2.9375 32.9484-0.414062C36.1942 0.328125 44.0981 2 49.1775 2C49.3804 2 49.591 2 49.7939 1.98438C61.7082 1.63281 65.7577-3.21875 65.9293-3.42188C66.2414-3.82031 66.4365-4.05469 66.7486-12.2109C66.9359-16.8125 67.0997-23.0078 67.2089-29.2266C67.3338-35.7891 67.3962-41.8203 67.365-46.2422C67.3494-48.0938 67.3494-49.9219 67.2714-51.7578C67.2402-52.5547 67.1933-53.3594 67.0841-54.1484C66.9125-55.3672 65.8669-55.7812 64.8526-56.2109C64.4391-56.3828 63.9865-56.5469 63.5574-56.7031C62.5588-57.0703 61.5288-57.3828 60.491-57.6719C60.2883-57.7344 58.1815-58.3203 58.1035-58.3203L57.5339-58.4453C57.0424-58.5547 56.2855-59.1719 56.4962-60.2344L57.8928-66.1953C58.0801-66.3125 58.3532-66.5 58.5872-66.7344L60.374-65.9609C60.7329-65.8125 72.6083-60.7188 72.7409-60.6641C72.9515-60.5781 73.1544-60.4922 73.3729-60.3828L73.5289-60.3125C73.6304-60.2656 73.7318-60.2188 73.8644-60.1797C74.0595-60.1094 74.3248-60.0078 74.6447-59.9844C74.8709-59.9844 75.0582-60.0312 75.2377-60.0781C75.6044-60.1953 75.9477-60.4141 76.2754-60.7422C76.5875-61.0547 76.8372-61.4062 77.0322-61.8203C77.3677-62.5234 77.4848-63.1875 77.4067-63.7891L77.399-63.7734ZM28.0797-7.67188C27.9861-7.5 27.7598-7.42969 27.5803-7.51562C27.4009-7.60156 27.3151-7.82031 27.3775-8.01562L34.0408-28.6406L23.3436-29.6719C23.1954-29.6875 23.0705-29.7891 23.0159-29.9297C22.9769-30.0703 23.0003-30.2344 23.1017-30.3438L36.2254-45.5C36.3503-45.6406 36.5688-45.6719 36.7248-45.5547C36.8887-45.4531 36.9433-45.2422 36.8809-45.0547L32.8782-35.6484C32.8158-35.5 32.925-35.3359 33.0811-35.3359L43.8172-35.3359C43.9577-35.3359 44.0825-35.2656 44.1449-35.1328C44.2151-35 44.2151-34.8438 44.1449-34.7344L28.0953-7.66406L28.0797-7.67188ZM48.5923-2.67969C48.5767-2.3125 48.249-2.03125 47.8199-2.03125C45.0344-1.94531 40.7041-2.11719 36.717-3.04688C36.4439-3.10938 36.4907-3.50781 36.7716-3.52344C48.998-4.22656 45.4401-29.6719 48.0227-44.0312C50.5352-58.0859 48.8108-8.82812 48.5845-2.67969L48.5923-2.67969ZM58.7355-53.7422C59.8434-53.9688 60.9748-54.0938 62.1061-54.1562C63.7759-54.25 63.8695-54.2969 63.5652-54C63.3389-53.7734 62.8474-53.6641 62.5587-53.5469C62.114-53.375 61.6537-53.2109 61.2011-53.0547C59.1724-52.3516 57.1204-51.7188 55.0605-51.1016C53.5469-50.6484 52.041-50.1797 50.5117-49.8125C50.2854-49.7578 50.0514-49.7109 49.8173-49.6797C48.7094-49.5312 47.617-49.6875 46.5325-49.8984C45.0033-50.1953 43.4895-50.5234 41.9758-50.8906C37.8015-51.9062 33.6506-53.0156 29.5075-54.1641C25.3098-55.3672 24.6076-56.0859 29.8274-55.3359C30.0147-55.3125 30.1708-55.2969 30.3424-55.2812C33.1513-54.8516 35.9836-54.4766 38.7768-54.0391C42.9355-53.3828 47.2035-52.4844 51.4246-52.7109C53.8824-52.8438 56.3245-53.2578 58.7355-53.7422L58.7355-53.7422Z"/>
  </g>
  <g id="Regular-S" transform="matrix(1 0 0 1 1403.58 696)">
   <path d="M77.3891-63.7734C77.3266-64.2969 77.0769-64.75 76.6634-65.1172C76.2811-65.4609 75.7895-65.6797 75.3994-65.8594L75.056-66.0234C74.2524-66.4062 73.4487-66.7812 72.6217-67.1562L72.1457-67.3672C71.2563-67.7578 70.359-68.1484 69.4617-68.5312C69.4617-68.5312 66.45-69.8203 65.818-70.0938C64.9363-70.4766 64.0468-70.8359 63.1573-71.1875L61.7529-71.7578C60.2626-72.3672 58.7255-73 57.0948-73C56.0103-73 55.0506-72.7188 54.1533-72.1484C53.1156-71.5 52.4602-70.5234 52.2105-69.25C51.8828-67.6875 51.0401-64.2812 50.2755-61.2344C50.1038-60.5625 49.4406-60.1406 48.7618-60.2656C47.4198-60.5156 46.07-60.75 44.7202-60.9766C42.871-61.2812 41.0374-61.7891 39.1492-61.9297C37.2688-62.0547 35.4274-61.5312 33.6095-61.0859C29.638-60.1328 25.7446-58.7891 22.0463-57.0234C21.0788-56.5469 20.8447-56.0703 20.8291-55.0391C20.751-51.25 20.1659-47.3984 19.9396-43.6094C19.6899-39.4844 19.5417-35.3594 19.4636-31.2109C19.3232-22.8047 19.4636-14.2891 20.7589-5.95312C20.8057-5.67188 20.9149-5.35156 20.8993-5.0625C20.8993-4.84375 20.9461-4.61719 21.0709-4.41406C21.2738-4.04688 21.8746-2.9375 32.9385-0.414062C36.1843 0.328125 44.0882 2 49.1675 2C49.3704 2 49.5811 2 49.7839 1.98438C61.6983 1.63281 65.7477-3.21875 65.9194-3.42188C66.2315-3.82031 66.4265-4.05469 66.7386-12.2109C66.926-16.8125 67.0898-23.0078 67.199-29.2266C67.3238-35.7891 67.3862-41.8203 67.355-46.2422C67.3394-48.0938 67.3394-49.9219 67.2614-51.7578C67.2302-52.5547 67.1834-53.3594 67.0741-54.1484C66.9025-55.3672 65.857-55.7812 64.8426-56.2109C64.4291-56.3828 63.9766-56.5469 63.5474-56.7031C62.5488-57.0703 61.5189-57.3828 60.4811-57.6719C60.2783-57.7344 58.1716-58.3203 58.0935-58.3203L57.524-58.4453C57.0324-58.5547 56.2756-59.1719 56.4862-60.2344L57.8829-66.1953C58.0701-66.3125 58.3432-66.5 58.5773-66.7344L60.364-65.9609C60.723-65.8125 72.5984-60.7188 72.7309-60.6641C72.9416-60.5781 73.1444-60.4922 73.3629-60.3828L73.519-60.3125C73.6204-60.2656 73.7218-60.2188 73.8545-60.1797C74.0495-60.1094 74.3148-60.0078 74.6347-59.9844C74.861-59.9844 75.0482-60.0312 75.2277-60.0781C75.5944-60.1953 75.9377-60.4141 76.2654-60.7422C76.5775-61.0547 76.8272-61.4062 77.0223-61.8203C77.3578-62.5234 77.4748-63.1875 77.3968-63.7891L77.3891-63.7734ZM28.0697-7.67188C27.9761-7.5 27.7498-7.42969 27.5704-7.51562C27.3909-7.60156 27.3051-7.82031 27.3675-8.01562L34.0308-28.6406L23.3337-29.6719C23.1854-29.6875 23.0606-29.7891 23.006-29.9297C22.9669-30.0703 22.9904-30.2344 23.0918-30.3438L36.2155-45.5C36.3403-45.6406 36.5588-45.6719 36.7148-45.5547C36.8787-45.4531 36.9333-45.2422 36.8709-45.0547L32.8682-35.6484C32.8058-35.5 32.9151-35.3359 33.0711-35.3359L43.8073-35.3359C43.9477-35.3359 44.0725-35.2656 44.135-35.1328C44.2052-35 44.2052-34.8438 44.135-34.7344L28.0853-7.66406L28.0697-7.67188ZM48.5824-2.67969C48.5668-2.3125 48.2391-2.03125 47.8099-2.03125C45.0244-1.94531 40.6941-2.11719 36.707-3.04688C36.434-3.10938 36.4808-3.50781 36.7617-3.52344C48.9881-4.22656 45.4302-29.6719 48.0128-44.0312C50.5252-58.0859 48.8008-8.82812 48.5746-2.67969L48.5824-2.67969ZM58.7255-53.7422C59.8335-53.9688 60.9648-54.0938 62.0962-54.1562C63.7659-54.25 63.8595-54.2969 63.5552-54C63.329-53.7734 62.8374-53.6641 62.5487-53.5469C62.104-53.375 61.6437-53.2109 61.1911-53.0547C59.1625-52.3516 57.1104-51.7188 55.0506-51.1016C53.5369-50.6484 52.031-50.1797 50.5018-49.8125C50.2755-49.7578 50.0414-49.7109 49.8073-49.6797C48.6995-49.5312 47.6071-49.6875 46.5225-49.8984C44.9933-50.1953 43.4796-50.5234 41.9659-50.8906C37.7916-51.9062 33.6407-53.0156 29.4976-54.1641C25.2999-55.3672 24.5977-56.0859 29.8175-55.3359C30.0047-55.3125 30.1608-55.2969 30.3324-55.2812C33.1413-54.8516 35.9736-54.4766 38.7669-54.0391C42.9256-53.3828 47.1935-52.4844 51.4146-52.7109C53.8724-52.8438 56.3146-53.2578 58.7255-53.7422L58.7255-53.7422Z"/>
  </g>
  <g id="Ultralight-S" transform="matrix(1 0 0 1 515.649 696)">
   <path d="M77.3201-62.7734C77.2576-63.2969 77.0079-63.75 76.5944-64.1172C76.2121-64.4609 75.7205-64.6797 75.3304-64.8594L74.987-65.0234C74.1834-65.4062 73.3797-65.7812 72.5527-66.1562L72.0767-66.3672C71.1873-66.7578 70.29-67.1484 69.3927-67.5312C69.3927-67.5312 66.381-68.8203 65.7489-69.0938C64.8673-69.4766 63.9778-69.8359 63.0883-70.1875L61.6839-70.7578C60.1936-71.3672 58.6565-72 57.0258-72C55.9413-72 54.9816-71.7188 54.0843-71.1484C53.0466-70.5 52.3912-69.5234 52.1415-68.25C51.8138-66.6875 50.9711-63.2812 50.2065-60.2344C50.0348-59.5625 49.3716-59.1406 48.6928-59.2656C47.3508-59.5156 46.001-59.75 44.6511-59.9766C42.802-60.2812 40.9684-60.7891 39.0802-60.9297C37.1998-61.0547 35.3584-60.5312 33.5405-60.0859C29.569-59.1328 25.6756-57.7891 21.9772-56.0234C21.0097-55.5469 20.7756-55.0703 20.76-54.0391C20.682-50.25 20.0969-46.3984 19.8706-42.6094C19.6209-38.4844 19.4727-34.3594 19.3946-30.2109C19.2542-21.8047 19.3946-13.2891 20.6898-4.95312C20.7366-4.67188 20.8459-4.35156 20.8303-4.0625C20.8303-3.84375 20.8771-3.61719 21.0019-3.41406C21.2048-3.04688 21.8056-1.9375 32.8694 0.585938C36.1153 1.32812 44.0191 3 49.0985 3C49.3014 3 49.5121 3 49.7149 2.98438C61.6293 2.63281 65.6787-2.21875 65.8504-2.42188C66.1625-2.82031 66.3575-3.05469 66.6696-11.2109C66.857-15.8125 67.0207-22.0078 67.13-28.2266C67.2548-34.7891 67.3172-40.8203 67.286-45.2422C67.2704-47.0938 67.2704-48.9219 67.1924-50.7578C67.1612-51.5547 67.1144-52.3594 67.0051-53.1484C66.8335-54.3672 65.788-54.7812 64.7736-55.2109C64.3601-55.3828 63.9076-55.5469 63.4784-55.7031C62.4798-56.0703 61.4499-56.3828 60.4121-56.6719C60.2093-56.7344 58.1025-57.3203 58.0245-57.3203L57.4549-57.4453C56.9634-57.5547 56.2066-58.1719 56.4172-59.2344L57.8139-65.1953C58.0011-65.3125 58.2742-65.5 58.5083-65.7344L60.295-64.9609C60.6539-64.8125 72.5294-59.7188 72.6619-59.6641C72.8726-59.5781 73.0754-59.4922 73.2939-59.3828L73.45-59.3125C73.5514-59.2656 73.6528-59.2188 73.7855-59.1797C73.9805-59.1094 74.2458-59.0078 74.5657-58.9844C74.792-58.9844 74.9792-59.0312 75.1587-59.0781C75.5254-59.1953 75.8687-59.4141 76.1964-59.7422C76.5085-60.0547 76.7582-60.4062 76.9533-60.8203C77.2888-61.5234 77.4058-62.1875 77.3278-62.7891L77.3201-62.7734ZM28.0007-6.67188C27.9071-6.5 27.6808-6.42969 27.5014-6.51562C27.3219-6.60156 27.2361-6.82031 27.2985-7.01562L33.9618-27.6406L23.2646-28.6719C23.1164-28.6875 22.9915-28.7891 22.9369-28.9297C22.8979-29.0703 22.9213-29.2344 23.0228-29.3438L36.1465-44.5C36.2713-44.6406 36.4898-44.6719 36.6458-44.5547C36.8097-44.4531 36.8643-44.2422 36.8019-44.0547L32.7992-34.6484C32.7368-34.5 32.846-34.3359 33.0021-34.3359L43.7382-34.3359C43.8787-34.3359 44.0035-34.2656 44.0659-34.1328C44.1362-34 44.1362-33.8438 44.0659-33.7344L28.0163-6.66406L28.0007-6.67188ZM48.5133-1.67969C48.4977-1.3125 48.17-1.03125 47.7409-1.03125C44.9554-0.945312 40.6251-1.11719 36.638-2.04688C36.3649-2.10938 36.4118-2.50781 36.6926-2.52344C48.9191-3.22656 45.3612-28.6719 47.9438-43.0312C50.4562-57.0859 48.7318-7.82812 48.5055-1.67969L48.5133-1.67969ZM58.6565-52.7422C59.7645-52.9688 60.8958-53.0938 62.0272-53.1562C63.6969-53.25 63.7905-53.2969 63.4862-53C63.26-52.7734 62.7684-52.6641 62.4797-52.5469C62.035-52.375 61.5747-52.2109 61.1221-52.0547C59.0935-51.3516 57.0414-50.7188 54.9816-50.1016C53.4679-49.6484 51.962-49.1797 50.4327-48.8125C50.2065-48.7578 49.9724-48.7109 49.7383-48.6797C48.6305-48.5312 47.538-48.6875 46.4535-48.8984C44.9243-49.1953 43.4105-49.5234 41.8969-49.8906C37.7226-50.9062 33.5717-52.0156 29.4286-53.1641C25.2308-54.3672 24.5286-55.0859 29.7485-54.3359C29.9357-54.3125 30.0918-54.2969 30.2634-54.2812C33.0723-53.8516 35.9046-53.4766 38.6979-53.0391C42.8566-52.3828 47.1245-51.4844 51.3456-51.7109C53.8034-51.8438 56.2456-52.2578 58.6565-52.7422L58.6565-52.7422Z"/>
  </g>
 </g>
</svg>
