<?xml version="1.0" encoding="UTF-8"?>
<!--Generator: Apple Native CoreSVG 175.5-->
<!DOCTYPE svg
PUBLIC "-//W3C//DTD SVG 1.1//EN"
       "http://www.w3.org/Graphics/SVG/1.1/DTD/svg11.dtd">
<svg version="1.1" xmlns="http://www.w3.org/2000/svg" xmlns:xlink="http://www.w3.org/1999/xlink" width="3300" height="2200">
 <!--glyph: "", point size: 100.0, font version: "18.0d12e2", template writer version: "101"-->
 <g id="Notes">
  <rect height="2200" id="artboard" style="fill:white;opacity:1" width="3300" x="0" y="0"/>
  <line style="fill:none;stroke:black;opacity:1;stroke-width:0.5;" x1="263" x2="3036" y1="292" y2="292"/>
  <text style="stroke:none;fill:black;font-family:sans-serif;font-size:13;font-weight:bold;" transform="matrix(1 0 0 1 263 322)">Weight/Scale Variations</text>
  <text style="stroke:none;fill:black;font-family:sans-serif;font-size:13;text-anchor:middle;" transform="matrix(1 0 0 1 559.711 322)">Ultralight</text>
  <text style="stroke:none;fill:black;font-family:sans-serif;font-size:13;text-anchor:middle;" transform="matrix(1 0 0 1 856.422 322)">Thin</text>
  <text style="stroke:none;fill:black;font-family:sans-serif;font-size:13;text-anchor:middle;" transform="matrix(1 0 0 1 1153.13 322)">Light</text>
  <text style="stroke:none;fill:black;font-family:sans-serif;font-size:13;text-anchor:middle;" transform="matrix(1 0 0 1 1449.84 322)">Regular</text>
  <text style="stroke:none;fill:black;font-family:sans-serif;font-size:13;text-anchor:middle;" transform="matrix(1 0 0 1 1746.56 322)">Medium</text>
  <text style="stroke:none;fill:black;font-family:sans-serif;font-size:13;text-anchor:middle;" transform="matrix(1 0 0 1 2043.27 322)">Semibold</text>
  <text style="stroke:none;fill:black;font-family:sans-serif;font-size:13;text-anchor:middle;" transform="matrix(1 0 0 1 2339.98 322)">Bold</text>
  <text style="stroke:none;fill:black;font-family:sans-serif;font-size:13;text-anchor:middle;" transform="matrix(1 0 0 1 2636.69 322)">Heavy</text>
  <text style="stroke:none;fill:black;font-family:sans-serif;font-size:13;text-anchor:middle;" transform="matrix(1 0 0 1 2933.4 322)">Black</text>
  <line style="fill:none;stroke:black;opacity:1;stroke-width:0.5;" x1="263" x2="3036" y1="1903" y2="1903"/>
  <g transform="matrix(1 0 0 1 263 1933)">
   <path d="M9.24805 0.830078C13.5547 0.830078 17.1387-2.74414 17.1387-7.05078C17.1387-11.3574 13.5449-14.9316 9.23828-14.9316C4.94141-14.9316 1.36719-11.3574 1.36719-7.05078C1.36719-2.74414 4.95117 0.830078 9.24805 0.830078ZM9.24805-0.654297C5.70312-0.654297 2.87109-3.49609 2.87109-7.05078C2.87109-10.6055 5.69336-13.4473 9.23828-13.4473C12.793-13.4473 15.6445-10.6055 15.6445-7.05078C15.6445-3.49609 12.8027-0.654297 9.24805-0.654297ZM5.6543-7.05078C5.6543-6.62109 5.95703-6.32812 6.40625-6.32812L8.50586-6.32812L8.50586-4.20898C8.50586-3.76953 8.79883-3.4668 9.22852-3.4668C9.67773-3.4668 9.9707-3.76953 9.9707-4.20898L9.9707-6.32812L12.0898-6.32812C12.5293-6.32812 12.832-6.62109 12.832-7.05078C12.832-7.49023 12.5293-7.79297 12.0898-7.79297L9.9707-7.79297L9.9707-9.90234C9.9707-10.3516 9.67773-10.6543 9.22852-10.6543C8.79883-10.6543 8.50586-10.3516 8.50586-9.90234L8.50586-7.79297L6.40625-7.79297C5.95703-7.79297 5.6543-7.49023 5.6543-7.05078Z"/>
  </g>
  <g transform="matrix(1 0 0 1 281.867 1933)">
   <path d="M11.709 2.91016C17.1582 2.91016 21.6699-1.61133 21.6699-7.05078C21.6699-12.5 17.1484-17.0117 11.6992-17.0117C6.25977-17.0117 1.74805-12.5 1.74805-7.05078C1.74805-1.61133 6.26953 2.91016 11.709 2.91016ZM11.709 1.25C7.09961 1.25 3.41797-2.44141 3.41797-7.05078C3.41797-11.6602 7.08984-15.3516 11.6992-15.3516C16.3086-15.3516 20.0098-11.6602 20.0098-7.05078C20.0098-2.44141 16.3184 1.25 11.709 1.25ZM7.17773-7.05078C7.17773-6.57227 7.50977-6.25 8.00781-6.25L10.8789-6.25L10.8789-3.36914C10.8789-2.88086 11.2109-2.53906 11.6895-2.53906C12.1777-2.53906 12.5195-2.87109 12.5195-3.36914L12.5195-6.25L15.4004-6.25C15.8887-6.25 16.2305-6.57227 16.2305-7.05078C16.2305-7.53906 15.8887-7.88086 15.4004-7.88086L12.5195-7.88086L12.5195-10.752C12.5195-11.25 12.1777-11.5918 11.6895-11.5918C11.2109-11.5918 10.8789-11.25 10.8789-10.752L10.8789-7.88086L8.00781-7.88086C7.50977-7.88086 7.17773-7.53906 7.17773-7.05078Z"/>
  </g>
  <g transform="matrix(1 0 0 1 305.646 1933)">
   <path d="M14.9707 5.66406C21.9336 5.66406 27.6953-0.0976562 27.6953-7.05078C27.6953-14.0137 21.9238-19.7754 14.9609-19.7754C8.00781-19.7754 2.25586-14.0137 2.25586-7.05078C2.25586-0.0976562 8.01758 5.66406 14.9707 5.66406ZM14.9707 3.84766C8.93555 3.84766 4.08203-1.01562 4.08203-7.05078C4.08203-13.0957 8.92578-17.9492 14.9609-17.9492C21.0059-17.9492 25.8691-13.0957 25.8691-7.05078C25.8691-1.01562 21.0156 3.84766 14.9707 3.84766ZM9.19922-7.05078C9.19922-6.5332 9.57031-6.17188 10.1172-6.17188L14.0625-6.17188L14.0625-2.2168C14.0625-1.67969 14.4336-1.29883 14.9512-1.29883C15.4883-1.29883 15.8594-1.66992 15.8594-2.2168L15.8594-6.17188L19.8145-6.17188C20.3516-6.17188 20.7324-6.5332 20.7324-7.05078C20.7324-7.59766 20.3613-7.96875 19.8145-7.96875L15.8594-7.96875L15.8594-11.9141C15.8594-12.4609 15.4883-12.8418 14.9512-12.8418C14.4336-12.8418 14.0625-12.4609 14.0625-11.9141L14.0625-7.96875L10.1172-7.96875C9.57031-7.96875 9.19922-7.59766 9.19922-7.05078Z"/>
  </g>
  <text style="stroke:none;fill:black;font-family:sans-serif;font-size:13;font-weight:bold;" transform="matrix(1 0 0 1 263 1953)">Design Variations</text>
  <text style="stroke:none;fill:black;font-family:sans-serif;font-size:13;" transform="matrix(1 0 0 1 263 1971)">Symbols are supported in up to nine weights and three scales.</text>
  <text style="stroke:none;fill:black;font-family:sans-serif;font-size:13;" transform="matrix(1 0 0 1 263 1989)">For optimal layout with text and other symbols, vertically align</text>
  <text style="stroke:none;fill:black;font-family:sans-serif;font-size:13;" transform="matrix(1 0 0 1 263 2007)">symbols with the adjacent text.</text>
  <line style="fill:none;stroke:#00AEEF;stroke-width:0.5;opacity:1.0;" x1="776" x2="776" y1="1919" y2="1933"/>
  <g transform="matrix(1 0 0 1 776 1933)">
   <path d="M3.31055 0.15625C3.82812 0.15625 4.08203-0.0390625 4.26758-0.585938L5.52734-4.0332L11.2891-4.0332L12.5488-0.585938C12.7344-0.0390625 12.9883 0.15625 13.4961 0.15625C14.0137 0.15625 14.3457-0.15625 14.3457-0.644531C14.3457-0.810547 14.3164-0.966797 14.2383-1.17188L9.6582-13.3691C9.43359-13.9648 9.0332-14.2676 8.4082-14.2676C7.80273-14.2676 7.39258-13.9746 7.17773-13.3789L2.59766-1.16211C2.51953-0.957031 2.49023-0.800781 2.49023-0.634766C2.49023-0.146484 2.80273 0.15625 3.31055 0.15625ZM6.00586-5.51758L8.37891-12.0898L8.42773-12.0898L10.8008-5.51758Z"/>
  </g>
  <line style="fill:none;stroke:#00AEEF;stroke-width:0.5;opacity:1.0;" x1="793.197" x2="793.197" y1="1919" y2="1933"/>
  <text style="stroke:none;fill:black;font-family:sans-serif;font-size:13;font-weight:bold;" transform="matrix(1 0 0 1 776 1953)">Margins</text>
  <text style="stroke:none;fill:black;font-family:sans-serif;font-size:13;" transform="matrix(1 0 0 1 776 1971)">Leading and trailing margins on the left and right side of each symbol</text>
  <text style="stroke:none;fill:black;font-family:sans-serif;font-size:13;" transform="matrix(1 0 0 1 776 1989)">can be adjusted by modifying the x-location of the margin guidelines.</text>
  <text style="stroke:none;fill:black;font-family:sans-serif;font-size:13;" transform="matrix(1 0 0 1 776 2007)">Modifications are automatically applied proportionally to all</text>
  <text style="stroke:none;fill:black;font-family:sans-serif;font-size:13;" transform="matrix(1 0 0 1 776 2025)">scales and weights.</text>
  <g transform="matrix(1 0 0 1 1289 1933)">
   <path d="M2.8418 1.86523L4.54102 3.57422C5.40039 4.44336 6.38672 4.38477 7.31445 3.35938L18.0078-8.42773L17.041-9.4043L6.42578 2.27539C6.07422 2.67578 5.74219 2.77344 5.27344 2.30469L4.10156 1.14258C3.63281 0.683594 3.74023 0.341797 4.14062-0.0195312L15.6152-10.8203L14.6387-11.7871L3.04688-0.898438C2.06055 0.0195312 1.98242 0.996094 2.8418 1.86523ZM9.25781-16.3281C8.83789-15.918 8.80859-15.3418 9.04297-14.9512C9.27734-14.5898 9.73633-14.3555 10.3809-14.5215C11.8457-14.8633 13.3691-14.9219 14.7949-13.9844L14.209-12.5293C13.8672-11.6992 14.043-11.1133 14.5801-10.5664L16.875-8.25195C17.3633-7.76367 17.7734-7.74414 18.3398-7.8418L19.4043-8.03711L20.0684-7.36328L20.0293-6.80664C19.9902-6.30859 20.1172-5.92773 20.6055-5.44922L21.3672-4.70703C21.8457-4.22852 22.4609-4.19922 22.9297-4.66797L25.8398-7.58789C26.3086-8.05664 26.2891-8.65234 25.8105-9.13086L25.0391-9.89258C24.5605-10.3711 24.1895-10.5273 23.7109-10.4883L23.1348-10.4395L22.4902-11.0742L22.7344-12.1973C22.8613-12.7637 22.7051-13.2031 22.1191-13.7891L19.9219-15.9766C16.582-19.2969 12.1484-19.2188 9.25781-16.3281ZM10.752-15.957C13.1836-17.7344 16.4746-17.4316 18.7012-15.2051L21.1328-12.793C21.3672-12.5586 21.4062-12.373 21.3379-12.0312L21.0156-10.5469L22.5195-9.0625L23.5059-9.12109C23.7598-9.13086 23.8379-9.11133 24.0332-8.91602L24.6094-8.33984L22.168-5.89844L21.5918-6.47461C21.3965-6.66992 21.3672-6.74805 21.377-7.01172L21.4453-7.98828L19.9512-9.47266L18.4277-9.21875C18.1055-9.15039 17.959-9.17969 17.7148-9.41406L15.7129-11.416C15.459-11.6504 15.4297-11.8164 15.5859-12.1875L16.4648-14.2773C14.9023-15.7324 12.8711-16.3574 10.8398-15.7617C10.6836-15.7227 10.625-15.8496 10.752-15.957Z"/>
  </g>
  <text style="stroke:none;fill:black;font-family:sans-serif;font-size:13;font-weight:bold;" transform="matrix(1 0 0 1 1289 1953)">Exporting</text>
  <text style="stroke:none;fill:black;font-family:sans-serif;font-size:13;" transform="matrix(1 0 0 1 1289 1971)">Symbols should be outlined when exporting to ensure the</text>
  <text style="stroke:none;fill:black;font-family:sans-serif;font-size:13;" transform="matrix(1 0 0 1 1289 1989)">design is preserved when submitting to Xcode.</text>
  <text id="template-version" style="stroke:none;fill:black;font-family:sans-serif;font-size:13;text-anchor:end;" transform="matrix(1 0 0 1 3036 1933)">Template v.3.0</text>
  <text style="stroke:none;fill:black;font-family:sans-serif;font-size:13;text-anchor:end;" transform="matrix(1 0 0 1 3036 1951)">Requires Xcode 13 or greater</text>
  <text id="descriptive-name" style="stroke:none;fill:black;font-family:sans-serif;font-size:13;text-anchor:end;" transform="matrix(1 0 0 1 3036 1969)">Generated from custom.juicebox</text>
  <text style="stroke:none;fill:black;font-family:sans-serif;font-size:13;text-anchor:end;" transform="matrix(1 0 0 1 3036 1987)">Typeset at 100 points</text>
  <text style="stroke:none;fill:black;font-family:sans-serif;font-size:13;" transform="matrix(1 0 0 1 263 726)">Small</text>
  <text style="stroke:none;fill:black;font-family:sans-serif;font-size:13;" transform="matrix(1 0 0 1 263 1156)">Medium</text>
  <text style="stroke:none;fill:black;font-family:sans-serif;font-size:13;" transform="matrix(1 0 0 1 263 1586)">Large</text>
 </g>
 <g id="Guides">
  <g id="H-reference" style="fill:#27AAE1;stroke:none;" transform="matrix(1 0 0 1 339 696)">
   <path d="M0.993654 0L3.63775 0L29.3281-67.1323L30.0303-67.1323L30.0303-70.459L28.1226-70.459ZM11.6885-24.4799L46.9815-24.4799L46.2315-26.7285L12.4385-26.7285ZM55.1196 0L57.7637 0L30.6382-70.459L29.4326-70.459L29.4326-67.1323Z"/>
  </g>
  <line id="Baseline-S" style="fill:none;stroke:#27AAE1;opacity:1;stroke-width:0.5;" x1="263" x2="3036" y1="696" y2="696"/>
  <line id="Capline-S" style="fill:none;stroke:#27AAE1;opacity:1;stroke-width:0.5;" x1="263" x2="3036" y1="625.541" y2="625.541"/>
  <g id="H-reference" style="fill:#27AAE1;stroke:none;" transform="matrix(1 0 0 1 339 1126)">
   <path d="M0.993654 0L3.63775 0L29.3281-67.1323L30.0303-67.1323L30.0303-70.459L28.1226-70.459ZM11.6885-24.4799L46.9815-24.4799L46.2315-26.7285L12.4385-26.7285ZM55.1196 0L57.7637 0L30.6382-70.459L29.4326-70.459L29.4326-67.1323Z"/>
  </g>
  <line id="Baseline-M" style="fill:none;stroke:#27AAE1;opacity:1;stroke-width:0.5;" x1="263" x2="3036" y1="1126" y2="1126"/>
  <line id="Capline-M" style="fill:none;stroke:#27AAE1;opacity:1;stroke-width:0.5;" x1="263" x2="3036" y1="1055.54" y2="1055.54"/>
  <g id="H-reference" style="fill:#27AAE1;stroke:none;" transform="matrix(1 0 0 1 339 1556)">
   <path d="M0.993654 0L3.63775 0L29.3281-67.1323L30.0303-67.1323L30.0303-70.459L28.1226-70.459ZM11.6885-24.4799L46.9815-24.4799L46.2315-26.7285L12.4385-26.7285ZM55.1196 0L57.7637 0L30.6382-70.459L29.4326-70.459L29.4326-67.1323Z"/>
  </g>
  <line id="Baseline-L" style="fill:none;stroke:#27AAE1;opacity:1;stroke-width:0.5;" x1="263" x2="3036" y1="1556" y2="1556"/>
  <line id="Capline-L" style="fill:none;stroke:#27AAE1;opacity:1;stroke-width:0.5;" x1="263" x2="3036" y1="1485.54" y2="1485.54"/>
  <line id="left-margin-Ultralight-S" style="fill:none;stroke:#00AEEF;stroke-width:0.5;opacity:1.0;" x1="515.649" x2="515.649" y1="600.785" y2="720.121"/>
  <line id="right-margin-Ultralight-S" style="fill:none;stroke:#00AEEF;stroke-width:0.5;opacity:1.0;" x1="603.773" x2="603.773" y1="600.785" y2="720.121"/>
  <line id="left-margin-Regular-S" style="fill:none;stroke:#00AEEF;stroke-width:0.5;opacity:1.0;" x1="1403.58" x2="1403.58" y1="600.785" y2="720.121"/>
  <line id="right-margin-Regular-S" style="fill:none;stroke:#00AEEF;stroke-width:0.5;opacity:1.0;" x1="1496.11" x2="1496.11" y1="600.785" y2="720.121"/>
  <line id="left-margin-Black-S" style="fill:none;stroke:#00AEEF;stroke-width:0.5;opacity:1.0;" x1="2884.57" x2="2884.57" y1="600.785" y2="720.121"/>
  <line id="right-margin-Black-S" style="fill:none;stroke:#00AEEF;stroke-width:0.5;opacity:1.0;" x1="2982.23" x2="2982.23" y1="600.785" y2="720.121"/>
 </g>
 <g id="Symbols">
  <g id="Black-S" transform="matrix(1 0 0 1 2884.57 696)">
   <path d="M90.726-71.19C90.6459-71.86 90.3259-72.44 89.796-72.91C89.306-73.35 88.6759-73.63 88.1759-73.86L87.7359-74.07C86.7059-74.56 85.6759-75.04 84.6159-75.52L84.0059-75.79C82.8659-76.29 81.7159-76.79 80.5659-77.28C80.5659-77.28 76.706-78.93 75.8959-79.28C74.7659-79.77 73.6259-80.23 72.4859-80.68L70.6859-81.41C68.7759-82.19 66.8059-83 64.7159-83C63.3259-83 62.0959-82.64 60.9459-81.91C59.6159-81.08 58.7759-79.83 58.4559-78.2C58.0359-76.2 56.9559-71.84 55.9759-67.94C55.7559-67.08 54.9059-66.54 54.0359-66.7C52.3159-67.02 50.5859-67.32 48.8559-67.61C46.4859-68 44.1359-68.65 41.7159-68.83C39.3059-68.99 36.9459-68.32 34.6159-67.75C29.5259-66.53 24.5359-64.81 19.7959-62.55C18.5559-61.94 18.2559-61.33 18.2359-60.01C18.1359-55.16 17.3859-50.23 17.0959-45.38C16.7759-40.1 16.5859-34.82 16.4859-29.51C16.3059-18.75 16.4859-7.85 18.1459 2.82C18.2059 3.18 18.3459 3.59 18.3259 3.96C18.3259 4.24 18.3859 4.53 18.5459 4.79C18.8059 5.26 19.5759 6.68 33.7559 9.91C37.9159 10.86 48.0459 13 54.5559 13C54.8159 13 55.0859 13 55.3459 12.98C70.6159 12.53 75.8059 6.32 76.0259 6.06C76.4259 5.55 76.6759 5.25 77.0759-5.19C77.316-11.08 77.5259-19.01 77.6659-26.97C77.8259-35.37 77.9059-43.09 77.8659-48.75C77.8459-51.12 77.8459-53.46 77.7459-55.81C77.7059-56.83 77.6459-57.86 77.5059-58.87C77.2859-60.43 75.9459-60.96 74.6459-61.51C74.1159-61.73 73.5359-61.94 72.9859-62.14C71.706-62.61 70.386-63.01 69.0559-63.38C68.796-63.46 66.0959-64.21 65.9959-64.21L65.2659-64.37C64.6359-64.51 63.6659-65.3 63.9359-66.66L65.7259-74.29C65.9659-74.44 66.3159-74.68 66.6159-74.98L68.9059-73.99C69.3659-73.8 84.586-67.28 84.7559-67.21C85.0259-67.1 85.2859-66.99 85.5659-66.85L85.7659-66.76C85.8959-66.7 86.0259-66.64 86.1959-66.59C86.4459-66.5 86.7859-66.37 87.1959-66.34C87.4859-66.34 87.7259-66.4 87.9559-66.46C88.4259-66.61 88.8659-66.89 89.2859-67.31C89.6859-67.71 90.0059-68.16 90.2559-68.69C90.6859-69.59 90.8359-70.44 90.7359-71.21L90.726-71.19ZM27.5159 0.62C27.3959 0.84 27.1059 0.93 26.8759 0.82C26.6459 0.71 26.5359 0.43 26.6159 0.18L35.1559-26.22L21.4459-27.54C21.2559-27.56 21.0959-27.69 21.0259-27.87C20.9759-28.05 21.0059-28.26 21.1359-28.4L37.9559-47.8C38.1159-47.98 38.3959-48.02 38.5959-47.87C38.8059-47.74 38.8759-47.47 38.7959-47.23L33.6659-35.19C33.5859-35 33.7259-34.79 33.9259-34.79L47.6859-34.79C47.8659-34.79 48.0259-34.7 48.1059-34.53C48.1959-34.36 48.1959-34.16 48.1059-34.02L27.5359 0.63L27.5159 0.62ZM53.8059 7.01C53.7859 7.48 53.3659 7.84 52.8159 7.84C49.2459 7.95 43.6959 7.73 38.5859 6.54C38.2359 6.46 38.2959 5.95 38.6559 5.93C54.3259 5.03 49.7659-27.54 53.0759-45.92C56.296-63.91 54.0859-0.86 53.7959 7.01L53.8059 7.01ZM66.8059-58.35C68.2259-58.64 69.6759-58.8 71.1259-58.88C73.2659-59 73.3859-59.06 72.9959-58.68C72.7059-58.39 72.0759-58.25 71.7059-58.1C71.1359-57.88 70.546-57.67 69.9659-57.47C67.3659-56.57 64.7359-55.76 62.0959-54.97C60.1559-54.39 58.2259-53.79 56.2659-53.32C55.9759-53.25 55.6759-53.19 55.3759-53.15C53.956-52.96 52.5559-53.16 51.1659-53.43C49.206-53.81 47.2659-54.23 45.3259-54.7C39.9759-56 34.6559-57.42 29.3459-58.89C23.9659-60.43 23.0659-61.35 29.7559-60.39C29.9959-60.36 30.1959-60.34 30.4159-60.32C34.0159-59.77 37.6459-59.29 41.2259-58.73C46.5559-57.89 52.0259-56.74 57.4359-57.03C60.5859-57.2 63.7159-57.73 66.8059-58.35L66.8059-58.35Z"/>
  </g>
  <g id="Regular-S" transform="matrix(1 0 0 1 1403.58 696)">
   <path d="M84.716-73.19C84.6359-73.86 84.3159-74.44 83.786-74.91C83.296-75.35 82.6659-75.63 82.1659-75.86L81.7259-76.07C80.6959-76.56 79.6659-77.04 78.6059-77.52L77.9959-77.79C76.8559-78.29 75.7059-78.79 74.5559-79.28C74.5559-79.28 70.696-80.93 69.8859-81.28C68.7559-81.77 67.6159-82.23 66.4759-82.68L64.6759-83.41C62.7659-84.19 60.7959-85 58.7059-85C57.3159-85 56.0859-84.64 54.9359-83.91C53.6059-83.08 52.7659-81.83 52.4459-80.2C52.0259-78.2 50.9459-73.84 49.9659-69.94C49.7459-69.08 48.8959-68.54 48.0259-68.7C46.3059-69.02 44.5759-69.32 42.8459-69.61C40.4759-70 38.1259-70.65 35.7059-70.83C33.2959-70.99 30.9359-70.32 28.6059-69.75C23.5159-68.53 18.5259-66.81 13.7859-64.55C12.5459-63.94 12.2459-63.33 12.2259-62.01C12.1259-57.16 11.3759-52.23 11.0859-47.38C10.7659-42.1 10.5759-36.82 10.4759-31.51C10.2959-20.75 10.4759-9.85 12.1359 0.82C12.1959 1.18 12.3359 1.59 12.3159 1.96C12.3159 2.24 12.3759 2.53 12.5359 2.79C12.7959 3.26 13.5659 4.68 27.7459 7.91C31.9059 8.86 42.0359 11 48.5459 11C48.8059 11 49.0759 11 49.3359 10.98C64.6059 10.53 69.7959 4.32 70.0159 4.06C70.4159 3.55 70.6659 3.25 71.0659-7.19C71.306-13.08 71.5159-21.01 71.6559-28.97C71.8159-37.37 71.8959-45.09 71.8559-50.75C71.8359-53.12 71.8359-55.46 71.7359-57.81C71.6959-58.83 71.6359-59.86 71.4959-60.87C71.2759-62.43 69.9359-62.96 68.6359-63.51C68.1059-63.73 67.5259-63.94 66.9759-64.14C65.696-64.61 64.376-65.01 63.0459-65.38C62.786-65.46 60.0859-66.21 59.9859-66.21L59.2559-66.37C58.6259-66.51 57.6559-67.3 57.9259-68.66L59.7159-76.29C59.9559-76.44 60.3059-76.68 60.6059-76.98L62.8959-75.99C63.3559-75.8 78.576-69.28 78.7459-69.21C79.0159-69.1 79.2759-68.99 79.5559-68.85L79.7559-68.76C79.8859-68.7 80.0159-68.64 80.1859-68.59C80.4359-68.5 80.7759-68.37 81.1859-68.34C81.4759-68.34 81.7159-68.4 81.9459-68.46C82.4159-68.61 82.8559-68.89 83.2759-69.31C83.6759-69.71 83.9959-70.16 84.2459-70.69C84.6759-71.59 84.8259-72.44 84.7259-73.21L84.716-73.19ZM21.5059-1.38C21.3859-1.16 21.0959-1.07 20.8659-1.18C20.6359-1.29 20.5259-1.57 20.6059-1.82L29.1459-28.22L15.4359-29.54C15.2459-29.56 15.0859-29.69 15.0159-29.87C14.9659-30.05 14.9959-30.26 15.1259-30.4L31.9459-49.8C32.1059-49.98 32.3859-50.02 32.5859-49.87C32.7959-49.74 32.8659-49.47 32.7859-49.23L27.6559-37.19C27.5759-37 27.7159-36.79 27.9159-36.79L41.6759-36.79C41.8559-36.79 42.0159-36.7 42.0959-36.53C42.1859-36.36 42.1859-36.16 42.0959-36.02L21.5259-1.37L21.5059-1.38ZM47.7959 5.01C47.7759 5.48 47.3559 5.84 46.8059 5.84C43.2359 5.95 37.6859 5.73 32.5759 4.54C32.2259 4.46 32.2859 3.95 32.6459 3.93C48.3159 3.03 43.7559-29.54 47.0659-47.92C50.286-65.91 48.0759-2.86 47.7859 5.01L47.7959 5.01ZM60.7959-60.35C62.2159-60.64 63.6659-60.8 65.1159-60.88C67.2559-61 67.3759-61.06 66.9859-60.68C66.6959-60.39 66.0659-60.25 65.6959-60.1C65.1259-59.88 64.536-59.67 63.9559-59.47C61.3559-58.57 58.7259-57.76 56.0859-56.97C54.1459-56.39 52.2159-55.79 50.2559-55.32C49.9659-55.25 49.6659-55.19 49.3659-55.15C47.946-54.96 46.5459-55.16 45.1559-55.43C43.196-55.81 41.2559-56.23 39.3159-56.7C33.9659-58 28.6459-59.42 23.3359-60.89C17.9559-62.43 17.0559-63.35 23.7459-62.39C23.9859-62.36 24.1859-62.34 24.4059-62.32C28.0059-61.77 31.6359-61.29 35.2159-60.73C40.5459-59.89 46.0159-58.74 51.4259-59.03C54.5759-59.2 57.7059-59.73 60.7959-60.35L60.7959-60.35Z"/>
  </g>
  <g id="Ultralight-S" transform="matrix(1 0 0 1 515.649 696)">
   <path d="M82.647-75.19C82.5669-75.86 82.2469-76.44 81.717-76.91C81.227-77.35 80.5969-77.63 80.0969-77.86L79.6569-78.07C78.6269-78.56 77.5969-79.04 76.5369-79.52L75.9269-79.79C74.7869-80.29 73.6369-80.79 72.4869-81.28C72.4869-81.28 68.627-82.93 67.8169-83.28C66.6869-83.77 65.5469-84.23 64.4069-84.68L62.6069-85.41C60.6969-86.19 58.7269-87 56.6369-87C55.2469-87 54.0169-86.64 52.8669-85.91C51.5369-85.08 50.6969-83.83 50.3769-82.2C49.9569-80.2 48.8769-75.84 47.8969-71.94C47.6769-71.08 46.8269-70.54 45.9569-70.7C44.2369-71.02 42.5069-71.32 40.7769-71.61C38.4069-72 36.0569-72.65 33.6369-72.83C31.2269-72.99 28.8669-72.32 26.5369-71.75C21.4469-70.53 16.4569-68.81 11.7169-66.55C10.4769-65.94 10.1769-65.33 10.1569-64.01C10.0569-59.16 9.30694-54.23 9.01694-49.38C8.69694-44.1 8.50694-38.82 8.40694-33.51C8.22694-22.75 8.40694-11.85 10.0669-1.18C10.1269-0.82 10.2669-0.41 10.2469-0.04C10.2469 0.24 10.3069 0.53 10.4669 0.79C10.7269 1.26 11.4969 2.68 25.6769 5.91C29.8369 6.86 39.9669 9 46.4769 9C46.7369 9 47.0069 9 47.2669 8.98C62.5369 8.53 67.7269 2.32 67.9469 2.06C68.3469 1.55 68.5969 1.25 68.9969-9.19C69.237-15.08 69.4469-23.01 69.5869-30.97C69.7469-39.37 69.8269-47.09 69.7869-52.75C69.7669-55.12 69.7669-57.46 69.6669-59.81C69.6269-60.83 69.5669-61.86 69.4269-62.87C69.2069-64.43 67.8669-64.96 66.5669-65.51C66.0369-65.73 65.4569-65.94 64.9069-66.14C63.627-66.61 62.307-67.01 60.9769-67.38C60.717-67.46 58.0169-68.21 57.9169-68.21L57.1869-68.37C56.5569-68.51 55.5869-69.3 55.8569-70.66L57.6469-78.29C57.8869-78.44 58.2369-78.68 58.5369-78.98L60.8269-77.99C61.2869-77.8 76.507-71.28 76.6769-71.21C76.9469-71.1 77.2069-70.99 77.4869-70.85L77.6869-70.76C77.8169-70.7 77.9469-70.64 78.1169-70.59C78.3669-70.5 78.7069-70.37 79.1169-70.34C79.4069-70.34 79.6469-70.4 79.8769-70.46C80.3469-70.61 80.7869-70.89 81.2069-71.31C81.6069-71.71 81.9269-72.16 82.1769-72.69C82.6069-73.59 82.7569-74.44 82.6569-75.21L82.647-75.19ZM19.4369-3.38C19.3169-3.16 19.0269-3.07 18.7969-3.18C18.5669-3.29 18.4569-3.57 18.5369-3.82L27.0769-30.22L13.3669-31.54C13.1769-31.56 13.0169-31.69 12.9469-31.87C12.8969-32.05 12.9269-32.26 13.0569-32.4L29.8769-51.8C30.0369-51.98 30.3169-52.02 30.5169-51.87C30.7269-51.74 30.7969-51.47 30.7169-51.23L25.5869-39.19C25.5069-39 25.6469-38.79 25.8469-38.79L39.6069-38.79C39.7869-38.79 39.9469-38.7 40.0269-38.53C40.1169-38.36 40.1169-38.16 40.0269-38.02L19.4569-3.37L19.4369-3.38ZM45.7269 3.01C45.7069 3.48 45.2869 3.84 44.7369 3.84C41.1669 3.95 35.6169 3.73 30.5069 2.54C30.1569 2.46 30.2169 1.95 30.5769 1.93C46.2469 1.03 41.6869-31.54 44.9969-49.92C48.217-67.91 46.0069-4.86 45.7169 3.01L45.7269 3.01ZM58.7269-62.35C60.1469-62.64 61.5969-62.8 63.0469-62.88C65.1869-63 65.3069-63.06 64.9169-62.68C64.6269-62.39 63.9969-62.25 63.6269-62.1C63.0569-61.88 62.467-61.67 61.8869-61.47C59.2869-60.57 56.6569-59.76 54.0169-58.97C52.0769-58.39 50.1469-57.79 48.1869-57.32C47.8969-57.25 47.5969-57.19 47.2969-57.15C45.877-56.96 44.4769-57.16 43.0869-57.43C41.127-57.81 39.1869-58.23 37.2469-58.7C31.8969-60 26.5769-61.42 21.2669-62.89C15.8869-64.43 14.9869-65.35 21.6769-64.39C21.9169-64.36 22.1169-64.34 22.3369-64.32C25.9369-63.77 29.5669-63.29 33.1469-62.73C38.4769-61.89 43.9469-60.74 49.3569-61.03C52.5069-61.2 55.6369-61.73 58.7269-62.35L58.7269-62.35Z"/>
  </g>
 </g>
</svg>
