<?xml version="1.0" encoding="UTF-8"?>
<!--Generator: Apple Native CoreSVG 175.5-->
<!DOCTYPE svg
PUBLIC "-//W3C//DTD SVG 1.1//EN"
       "http://www.w3.org/Graphics/SVG/1.1/DTD/svg11.dtd">
<svg version="1.1" xmlns="http://www.w3.org/2000/svg" xmlns:xlink="http://www.w3.org/1999/xlink" width="3300" height="2200">
 <!--glyph: "", point size: 100.0, font version: "18.0d12e2", template writer version: "101"-->
 <style>.monochrome-0 {fill:#000000}

.multicolor-0:custom {fill:#1D9BF0}

.SFSymbolsPreview1D9BF0 {fill:#1D9BF0;opacity:1.0}
</style>
 <g id="Notes">
  <rect height="2200" id="artboard" style="fill:white;opacity:1" width="3300" x="0" y="0"/>
  <line style="fill:none;stroke:black;opacity:1;stroke-width:0.5;" x1="263" x2="3036" y1="292" y2="292"/>
  <text style="stroke:none;fill:black;font-family:sans-serif;font-size:13;font-weight:bold;" transform="matrix(1 0 0 1 263 322)">Weight/Scale Variations</text>
  <text style="stroke:none;fill:black;font-family:sans-serif;font-size:13;text-anchor:middle;" transform="matrix(1 0 0 1 559.711 322)">Ultralight</text>
  <text style="stroke:none;fill:black;font-family:sans-serif;font-size:13;text-anchor:middle;" transform="matrix(1 0 0 1 856.422 322)">Thin</text>
  <text style="stroke:none;fill:black;font-family:sans-serif;font-size:13;text-anchor:middle;" transform="matrix(1 0 0 1 1153.13 322)">Light</text>
  <text style="stroke:none;fill:black;font-family:sans-serif;font-size:13;text-anchor:middle;" transform="matrix(1 0 0 1 1449.84 322)">Regular</text>
  <text style="stroke:none;fill:black;font-family:sans-serif;font-size:13;text-anchor:middle;" transform="matrix(1 0 0 1 1746.56 322)">Medium</text>
  <text style="stroke:none;fill:black;font-family:sans-serif;font-size:13;text-anchor:middle;" transform="matrix(1 0 0 1 2043.27 322)">Semibold</text>
  <text style="stroke:none;fill:black;font-family:sans-serif;font-size:13;text-anchor:middle;" transform="matrix(1 0 0 1 2339.98 322)">Bold</text>
  <text style="stroke:none;fill:black;font-family:sans-serif;font-size:13;text-anchor:middle;" transform="matrix(1 0 0 1 2636.69 322)">Heavy</text>
  <text style="stroke:none;fill:black;font-family:sans-serif;font-size:13;text-anchor:middle;" transform="matrix(1 0 0 1 2933.4 322)">Black</text>
  <line style="fill:none;stroke:black;opacity:1;stroke-width:0.5;" x1="263" x2="3036" y1="1903" y2="1903"/>
  <g transform="matrix(1 0 0 1 263 1933)">
   <path d="M9.24805 0.830078C13.5547 0.830078 17.1387-2.74414 17.1387-7.05078C17.1387-11.3574 13.5449-14.9316 9.23828-14.9316C4.94141-14.9316 1.36719-11.3574 1.36719-7.05078C1.36719-2.74414 4.95117 0.830078 9.24805 0.830078ZM9.24805-0.654297C5.70312-0.654297 2.87109-3.49609 2.87109-7.05078C2.87109-10.6055 5.69336-13.4473 9.23828-13.4473C12.793-13.4473 15.6445-10.6055 15.6445-7.05078C15.6445-3.49609 12.8027-0.654297 9.24805-0.654297ZM5.6543-7.05078C5.6543-6.62109 5.95703-6.32812 6.40625-6.32812L8.50586-6.32812L8.50586-4.20898C8.50586-3.76953 8.79883-3.4668 9.22852-3.4668C9.67773-3.4668 9.9707-3.76953 9.9707-4.20898L9.9707-6.32812L12.0898-6.32812C12.5293-6.32812 12.832-6.62109 12.832-7.05078C12.832-7.49023 12.5293-7.79297 12.0898-7.79297L9.9707-7.79297L9.9707-9.90234C9.9707-10.3516 9.67773-10.6543 9.22852-10.6543C8.79883-10.6543 8.50586-10.3516 8.50586-9.90234L8.50586-7.79297L6.40625-7.79297C5.95703-7.79297 5.6543-7.49023 5.6543-7.05078Z"/>
  </g>
  <g transform="matrix(1 0 0 1 281.867 1933)">
   <path d="M11.709 2.91016C17.1582 2.91016 21.6699-1.61133 21.6699-7.05078C21.6699-12.5 17.1484-17.0117 11.6992-17.0117C6.25977-17.0117 1.74805-12.5 1.74805-7.05078C1.74805-1.61133 6.26953 2.91016 11.709 2.91016ZM11.709 1.25C7.09961 1.25 3.41797-2.44141 3.41797-7.05078C3.41797-11.6602 7.08984-15.3516 11.6992-15.3516C16.3086-15.3516 20.0098-11.6602 20.0098-7.05078C20.0098-2.44141 16.3184 1.25 11.709 1.25ZM7.17773-7.05078C7.17773-6.57227 7.50977-6.25 8.00781-6.25L10.8789-6.25L10.8789-3.36914C10.8789-2.88086 11.2109-2.53906 11.6895-2.53906C12.1777-2.53906 12.5195-2.87109 12.5195-3.36914L12.5195-6.25L15.4004-6.25C15.8887-6.25 16.2305-6.57227 16.2305-7.05078C16.2305-7.53906 15.8887-7.88086 15.4004-7.88086L12.5195-7.88086L12.5195-10.752C12.5195-11.25 12.1777-11.5918 11.6895-11.5918C11.2109-11.5918 10.8789-11.25 10.8789-10.752L10.8789-7.88086L8.00781-7.88086C7.50977-7.88086 7.17773-7.53906 7.17773-7.05078Z"/>
  </g>
  <g transform="matrix(1 0 0 1 305.646 1933)">
   <path d="M14.9707 5.66406C21.9336 5.66406 27.6953-0.0976562 27.6953-7.05078C27.6953-14.0137 21.9238-19.7754 14.9609-19.7754C8.00781-19.7754 2.25586-14.0137 2.25586-7.05078C2.25586-0.0976562 8.01758 5.66406 14.9707 5.66406ZM14.9707 3.84766C8.93555 3.84766 4.08203-1.01562 4.08203-7.05078C4.08203-13.0957 8.92578-17.9492 14.9609-17.9492C21.0059-17.9492 25.8691-13.0957 25.8691-7.05078C25.8691-1.01562 21.0156 3.84766 14.9707 3.84766ZM9.19922-7.05078C9.19922-6.5332 9.57031-6.17188 10.1172-6.17188L14.0625-6.17188L14.0625-2.2168C14.0625-1.67969 14.4336-1.29883 14.9512-1.29883C15.4883-1.29883 15.8594-1.66992 15.8594-2.2168L15.8594-6.17188L19.8145-6.17188C20.3516-6.17188 20.7324-6.5332 20.7324-7.05078C20.7324-7.59766 20.3613-7.96875 19.8145-7.96875L15.8594-7.96875L15.8594-11.9141C15.8594-12.4609 15.4883-12.8418 14.9512-12.8418C14.4336-12.8418 14.0625-12.4609 14.0625-11.9141L14.0625-7.96875L10.1172-7.96875C9.57031-7.96875 9.19922-7.59766 9.19922-7.05078Z"/>
  </g>
  <text style="stroke:none;fill:black;font-family:sans-serif;font-size:13;font-weight:bold;" transform="matrix(1 0 0 1 263 1953)">Design Variations</text>
  <text style="stroke:none;fill:black;font-family:sans-serif;font-size:13;" transform="matrix(1 0 0 1 263 1971)">Symbols are supported in up to nine weights and three scales.</text>
  <text style="stroke:none;fill:black;font-family:sans-serif;font-size:13;" transform="matrix(1 0 0 1 263 1989)">For optimal layout with text and other symbols, vertically align</text>
  <text style="stroke:none;fill:black;font-family:sans-serif;font-size:13;" transform="matrix(1 0 0 1 263 2007)">symbols with the adjacent text.</text>
  <line style="fill:none;stroke:#00AEEF;stroke-width:0.5;opacity:1.0;" x1="776" x2="776" y1="1919" y2="1933"/>
  <g transform="matrix(1 0 0 1 776 1933)">
   <path d="M3.31055 0.15625C3.82812 0.15625 4.08203-0.0390625 4.26758-0.585938L5.52734-4.0332L11.2891-4.0332L12.5488-0.585938C12.7344-0.0390625 12.9883 0.15625 13.4961 0.15625C14.0137 0.15625 14.3457-0.15625 14.3457-0.644531C14.3457-0.810547 14.3164-0.966797 14.2383-1.17188L9.6582-13.3691C9.43359-13.9648 9.0332-14.2676 8.4082-14.2676C7.80273-14.2676 7.39258-13.9746 7.17773-13.3789L2.59766-1.16211C2.51953-0.957031 2.49023-0.800781 2.49023-0.634766C2.49023-0.146484 2.80273 0.15625 3.31055 0.15625ZM6.00586-5.51758L8.37891-12.0898L8.42773-12.0898L10.8008-5.51758Z"/>
  </g>
  <line style="fill:none;stroke:#00AEEF;stroke-width:0.5;opacity:1.0;" x1="793.197" x2="793.197" y1="1919" y2="1933"/>
  <text style="stroke:none;fill:black;font-family:sans-serif;font-size:13;font-weight:bold;" transform="matrix(1 0 0 1 776 1953)">Margins</text>
  <text style="stroke:none;fill:black;font-family:sans-serif;font-size:13;" transform="matrix(1 0 0 1 776 1971)">Leading and trailing margins on the left and right side of each symbol</text>
  <text style="stroke:none;fill:black;font-family:sans-serif;font-size:13;" transform="matrix(1 0 0 1 776 1989)">can be adjusted by modifying the x-location of the margin guidelines.</text>
  <text style="stroke:none;fill:black;font-family:sans-serif;font-size:13;" transform="matrix(1 0 0 1 776 2007)">Modifications are automatically applied proportionally to all</text>
  <text style="stroke:none;fill:black;font-family:sans-serif;font-size:13;" transform="matrix(1 0 0 1 776 2025)">scales and weights.</text>
  <g transform="matrix(1 0 0 1 1289 1933)">
   <path d="M2.8418 1.86523L4.54102 3.57422C5.40039 4.44336 6.38672 4.38477 7.31445 3.35938L18.0078-8.42773L17.041-9.4043L6.42578 2.27539C6.07422 2.67578 5.74219 2.77344 5.27344 2.30469L4.10156 1.14258C3.63281 0.683594 3.74023 0.341797 4.14062-0.0195312L15.6152-10.8203L14.6387-11.7871L3.04688-0.898438C2.06055 0.0195312 1.98242 0.996094 2.8418 1.86523ZM9.25781-16.3281C8.83789-15.918 8.80859-15.3418 9.04297-14.9512C9.27734-14.5898 9.73633-14.3555 10.3809-14.5215C11.8457-14.8633 13.3691-14.9219 14.7949-13.9844L14.209-12.5293C13.8672-11.6992 14.043-11.1133 14.5801-10.5664L16.875-8.25195C17.3633-7.76367 17.7734-7.74414 18.3398-7.8418L19.4043-8.03711L20.0684-7.36328L20.0293-6.80664C19.9902-6.30859 20.1172-5.92773 20.6055-5.44922L21.3672-4.70703C21.8457-4.22852 22.4609-4.19922 22.9297-4.66797L25.8398-7.58789C26.3086-8.05664 26.2891-8.65234 25.8105-9.13086L25.0391-9.89258C24.5605-10.3711 24.1895-10.5273 23.7109-10.4883L23.1348-10.4395L22.4902-11.0742L22.7344-12.1973C22.8613-12.7637 22.7051-13.2031 22.1191-13.7891L19.9219-15.9766C16.582-19.2969 12.1484-19.2188 9.25781-16.3281ZM10.752-15.957C13.1836-17.7344 16.4746-17.4316 18.7012-15.2051L21.1328-12.793C21.3672-12.5586 21.4062-12.373 21.3379-12.0312L21.0156-10.5469L22.5195-9.0625L23.5059-9.12109C23.7598-9.13086 23.8379-9.11133 24.0332-8.91602L24.6094-8.33984L22.168-5.89844L21.5918-6.47461C21.3965-6.66992 21.3672-6.74805 21.377-7.01172L21.4453-7.98828L19.9512-9.47266L18.4277-9.21875C18.1055-9.15039 17.959-9.17969 17.7148-9.41406L15.7129-11.416C15.459-11.6504 15.4297-11.8164 15.5859-12.1875L16.4648-14.2773C14.9023-15.7324 12.8711-16.3574 10.8398-15.7617C10.6836-15.7227 10.625-15.8496 10.752-15.957Z"/>
  </g>
  <text style="stroke:none;fill:black;font-family:sans-serif;font-size:13;font-weight:bold;" transform="matrix(1 0 0 1 1289 1953)">Exporting</text>
  <text style="stroke:none;fill:black;font-family:sans-serif;font-size:13;" transform="matrix(1 0 0 1 1289 1971)">Symbols should be outlined when exporting to ensure the</text>
  <text style="stroke:none;fill:black;font-family:sans-serif;font-size:13;" transform="matrix(1 0 0 1 1289 1989)">design is preserved when submitting to Xcode.</text>
  <text id="template-version" style="stroke:none;fill:black;font-family:sans-serif;font-size:13;text-anchor:end;" transform="matrix(1 0 0 1 3036 1933)">Template v.4.0</text>
  <text style="stroke:none;fill:black;font-family:sans-serif;font-size:13;text-anchor:end;" transform="matrix(1 0 0 1 3036 1951)">Requires Xcode 14 or greater</text>
  <text id="descriptive-name" style="stroke:none;fill:black;font-family:sans-serif;font-size:13;text-anchor:end;" transform="matrix(1 0 0 1 3036 1969)">Generated from twitter</text>
  <text style="stroke:none;fill:black;font-family:sans-serif;font-size:13;text-anchor:end;" transform="matrix(1 0 0 1 3036 1987)">Typeset at 100 points</text>
  <text style="stroke:none;fill:black;font-family:sans-serif;font-size:13;" transform="matrix(1 0 0 1 263 726)">Small</text>
  <text style="stroke:none;fill:black;font-family:sans-serif;font-size:13;" transform="matrix(1 0 0 1 263 1156)">Medium</text>
  <text style="stroke:none;fill:black;font-family:sans-serif;font-size:13;" transform="matrix(1 0 0 1 263 1586)">Large</text>
 </g>
 <g id="Guides">
  <g id="H-reference" style="fill:#27AAE1;stroke:none;" transform="matrix(1 0 0 1 339 696)">
   <path d="M0.993654 0L3.63775 0L29.3281-67.1323L30.0303-67.1323L30.0303-70.459L28.1226-70.459ZM11.6885-24.4799L46.9815-24.4799L46.2315-26.7285L12.4385-26.7285ZM55.1196 0L57.7637 0L30.6382-70.459L29.4326-70.459L29.4326-67.1323Z"/>
  </g>
  <line id="Baseline-S" style="fill:none;stroke:#27AAE1;opacity:1;stroke-width:0.5;" x1="263" x2="3036" y1="696" y2="696"/>
  <line id="Capline-S" style="fill:none;stroke:#27AAE1;opacity:1;stroke-width:0.5;" x1="263" x2="3036" y1="625.541" y2="625.541"/>
  <g id="H-reference" style="fill:#27AAE1;stroke:none;" transform="matrix(1 0 0 1 339 1126)">
   <path d="M0.993654 0L3.63775 0L29.3281-67.1323L30.0303-67.1323L30.0303-70.459L28.1226-70.459ZM11.6885-24.4799L46.9815-24.4799L46.2315-26.7285L12.4385-26.7285ZM55.1196 0L57.7637 0L30.6382-70.459L29.4326-70.459L29.4326-67.1323Z"/>
  </g>
  <line id="Baseline-M" style="fill:none;stroke:#27AAE1;opacity:1;stroke-width:0.5;" x1="263" x2="3036" y1="1126" y2="1126"/>
  <line id="Capline-M" style="fill:none;stroke:#27AAE1;opacity:1;stroke-width:0.5;" x1="263" x2="3036" y1="1055.54" y2="1055.54"/>
  <g id="H-reference" style="fill:#27AAE1;stroke:none;" transform="matrix(1 0 0 1 339 1556)">
   <path d="M0.993654 0L3.63775 0L29.3281-67.1323L30.0303-67.1323L30.0303-70.459L28.1226-70.459ZM11.6885-24.4799L46.9815-24.4799L46.2315-26.7285L12.4385-26.7285ZM55.1196 0L57.7637 0L30.6382-70.459L29.4326-70.459L29.4326-67.1323Z"/>
  </g>
  <line id="Baseline-L" style="fill:none;stroke:#27AAE1;opacity:1;stroke-width:0.5;" x1="263" x2="3036" y1="1556" y2="1556"/>
  <line id="Capline-L" style="fill:none;stroke:#27AAE1;opacity:1;stroke-width:0.5;" x1="263" x2="3036" y1="1485.54" y2="1485.54"/>
  <line id="left-margin-Regular-M" style="fill:none;stroke:#00AEEF;stroke-width:0.5;opacity:1.0;" x1="1392.45" x2="1392.45" y1="1030.79" y2="1150.12"/>
  <line id="right-margin-Regular-M" style="fill:none;stroke:#00AEEF;stroke-width:0.5;opacity:1.0;" x1="1507.24" x2="1507.24" y1="1030.79" y2="1150.12"/>
 </g>
 <g id="Symbols">
  <g id="Black-L" transform="matrix(1 0 0 1 2859.51 1556)">
   <path class="monochrome-0 multicolor-0:custom SFSymbolsPreview1D9BF0" d="M122.869-60.4061C122.944-59.2994 122.944-58.1928 122.944-57.076C122.944-23.0458 97.559 16.2013 51.1423 16.2013L51.1423 16.1809C37.4307 16.2013 24.0039 12.193 12.4609 4.63523C14.4547 4.88001 16.4585 5.00241 18.4672 5.00751C29.8303 5.01771 40.8686 1.12665 49.8081-6.0384C39.0097-6.24748 29.5405-13.4329 26.2325-23.923C30.0152-23.1784 33.9128-23.3314 37.6256-24.3666C25.8527-26.7941 17.3829-37.3504 17.3829-49.61L17.3829-49.9364C20.8908-47.9425 24.8184-46.8358 28.8359-46.7134C17.7477-54.2763 14.3298-69.3305 21.0257-81.1006C33.8379-65.0111 52.7413-55.2299 73.034-54.1947C71.0002-63.1395 73.7785-72.5127 80.3345-78.8006C90.4983-88.5512 106.484-88.0514 116.038-77.6838C121.689-78.821 127.106-80.9374 132.063-83.936C130.179-77.9745 126.237-72.9105 120.97-69.6926C125.972-70.2943 130.859-71.6611 135.461-73.7468C132.073-68.5655 127.806-64.0523 122.869-60.4061Z"/>
  </g>
  <g id="Heavy-L" transform="matrix(1 0 0 1 2563.79 1556)">
   <path class="monochrome-0 multicolor-0:custom SFSymbolsPreview1D9BF0" d="M121.073-59.9885C121.147-58.9035 121.147-57.8186 121.147-56.7237C121.147-23.3608 96.1753 15.1168 50.5133 15.1168L50.5133 15.0968C37.0247 15.1168 23.8162 11.187 12.4609 3.77752C14.4223 4.0175 16.3935 4.13749 18.3696 4.14249C29.5479 4.15249 40.4067 0.337733 49.2009-6.68682C38.578-6.89181 29.2628-13.9364 26.0086-24.2207C29.7298-23.4908 33.564-23.6408 37.2164-24.6557C25.635-27.0355 17.3029-37.3849 17.3029-49.4041L17.3029-49.7241C20.7537-47.7692 24.6174-46.6843 28.5697-46.5643C17.6617-53.9788 14.2994-68.7379 20.8864-80.2772C33.4903-64.5032 52.0864-54.9138 72.049-53.8988C70.0483-62.6683 72.7815-71.8577 79.2309-78.0223C89.2294-87.5817 104.955-87.0917 114.354-76.9274C119.913-78.0423 125.242-80.1172 130.118-83.057C128.265-77.2124 124.387-72.2477 119.205-69.0929C124.126-69.6828 128.934-71.0228 133.461-73.0676C130.128-67.988 125.93-63.5632 121.073-59.9885Z"/>
  </g>
  <g id="Bold-L" transform="matrix(1 0 0 1 2268.08 1556)">
   <path class="monochrome-0 multicolor-0:custom SFSymbolsPreview1D9BF0" d="M119.278-59.3418C119.351-58.2785 119.351-57.2153 119.351-56.1423C119.351-23.4466 94.7916 14.2614 49.8844 14.2614L49.8844 14.2418C36.6186 14.2614 23.6285 10.4102 12.4609 3.1489C14.3898 3.38409 16.3285 3.50168 18.2719 3.50658C29.2655 3.51638 39.9448-0.222086 48.5936-7.10615C38.1463-7.30704 28.9851-14.2107 25.7846-24.2894C29.4443-23.574 33.2152-23.721 36.8072-24.7156C25.4172-27.0479 17.2228-37.1903 17.2228-48.9691L17.2228-49.2827C20.6166-47.3669 24.4165-46.3037 28.3034-46.1861C17.5757-53.4523 14.269-67.9162 20.7471-79.2247C33.1427-63.7662 51.4314-54.3686 71.0641-53.3739C69.0965-61.968 71.7844-70.9736 78.1272-77.0149C87.9605-86.3831 103.426-85.903 112.669-75.9419C118.137-77.0345 123.378-79.0679 128.173-81.9489C126.351-76.2212 122.537-71.3558 117.441-68.2641C122.28-68.8423 127.008-70.1554 131.461-72.1593C128.183-67.1813 124.055-62.845 119.278-59.3418Z"/>
  </g>
  <g id="Semibold-L" transform="matrix(1 0 0 1 1972.37 1556)">
   <path class="monochrome-0 multicolor-0:custom SFSymbolsPreview1D9BF0" d="M117.483-59.101C117.554-58.0595 117.554-57.018 117.554-55.9668C117.554-23.9385 93.4079 13 49.2554 13L49.2554 12.9808C36.2126 13 23.4408 9.22744 12.4609 2.11429C14.3574 2.34467 16.2635 2.45987 18.1742 2.46466C28.983 2.47426 39.4828-1.1879 47.9863-7.93148C37.7146-8.12827 28.7073-14.891 25.5607-24.764C29.1589-24.0633 32.8664-24.2073 36.398-25.1816C25.1995-27.4662 17.1428-37.4016 17.1428-48.9401L17.1428-49.2473C20.4795-47.3706 24.2156-46.3291 28.0371-46.2139C17.4898-53.3318 14.2386-67.5005 20.6079-78.5782C32.7951-63.4352 50.7764-54.2294 70.0792-53.255C68.1446-61.6737 70.7874-70.4955 77.0236-76.4136C86.6916-85.5906 101.897-85.1202 110.985-75.3624C116.361-76.4328 121.514-78.4246 126.229-81.2469C124.437-75.636 120.686-70.8699 115.677-67.8413C120.435-68.4077 125.083-69.694 129.461-71.6571C126.238-66.7806 122.179-62.5328 117.483-59.101Z"/>
  </g>
  <g id="Medium-L" transform="matrix(1 0 0 1 1675.66 1556)">
   <path class="monochrome-0 multicolor-0:custom SFSymbolsPreview1D9BF0" d="M117.483-59.4523C117.554-58.4108 117.554-57.3693 117.554-56.3181C117.554-24.2898 93.4079 12.6487 49.2554 12.6487L49.2554 12.6295C36.2126 12.6487 23.4408 8.87614 12.4609 1.76299C14.3574 1.99337 16.2635 2.10857 18.1742 2.11337C28.983 2.12296 39.4828-1.5392 47.9863-8.28278C37.7146-8.47957 28.7073-15.2423 25.5607-25.1153C29.1589-24.4146 32.8664-24.5586 36.398-25.5329C25.1995-27.8175 17.1428-37.7529 17.1428-49.2914L17.1428-49.5986C20.4795-47.7219 24.2156-46.6804 28.0371-46.5652C17.4898-53.6831 14.2386-67.8518 20.6079-78.9295C32.7951-63.7865 50.7764-54.5807 70.0792-53.6063C68.1446-62.025 70.7874-70.8468 77.0236-76.7649C86.6916-85.9419 101.897-85.4715 110.985-75.7137C116.361-76.7841 121.514-78.7759 126.229-81.5982C124.437-75.9873 120.686-71.2212 115.677-68.1926C120.435-68.759 125.083-70.0453 129.461-72.0084C126.238-67.1319 122.179-62.8841 117.483-59.4523Z"/>
  </g>
  <g id="Regular-L" transform="matrix(1 0 0 1 1379.95 1556)">
   <path class="monochrome-0 multicolor-0:custom SFSymbolsPreview1D9BF0" d="M115.688-58.9209C115.758-57.8902 115.758-56.8595 115.758-55.8193C115.758-24.1246 92.0242 12.4291 48.6264 12.4291L48.6264 12.4101C35.8066 12.4291 23.2531 8.69584 12.4609 1.65678C14.325 1.88477 16.1985 1.99876 18.0766 2.00351C28.7006 2.01301 39.0209-1.61101 47.379-8.28434C37.283-8.47908 28.4296-15.1714 25.3368-24.9415C28.8735-24.2481 32.5176-24.3906 35.9888-25.3548C24.9817-27.6156 17.0628-37.4475 17.0628-48.8658L17.0628-49.1698C20.3425-47.3126 24.0146-46.2819 27.7709-46.168C17.4038-53.2118 14.2082-67.2329 20.4686-78.1952C32.4475-63.2099 50.1215-54.1 69.0943-53.1358C67.1928-61.4667 69.7904-70.1967 75.92-76.0531C85.4227-85.1345 100.368-84.669 109.301-75.0129C114.585-76.0721 119.649-78.0432 124.284-80.836C122.523-75.2836 118.836-70.5672 113.912-67.5701C118.589-68.1306 123.158-69.4035 127.461-71.3461C124.293-66.5204 120.303-62.3169 115.688-58.9209Z"/>
  </g>
  <g id="Light-L" transform="matrix(1 0 0 1 1084.24 1556)">
   <path class="monochrome-0 multicolor-0:custom SFSymbolsPreview1D9BF0" d="M113.892-58.5599C113.961-57.5509 113.961-56.5419 113.961-55.5236C113.961-24.4961 90.6405 11.288 47.9975 11.288L47.9975 11.2694C35.4006 11.288 23.0654 7.63333 12.4609 0.742466C14.2926 0.965652 16.1335 1.07724 17.9789 1.08189C28.4182 1.09119 38.559-2.45653 46.7718-8.98937C36.8513-9.18001 28.1519-15.7314 25.1129-25.2959C28.588-24.617 32.1688-24.7565 35.5796-25.7004C24.764-27.9137 16.9827-37.5386 16.9827-48.7165L16.9827-49.014C20.2054-47.196 23.8137-46.187 27.5046-46.0754C17.3179-52.9709 14.1778-66.6969 20.3294-77.4284C32.0999-62.7586 49.4665-53.8404 68.1093-52.8965C66.2409-61.0521 68.7933-69.5983 74.8163-75.3314C84.1538-84.2216 98.8394-83.766 107.617-74.3131C112.809-75.35 117.785-77.2796 122.339-80.0136C120.609-74.5781 116.986-69.961 112.148-67.027C116.743-67.5757 121.233-68.8218 125.461-70.7235C122.348-65.9994 118.428-61.8844 113.892-58.5599Z"/>
  </g>
  <g id="Thin-L" transform="matrix(1 0 0 1 788.527 1556)">
   <path class="monochrome-0 multicolor-0:custom SFSymbolsPreview1D9BF0" d="M112.097-57.9219C112.165-56.9346 112.165-55.9473 112.165-54.9509C112.165-24.5907 89.2568 10.4239 47.3685 10.4239L47.3685 10.4057C34.9946 10.4239 22.8777 6.84783 12.4609 0.105151C14.2602 0.323538 16.0685 0.432731 17.8813 0.43728C28.1357 0.44638 38.0971-3.02505 46.1645-9.4174C36.4196-9.60394 27.8742-16.0145 24.8889-25.3732C28.3026-24.709 31.8199-24.8455 35.1705-25.7691C24.5462-27.9347 16.9027-37.3526 16.9027-48.2901L16.9027-48.5813C20.0683-46.8024 23.6128-45.8151 27.2384-45.7059C17.2319-52.4531 14.1474-65.8839 20.1901-76.3846C31.7523-62.0303 48.8115-53.3039 67.1244-52.3803C65.2891-60.3605 67.7963-68.7229 73.7127-74.3327C82.8849-83.0318 97.3106-82.5859 105.933-73.3363C111.033-74.3509 115.921-76.239 120.394-78.9143C118.694-73.5956 115.136-69.0778 110.384-66.2069C114.897-66.7438 119.308-67.9631 123.461-69.8239C120.403-65.2014 116.552-61.1749 112.097-57.9219Z"/>
  </g>
  <g id="Ultralight-L" transform="matrix(1 0 0 1 492.316 1556)">
   <path class="monochrome-0 multicolor-0:custom SFSymbolsPreview1D9BF0" d="M111.199-57.589C111.267-56.6126 111.267-55.6362 111.267-54.6507C111.267-24.6241 88.5649 10.0057 47.054 10.0057L47.054 9.9877C34.7916 10.0057 22.7839 6.46892 12.4609-0.199656C14.244 0.0163305 16.036 0.124324 17.8324 0.128823C27.9945 0.137823 37.8661-3.29546 45.8609-9.61756C36.2037-9.80205 27.7353-16.1421 24.777-25.3981C28.1599-24.7411 31.6455-24.8761 34.9659-25.7895C24.4373-27.9314 16.8627-37.2458 16.8627-48.0631L16.8627-48.3511C19.9998-46.5917 23.5123-45.6153 27.1052-45.5073C17.1889-52.1804 14.1322-65.4635 20.1205-75.8489C31.5785-61.6523 48.4841-53.0218 66.6319-52.1084C64.8131-60.0009 67.2978-68.2714 73.1609-73.8195C82.2505-82.423 96.5462-81.982 105.091-72.8341C110.145-73.8375 114.989-75.7049 119.422-78.3507C117.737-73.0906 114.211-68.6223 109.501-65.783C113.975-66.314 118.345-67.5199 122.461-69.3603C119.431-64.7886 115.615-60.8063 111.199-57.589Z"/>
  </g>
  <g id="Black-M" transform="matrix(1 0 0 1 2872.51 1126)">
   <path class="monochrome-0 multicolor-0:custom SFSymbolsPreview1D9BF0" d="M99.5304-55.6844C99.5895-54.8165 99.5895-53.9485 99.5895-53.0726C99.5895-26.3823 79.5708 4.3998 42.9658 4.3998L42.9658 4.3838C32.1525 4.3998 21.5639 1.256 12.4609-4.67163C14.0332-4.47964 15.6134-4.38365 17.1976-4.37965C26.1587-4.37165 34.8637-7.42345 41.9136-13.0431C33.3978-13.2071 25.9302-18.8427 23.3214-27.0702C26.3045-26.4863 29.3783-26.6062 32.3062-27.4182C23.0219-29.3221 16.3425-37.6015 16.3425-47.2169L16.3425-47.4729C19.1088-45.909 22.2062-45.0411 25.3745-44.9451C16.6301-50.8767 13.9347-62.684 19.2152-71.9154C29.3192-59.2962 44.2268-51.6247 60.2299-50.8127C58.626-57.8283 60.8171-65.1798 65.9872-70.1115C74.0026-77.759 86.6089-77.367 94.1435-69.2356C98.6004-70.1275 102.872-71.7874 106.781-74.1392C105.296-69.4635 102.186-65.4918 98.0329-62.9679C101.978-63.4399 105.832-64.5119 109.461-66.1477C106.789-62.084 103.424-58.5442 99.5304-55.6844Z"/>
  </g>
  <g id="Heavy-M" transform="matrix(1 0 0 1 2576.79 1126)">
   <path class="monochrome-0 multicolor-0:custom SFSymbolsPreview1D9BF0" d="M97.7351-54.3666C97.793-53.5204 97.793-52.6741 97.793-51.8201C97.793-25.797 78.1871 4.2155 42.3368 4.2155L42.3368 4.1999C31.7465 4.2155 21.3762 1.15029 12.4609-4.62914C14.0008-4.44195 15.5484-4.34836 17.0999-4.34446C25.8763-4.33666 34.4018-7.31217 41.3063-12.7913C32.9661-12.9512 25.6524-18.446 23.0975-26.4678C26.0191-25.8984 29.0295-26.0154 31.897-26.807C22.8042-28.6633 16.2624-36.7358 16.2624-46.1108L16.2624-46.3604C18.9718-44.8356 22.0053-43.9894 25.1083-43.8958C16.5442-49.6791 13.9043-61.1912 19.076-70.1918C28.9716-57.8881 43.5718-50.4084 59.245-49.6167C57.6742-56.4569 59.82-63.6246 64.8836-68.433C72.7337-75.8893 85.08-75.5072 92.4593-67.579C96.8243-68.4486 101.008-70.067 104.836-72.3601C103.381-67.8013 100.336-63.9288 96.2685-61.4681C100.132-61.9282 103.906-62.9734 107.461-64.5684C104.844-60.6062 101.548-57.1549 97.7351-54.3666Z"/>
  </g>
  <g id="Bold-M" transform="matrix(1 0 0 1 2280.58 1126)">
   <path class="monochrome-0 multicolor-0:custom SFSymbolsPreview1D9BF0" d="M96.8375-54.7029C96.8948-53.8676 96.8948-53.0322 96.8948-52.1891C96.8948-26.4996 77.4952 3.1281 42.0223 3.1281L42.0223 3.1127C31.5435 3.1281 21.2824 0.102191 12.4609-5.60315C13.9846-5.41836 15.5159-5.32597 17.0511-5.32212C25.7351-5.31442 34.1708-8.25178 41.0027-13.6607C32.7502-13.8185 25.5136-19.2428 22.9855-27.1618C25.8764-26.5997 28.855-26.7152 31.6924-27.4967C22.6953-29.3292 16.2224-37.2982 16.2224-46.553L16.2224-46.7994C18.9032-45.2941 21.9048-44.4587 24.9751-44.3664C16.5012-50.0755 13.8891-61.44 19.0063-70.3253C28.7978-58.1793 43.2443-50.7954 58.7525-50.0139C57.1983-56.7664 59.3215-63.8423 64.3318-68.589C72.0993-75.9498 84.3156-75.5725 91.6172-67.7459C95.9363-68.6044 100.076-70.2021 103.864-72.4657C102.424-67.9654 99.4114-64.1426 95.3864-61.7134C99.209-62.1676 102.944-63.1994 106.461-64.7739C103.872-60.8626 100.61-57.4555 96.8375-54.7029Z"/>
  </g>
  <g id="Semibold-M" transform="matrix(1 0 0 1 1984.87 1126)">
   <path class="monochrome-0 multicolor-0:custom SFSymbolsPreview1D9BF0" d="M95.0423-53.5717C95.0983-52.758 95.0983-51.9443 95.0983-51.1231C95.0983-26.101 76.1115 2.7572 41.3933 2.7572L41.3933 2.7422C31.1375 2.7572 21.0947-0.190114 12.4609-5.74726C13.9522-5.56727 15.4509-5.47728 16.9534-5.47353C25.4527-5.46603 33.7089-8.3271 40.3954-13.5955C32.3185-13.7493 25.2359-19.0327 22.7616-26.7459C25.5909-26.1985 28.5062-26.311 31.2832-27.0722C22.4776-28.8571 16.1424-36.6191 16.1424-45.6335L16.1424-45.8735C18.7662-44.4073 21.7039-43.5936 24.7089-43.5036C16.4152-49.0645 13.8587-60.1338 18.8671-68.7883C28.4502-56.9578 42.5894-49.7657 57.7676-49.0045C56.2464-55.5816 58.3245-62.4737 63.2282-67.0971C70.8303-74.2667 82.7868-73.8992 89.933-66.2759C94.1602-67.1121 98.2117-68.6683 101.919-70.8732C100.51-66.4897 97.5614-62.7662 93.622-60.4001C97.3633-60.8425 101.019-61.8475 104.461-63.3811C101.927-59.5714 98.735-56.2528 95.0423-53.5717Z"/>
  </g>
  <g id="Medium-M" transform="matrix(1 0 0 1 1688.66 1126)">
   <path class="monochrome-0 multicolor-0:custom SFSymbolsPreview1D9BF0" d="M94.1446-53.3437C94.2001-52.5408 94.2001-51.738 94.2001-50.9277C94.2001-26.2392 75.4197 2.2342 41.0789 2.2342L41.0789 2.2194C30.9345 2.2342 21.0008-0.673816 12.4609-6.15687C13.936-5.97928 15.4184-5.89049 16.9046-5.88679C25.3114-5.87939 33.478-8.70231 40.0918-13.9005C32.1027-14.0522 25.097-19.2651 22.6496-26.8756C25.4482-26.3354 28.3318-26.4464 31.0787-27.1974C22.3687-28.9585 16.1024-36.617 16.1024-45.5113L16.1024-45.7481C18.6976-44.3015 21.6034-43.4986 24.5757-43.4098C16.3723-48.8966 13.8436-59.8183 18.7974-68.3573C28.2764-56.6846 42.2619-49.5884 57.2751-48.8374C55.7705-55.3268 57.826-62.1269 62.6763-66.6887C70.1959-73.7627 82.0224-73.4001 89.0909-65.8785C93.2722-66.7035 97.2796-68.239 100.947-70.4144C99.5532-66.0894 96.6364-62.4155 92.7398-60.081C96.4404-60.5175 100.056-61.5091 103.461-63.0223C100.954-59.2633 97.7972-55.989 94.1446-53.3437Z"/>
  </g>
  <g id="Regular-M" transform="matrix(1 0 0 1 1392.45 1126)">
   <path class="monochrome-0 multicolor-0:custom SFSymbolsPreview1D9BF0" d="M93.247-53.9705C93.3019-53.1785 93.3019-52.3865 93.3019-51.5872C93.3019-27.2323 74.7278 0.8563 40.7644 0.8563L40.7644 0.841701C30.7315 0.8563 20.907-2.01242 12.4609-7.42138C13.9198-7.24619 15.3859-7.15859 16.8558-7.15494C25.1702-7.14764 33.247-9.93242 39.7881-15.0603C31.8869-15.21 24.9582-20.3525 22.5377-27.8601C25.3055-27.3272 28.1574-27.4367 30.8741-28.1776C22.2598-29.9149 16.0624-37.4699 16.0624-46.244L16.0624-46.4776C18.6291-45.0505 21.5029-44.2585 24.4426-44.1709C16.3293-49.5835 13.8284-60.3576 18.7278-68.7813C28.1026-57.2663 41.9344-50.266 56.7827-49.5251C55.2945-55.9268 57.3274-62.6351 62.1245-67.1353C69.5614-74.1136 81.258-73.7559 88.2488-66.336C92.3841-67.1499 96.3476-68.6645 99.9746-70.8106C98.5962-66.544 95.7114-62.9198 91.8576-60.6168C95.5176-61.0474 99.0934-62.0256 102.461-63.5183C99.9819-59.8102 96.8594-56.5801 93.247-53.9705Z"/>
  </g>
  <g id="Light-M" transform="matrix(1 0 0 1 1096.74 1126)">
   <path class="monochrome-0 multicolor-0:custom SFSymbolsPreview1D9BF0" d="M91.4518-53.4495C91.5054-52.6683 91.5054-51.8872 91.5054-51.0988C91.5054-27.0776 73.3441 0.6263 40.1354 0.6263L40.1354 0.611901C30.3255 0.6263 20.7193-2.20312 12.4609-7.53798C13.8873-7.3652 15.3209-7.2788 16.7581-7.2752C24.8878-7.268 32.7851-10.0146 39.1809-15.0723C31.4552-15.2199 24.6804-20.292 22.3138-27.6967C25.0201-27.1711 27.8086-27.2791 30.4649-28.0099C22.042-29.7234 15.9823-37.1749 15.9823-45.8288L15.9823-46.0592C18.492-44.6516 21.302-43.8705 24.1764-43.7841C16.2433-49.1226 13.798-59.7491 18.5885-68.0574C27.755-56.7001 41.2794-49.7957 55.7977-49.065C54.3427-55.379 56.3304-61.9953 61.0209-66.4339C68.2925-73.3166 79.7292-72.9639 86.5647-65.6455C90.608-66.4483 94.4834-67.9422 98.0299-70.0588C96.6821-65.8507 93.8613-62.2761 90.0932-60.0047C93.6719-60.4294 97.1683-61.3942 100.461-62.8665C98.037-59.2091 94.9839-56.0233 91.4518-53.4495Z"/>
  </g>
  <g id="Thin-M" transform="matrix(1 0 0 1 800.527 1126)">
   <path class="monochrome-0 multicolor-0:custom SFSymbolsPreview1D9BF0" d="M90.5541-52.68C90.6072-51.9097 90.6072-51.1394 90.6072-50.362C90.6072-26.6744 72.6522 0.6447 39.8209 0.6447L39.8209 0.630501C30.1224 0.6447 20.6254-2.14542 12.4609-7.40619C13.8711-7.2358 15.2884-7.15061 16.7093-7.14706C24.7466-7.13996 32.5541-9.84844 38.8772-14.8359C31.2393-14.9814 24.5416-19.983 22.2018-27.2849C24.8774-26.7667 27.6342-26.8732 30.2603-27.5938C21.9332-29.2835 15.9423-36.6315 15.9423-45.1652L15.9423-45.3923C18.4235-44.0044 21.2015-43.2341 24.0432-43.1489C16.2003-48.4132 13.7828-58.8921 18.5189-67.085C27.5812-55.8855 40.9519-49.077 55.3053-48.3564C53.8668-54.5827 55.8319-61.1072 60.4691-65.4841C67.6581-72.2712 78.9647-71.9234 85.7226-64.7067C89.72-65.4983 93.5513-66.9714 97.0575-69.0587C95.725-64.909 92.9363-61.3841 89.2111-59.1442C92.749-59.563 96.2057-60.5144 99.4609-61.9662C97.0646-58.3597 94.0462-55.2181 90.5541-52.68Z"/>
  </g>
  <g id="Ultralight-M" transform="matrix(1 0 0 1 504.816 1126)">
   <path class="monochrome-0 multicolor-0:custom SFSymbolsPreview1D9BF0" d="M88.7589-52.6563C88.8107-51.9077 88.8107-51.1591 88.8107-50.4036C88.8107-27.3832 71.2685-0.8337 39.192-0.8337L39.192-0.847499C29.7164-0.8337 20.4377-3.54523 12.4609-8.65781C13.8387-8.49222 15.2234-8.40942 16.6116-8.40597C24.4642-8.39907 32.0922-11.0313 38.27-15.8782C30.8076-16.0196 24.2639-20.8804 21.9779-27.9766C24.5919-27.4729 27.2854-27.5764 29.8511-28.2767C21.7154-29.9188 15.8623-37.0599 15.8623-45.3531L15.8623-45.5739C18.2864-44.2251 21.0006-43.4765 23.777-43.3937C16.1144-48.5097 13.7524-58.6934 18.3796-66.6555C27.2336-55.7715 40.297-49.1548 54.3203-48.4545C52.9149-54.5054 54.8349-60.8461 59.3654-65.0997C66.3892-71.6957 77.4359-71.3576 84.0384-64.3442C87.9439-65.1135 91.6872-66.5452 95.1127-68.5736C93.8109-64.5408 91.0863-61.1152 87.4467-58.9384C90.9033-59.3455 94.2805-60.27 97.4609-61.681C95.1196-58.176 92.1706-55.1229 88.7589-52.6563Z"/>
  </g>
  <g id="Black-S" transform="matrix(1 0 0 1 2883.01 696)">
   <path class="monochrome-0 multicolor-0:custom SFSymbolsPreview1D9BF0" d="M80.6803-50.9051C80.7266-50.2324 80.7266-49.5597 80.7266-48.8809C80.7266-28.1959 65.0418-4.3398 36.3616-4.3398L36.3616-4.3522C27.8894-4.3398 19.5931-6.77625 12.4609-11.3702C13.6928-11.2214 14.9309-11.147 16.1721-11.1439C23.1932-11.1377 30.0136-13.5028 35.5372-17.858C28.865-17.9851 23.0141-22.3528 20.9702-28.7291C23.3075-28.2765 25.7157-28.3695 28.0098-28.9987C20.7355-30.4743 15.5021-36.8908 15.5021-44.3428L15.5021-44.5412C17.6696-43.3291 20.0964-42.6565 22.5788-42.5821C15.7275-47.1791 13.6156-56.3297 17.753-63.4841C25.6694-53.7042 37.3496-47.7588 49.8882-47.1295C48.6315-52.5666 50.3482-58.264 54.3991-62.0861C60.6791-68.0129 70.5562-67.7091 76.4596-61.4072C79.9516-62.0985 83.2985-63.3849 86.3614-65.2076C85.1974-61.5839 82.7613-58.5058 79.507-56.5498C82.5976-56.9156 85.6173-57.7463 88.4609-59.0141C86.3675-55.8647 83.7308-53.1214 80.6803-50.9051Z"/>
  </g>
  <g id="Heavy-S" transform="matrix(1 0 0 1 2586.79 696)">
   <path class="monochrome-0 multicolor-0:custom SFSymbolsPreview1D9BF0" d="M79.7827-50.5548C79.8284-49.893 79.8284-49.2312 79.8284-48.5633C79.8284-28.2119 64.35-4.7406 36.0471-4.7406L36.0471-4.7528C27.6864-4.7406 19.4993-7.13775 12.4609-11.6576C13.6766-11.5112 14.8984-11.438 16.1233-11.4349C23.052-11.4288 29.7827-13.7558 35.2336-18.0408C28.6492-18.1659 22.8753-22.463 20.8582-28.7365C23.1647-28.2912 25.5413-28.3827 27.8052-29.0018C20.6267-30.4535 15.4621-36.7666 15.4621-44.0984L15.4621-44.2936C17.6011-43.1011 19.9959-42.4393 22.4457-42.3661C15.6845-46.8889 13.6004-55.892 17.6833-62.9309C25.4956-53.3088 37.0221-47.4593 49.3957-46.8401C48.1556-52.1895 49.8497-57.7951 53.8472-61.5555C60.0447-67.3867 69.7918-67.0878 75.6175-60.8876C79.0636-61.5677 82.3664-62.8333 85.389-64.6266C84.2403-61.0614 81.8363-58.0329 78.6248-56.1085C81.6748-56.4684 84.6547-57.2857 87.4609-58.5331C85.3951-55.4345 82.793-52.7354 79.7827-50.5548Z"/>
  </g>
  <g id="Bold-S" transform="matrix(1 0 0 1 2291.08 696)">
   <path class="monochrome-0 multicolor-0:custom SFSymbolsPreview1D9BF0" d="M77.9874-50.1335C78.0319-49.4825 78.0319-48.8315 78.0319-48.1746C78.0319-28.1568 62.9663-5.0703 35.4182-5.0703L35.4182-5.0823C27.2804-5.0703 19.3116-7.42815 12.4609-11.8739C13.6442-11.7299 14.8334-11.6579 16.0256-11.6549C22.7696-11.6489 29.3207-13.9377 34.6263-18.1525C28.2175-18.2755 22.5976-22.5022 20.6343-28.6728C22.8793-28.2348 25.1925-28.3248 27.396-28.9338C20.4089-30.3617 15.3821-36.5713 15.3821-43.7829L15.3821-43.9748C17.464-42.8019 19.795-42.151 22.1794-42.079C15.5986-46.5277 13.5701-55.3831 17.5441-62.3067C25.148-52.8423 36.3672-47.0886 48.4108-46.4797C47.2037-51.7414 48.8527-57.255 52.7436-60.9538C58.7758-66.6894 68.263-66.3954 73.9333-60.2968C77.2875-60.9658 80.5023-62.2107 83.4442-63.9746C82.3262-60.4678 79.9863-57.489 76.8605-55.5961C79.8291-55.9501 82.7295-56.754 85.4609-57.981C83.4502-54.9332 80.9175-52.2783 77.9874-50.1335Z"/>
  </g>
  <g id="Semibold-S" transform="matrix(1 0 0 1 1994.37 696)">
   <path class="monochrome-0 multicolor-0:custom SFSymbolsPreview1D9BF0" d="M77.9874-49.6714C78.0319-49.0204 78.0319-48.3694 78.0319-47.7125C78.0319-27.6947 62.9663-4.6082 35.4182-4.6082L35.4182-4.6202C27.2804-4.6082 19.3116-6.96605 12.4609-11.4118C13.6442-11.2678 14.8334-11.1958 16.0256-11.1928C22.7696-11.1868 29.3207-13.4756 34.6263-17.6904C28.2175-17.8134 22.5976-22.0401 20.6343-28.2107C22.8793-27.7727 25.1925-27.8627 27.396-28.4717C20.4089-29.8996 15.3821-36.1092 15.3821-43.3208L15.3821-43.5127C17.464-42.3398 19.795-41.6889 22.1794-41.6169C15.5986-46.0656 13.5701-54.921 17.5441-61.8446C25.148-52.3802 36.3672-46.6265 48.4108-46.0176C47.2037-51.2793 48.8527-56.7929 52.7436-60.4917C58.7758-66.2273 68.263-65.9333 73.9333-59.8347C77.2875-60.5037 80.5023-61.7486 83.4442-63.5125C82.3262-60.0057 79.9863-57.0269 76.8605-55.134C79.8291-55.488 82.7295-56.2919 85.4609-57.5189C83.4502-54.4711 80.9175-51.8162 77.9874-49.6714Z"/>
  </g>
  <g id="Medium-S" transform="matrix(1 0 0 1 1698.66 696)">
   <path class="monochrome-0 multicolor-0:custom SFSymbolsPreview1D9BF0" d="M76.1922-49.5611C76.2354-48.9318 76.2354-48.3025 76.2354-47.6675C76.2354-28.317 61.5826-6 34.7892-6L34.7892-6.0116C26.8743-6 19.1239-8.27926 12.4609-12.5768C13.6118-12.4376 14.7684-12.368 15.928-12.3651C22.4871-12.3593 28.8588-14.5719 34.0191-18.6461C27.7858-18.765 22.3198-22.8508 20.4104-28.8158C22.5939-28.3924 24.8437-28.4794 26.9868-29.068C20.1911-30.4484 15.3021-36.451 15.3021-43.4221L15.3021-43.6077C17.3269-42.4739 19.5941-41.8446 21.9131-41.775C15.5126-46.0755 13.5397-54.6357 17.4048-61.3285C24.8004-52.1796 35.7122-46.6177 47.4258-46.0291C46.2519-51.1154 47.8556-56.4452 51.64-60.0207C57.5069-65.5651 66.7341-65.281 72.2492-59.3856C75.5114-60.0323 78.6381-61.2357 81.4995-62.9408C80.4121-59.5509 78.1363-56.6714 75.0961-54.8416C77.9834-55.1838 80.8043-55.9609 83.4609-57.147C81.5053-54.2008 79.042-51.6344 76.1922-49.5611Z"/>
  </g>
  <g id="Regular-S" transform="matrix(1 0 0 1 1401.95 696)">
   <path class="monochrome-0 multicolor-0:custom SFSymbolsPreview1D9BF0" d="M76.1922-49.3619C76.2354-48.7326 76.2354-48.1033 76.2354-47.4683C76.2354-28.1178 61.5826-5.8008 34.7892-5.8008L34.7892-5.8124C26.8743-5.8008 19.1239-8.08006 12.4609-12.3776C13.6118-12.2384 14.7684-12.1688 15.928-12.1659C22.4871-12.1601 28.8588-14.3727 34.0191-18.4469C27.7858-18.5658 22.3198-22.6516 20.4104-28.6166C22.5939-28.1932 24.8437-28.2802 26.9868-28.8688C20.1911-30.2492 15.3021-36.2518 15.3021-43.2229L15.3021-43.4085C17.3269-42.2747 19.5941-41.6454 21.9131-41.5758C15.5126-45.8763 13.5397-54.4365 17.4048-61.1293C24.8004-51.9804 35.7122-46.4185 47.4258-45.8299C46.2519-50.9162 47.8556-56.246 51.64-59.8215C57.5069-65.3659 66.7341-65.0818 72.2492-59.1864C75.5114-59.8331 78.6381-61.0365 81.4995-62.7416C80.4121-59.3517 78.1363-56.4722 75.0961-54.6424C77.9834-54.9846 80.8043-55.7617 83.4609-56.9478C81.5053-54.0016 79.042-51.4352 76.1922-49.3619Z"/>
  </g>
  <g id="Light-S" transform="matrix(1 0 0 1 1105.74 696)">
   <path class="monochrome-0 multicolor-0:custom SFSymbolsPreview1D9BF0" d="M75.2945-49.9296C75.3372-49.3112 75.3372-48.6928 75.3372-48.0687C75.3372-29.0518 60.8907-7.1196 34.4747-7.1196L34.4747-7.131C26.6713-7.1196 19.0301-9.35956 12.4609-13.583C13.5956-13.4462 14.7359-13.3778 15.8791-13.375C22.3459-13.3693 28.6279-15.5437 33.7154-19.5477C27.57-19.6645 22.181-23.6799 20.2984-29.542C22.4511-29.1259 24.6693-29.2114 26.7822-29.7899C20.0823-31.1464 15.262-37.0456 15.262-43.8965L15.262-44.0789C17.2584-42.9646 19.4936-42.3462 21.78-42.2778C15.4696-46.5041 13.5245-54.9168 17.3352-61.4942C24.6267-52.503 35.3847-47.037 46.9334-46.4585C45.776-51.4571 47.3571-56.6951 51.0882-60.2089C56.8724-65.6578 65.9697-65.3785 71.4071-59.5848C74.6234-60.2203 77.7061-61.403 80.5271-63.0787C79.455-59.7472 77.2113-56.9174 74.2139-55.1191C77.0605-55.4554 79.8418-56.2192 82.4609-57.3847C80.5328-54.4893 78.1042-51.9672 75.2945-49.9296Z"/>
  </g>
  <g id="Thin-S" transform="matrix(1 0 0 1 810.027 696)">
   <path class="monochrome-0 multicolor-0:custom SFSymbolsPreview1D9BF0" d="M73.4993-49.3079C73.5407-48.7112 73.5407-48.1145 73.5407-47.5123C73.5407-29.1627 59.507-8 33.8457-8L33.8457-8.011C26.2653-8 18.8424-10.1614 12.4609-14.2366C13.5632-14.1046 14.6709-14.0386 15.7815-14.0359C22.0635-14.0304 28.166-16.1285 33.1081-19.992C27.1383-20.1047 21.9033-23.9792 20.0745-29.6356C22.1657-29.2342 24.3205-29.3167 26.3731-29.8749C19.8645-31.1838 15.182-36.8759 15.182-43.4865L15.182-43.6625C17.1213-42.5873 19.2927-41.9906 21.5138-41.9246C15.3837-46.0026 13.4941-54.1201 17.1959-60.4667C24.2791-51.791 34.7298-46.5168 45.9484-45.9586C44.8241-50.7818 46.3601-55.836 49.9845-59.2265C55.6035-64.4842 64.4409-64.2147 69.7229-58.6243C72.8473-59.2375 75.8419-60.3787 78.5824-61.9956C77.5409-58.781 75.3612-56.0505 72.4495-54.3153C75.2148-54.6398 77.9166-55.3768 80.4609-56.5014C78.5879-53.7076 76.2287-51.274 73.4993-49.3079Z"/>
  </g>
  <g id="Ultralight-S" transform="matrix(1 0 0 1 513.316 696)">
   <path class="monochrome-0 multicolor-0:custom SFSymbolsPreview1D9BF0" d="M73.4993-48.3079C73.5407-47.7112 73.5407-47.1145 73.5407-46.5123C73.5407-28.1627 59.507-7 33.8457-7L33.8457-7.011C26.2653-7 18.8424-9.16136 12.4609-13.2366C13.5632-13.1046 14.6709-13.0386 15.7815-13.0359C22.0635-13.0304 28.166-15.1285 33.1081-18.992C27.1383-19.1047 21.9033-22.9792 20.0745-28.6356C22.1657-28.2342 24.3205-28.3167 26.3731-28.8749C19.8645-30.1838 15.182-35.8759 15.182-42.4865L15.182-42.6625C17.1213-41.5873 19.2927-40.9906 21.5138-40.9246C15.3837-45.0026 13.4941-53.1201 17.1959-59.4667C24.2791-50.791 34.7298-45.5168 45.9484-44.9586C44.8241-49.7818 46.3601-54.836 49.9845-58.2265C55.6035-63.4842 64.4409-63.2147 69.7229-57.6243C72.8473-58.2375 75.8419-59.3787 78.5824-60.9956C77.5409-57.781 75.3612-55.0505 72.4495-53.3153C75.2148-53.6398 77.9166-54.3768 80.4609-55.5014C78.5879-52.7076 76.2287-50.274 73.4993-48.3079Z"/>
  </g>
 </g>
</svg>
