<?xml version="1.0" encoding="UTF-8"?>
<svg height="600" width="800" xmlns="http://www.w3.org/2000/svg" xmlns:xlink="http://www.w3.org/1999/xlink">
    <g id="Notes" font-family="'LucidaGrande', 'Lucida Grande', sans-serif" font-size="13">
        <rect fill="white" height="600.0" width="800.0" x="0.0" y="0.0" />
        <g font-size="13">
            <text x="18.0" y="176.0">Small</text>
            <text x="18.0" y="376.0">Medium</text>
            <text x="18.0" y="576.0">Large</text>
        </g>
        <g font-size="9">
            <text x="250.0" y="30.0">Ultralight</text>
            <text x="450.0" y="30.0">Regular</text>
            <text x="650.0" y="30.0">Black</text>
            <text id="template-version" fill="#505050" text-anchor="end" x="785.0" y="575.0">Template v.3.0</text>
            <a href="https://wangchujiang.com/#/app">
                <text fill="#505050" text-anchor="end" x="785.0" y="590.0">https://wangchujiang.com/#/app</text>
            </a>
        </g>
    </g>
    <g id="Guides" stroke="rgb(39, 170, 225)" stroke-width="0.5">
        <path id="Capline-S" d="M18,76 l800,0" />
        <path id="H-reference" d="M85,145.755 L87.685,145.755 L113.369,79.287 L114.052,79.287 L114.052,76 L112.148,76 L85,145.755 Z M95.693,121.536 L130.996,121.536 L130.263,119.313 L96.474,119.313 L95.693,121.536 Z M139.15,145.755 L141.787,145.755 L114.638,76 L113.466,76 L113.466,79.287 L139.15,145.755 Z" stroke="none" />
        <path id="Baseline-S" d="M18,146 l800,0" />
        <path id="left-margin-Ultralight-S" d="M211,56 l0,110" />
        <path id="right-margin-Ultralight-S" d="M319,56 l0,110" />
        <path id="left-margin-Regular-S" d="M411,56 l0,110" />
        <path id="right-margin-Regular-S" d="M519,56 l0,110" />
        <path id="left-margin-Black-S" d="M611,56 l0,110" />
        <path id="right-margin-Black-S" d="M719,56 l0,110" />
        <path id="Capline-M" d="M18,276 l800,0" />
        <path id="Baseline-M" d="M18,346 l800,0" />
        <path id="Capline-L" d="M18,476 l800,0" />
        <path id="Baseline-L" d="M18,546 l800,0" />
    </g>
    <g id="Symbols">
        <g id="Ultralight-S">
            <path d="M281.082,130.428 L281.528,128.861 C282.069,127.005 281.867,125.277 280.965,124.018 C280.137,122.855 278.757,122.173 277.08,122.088 L245.34,121.682 C245.128,121.672 244.948,121.576 244.842,121.416 C244.735,121.256 244.704,121.042 244.778,120.84 C244.884,120.53 245.192,120.285 245.51,120.274 L277.536,119.869 C281.336,119.698 285.445,116.594 286.888,112.819 L288.714,108.019 C288.767,107.891 288.788,107.752 288.788,107.613 C288.788,107.539 288.778,107.464 288.767,107.389 C286.708,98.014 278.375,91.006 268.428,91.006 C259.257,91.006 251.465,96.958 248.674,105.224 C246.869,103.87 244.566,103.144 242.082,103.39 C237.676,103.827 234.142,107.389 233.706,111.816 C233.59,112.968 233.685,114.066 233.95,115.112 C226.764,115.325 221,121.245 221,128.509 C221,129.17 221.053,129.81 221.138,130.45 C221.18,130.759 221.446,130.983 221.754,130.983 L280.339,130.994 C280.349,130.994 280.349,130.994 280.36,130.994 C280.689,130.983 280.986,130.759 281.082,130.428 Z" />
            <path d="M291.655,108.373 C291.358,108.373 291.071,108.383 290.774,108.394 C290.721,108.394 290.678,108.404 290.636,108.426 C290.487,108.479 290.36,108.607 290.317,108.767 L289.065,113.098 C288.523,114.954 288.725,116.681 289.627,117.94 C290.455,119.103 291.835,119.785 293.512,119.871 L300.274,120.276 C300.476,120.287 300.646,120.383 300.752,120.543 C300.869,120.703 300.89,120.916 300.826,121.119 C300.72,121.428 300.412,121.673 300.094,121.684 L293.067,122.089 C289.256,122.271 285.137,125.364 283.693,129.14 L283.184,130.473 C283.088,130.718 283.269,130.974 283.513,130.985 C283.524,130.985 283.524,130.985 283.534,130.985 L307.726,130.985 C308.013,130.985 308.267,130.793 308.353,130.516 C308.777,129.012 309,127.433 309,125.791 C309,116.18 301.23,108.373 291.655,108.373 Z" />
        </g>
        <g id="Regular-S">
            <path d="M481.082,130.428 L481.528,128.861 C482.069,127.005 481.867,125.277 480.965,124.018 C480.137,122.855 478.757,122.173 477.08,122.088 L445.34,121.682 C445.128,121.672 444.948,121.576 444.842,121.416 C444.735,121.256 444.704,121.042 444.778,120.84 C444.884,120.53 445.192,120.285 445.51,120.274 L477.536,119.869 C481.336,119.698 485.445,116.594 486.888,112.819 L488.714,108.019 C488.767,107.891 488.788,107.752 488.788,107.613 C488.788,107.539 488.778,107.464 488.767,107.389 C486.708,98.014 478.375,91.006 468.428,91.006 C459.257,91.006 451.465,96.958 448.674,105.224 C446.869,103.87 444.566,103.144 442.082,103.39 C437.676,103.827 434.142,107.389 433.706,111.816 C433.59,112.968 433.685,114.066 433.95,115.112 C426.764,115.325 421,121.245 421,128.509 C421,129.17 421.053,129.81 421.138,130.45 C421.18,130.759 421.446,130.983 421.754,130.983 L480.339,130.994 C480.349,130.994 480.349,130.994 480.36,130.994 C480.689,130.983 480.986,130.759 481.082,130.428 Z" />
            <path d="M491.655,108.373 C491.358,108.373 491.071,108.383 490.774,108.394 C490.721,108.394 490.678,108.404 490.636,108.426 C490.487,108.479 490.36,108.607 490.317,108.767 L489.065,113.098 C488.523,114.954 488.725,116.681 489.627,117.94 C490.455,119.103 491.835,119.785 493.512,119.871 L500.274,120.276 C500.476,120.287 500.646,120.383 500.752,120.543 C500.869,120.703 500.89,120.916 500.826,121.119 C500.72,121.428 500.412,121.673 500.094,121.684 L493.067,122.089 C489.256,122.271 485.137,125.364 483.693,129.14 L483.184,130.473 C483.088,130.718 483.269,130.974 483.513,130.985 C483.524,130.985 483.524,130.985 483.534,130.985 L507.726,130.985 C508.013,130.985 508.268,130.793 508.353,130.516 C508.777,129.012 509,127.433 509,125.791 C509,116.18 501.23,108.373 491.655,108.373 Z" />
        </g>
        <g id="Black-S">
            <path d="M681.082,130.428 L681.528,128.861 C682.069,127.005 681.867,125.277 680.965,124.018 C680.137,122.855 678.757,122.173 677.08,122.088 L645.34,121.682 C645.128,121.672 644.948,121.576 644.842,121.416 C644.735,121.256 644.704,121.042 644.778,120.84 C644.884,120.53 645.192,120.285 645.51,120.274 L677.536,119.869 C681.336,119.698 685.445,116.594 686.888,112.819 L688.714,108.019 C688.767,107.891 688.788,107.752 688.788,107.613 C688.788,107.539 688.778,107.464 688.767,107.389 C686.708,98.014 678.375,91.006 668.428,91.006 C659.257,91.006 651.466,96.958 648.674,105.224 C646.869,103.87 644.566,103.144 642.082,103.39 C637.676,103.827 634.142,107.389 633.706,111.816 C633.59,112.968 633.685,114.066 633.95,115.112 C626.764,115.325 621,121.245 621,128.509 C621,129.17 621.053,129.81 621.138,130.45 C621.18,130.759 621.446,130.983 621.754,130.983 L680.339,130.994 C680.349,130.994 680.349,130.994 680.36,130.994 C680.689,130.983 680.986,130.759 681.082,130.428 Z" />
            <path d="M691.655,108.373 C691.358,108.373 691.071,108.383 690.774,108.394 C690.721,108.394 690.678,108.404 690.636,108.426 C690.487,108.479 690.36,108.607 690.317,108.767 L689.065,113.098 C688.523,114.954 688.725,116.681 689.627,117.94 C690.455,119.103 691.835,119.785 693.512,119.871 L700.274,120.276 C700.476,120.287 700.646,120.383 700.752,120.543 C700.869,120.703 700.89,120.916 700.826,121.119 C700.72,121.428 700.412,121.673 700.094,121.684 L693.067,122.089 C689.256,122.271 685.137,125.364 683.693,129.14 L683.184,130.473 C683.088,130.718 683.269,130.974 683.513,130.985 C683.524,130.985 683.524,130.985 683.534,130.985 L707.726,130.985 C708.013,130.985 708.268,130.793 708.353,130.516 C708.777,129.012 709,127.433 709,125.791 C709,116.18 701.23,108.373 691.655,108.373 Z" />
        </g>
    </g>
</svg>