<?xml version="1.0" encoding="UTF-8"?>
<!-- Generated by Pixelmator Pro 3.6.9 -->
<svg width="3300" height="2200" viewBox="0 0 3300 2200" xmlns="http://www.w3.org/2000/svg">
    <g id="Notes">
        <path id="artboard" fill="#ffffff" stroke="none" d="M 0 0 L 3300 0 L 3300 2200 L 0 2200 Z"/>
        <path id="Pfad" fill="none" stroke="#000000" stroke-width="0.5" d="M 263 292 L 3036 292"/>
        <text id="WeightScale-Variations" xml:space="preserve" x="261" y="326" font-family="Helvetica" font-size="13" font-weight="700" fill="#000000">Weight/Scale Variations</text>
        <text id="Ultralight" xml:space="preserve" x="531" y="326" font-family="Helvetica" font-size="13" fill="#000000">Ultralight</text>
        <text id="Thin" xml:space="preserve" x="840" y="326" font-family="Helvetica" font-size="13" fill="#000000">Thin</text>
        <text id="Light" xml:space="preserve" x="1136" y="326" font-family="Helvetica" font-size="13" fill="#000000">Light</text>
        <text id="Regular" xml:space="preserve" x="1424" y="326" font-family="Helvetica" font-size="13" fill="#000000">Regular</text>
        <text id="Medium" xml:space="preserve" x="1720" y="326" font-family="Helvetica" font-size="13" fill="#000000">Medium</text>
        <text id="Semibold" xml:space="preserve" x="2013" y="326" font-family="Helvetica" font-size="13" fill="#000000">Semibold</text>
        <text id="Bold" xml:space="preserve" x="2323" y="326" font-family="Helvetica" font-size="13" fill="#000000">Bold</text>
        <text id="Heavy" xml:space="preserve" x="2615" y="326" font-family="Helvetica" font-size="13" fill="#000000">Heavy</text>
        <text id="Black" xml:space="preserve" x="2914" y="326" font-family="Helvetica" font-size="13" fill="#000000">Black</text>
        <path id="path1" fill="none" stroke="#000000" stroke-width="0.5" d="M 263 1903 L 3036 1903"/>
        <g id="Gruppe">
            <path id="path2" fill="#000000" stroke="none" d="M 272.248047 1933.830078 C 276.554688 1933.830078 280.138702 1930.255859 280.138702 1925.949219 C 280.138702 1921.642578 276.544891 1918.068359 272.238281 1918.068359 C 267.941406 1918.068359 264.367188 1921.642578 264.367188 1925.949219 C 264.367188 1930.255859 267.951172 1933.830078 272.248047 1933.830078 Z M 272.248047 1932.345703 C 268.703125 1932.345703 265.871094 1929.503906 265.871094 1925.949219 C 265.871094 1922.394531 268.693359 1919.552734 272.238281 1919.552734 C 275.792999 1919.552734 278.644501 1922.394531 278.644501 1925.949219 C 278.644501 1929.503906 275.802704 1932.345703 272.248047 1932.345703 Z M 268.654297 1925.949219 C 268.654297 1926.378906 268.957031 1926.671875 269.40625 1926.671875 L 271.505859 1926.671875 L 271.505859 1928.791016 C 271.505859 1929.230469 271.798828 1929.533203 272.228516 1929.533203 C 272.677734 1929.533203 272.970703 1929.230469 272.970703 1928.791016 L 272.970703 1926.671875 L 275.089813 1926.671875 C 275.529297 1926.671875 275.832001 1926.378906 275.832001 1925.949219 C 275.832001 1925.509766 275.529297 1925.207031 275.089813 1925.207031 L 272.970703 1925.207031 L 272.970703 1923.097656 C 272.970703 1922.648438 272.677734 1922.345703 272.228516 1922.345703 C 271.798828 1922.345703 271.505859 1922.648438 271.505859 1923.097656 L 271.505859 1925.207031 L 269.40625 1925.207031 C 268.957031 1925.207031 268.654297 1925.509766 268.654297 1925.949219 Z"/>
        </g>
        <g id="g1">
            <path id="path3" fill="#000000" stroke="none" d="M 293.575989 1935.910156 C 299.025208 1935.910156 303.536896 1931.388672 303.536896 1925.949219 C 303.536896 1920.5 299.015411 1915.988281 293.566193 1915.988281 C 288.12677 1915.988281 283.615051 1920.5 283.615051 1925.949219 C 283.615051 1931.388672 288.136536 1935.910156 293.575989 1935.910156 Z M 293.575989 1934.25 C 288.966614 1934.25 285.284973 1930.558594 285.284973 1925.949219 C 285.284973 1921.339844 288.956848 1917.648438 293.566193 1917.648438 C 298.175598 1917.648438 301.876801 1921.339844 301.876801 1925.949219 C 301.876801 1930.558594 298.185394 1934.25 293.575989 1934.25 Z M 289.044739 1925.949219 C 289.044739 1926.427734 289.37677 1926.75 289.874817 1926.75 L 292.745911 1926.75 L 292.745911 1929.630859 C 292.745911 1930.119141 293.077911 1930.460938 293.556488 1930.460938 C 294.044708 1930.460938 294.386505 1930.128906 294.386505 1929.630859 L 294.386505 1926.75 L 297.267395 1926.75 C 297.755707 1926.75 298.097504 1926.427734 298.097504 1925.949219 C 298.097504 1925.460938 297.755707 1925.119141 297.267395 1925.119141 L 294.386505 1925.119141 L 294.386505 1922.248047 C 294.386505 1921.75 294.044708 1921.408203 293.556488 1921.408203 C 293.077911 1921.408203 292.745911 1921.75 292.745911 1922.248047 L 292.745911 1925.119141 L 289.874817 1925.119141 C 289.37677 1925.119141 289.044739 1925.460938 289.044739 1925.949219 Z"/>
        </g>
        <g id="g2">
            <path id="path4" fill="#000000" stroke="none" d="M 320.616699 1938.664063 C 327.57959 1938.664063 333.341309 1932.902344 333.341309 1925.949219 C 333.341309 1918.986328 327.569794 1913.224609 320.606903 1913.224609 C 313.653809 1913.224609 307.901855 1918.986328 307.901855 1925.949219 C 307.901855 1932.902344 313.663574 1938.664063 320.616699 1938.664063 Z M 320.616699 1936.847656 C 314.581543 1936.847656 309.728027 1931.984375 309.728027 1925.949219 C 309.728027 1919.904297 314.571777 1915.050781 320.606903 1915.050781 C 326.651886 1915.050781 331.515106 1919.904297 331.515106 1925.949219 C 331.515106 1931.984375 326.661591 1936.847656 320.616699 1936.847656 Z M 314.845215 1925.949219 C 314.845215 1926.466797 315.216309 1926.828125 315.763214 1926.828125 L 319.708496 1926.828125 L 319.708496 1930.783203 C 319.708496 1931.320313 320.07959 1931.701172 320.597198 1931.701172 C 321.134308 1931.701172 321.505402 1931.330078 321.505402 1930.783203 L 321.505402 1926.828125 L 325.46051 1926.828125 C 325.997589 1926.828125 326.378387 1926.466797 326.378387 1925.949219 C 326.378387 1925.402344 326.007294 1925.03125 325.46051 1925.03125 L 321.505402 1925.03125 L 321.505402 1921.085938 C 321.505402 1920.539063 321.134308 1920.158203 320.597198 1920.158203 C 320.07959 1920.158203 319.708496 1920.539063 319.708496 1921.085938 L 319.708496 1925.03125 L 315.763214 1925.03125 C 315.216309 1925.03125 314.845215 1925.402344 314.845215 1925.949219 Z"/>
        </g>
        <text id="Design-Variations" xml:space="preserve" x="261" y="1957" font-family="Helvetica" font-size="13" font-weight="700" fill="#000000">Design Variations</text>
        <text id="Symbols-are-supported-in" xml:space="preserve" x="261" y="1975" font-family="Helvetica" font-size="13" fill="#000000">Symbols are supported in up to nine weights and three scales.</text>
        <text id="For-optimal-layout-with" xml:space="preserve" x="261" y="1993" font-family="Helvetica" font-size="13" fill="#000000">For optimal layout with text and other symbols, vertically align</text>
        <text id="symbols-with-the-adjacent" xml:space="preserve" x="261" y="2011" font-family="Helvetica" font-size="13" fill="#000000">symbols with the adjacent text.</text>
        <path id="path5" fill="none" stroke="#00aeef" stroke-width="0.5" d="M 776 1919 L 776 1933"/>
        <g id="g3">
            <path id="path6" fill="#000000" stroke="none" d="M 779.310547 1933.15625 C 779.828125 1933.15625 780.082031 1932.960938 780.267578 1932.414063 L 781.527344 1928.966797 L 787.289124 1928.966797 L 788.548828 1932.414063 C 788.734375 1932.960938 788.988281 1933.15625 789.496094 1933.15625 C 790.013672 1933.15625 790.345703 1932.84375 790.345703 1932.355469 C 790.345703 1932.189453 790.316406 1932.033203 790.238281 1931.828125 L 785.658203 1919.630859 C 785.433594 1919.035156 785.033203 1918.732422 784.408203 1918.732422 C 783.802734 1918.732422 783.392578 1919.025391 783.177734 1919.621094 L 778.597656 1931.837891 C 778.519531 1932.042969 778.490234 1932.199219 778.490234 1932.365234 C 778.490234 1932.853516 778.802734 1933.15625 779.310547 1933.15625 Z M 782.005859 1927.482422 L 784.378906 1920.910156 L 784.427734 1920.910156 L 786.800781 1927.482422 Z"/>
        </g>
        <path id="path7" fill="none" stroke="#00aeef" stroke-width="0.5" d="M 793.197021 1919 L 793.197021 1933"/>
        <text id="Margins" xml:space="preserve" x="774" y="1957" font-family="Helvetica" font-size="13" font-weight="700" fill="#000000">Margins</text>
        <text id="Leading-and-trailing-margins" xml:space="preserve" x="774" y="1975" font-family="Helvetica" font-size="13" fill="#000000">Leading and trailing margins on the left and right side of each symbol</text>
        <text id="can-be-adjusted-by" xml:space="preserve" x="774" y="1993" font-family="Helvetica" font-size="13" fill="#000000">can be adjusted by modifying the x-location of the margin guidelines.</text>
        <text id="Modifications-are-automatically-applied" xml:space="preserve" x="774" y="2011" font-family="Helvetica" font-size="13" fill="#000000">Modifications are automatically applied proportionally to all</text>
        <text id="scales-and-weights" xml:space="preserve" x="774" y="2029" font-family="Helvetica" font-size="13" fill="#000000">scales and weights.</text>
        <g id="g4">
            <path id="path8" fill="#000000" stroke="none" d="M 1291.841797 1934.865234 L 1293.541016 1936.574219 C 1294.400391 1937.443359 1295.386719 1937.384766 1296.314453 1936.359375 L 1307.007813 1924.572266 L 1306.041016 1923.595703 L 1295.425781 1935.275391 C 1295.074219 1935.675781 1294.742188 1935.773438 1294.273438 1935.304688 L 1293.101563 1934.142578 C 1292.632813 1933.683594 1292.740234 1933.341797 1293.140625 1932.980469 L 1304.615234 1922.179688 L 1303.638672 1921.212891 L 1292.046875 1932.101563 C 1291.060547 1933.019531 1290.982422 1933.996094 1291.841797 1934.865234 Z M 1298.257813 1916.671875 C 1297.837891 1917.082031 1297.808594 1917.658203 1298.042969 1918.048828 C 1298.277344 1918.410156 1298.736328 1918.644531 1299.380859 1918.478516 C 1300.845703 1918.136719 1302.369141 1918.078125 1303.794922 1919.015625 L 1303.208984 1920.470703 C 1302.867188 1921.300781 1303.042969 1921.886719 1303.580078 1922.433594 L 1305.875 1924.748047 C 1306.363281 1925.236328 1306.773438 1925.255859 1307.339844 1925.158203 L 1308.404297 1924.962891 L 1309.068359 1925.636719 L 1309.029297 1926.193359 C 1308.990234 1926.691406 1309.117188 1927.072266 1309.605469 1927.550781 L 1310.367188 1928.292969 C 1310.845703 1928.771484 1311.460938 1928.800781 1311.929688 1928.332031 L 1314.839844 1925.412109 C 1315.308594 1924.943359 1315.289063 1924.347656 1314.810547 1923.869141 L 1314.039063 1923.107422 C 1313.560547 1922.628906 1313.189453 1922.472656 1312.710938 1922.511719 L 1312.134766 1922.560547 L 1311.490234 1921.925781 L 1311.734375 1920.802734 C 1311.861328 1920.236328 1311.705078 1919.796875 1311.119141 1919.210938 L 1308.921875 1917.023438 C 1305.582031 1913.703125 1301.148438 1913.78125 1298.257813 1916.671875 Z M 1299.751953 1917.042969 C 1302.183594 1915.265625 1305.474609 1915.568359 1307.701172 1917.794922 L 1310.132813 1920.207031 C 1310.367188 1920.441406 1310.40625 1920.626953 1310.337891 1920.96875 L 1310.015625 1922.453125 L 1311.519531 1923.9375 L 1312.505859 1923.878906 C 1312.759766 1923.869141 1312.837891 1923.888672 1313.033203 1924.083984 L 1313.609375 1924.660156 L 1311.167969 1927.101563 L 1310.591797 1926.525391 C 1310.396484 1926.330078 1310.367188 1926.251953 1310.376953 1925.988281 L 1310.445313 1925.011719 L 1308.951172 1923.527344 L 1307.427734 1923.78125 C 1307.105469 1923.849609 1306.958984 1923.820313 1306.714844 1923.585938 L 1304.712891 1921.583984 C 1304.458984 1921.349609 1304.429688 1921.183594 1304.585938 1920.8125 L 1305.464844 1918.722656 C 1303.902344 1917.267578 1301.871094 1916.642578 1299.839844 1917.238281 C 1299.683594 1917.277344 1299.625 1917.150391 1299.751953 1917.042969 Z"/>
        </g>
        <text id="Exporting" xml:space="preserve" x="1287" y="1957" font-family="Helvetica" font-size="13" font-weight="700" fill="#000000">Exporting</text>
        <text id="Symbols-should-be-outlined" xml:space="preserve" x="1287" y="1975" font-family="Helvetica" font-size="13" fill="#000000">Symbols should be outlined when exporting to ensure the</text>
        <text id="design-is-preserved-when" xml:space="preserve" x="1287" y="1993" font-family="Helvetica" font-size="13" fill="#000000">design is preserved when submitting to Xcode.</text>
        <text id="template-version" xml:space="preserve" x="2948" y="1937" font-family="Helvetica" font-size="13" fill="#000000">Template v.4.0</text>
        <text id="Requires-Xcode-14-or" xml:space="preserve" x="2861" y="1955" font-family="Helvetica" font-size="13" fill="#000000">Requires Xcode 14 or greater</text>
        <text id="Generated-from-Ko-fi" xml:space="preserve" x="2907" y="1975" font-family="Helvetica" font-size="13" fill="#000000">Generated from Ko-fi</text>
        <text id="Typeset-at-100-points" xml:space="preserve" x="2908" y="1991" font-family="Helvetica" font-size="13" fill="#000000">Typeset at 100 points</text>
        <text id="Small" xml:space="preserve" x="261" y="730" font-family="Helvetica" font-size="13" fill="#000000">Small</text>
        <text id="text1" xml:space="preserve" x="261" y="1160" font-family="Helvetica" font-size="13" fill="#000000">Medium</text>
        <text id="Large" xml:space="preserve" x="261" y="1590" font-family="Helvetica" font-size="13" fill="#000000">Large</text>
    </g>
    <g id="Guides">
        <g id="H-reference">
            <path id="path9" fill="#27aae1" stroke="none" d="M 339.993652 696 L 342.637756 696 L 368.328094 628.867676 L 369.030304 628.867676 L 369.030304 625.541016 L 367.122589 625.541016 Z M 350.688507 671.520142 L 385.981506 671.520142 L 385.231506 669.271484 L 351.438507 669.271484 Z M 394.119598 696 L 396.763702 696 L 369.638214 625.541016 L 368.432587 625.541016 L 368.432587 628.867676 Z"/>
        </g>
        <path id="Baseline-S" fill="none" stroke="#27aae1" stroke-width="0.5" d="M 263 696 L 3036 696"/>
        <path id="Capline-S" fill="none" stroke="#27aae1" stroke-width="0.5" d="M 263 625.541016 L 3036 625.541016"/>
        <g id="g5">
            <path id="path10" fill="#27aae1" stroke="none" d="M 339.993652 1126 L 342.637756 1126 L 368.328094 1058.867676 L 369.030304 1058.867676 L 369.030304 1055.541016 L 367.122589 1055.541016 Z M 350.688507 1101.520142 L 385.981506 1101.520142 L 385.231506 1099.271484 L 351.438507 1099.271484 Z M 394.119598 1126 L 396.763702 1126 L 369.638214 1055.541016 L 368.432587 1055.541016 L 368.432587 1058.867676 Z"/>
        </g>
        <path id="Baseline-M" fill="none" stroke="#27aae1" stroke-width="0.5" d="M 263 1126 L 3036 1126"/>
        <path id="Capline-M" fill="none" stroke="#27aae1" stroke-width="0.5" d="M 263 1055.540039 L 3036 1055.540039"/>
        <g id="g6">
            <path id="path11" fill="#27aae1" stroke="none" d="M 339.993652 1556 L 342.637756 1556 L 368.328094 1488.867676 L 369.030304 1488.867676 L 369.030304 1485.541016 L 367.122589 1485.541016 Z M 350.688507 1531.52002 L 385.981506 1531.52002 L 385.231506 1529.271484 L 351.438507 1529.271484 Z M 394.119598 1556 L 396.763702 1556 L 369.638214 1485.541016 L 368.432587 1485.541016 L 368.432587 1488.867676 Z"/>
        </g>
        <path id="Baseline-L" fill="none" stroke="#27aae1" stroke-width="0.5" d="M 263 1556 L 3036 1556"/>
        <path id="Capline-L" fill="none" stroke="#27aae1" stroke-width="0.5" d="M 263 1485.540039 L 3036 1485.540039"/>
        <path id="left-margin-Regular-M" fill="none" stroke="#00aeef" stroke-width="0.5" d="M 1391.319946 1030.790039 L 1391.319946 1150.119995"/>
        <path id="right-margin-Regular-M" fill="none" stroke="#00aeef" stroke-width="0.5" d="M 1508.369995 1030.790039 L 1508.369995 1150.119995"/>
    </g>
    <g id="Symbols">
        <g id="Black-L">
            <path id="kofisymbol-Kopie-26" fill="#202020" stroke="none" d="M 2879.563721 1455.02002 C 2862.079102 1457.25415 2847.196289 1470.643921 2847.196289 1495.385986 L 2847.191162 1495.385986 C 2847.191162 1520.496216 2848.492432 1539.287231 2858.538574 1556.212158 C 2869.885742 1575.558105 2888.858398 1586.158936 2913.414063 1586.158936 L 2919.365234 1586.158936 C 2949.498779 1586.158936 2965.868896 1570.161865 2974.053467 1557.513916 C 2977.589111 1551.930298 2980.191895 1546.353271 2981.865967 1540.769775 C 3003.259033 1538.914063 3019.06958 1521.242798 3019.06958 1499.662598 L 3019.06958 1496.687256 C 3019.06958 1473.432861 3003.81958 1457.248901 2977.589111 1454.646729 C 2966.428467 1453.532227 2958.616943 1453.158936 2928.483643 1453.158936 C 2909.142578 1453.158936 2892.772217 1453.345459 2879.563721 1455.02002 Z M 2870.446289 1549.324219 C 2862.634521 1535.001465 2861.146484 1519.563843 2861.146484 1495.568115 L 2861.141357 1495.568115 C 2861.141357 1479.944336 2867.28418 1471.204346 2882.72168 1468.970093 C 2893.695557 1467.295654 2908.205078 1467.109131 2928.47876 1467.109131 C 2958.616943 1467.109131 2964.941895 1467.482422 2975.542725 1468.4104 C 2994.333984 1470.639282 3005.121338 1479.757568 3005.121338 1497.055786 L 3005.121338 1499.844604 C 3005.121338 1515.287109 2992.285889 1527.375488 2977.40332 1527.375488 L 2970.706055 1527.375488 L 2969.59082 1532.025513 C 2968.103516 1539.283203 2965.314941 1545.047485 2962.152588 1550.25708 C 2955.641846 1560.484863 2943.920898 1572.205078 2919.739258 1572.205078 L 2913.974609 1572.205078 C 2895.556641 1572.205078 2879.372803 1565.880981 2870.446289 1549.324219 Z M 2893.330078 1535.197754 C 2885.518311 1527.753662 2879.380615 1518.26709 2879.380615 1507.292969 L 2879.375488 1507.292969 C 2879.375488 1495.385986 2887.933838 1484.785156 2900.955566 1484.785156 C 2908.585938 1484.785156 2913.977051 1488.688477 2917.512939 1494.084839 C 2921.420654 1488.693604 2926.631104 1484.785156 2934.256104 1484.785156 C 2947.091553 1484.785156 2956.017578 1495.385986 2956.017578 1507.292969 C 2956.017578 1518.272217 2949.880127 1527.758545 2941.881836 1535.197754 C 2936.858154 1540.219971 2928.678223 1545.43042 2923.095703 1548.778564 C 2921.602295 1549.707275 2919.746582 1550.266846 2917.512939 1550.266846 C 2915.651611 1550.266846 2913.977051 1549.707275 2912.302979 1548.778564 C 2906.725098 1545.43042 2898.539795 1540.219971 2893.330078 1535.197754 Z M 2970.715088 1487.391113 L 2970.715088 1508.411377 C 2970.717773 1510.642944 2972.391602 1512.314697 2975.36499 1512.314697 C 2984.851563 1512.314697 2990.061035 1506.918457 2990.061035 1497.991943 C 2990.061035 1489.06543 2984.851563 1483.482666 2975.36499 1483.482666 C 2972.38916 1483.482666 2970.715088 1485.15686 2970.715088 1487.391113 Z"/>
        </g>
        <g id="Heavy-L">
            <path id="kofisymbol-Kopie-25" fill="#202020" stroke="none" d="M 2583.076904 1455.991943 C 2565.855225 1458.192627 2551.196289 1471.380981 2551.196289 1495.750977 L 2551.191162 1495.750977 C 2551.191162 1520.483643 2552.472656 1538.992065 2562.36792 1555.662354 C 2573.544434 1574.717529 2592.231934 1585.158936 2616.418213 1585.158936 L 2622.280029 1585.158936 C 2651.960205 1585.158936 2668.084229 1569.402466 2676.145752 1556.94458 C 2679.628174 1551.445068 2682.19165 1545.951904 2683.840576 1540.452393 C 2704.912109 1538.624512 2720.484863 1521.218994 2720.484863 1499.963257 L 2720.484863 1497.032715 C 2720.484863 1474.12793 2705.464111 1458.1875 2679.628174 1455.624268 C 2668.635498 1454.526611 2660.941406 1454.158936 2631.26123 1454.158936 C 2612.210938 1454.158936 2596.08667 1454.342773 2583.076904 1455.991943 Z M 2574.096436 1548.878174 C 2566.4021 1534.77063 2564.936768 1519.565308 2564.936768 1495.930298 L 2564.931641 1495.930298 C 2564.931641 1480.541504 2570.982178 1471.932983 2586.187256 1469.732422 C 2596.996094 1468.08313 2611.287598 1467.899414 2631.256348 1467.899414 C 2660.941406 1467.899414 2667.171143 1468.26709 2677.612549 1469.18103 C 2696.121094 1471.376465 2706.746338 1480.357666 2706.746338 1497.395752 L 2706.746338 1500.142578 C 2706.746338 1515.352905 2694.104004 1527.259521 2679.445313 1527.259521 L 2672.848877 1527.259521 L 2671.750244 1531.8396 C 2670.285156 1538.988037 2667.538574 1544.665771 2664.423828 1549.796875 C 2658.010986 1559.87085 2646.466309 1571.414795 2622.648438 1571.414795 L 2616.970459 1571.414795 C 2598.829346 1571.414795 2582.888916 1565.185913 2574.096436 1548.878174 Z M 2596.636475 1534.964111 C 2588.941895 1527.631836 2582.896729 1518.288086 2582.896729 1507.479004 L 2582.891357 1507.479004 C 2582.891357 1495.750977 2591.321289 1485.30957 2604.146973 1485.30957 C 2611.662842 1485.30957 2616.9729 1489.154297 2620.455322 1494.469482 C 2624.304443 1489.15918 2629.436523 1485.30957 2636.946777 1485.30957 C 2649.589355 1485.30957 2658.381104 1495.750977 2658.381104 1507.479004 C 2658.381104 1518.293213 2652.335938 1527.636719 2644.458008 1534.964111 C 2639.509766 1539.910767 2631.452881 1545.042847 2625.954102 1548.340576 C 2624.483398 1549.255371 2622.655518 1549.806641 2620.455322 1549.806641 C 2618.62207 1549.806641 2616.9729 1549.255371 2615.32373 1548.340576 C 2609.829834 1545.042847 2601.767822 1539.910767 2596.636475 1534.964111 Z M 2672.857666 1487.876221 L 2672.857666 1508.580566 C 2672.860352 1510.778564 2674.508789 1512.425293 2677.437744 1512.425293 C 2686.781494 1512.425293 2691.912842 1507.109985 2691.912842 1498.317749 C 2691.912842 1489.525513 2686.781494 1484.026611 2677.437744 1484.026611 C 2674.506592 1484.026611 2672.857666 1485.675659 2672.857666 1487.876221 Z"/>
        </g>
        <g id="Bold-L">
            <path id="kofisymbol-Kopie-24" fill="#202020" stroke="none" d="M 2287.590088 1456.963989 C 2270.631348 1459.130981 2256.196289 1472.118042 2256.196289 1496.115967 L 2256.191162 1496.115967 C 2256.191162 1520.471069 2257.453125 1538.696899 2267.197266 1555.112793 C 2278.203125 1573.876953 2296.605225 1584.158936 2320.422363 1584.158936 L 2326.19458 1584.158936 C 2355.421875 1584.158936 2371.299561 1568.643066 2379.238037 1556.375366 C 2382.667236 1550.959717 2385.19165 1545.550537 2386.81543 1540.134888 C 2407.565186 1538.334961 2422.900146 1521.195068 2422.900146 1500.263916 L 2422.900146 1497.378052 C 2422.900146 1474.822998 2408.108887 1459.125977 2382.667236 1456.601929 C 2371.842529 1455.520996 2364.265869 1455.158936 2335.038818 1455.158936 C 2316.279297 1455.158936 2300.401367 1455.339844 2287.590088 1456.963989 Z M 2278.746826 1548.432129 C 2271.169922 1534.539917 2269.726807 1519.56665 2269.726807 1496.29248 L 2269.721924 1496.29248 C 2269.721924 1481.138672 2275.679932 1472.661621 2290.653076 1470.494629 C 2301.296875 1468.870605 2315.370117 1468.689575 2335.033936 1468.689575 C 2364.265869 1468.689575 2370.400391 1469.051636 2380.682373 1469.95166 C 2398.908447 1472.113525 2409.371582 1480.957642 2409.371582 1497.735596 L 2409.371582 1500.440552 C 2409.371582 1515.418701 2396.922119 1527.143555 2382.487061 1527.143555 L 2375.991455 1527.143555 L 2374.909668 1531.653564 C 2373.467041 1538.692871 2370.762207 1544.283936 2367.695068 1549.336914 C 2361.380127 1559.256958 2350.011719 1570.624634 2326.557373 1570.624634 L 2320.966064 1570.624634 C 2303.102051 1570.624634 2287.405029 1564.490845 2278.746826 1548.432129 Z M 2300.942627 1534.730469 C 2293.365479 1527.510132 2287.412598 1518.309082 2287.412598 1507.664917 L 2287.407471 1507.664917 C 2287.407471 1496.115967 2295.708496 1485.833984 2308.338623 1485.833984 C 2315.739502 1485.833984 2320.968506 1489.619873 2324.397949 1494.854004 C 2328.188232 1489.624878 2333.241943 1485.833984 2340.637695 1485.833984 C 2353.086914 1485.833984 2361.744629 1496.115967 2361.744629 1507.664917 C 2361.744629 1518.313965 2355.791748 1527.514893 2348.03418 1534.730469 C 2343.161377 1539.601563 2335.227539 1544.655273 2329.812744 1547.902832 C 2328.364502 1548.803467 2326.564453 1549.346436 2324.397949 1549.346436 C 2322.592529 1549.346436 2320.968506 1548.803467 2319.344727 1547.902832 C 2313.93457 1544.655273 2305.995605 1539.601563 2300.942627 1534.730469 Z M 2376.000244 1488.361572 L 2376.000244 1508.749634 C 2376.002686 1510.914063 2377.626221 1512.535645 2380.510254 1512.535645 C 2389.711426 1512.535645 2394.764404 1507.301514 2394.764404 1498.643555 C 2394.764404 1489.985596 2389.711426 1484.570557 2380.510254 1484.570557 C 2377.623779 1484.570557 2376.000244 1486.19458 2376.000244 1488.361572 Z"/>
        </g>
        <g id="Semibold-L">
            <path id="kofisymbol-Kopie-23" fill="#202020" stroke="none" d="M 1992.103394 1457.936035 C 1975.407349 1460.069336 1961.196167 1472.855103 1961.196167 1496.480957 L 1961.191162 1496.480957 C 1961.191162 1520.458496 1962.433594 1538.401733 1972.026611 1554.562988 C 1982.861938 1573.036377 2000.97876 1583.158936 2024.426514 1583.158936 L 2030.109375 1583.158936 C 2058.883301 1583.158936 2074.514893 1567.883545 2082.330322 1555.806152 C 2085.706299 1550.474487 2088.19165 1545.14917 2089.790283 1539.817383 C 2110.218262 1538.04541 2125.315674 1521.171387 2125.315674 1500.564697 L 2125.315674 1497.723511 C 2125.315674 1475.518188 2110.753662 1460.064453 2085.706299 1457.57959 C 2075.049316 1456.515381 2067.590332 1456.158936 2038.816284 1456.158936 C 2020.347778 1456.158936 2004.71582 1456.337158 1992.103394 1457.936035 Z M 1983.397095 1547.986084 C 1975.937744 1534.309204 1974.516968 1519.568115 1974.516968 1496.654785 L 1974.512085 1496.654785 C 1974.512085 1481.73584 1980.377808 1473.390259 1995.118652 1471.256836 C 2005.597534 1469.657959 2019.452515 1469.479736 2038.811523 1469.479736 C 2067.590332 1469.479736 2073.629639 1469.836182 2083.752441 1470.72229 C 2101.695801 1472.850586 2111.996582 1481.557617 2111.996582 1498.075439 L 2111.996582 1500.738525 C 2111.996582 1515.484375 2099.740234 1527.027466 2085.529053 1527.027466 L 2079.134033 1527.027466 L 2078.069092 1531.467529 C 2076.648682 1538.397827 2073.986084 1543.9021 2070.966309 1548.876709 C 2064.749512 1558.643066 2053.557129 1569.834473 2030.466431 1569.834473 L 2024.961914 1569.834473 C 2007.374756 1569.834473 1991.921021 1563.795776 1983.397095 1547.986084 Z M 2005.248779 1534.496826 C 1997.789185 1527.388428 1991.928589 1518.329956 1991.928589 1507.85083 L 1991.923462 1507.85083 C 1991.923462 1496.480957 2000.095825 1486.358398 2012.530029 1486.358398 C 2019.816406 1486.358398 2024.964233 1490.085693 2028.340454 1495.238525 C 2032.072021 1490.090576 2037.047363 1486.358398 2044.328369 1486.358398 C 2056.584717 1486.358398 2065.108154 1496.480957 2065.108154 1507.85083 C 2065.108154 1518.334839 2059.247559 1527.393066 2051.610107 1534.496826 C 2046.812988 1539.29248 2039.002197 1544.267822 2033.671387 1547.464844 C 2032.245483 1548.351685 2030.473511 1548.886108 2028.340454 1548.886108 C 2026.56311 1548.886108 2024.964233 1548.351685 2023.365479 1547.464844 C 2018.039307 1544.267822 2010.223389 1539.29248 2005.248779 1534.496826 Z M 2079.142578 1488.84668 L 2079.142578 1508.918701 C 2079.145264 1511.049683 2080.743408 1512.645996 2083.582764 1512.645996 C 2092.641357 1512.645996 2097.615967 1507.493164 2097.615967 1498.96936 C 2097.615967 1490.445557 2092.641357 1485.114624 2083.582764 1485.114624 C 2080.741211 1485.114624 2079.142578 1486.713379 2079.142578 1488.84668 Z"/>
        </g>
        <g id="Medium-L">
            <path id="kofisymbol-Kopie-22" fill="#202020" stroke="none" d="M 1695.859985 1457.921997 C 1679.29541 1460.038574 1665.196045 1472.723633 1665.196045 1496.163574 L 1665.191162 1496.163574 C 1665.191162 1519.952148 1666.423828 1537.75415 1675.941284 1553.788208 C 1686.691284 1572.115967 1704.665405 1582.158936 1727.928589 1582.158936 L 1733.56665 1582.158936 C 1762.114136 1582.158936 1777.622681 1567.003906 1785.376587 1555.021484 C 1788.725952 1549.731812 1791.191772 1544.448364 1792.77771 1539.158691 C 1813.044922 1537.400635 1828.023193 1520.659424 1828.023193 1500.215088 L 1828.023193 1497.39624 C 1828.023193 1475.365723 1813.575928 1460.033691 1788.725952 1457.568359 C 1778.152832 1456.512451 1770.752441 1456.158936 1742.205078 1456.158936 C 1723.881958 1456.158936 1708.373169 1456.335693 1695.859985 1457.921997 Z M 1687.22229 1547.262939 C 1679.821655 1533.693848 1678.411987 1519.068848 1678.411987 1496.335938 L 1678.407227 1496.335938 C 1678.407227 1481.534546 1684.226807 1473.254639 1698.851563 1471.137939 C 1709.247925 1469.551636 1722.993774 1469.375 1742.200439 1469.375 C 1770.752441 1469.375 1776.744385 1469.728516 1786.787354 1470.607666 C 1804.589478 1472.719238 1814.809204 1481.357666 1814.809204 1497.745361 L 1814.809204 1500.387451 C 1814.809204 1515.017334 1802.649292 1526.469482 1788.550049 1526.469482 L 1782.205322 1526.469482 L 1781.148804 1530.874634 C 1779.739624 1537.750244 1777.0979 1543.211182 1774.101929 1548.146729 C 1767.93396 1557.83606 1756.829834 1568.939453 1733.920898 1568.939453 L 1728.459717 1568.939453 C 1711.011108 1568.939453 1695.679077 1562.948242 1687.22229 1547.262939 Z M 1708.901855 1533.879883 C 1701.500977 1526.827637 1695.686523 1517.840332 1695.686523 1507.443848 L 1695.681519 1507.443848 C 1695.681519 1496.163452 1703.789551 1486.120605 1716.125854 1486.120605 C 1723.354736 1486.120605 1728.462036 1489.818604 1731.811768 1494.930908 C 1735.513916 1489.823364 1740.450073 1486.120605 1747.673706 1486.120605 C 1759.833618 1486.120605 1768.289795 1496.163452 1768.289795 1507.443848 C 1768.289795 1517.845215 1762.475342 1526.832275 1754.898193 1533.879883 C 1750.138794 1538.637817 1742.389526 1543.573975 1737.100586 1546.745972 C 1735.686035 1547.625732 1733.927979 1548.156006 1731.811768 1548.156006 C 1730.04834 1548.156006 1728.462036 1547.625732 1726.875977 1546.745972 C 1721.591675 1543.573975 1713.83728 1538.637817 1708.901855 1533.879883 Z M 1782.213867 1488.589355 L 1782.213867 1508.503418 C 1782.216431 1510.617432 1783.802124 1512.201294 1786.619141 1512.201294 C 1795.606201 1512.201294 1800.541626 1507.088867 1800.541626 1498.632324 C 1800.541626 1490.175659 1795.606201 1484.886597 1786.619141 1484.886597 C 1783.799805 1484.886597 1782.213867 1486.472656 1782.213867 1488.589355 Z"/>
        </g>
        <g id="Regular-L">
            <path id="kofisymbol-Kopie-21" fill="#202020" stroke="none" d="M 1400.373169 1458.894043 C 1384.071533 1460.977051 1370.196045 1473.460693 1370.196045 1496.528564 L 1370.191162 1496.528564 C 1370.191162 1519.939575 1371.404297 1537.458984 1380.77063 1553.238525 C 1391.349976 1571.275391 1409.038818 1581.158936 1431.932739 1581.158936 L 1437.481445 1581.158936 C 1465.575684 1581.158936 1480.838013 1566.244385 1488.468872 1554.452271 C 1491.765137 1549.246582 1494.191772 1544.046875 1495.752563 1538.841309 C 1515.697998 1537.111084 1530.438599 1520.63562 1530.438599 1500.515625 L 1530.438599 1497.741699 C 1530.438599 1476.060913 1516.220581 1460.972168 1491.765137 1458.546021 C 1481.359863 1457.506836 1474.076904 1457.158936 1445.982544 1457.158936 C 1427.950317 1457.158936 1412.687744 1457.332886 1400.373169 1458.894043 Z M 1391.872559 1546.816895 C 1384.589355 1533.463135 1383.202148 1519.070313 1383.202148 1496.698242 L 1383.197388 1496.698242 C 1383.197388 1482.131836 1388.924561 1473.983154 1403.317261 1471.900146 C 1413.548584 1470.339111 1427.076294 1470.165161 1445.978027 1470.165161 C 1474.076904 1470.165161 1479.973755 1470.513184 1489.857178 1471.378296 C 1507.376831 1473.456299 1517.434326 1481.957642 1517.434326 1498.085327 L 1517.434326 1500.685425 C 1517.434326 1515.083008 1505.467407 1526.353394 1491.591919 1526.353394 L 1485.348022 1526.353394 L 1484.308228 1530.688721 C 1482.921387 1537.455078 1480.321533 1542.829468 1477.373169 1547.686523 C 1471.303101 1557.222168 1460.375366 1568.14917 1437.829956 1568.14917 L 1432.455444 1568.14917 C 1415.283813 1568.14917 1400.195068 1562.253174 1391.872559 1546.816895 Z M 1413.208008 1533.64624 C 1405.924683 1526.705811 1400.202393 1517.861328 1400.202393 1507.629883 L 1400.19751 1507.629883 C 1400.19751 1496.528442 1408.17688 1486.64502 1420.317261 1486.64502 C 1427.431519 1486.64502 1432.457764 1490.28418 1435.754272 1495.31543 C 1439.397705 1490.289063 1444.255493 1486.64502 1451.364502 1486.64502 C 1463.331299 1486.64502 1471.65332 1496.528442 1471.65332 1507.629883 C 1471.65332 1517.866211 1465.931152 1526.710449 1458.474243 1533.64624 C 1453.790405 1538.328613 1446.164185 1543.186523 1440.959229 1546.308105 C 1439.567017 1547.173828 1437.836914 1547.695679 1435.754272 1547.695679 C 1434.018921 1547.695679 1432.457764 1547.173828 1430.896851 1546.308105 C 1425.696533 1543.186523 1418.065186 1538.328613 1413.208008 1533.64624 Z M 1485.356445 1489.074585 L 1485.356445 1508.672485 C 1485.358887 1510.753052 1486.919434 1512.311768 1489.69165 1512.311768 C 1498.536133 1512.311768 1503.393188 1507.280518 1503.393188 1498.95813 C 1503.393188 1490.635742 1498.536133 1485.430664 1489.69165 1485.430664 C 1486.917236 1485.430664 1485.356445 1486.991577 1485.356445 1489.074585 Z"/>
        </g>
        <g id="Light-L">
            <path id="kofisymbol-Kopie-20" fill="#202020" stroke="none" d="M 1103.886353 1459.865967 C 1087.847656 1461.915527 1074.195923 1474.197754 1074.195923 1496.893555 L 1074.191162 1496.893555 C 1074.191162 1519.927002 1075.384766 1537.163818 1084.599976 1552.688965 C 1095.008789 1570.434814 1112.412231 1580.158936 1134.93689 1580.158936 L 1140.396118 1580.158936 C 1168.037231 1580.158936 1183.053345 1565.484985 1190.561157 1553.883057 C 1193.804199 1548.76123 1196.191772 1543.645508 1197.727295 1538.523804 C 1217.351196 1536.821533 1231.854004 1520.611816 1231.854004 1500.816406 L 1231.854004 1498.087158 C 1231.854004 1476.756104 1217.865234 1461.910645 1193.804199 1459.523682 C 1183.566772 1458.501221 1176.401245 1458.158936 1148.760132 1458.158936 C 1131.018677 1458.158936 1116.002319 1458.330078 1103.886353 1459.865967 Z M 1095.522827 1546.37085 C 1088.357178 1533.232422 1086.99231 1519.071777 1086.99231 1497.060547 L 1086.987671 1497.060547 C 1086.987671 1482.729004 1092.622437 1474.711914 1106.782959 1472.662354 C 1116.849243 1471.126465 1130.158691 1470.955322 1148.755615 1470.955322 C 1176.401245 1470.955322 1182.203003 1471.297729 1191.927124 1472.148926 C 1209.164185 1474.193481 1219.059448 1482.557617 1219.059448 1498.425293 L 1219.059448 1500.983398 C 1219.059448 1515.148682 1207.285522 1526.237305 1193.633911 1526.237305 L 1187.490601 1526.237305 L 1186.467651 1530.502686 C 1185.103149 1537.160034 1182.545288 1542.447754 1179.644409 1547.226318 C 1173.672363 1556.608154 1162.920776 1567.359131 1140.739014 1567.359131 L 1135.451172 1567.359131 C 1118.556519 1567.359131 1103.711182 1561.558105 1095.522827 1546.37085 Z M 1116.51416 1533.412598 C 1109.348267 1526.584106 1103.718384 1517.882324 1103.718384 1507.815796 L 1103.713501 1507.815796 C 1103.713501 1496.893433 1111.564209 1487.169434 1123.508789 1487.169434 C 1130.508301 1487.169434 1135.453491 1490.75 1138.696777 1495.699951 C 1142.281494 1490.754639 1147.060913 1487.169434 1154.055298 1487.169434 C 1165.829102 1487.169434 1174.016846 1496.893433 1174.016846 1507.815796 C 1174.016846 1517.886963 1168.386963 1526.588623 1161.050415 1533.412598 C 1156.442017 1538.019409 1148.938843 1542.798828 1143.817749 1545.870117 C 1142.447998 1546.722046 1140.74585 1547.235352 1138.696777 1547.235352 C 1136.98938 1547.235352 1135.453491 1546.722046 1133.917725 1545.870117 C 1128.80127 1542.798828 1121.292969 1538.019409 1116.51416 1533.412598 Z M 1187.498901 1489.559814 L 1187.498901 1508.841553 C 1187.501343 1510.888672 1189.036621 1512.422119 1191.764282 1512.422119 C 1200.466064 1512.422119 1205.244873 1507.472168 1205.244873 1499.283936 C 1205.244873 1491.095703 1200.466064 1485.974609 1191.764282 1485.974609 C 1189.034546 1485.974609 1187.498901 1487.510376 1187.498901 1489.559814 Z"/>
        </g>
        <g id="Thin-L">
            <path id="kofisymbol-Kopie-19" fill="#202020" stroke="none" d="M 808.399536 1460.838013 C 792.62384 1462.853882 779.195862 1474.934814 779.195862 1497.258545 L 779.191223 1497.258545 C 779.191223 1519.914307 780.365173 1536.868652 789.429382 1552.13916 C 799.66748 1569.594238 816.785706 1579.158936 838.94104 1579.158936 L 844.31073 1579.158936 C 871.498718 1579.158936 886.268799 1564.725586 893.653442 1553.313721 C 896.843384 1548.276001 899.191711 1543.244141 900.702148 1538.206299 C 920.004272 1536.531982 934.269348 1520.587891 934.269348 1501.117065 L 934.269348 1498.432617 C 934.269348 1477.451172 920.509949 1462.849121 896.843384 1460.501221 C 886.773743 1459.495605 879.725708 1459.158936 852.53772 1459.158936 C 835.087097 1459.158936 820.316895 1459.327271 808.399536 1460.838013 Z M 800.173157 1545.924683 C 793.124939 1533.001709 791.782471 1519.073242 791.782471 1497.422852 L 791.777893 1497.422852 C 791.777893 1483.326172 797.320313 1475.44043 811.248657 1473.424561 C 821.149963 1471.913818 834.241272 1471.745605 852.533264 1471.745605 C 879.725708 1471.745605 885.432373 1472.082275 894.997009 1472.919678 C 911.951538 1474.930664 921.684509 1483.157715 921.684509 1498.765137 L 921.684509 1501.281372 C 921.684509 1515.214478 910.103699 1526.121338 896.675781 1526.121338 L 890.633301 1526.121338 L 889.627014 1530.316772 C 888.284912 1536.86499 885.768982 1542.065918 882.915649 1546.766357 C 877.041443 1555.994385 866.466125 1566.568848 844.648132 1566.568848 L 839.44696 1566.568848 C 822.829163 1566.568848 808.227234 1560.863037 800.173157 1545.924683 Z M 820.820374 1533.178955 C 813.771973 1526.462402 808.234375 1517.903198 808.234375 1508.001709 L 808.229553 1508.001709 C 808.229553 1497.258423 815.951477 1487.693848 827.700317 1487.693848 C 834.585022 1487.693848 839.449158 1491.215698 842.639343 1496.084473 C 846.165222 1491.220215 850.866333 1487.693848 857.746033 1487.693848 C 869.326843 1487.693848 877.38031 1497.258423 877.38031 1508.001709 C 877.38031 1517.907837 871.842773 1526.466797 864.626465 1533.178955 C 860.093628 1537.710205 852.71344 1542.411377 847.676392 1545.432251 C 846.329102 1546.270264 844.654724 1546.775146 842.639343 1546.775146 C 840.9599 1546.775146 839.449158 1546.270264 837.938599 1545.432251 C 832.906006 1542.411377 825.520813 1537.710205 820.820374 1533.178955 Z M 890.641418 1490.045166 L 890.641418 1509.010742 C 890.643799 1511.02417 892.153931 1512.532593 894.836853 1512.532593 C 903.395996 1512.532593 908.096436 1507.663696 908.096436 1499.609741 C 908.096436 1491.555786 903.395996 1486.518555 894.836853 1486.518555 C 892.151855 1486.518555 890.641418 1488.029297 890.641418 1490.045166 Z"/>
        </g>
        <g id="Ultralight-L">
            <path id="kofisymbol-Kopie-18" fill="#202020" stroke="none" d="M 511.156158 1461.823975 C 495.511902 1463.82312 482.195801 1475.803467 482.195801 1497.94104 L 482.191193 1497.94104 C 482.191193 1520.408081 483.355377 1537.221069 492.344055 1552.36438 C 502.496857 1569.67395 519.472412 1579.158936 541.443115 1579.158936 L 546.768066 1579.158936 C 573.729492 1579.158936 588.376465 1564.845825 595.699585 1553.529053 C 598.862915 1548.533325 601.191711 1543.543457 602.689575 1538.547607 C 621.830811 1536.887207 635.977051 1521.07605 635.977051 1501.767456 L 635.977051 1499.105225 C 635.977051 1478.298706 622.332336 1463.818359 598.862915 1461.48999 C 588.877197 1460.49292 581.887939 1460.158936 554.926514 1460.158936 C 537.621338 1460.158936 522.974182 1460.325928 511.156158 1461.823975 Z M 502.998322 1546.20166 C 496.00882 1533.386353 494.677521 1519.573853 494.677521 1498.103882 L 494.672974 1498.103882 C 494.672974 1484.124756 500.16922 1476.30481 513.981506 1474.305786 C 523.800354 1472.807617 536.782471 1472.640625 554.922119 1472.640625 C 581.887939 1472.640625 587.546997 1472.974609 597.031982 1473.804932 C 613.845154 1475.799194 623.49707 1483.957764 623.49707 1499.435059 L 623.49707 1501.93042 C 623.49707 1515.747314 612.012756 1526.563232 598.696777 1526.563232 L 592.70459 1526.563232 L 591.706726 1530.723755 C 590.375793 1537.217407 587.880859 1542.375 585.051331 1547.036133 C 579.226074 1556.187378 568.738831 1566.673828 547.102661 1566.673828 L 541.944824 1566.673828 C 525.465515 1566.673828 510.985291 1561.015503 502.998322 1546.20166 Z M 523.47345 1533.562012 C 516.483826 1526.901489 510.99231 1518.413574 510.99231 1508.594727 L 510.987549 1508.594727 C 510.987549 1497.940918 518.645142 1488.456055 530.296082 1488.456055 C 537.123413 1488.456055 541.947021 1491.948486 545.110596 1496.776855 C 548.607056 1491.953125 553.269043 1488.456055 560.09137 1488.456055 C 571.575684 1488.456055 579.562073 1497.940918 579.562073 1508.594727 C 579.562073 1518.418213 574.070679 1526.905884 566.91449 1533.562012 C 562.419434 1538.055664 555.100708 1542.717529 550.105652 1545.713379 C 548.769592 1546.544189 547.109192 1547.044922 545.110596 1547.044922 C 543.44519 1547.044922 541.947021 1546.544189 540.449036 1545.713379 C 535.458374 1542.717529 528.134766 1538.055664 523.47345 1533.562012 Z M 592.712646 1490.78772 L 592.712646 1509.595337 C 592.715027 1511.592041 594.212585 1513.087891 596.873108 1513.087891 C 605.360962 1513.087891 610.022217 1508.259521 610.022217 1500.272705 C 610.022217 1492.285889 605.360962 1487.290649 596.873108 1487.290649 C 594.21051 1487.290649 592.712646 1488.788574 592.712646 1490.78772 Z"/>
        </g>
        <g id="Black-M">
            <path id="kofisymbol-Kopie-17" fill="#202020" stroke="none" d="M 2890.505127 1037.614136 C 2876.832764 1039.361206 2865.195313 1049.831421 2865.195313 1069.178589 L 2865.191162 1069.178589 C 2865.191162 1088.813599 2866.20874 1103.507324 2874.064209 1116.741821 C 2882.937256 1131.869507 2897.773193 1140.158936 2916.974365 1140.158936 L 2921.628174 1140.158936 C 2945.191162 1140.158936 2957.991699 1127.650024 2964.391846 1117.759766 C 2967.156494 1113.393677 2969.19165 1109.032715 2970.500732 1104.666748 C 2987.229248 1103.215576 2999.592285 1089.397461 2999.592285 1072.522705 L 2999.592285 1070.196045 C 2999.592285 1052.012207 2987.66748 1039.357178 2967.156494 1037.322266 C 2958.429443 1036.450806 2952.321045 1036.158936 2928.758057 1036.158936 C 2913.634277 1036.158936 2900.833496 1036.30481 2890.505127 1037.614136 Z M 2883.375488 1111.355957 C 2877.26709 1100.156006 2876.103516 1088.084595 2876.103516 1069.320923 L 2876.099609 1069.320923 C 2876.099609 1057.103882 2880.903076 1050.269653 2892.974365 1048.522583 C 2901.55542 1047.213257 2912.901123 1047.067383 2928.754395 1047.067383 C 2952.321045 1047.067383 2957.266846 1047.359253 2965.556152 1048.084839 C 2980.250244 1049.827759 2988.685303 1056.957886 2988.685303 1070.484253 L 2988.685303 1072.665039 C 2988.685303 1084.740479 2978.648682 1094.192993 2967.01123 1094.192993 L 2961.774414 1094.192993 L 2960.902344 1097.828979 C 2959.739014 1103.50415 2957.558594 1108.011597 2955.085693 1112.085327 C 2949.994873 1120.082886 2940.82959 1129.247559 2921.92041 1129.247559 L 2917.412842 1129.247559 C 2903.010742 1129.247559 2890.355713 1124.30249 2883.375488 1111.355957 Z M 2901.269775 1100.30957 C 2895.161133 1094.488525 2890.361816 1087.070679 2890.361816 1078.48938 L 2890.357666 1078.48938 C 2890.357666 1069.178467 2897.050049 1060.889282 2907.232422 1060.889282 C 2913.199219 1060.889282 2917.414795 1063.941406 2920.179688 1068.161133 C 2923.235352 1063.945435 2927.30957 1060.889282 2933.271973 1060.889282 C 2943.308838 1060.889282 2950.28833 1069.178467 2950.28833 1078.48938 C 2950.28833 1087.074585 2945.489258 1094.492432 2939.235107 1100.30957 C 2935.306641 1104.236694 2928.9104 1108.311035 2924.544922 1110.929199 C 2923.377441 1111.655396 2921.92627 1112.093018 2920.179688 1112.093018 C 2918.724121 1112.093018 2917.414795 1111.655396 2916.105713 1110.929199 C 2911.743896 1108.311035 2905.343506 1104.236694 2901.269775 1100.30957 Z M 2961.78125 1062.92688 L 2961.78125 1079.363892 C 2961.783447 1081.108887 2963.092285 1082.416138 2965.41748 1082.416138 C 2972.835449 1082.416138 2976.908936 1078.196411 2976.908936 1071.216309 C 2976.908936 1064.236206 2972.835449 1059.870605 2965.41748 1059.870605 C 2963.090332 1059.870605 2961.78125 1061.17981 2961.78125 1062.92688 Z"/>
        </g>
        <g id="Heavy-M">
            <path id="kofisymbol-Kopie-16" fill="#202020" stroke="none" d="M 2595.261719 1039.600098 C 2581.720947 1041.330444 2570.195313 1051.699951 2570.195313 1070.861084 L 2570.191162 1070.861084 C 2570.191162 1090.307373 2571.19873 1104.859741 2578.979004 1117.967041 C 2587.766602 1132.949219 2602.459717 1141.158936 2621.476563 1141.158936 L 2626.085449 1141.158936 C 2649.421875 1141.158936 2662.099365 1128.770264 2668.437988 1118.975098 C 2671.176025 1114.651001 2673.19165 1110.332031 2674.488037 1106.007935 C 2691.055664 1104.570801 2703.300049 1090.885498 2703.300049 1074.172974 L 2703.300049 1071.868774 C 2703.300049 1053.859741 2691.489746 1041.326416 2671.176025 1039.311035 C 2662.532959 1038.447998 2656.483398 1038.158936 2633.146973 1038.158936 C 2618.168457 1038.158936 2605.490723 1038.303467 2595.261719 1039.600098 Z M 2588.200684 1112.632813 C 2582.150879 1101.540649 2580.998779 1089.585327 2580.998779 1071.002075 L 2580.994873 1071.002075 C 2580.994873 1058.902466 2585.751953 1052.133911 2597.707275 1050.403687 C 2606.205811 1049.106934 2617.442383 1048.962524 2633.143066 1048.962524 C 2656.483398 1048.962524 2661.381592 1049.251587 2669.591309 1049.970215 C 2684.143799 1051.696289 2692.498047 1058.757935 2692.498047 1072.154297 L 2692.498047 1074.313965 C 2692.498047 1086.273315 2682.557861 1095.63501 2671.032227 1095.63501 L 2665.845703 1095.63501 L 2664.981934 1099.236084 C 2663.830078 1104.856567 2661.67041 1109.320679 2659.221436 1113.355225 C 2654.179443 1121.276001 2645.102295 1130.352539 2626.375 1130.352539 L 2621.910645 1130.352539 C 2607.647217 1130.352539 2595.11377 1125.454956 2588.200684 1112.632813 Z M 2605.922852 1101.692749 C 2599.873047 1095.927734 2595.119873 1088.581055 2595.119873 1080.082275 L 2595.115723 1080.082275 C 2595.115723 1070.860962 2601.743896 1062.651489 2611.828125 1062.651489 C 2617.737549 1062.651489 2621.912598 1065.674316 2624.650879 1069.853394 C 2627.677246 1065.678223 2631.712402 1062.651489 2637.617432 1062.651489 C 2647.557617 1062.651489 2654.470215 1070.860962 2654.470215 1080.082275 C 2654.470215 1088.585083 2649.717041 1095.931519 2643.523193 1101.692749 C 2639.632568 1105.582153 2633.297852 1109.61731 2628.974365 1112.210205 C 2627.817871 1112.929443 2626.380859 1113.362793 2624.650879 1113.362793 C 2623.209473 1113.362793 2621.912598 1112.929443 2620.615967 1112.210205 C 2616.296387 1109.61731 2609.95752 1105.582153 2605.922852 1101.692749 Z M 2665.852539 1064.669556 L 2665.852539 1080.948364 C 2665.854736 1082.676636 2667.150879 1083.971313 2669.453613 1083.971313 C 2676.800293 1083.971313 2680.834717 1079.792114 2680.834717 1072.879272 C 2680.834717 1065.966187 2676.800293 1061.6427 2669.453613 1061.6427 C 2667.14917 1061.6427 2665.852539 1062.939209 2665.852539 1064.669556 Z"/>
        </g>
        <g id="Bold-M">
            <path id="kofisymbol-Kopie-15" fill="#202020" stroke="none" d="M 2298.774902 1041.572144 C 2285.49707 1043.268799 2274.195068 1053.437012 2274.195068 1072.226074 L 2274.191162 1072.226074 C 2274.191162 1091.2948 2275.179199 1105.564575 2282.80835 1118.417358 C 2291.425293 1133.108643 2305.833252 1141.158936 2324.480713 1141.158936 L 2329.000244 1141.158936 C 2351.883301 1141.158936 2364.314941 1129.010864 2370.530273 1119.405884 C 2373.215088 1115.165771 2375.19165 1110.930664 2376.462891 1106.690552 C 2392.708984 1105.28125 2404.715332 1091.861694 2404.715332 1075.473755 L 2404.715332 1073.214233 C 2404.715332 1055.554932 2393.134521 1043.264893 2373.215088 1041.288696 C 2364.739746 1040.442383 2358.807861 1040.158936 2335.924561 1040.158936 C 2321.236816 1040.158936 2308.80542 1040.300659 2298.774902 1041.572144 Z M 2291.851074 1113.186768 C 2285.918701 1102.309937 2284.788818 1090.586792 2284.788818 1072.36438 L 2284.784912 1072.36438 C 2284.784912 1060.499634 2289.449951 1053.862549 2301.172852 1052.165894 C 2309.506592 1050.894409 2320.524902 1050.752686 2335.920898 1050.752686 C 2358.807861 1050.752686 2363.61084 1051.036133 2371.661133 1051.740845 C 2385.931152 1053.433472 2394.123047 1060.35791 2394.123047 1073.494141 L 2394.123047 1075.611938 C 2394.123047 1087.338989 2384.375977 1096.518921 2373.073975 1096.518921 L 2367.988281 1096.518921 L 2367.141357 1100.050049 C 2366.011719 1105.561523 2363.894287 1109.938965 2361.492676 1113.895142 C 2356.548584 1121.661987 2347.647705 1130.562378 2329.28418 1130.562378 L 2324.906494 1130.562378 C 2310.919922 1130.562378 2298.629883 1125.759888 2291.851074 1113.186768 Z M 2309.229004 1102.459106 C 2303.296631 1096.80603 2298.635742 1089.602051 2298.635742 1081.268311 L 2298.631836 1081.268311 C 2298.631836 1072.226074 2305.131104 1064.175903 2315.019775 1064.175903 C 2320.814453 1064.175903 2324.908447 1067.140015 2327.593506 1071.238037 C 2330.561035 1067.143921 2334.517822 1064.175903 2340.308105 1064.175903 C 2350.05542 1064.175903 2356.83374 1072.226074 2356.83374 1081.268311 C 2356.83374 1089.605957 2352.172852 1096.809692 2346.099121 1102.459106 C 2342.28418 1106.272949 2336.07251 1110.229736 2331.833008 1112.772339 C 2330.698975 1113.477539 2329.289795 1113.902588 2327.593506 1113.902588 C 2326.179932 1113.902588 2324.908447 1113.477539 2323.636963 1112.772339 C 2319.401123 1110.229736 2313.185303 1106.272949 2309.229004 1102.459106 Z M 2367.995117 1066.154785 L 2367.995117 1082.117554 C 2367.99707 1083.812256 2369.268311 1085.081787 2371.526367 1085.081787 C 2378.730225 1085.081787 2382.686523 1080.983765 2382.686523 1074.205078 C 2382.686523 1067.42627 2378.730225 1063.186646 2371.526367 1063.186646 C 2369.266357 1063.186646 2367.995117 1064.45813 2367.995117 1066.154785 Z"/>
        </g>
        <g id="Semibold-M">
            <path id="kofisymbol-Kopie-14" fill="#202020" stroke="none" d="M 2002.531494 1041.558228 C 1989.38501 1043.238037 1978.195068 1053.305542 1978.195068 1071.908569 L 1978.191162 1071.908569 C 1978.191162 1090.788452 1979.169556 1104.916992 1986.723022 1117.642456 C 1995.254761 1132.188354 2009.52002 1140.158936 2027.982788 1140.158936 L 2032.45752 1140.158936 C 2055.114258 1140.158936 2067.422607 1128.131104 2073.576416 1118.621338 C 2076.234619 1114.423096 2078.19165 1110.229858 2079.450439 1106.031738 C 2095.5354 1104.636475 2107.423096 1091.349731 2107.423096 1075.124023 L 2107.423096 1072.886963 C 2107.423096 1055.402466 2095.956787 1043.234131 2076.234619 1041.277466 C 2067.843262 1040.439575 2061.969971 1040.158936 2039.313232 1040.158936 C 2024.771118 1040.158936 2012.462646 1040.299194 2002.531494 1041.558228 Z M 1995.676147 1112.463745 C 1989.802612 1101.69458 1988.68396 1090.087402 1988.68396 1072.04541 L 1988.680054 1072.04541 C 1988.680054 1060.29834 1993.298828 1053.726929 2004.905762 1052.046997 C 2013.15686 1050.788086 2024.066284 1050.647827 2039.30957 1050.647827 C 2061.969971 1050.647827 2066.725586 1050.928467 2074.696045 1051.626099 C 2088.824707 1053.302002 2096.935547 1060.157959 2096.935547 1073.164063 L 2096.935547 1075.260986 C 2096.935547 1086.871948 2087.284912 1095.960938 2076.094971 1095.960938 L 2071.05957 1095.960938 L 2070.220947 1099.457153 C 2069.102539 1104.91394 2067.006104 1109.248047 2064.628174 1113.165039 C 2059.733154 1120.855103 2050.92041 1129.667236 2032.738647 1129.667236 L 2028.404297 1129.667236 C 2014.556152 1129.667236 2002.387939 1124.912354 1995.676147 1112.463745 Z M 2012.882202 1101.842285 C 2007.008545 1096.245117 2002.393799 1089.112427 2002.393799 1080.861206 L 2002.389771 1080.861206 C 2002.389771 1071.908569 2008.824829 1063.93811 2018.615479 1063.93811 C 2024.352783 1063.93811 2028.406128 1066.872925 2031.064697 1070.930298 C 2034.002808 1066.876709 2037.920532 1063.93811 2043.653564 1063.93811 C 2053.304199 1063.93811 2060.015381 1071.908569 2060.015381 1080.861206 C 2060.015381 1089.116333 2055.400879 1096.248779 2049.387207 1101.842285 C 2045.609863 1105.618408 2039.459717 1109.536011 2035.262207 1112.053345 C 2034.139404 1112.751587 2032.744141 1113.172485 2031.064697 1113.172485 C 2029.665161 1113.172485 2028.406128 1112.751587 2027.147339 1112.053345 C 2022.953491 1109.536011 2016.799194 1105.618408 2012.882202 1101.842285 Z M 2071.066406 1065.897339 L 2071.066406 1081.702148 C 2071.068359 1083.380005 2072.326904 1084.636963 2074.5625 1084.636963 C 2081.695313 1084.636963 2085.612305 1080.57959 2085.612305 1073.86792 C 2085.612305 1067.156372 2081.695313 1062.958618 2074.5625 1062.958618 C 2072.324951 1062.958618 2071.066406 1064.217529 2071.066406 1065.897339 Z"/>
        </g>
        <g id="Medium-M">
            <path id="kofisymbol-Kopie-13" fill="#202020" stroke="none" d="M 1707.288086 1041.544189 C 1694.273071 1043.207275 1683.195068 1053.174072 1683.195068 1071.591064 L 1683.191162 1071.591064 C 1683.191162 1090.282227 1684.159668 1104.269409 1691.637695 1116.867676 C 1700.084106 1131.268066 1714.206665 1139.158936 1732.484863 1139.158936 L 1736.914795 1139.158936 C 1759.344971 1139.158936 1771.530151 1127.251343 1777.622559 1117.83667 C 1780.254272 1113.680542 1782.19165 1109.529175 1783.437744 1105.373047 C 1799.361938 1103.991699 1811.130615 1090.837891 1811.130615 1074.774414 L 1811.130615 1072.559692 C 1811.130615 1055.25 1799.779175 1043.203369 1780.254272 1041.266357 C 1771.946777 1040.436768 1766.132202 1040.158936 1743.702026 1040.158936 C 1729.305298 1040.158936 1717.119873 1040.297852 1707.288086 1041.544189 Z M 1700.501343 1111.740723 C 1694.686523 1101.079224 1693.578979 1089.588135 1693.578979 1071.726563 L 1693.575195 1071.726563 C 1693.575195 1060.096924 1698.147705 1053.591187 1709.63855 1051.928101 C 1717.807251 1050.681763 1728.607544 1050.542969 1743.698364 1050.542969 C 1766.132202 1050.542969 1770.840088 1050.820801 1778.730957 1051.511475 C 1792.718506 1053.170654 1800.748169 1059.957886 1800.748169 1072.833984 L 1800.748169 1074.909912 C 1800.748169 1086.404785 1791.19397 1095.402832 1780.115967 1095.402832 L 1775.130859 1095.402832 L 1774.300781 1098.864136 C 1773.193481 1104.266357 1771.11792 1108.557129 1768.763916 1112.434937 C 1763.917725 1120.048096 1755.192993 1128.772217 1737.193115 1128.772217 L 1732.902222 1128.772217 C 1719.192505 1128.772217 1707.145996 1124.064819 1700.501343 1111.740723 Z M 1717.535278 1101.225464 C 1711.720337 1095.684326 1707.151855 1088.622925 1707.151855 1080.454224 L 1707.147827 1080.454224 C 1707.147827 1071.591064 1713.518433 1063.700317 1723.211182 1063.700317 C 1728.891113 1063.700317 1732.904053 1066.605713 1735.535889 1070.622559 C 1738.444702 1066.609497 1742.323242 1063.700317 1747.998901 1063.700317 C 1757.553101 1063.700317 1764.197266 1071.591064 1764.197266 1080.454224 C 1764.197266 1088.626831 1759.628784 1095.687866 1753.675293 1101.225464 C 1749.935669 1104.963745 1743.847046 1108.842163 1739.691528 1111.334473 C 1738.579956 1112.025757 1737.198608 1112.442261 1735.535889 1112.442261 C 1734.150391 1112.442261 1732.904053 1112.025757 1731.657837 1111.334473 C 1727.505859 1108.842163 1721.413086 1104.963745 1717.535278 1101.225464 Z M 1775.137573 1065.640015 L 1775.137573 1081.286621 C 1775.139648 1082.947754 1776.385498 1084.192261 1778.598877 1084.192261 C 1785.660156 1084.192261 1789.537964 1080.175293 1789.537964 1073.530884 C 1789.537964 1066.886353 1785.660156 1062.730713 1778.598877 1062.730713 C 1776.383667 1062.730713 1775.137573 1063.976929 1775.137573 1065.640015 Z"/>
        </g>
        <g id="Regular-M">
            <path id="kofisymbol-Kopie-12" fill="#202020" stroke="none" d="M 1410.80127 1043.516235 C 1398.049194 1045.14563 1387.194946 1054.911133 1387.194946 1072.956055 L 1387.191162 1072.956055 C 1387.191162 1091.269531 1388.140137 1104.974243 1395.467041 1117.317993 C 1403.742798 1131.42749 1417.580078 1139.158936 1435.489014 1139.158936 L 1439.829468 1139.158936 C 1461.806519 1139.158936 1473.745605 1127.491943 1479.714844 1118.267456 C 1482.293335 1114.19519 1484.19165 1110.127808 1485.412598 1106.055542 C 1501.015137 1104.702148 1512.546021 1091.814087 1512.546021 1076.075073 L 1512.546021 1073.905151 C 1512.546021 1056.94519 1501.423828 1045.141846 1482.293335 1043.244019 C 1474.153809 1042.431152 1468.456665 1042.158936 1446.479614 1042.158936 C 1432.373779 1042.158936 1420.434448 1042.295044 1410.80127 1043.516235 Z M 1404.151611 1112.294556 C 1398.454346 1101.848511 1397.369141 1090.5896 1397.369141 1073.088867 L 1397.365479 1073.088867 C 1397.365479 1061.694092 1401.845581 1055.319824 1413.10437 1053.69043 C 1421.10791 1052.469238 1431.689941 1052.33313 1446.476074 1052.33313 C 1468.456665 1052.33313 1473.069458 1052.605347 1480.800903 1053.282104 C 1494.505737 1054.907715 1502.373291 1061.557983 1502.373291 1074.17395 L 1502.373291 1076.207886 C 1502.373291 1087.470459 1493.012085 1096.286865 1482.157959 1096.286865 L 1477.27356 1096.286865 L 1476.460205 1099.678101 C 1475.375244 1104.971313 1473.341553 1109.175415 1471.035156 1112.974854 C 1466.286865 1120.434204 1457.738403 1128.981934 1440.102173 1128.981934 L 1435.897949 1128.981934 C 1422.46521 1128.981934 1410.661987 1124.369751 1404.151611 1112.294556 Z M 1420.841431 1101.991699 C 1415.144043 1096.5625 1410.667725 1089.643921 1410.667725 1081.640137 L 1410.663818 1081.640137 C 1410.663818 1072.956055 1416.905762 1065.224731 1426.40271 1065.224731 C 1431.967896 1065.224731 1435.89978 1068.071533 1438.478516 1072.007202 C 1441.328491 1068.075195 1445.12854 1065.224731 1450.689697 1065.224731 C 1460.050781 1065.224731 1466.560791 1072.956055 1466.560791 1081.640137 C 1466.560791 1089.647583 1462.084595 1096.566162 1456.251343 1101.991699 C 1452.58728 1105.654541 1446.621704 1109.454712 1442.550049 1111.896484 C 1441.460938 1112.573853 1440.107544 1112.982056 1438.478516 1112.982056 C 1437.120972 1112.982056 1435.89978 1112.573853 1434.678711 1111.896484 C 1430.610596 1109.454712 1424.640991 1105.654541 1420.841431 1101.991699 Z M 1477.280151 1067.125244 L 1477.280151 1082.455811 C 1477.282104 1084.083374 1478.502808 1085.302612 1480.671387 1085.302612 C 1487.590088 1085.302612 1491.389526 1081.366943 1491.389526 1074.856689 C 1491.389526 1068.346436 1487.590088 1064.274658 1480.671387 1064.274658 C 1478.501099 1064.274658 1477.280151 1065.495728 1477.280151 1067.125244 Z"/>
        </g>
        <g id="Light-M">
            <path id="kofisymbol-Kopie-11" fill="#202020" stroke="none" d="M 1114.557861 1043.502197 C 1101.937256 1045.114868 1091.194946 1054.779663 1091.194946 1072.63855 L 1091.191162 1072.63855 C 1091.191162 1090.763306 1092.130371 1104.32666 1099.381714 1116.543091 C 1107.572266 1130.507202 1121.266846 1138.158936 1138.991089 1138.158936 L 1143.286865 1138.158936 C 1165.037231 1138.158936 1176.853271 1126.612183 1182.760986 1117.482788 C 1185.312988 1113.452515 1187.19165 1109.427124 1188.400024 1105.396851 C 1203.841675 1104.057373 1215.253662 1091.302124 1215.253662 1075.725464 L 1215.253662 1073.577759 C 1215.253662 1056.792725 1204.246216 1045.111084 1185.312988 1043.232788 C 1177.257202 1042.428345 1171.618774 1042.158936 1149.868408 1042.158936 C 1135.907959 1042.158936 1124.091797 1042.293579 1114.557861 1043.502197 Z M 1107.976807 1111.571533 C 1102.338257 1101.233154 1101.26416 1090.090332 1101.26416 1072.77002 L 1101.260498 1072.77002 C 1101.260498 1061.492676 1105.694458 1055.184204 1116.837158 1053.571533 C 1124.758179 1052.362915 1135.231201 1052.228271 1149.864868 1052.228271 C 1171.618774 1052.228271 1176.184082 1052.497681 1183.835815 1053.16748 C 1197.399414 1054.776245 1205.185791 1061.35791 1205.185791 1073.843872 L 1205.185791 1075.856812 C 1205.185791 1087.003418 1195.921143 1095.728882 1185.178833 1095.728882 L 1180.344849 1095.728882 L 1179.539917 1099.085205 C 1178.466187 1104.32373 1176.453369 1108.484497 1174.170776 1112.244751 C 1169.471436 1119.627197 1161.011108 1128.086914 1143.556763 1128.086914 L 1139.395752 1128.086914 C 1126.101563 1128.086914 1114.420044 1123.522217 1107.976807 1111.571533 Z M 1124.494507 1101.374878 C 1118.855835 1096.001709 1114.425659 1089.154297 1114.425659 1081.233154 L 1114.421875 1081.233154 C 1114.421875 1072.63855 1120.599487 1064.986938 1129.998535 1064.986938 C 1135.506226 1064.986938 1139.397583 1067.804321 1141.949707 1071.699463 C 1144.770386 1067.807983 1148.53125 1064.986938 1154.035034 1064.986938 C 1163.299683 1064.986938 1169.742554 1072.63855 1169.742554 1081.233154 C 1169.742554 1089.158081 1165.3125 1096.005249 1159.539429 1101.374878 C 1155.913086 1105 1150.008911 1108.760864 1145.97937 1111.177612 C 1144.901489 1111.8479 1143.562012 1112.251831 1141.949707 1112.251831 C 1140.606201 1112.251831 1139.397583 1111.8479 1138.189087 1111.177612 C 1134.163086 1108.760864 1128.254883 1105 1124.494507 1101.374878 Z M 1180.351318 1066.867798 L 1180.351318 1082.040405 C 1180.353271 1083.651123 1181.561401 1084.85791 1183.707642 1084.85791 C 1190.555054 1084.85791 1194.315308 1080.962769 1194.315308 1074.519531 C 1194.315308 1068.076416 1190.555054 1064.046631 1183.707642 1064.046631 C 1181.559692 1064.046631 1180.351318 1065.255127 1180.351318 1066.867798 Z"/>
        </g>
        <g id="Thin-M">
            <path id="kofisymbol-Kopie-10" fill="#202020" stroke="none" d="M 818.071106 1044.474243 C 805.71344 1046.053345 795.194824 1055.516724 795.194824 1073.003662 L 795.191223 1073.003662 C 795.191223 1090.750732 796.110779 1104.031494 803.211121 1115.99353 C 811.230957 1129.666626 824.640259 1137.158936 841.995239 1137.158936 L 846.201477 1137.158936 C 867.498779 1137.158936 879.068665 1125.852783 884.853271 1116.913574 C 887.352051 1112.967285 889.191589 1109.025635 890.374817 1105.079346 C 905.494751 1103.767822 916.669067 1091.27832 916.669067 1076.026123 L 916.669067 1073.923218 C 916.669067 1057.487793 905.89093 1046.049561 887.352051 1044.210449 C 879.464172 1043.422729 873.943237 1043.158936 852.645996 1043.158936 C 838.976318 1043.158936 827.406311 1043.290771 818.071106 1044.474243 Z M 811.627075 1111.125366 C 806.105957 1101.002441 805.054321 1090.091797 805.054321 1073.132324 L 805.050781 1073.132324 C 805.050781 1062.089966 809.392334 1055.912842 820.302856 1054.33374 C 828.058899 1053.150269 838.313721 1053.018433 852.642517 1053.018433 C 873.943237 1053.018433 878.413452 1053.282227 885.905762 1053.93811 C 899.186768 1055.513428 906.810974 1061.958008 906.810974 1074.183716 L 906.810974 1076.154785 C 906.810974 1087.069092 897.739319 1095.612793 887.220764 1095.612793 L 882.487488 1095.612793 L 881.69928 1098.89917 C 880.647949 1104.028687 878.677124 1108.102661 876.442017 1111.784668 C 871.840576 1119.013306 863.55658 1127.296753 846.465759 1127.296753 L 842.391541 1127.296753 C 829.374268 1127.296753 817.936096 1122.827148 811.627075 1111.125366 Z M 827.80072 1101.141235 C 822.27948 1095.880005 817.94165 1089.175293 817.94165 1081.419067 L 817.937927 1081.419067 C 817.937927 1073.00354 823.986755 1065.511353 833.190002 1065.511353 C 838.583069 1065.511353 842.393311 1068.27002 844.892273 1072.083984 C 847.654175 1068.273682 851.336731 1065.511353 856.72583 1065.511353 C 865.797424 1065.511353 872.106018 1073.00354 872.106018 1081.419067 C 872.106018 1089.178955 867.76825 1095.883423 862.115479 1101.141235 C 858.564758 1104.690796 852.78363 1108.373291 848.837952 1110.739746 C 847.782532 1111.396118 846.471008 1111.791626 844.892273 1111.791626 C 843.576721 1111.791626 842.393311 1111.396118 841.209961 1110.739746 C 837.267761 1108.373291 831.482727 1104.690796 827.80072 1101.141235 Z M 882.493835 1067.353027 L 882.493835 1082.209473 C 882.495728 1083.786743 883.678711 1084.968262 885.780273 1084.968262 C 892.484985 1084.968262 896.166931 1081.154297 896.166931 1074.845459 C 896.166931 1068.536499 892.484985 1064.590698 885.780273 1064.590698 C 883.677002 1064.590698 882.493835 1065.774048 882.493835 1067.353027 Z"/>
        </g>
        <g id="Ultralight-M">
            <path id="kofisymbol-Kopie-9" fill="#202020" stroke="none" d="M 522.827698 1044.460205 C 510.601501 1046.022461 500.194794 1055.385254 500.194794 1072.686157 L 500.191193 1072.686157 C 500.191193 1090.244385 501.101013 1103.383911 508.125793 1115.218628 C 516.060303 1128.746338 529.326965 1136.158936 546.497314 1136.158936 L 550.658813 1136.158936 C 571.729553 1136.158936 583.176331 1124.973022 588.899414 1116.128906 C 591.371643 1112.224609 593.191589 1108.324951 594.362183 1104.420654 C 609.32135 1103.123047 620.37677 1090.766479 620.37677 1075.676514 L 620.37677 1073.595947 C 620.37677 1057.335449 609.713257 1046.018799 591.371643 1044.199219 C 583.567688 1043.419922 578.105469 1043.158936 557.034729 1043.158936 C 543.510559 1043.158936 532.063599 1043.289429 522.827698 1044.460205 Z M 516.452209 1110.402344 C 510.989868 1100.387085 509.949432 1089.592407 509.949432 1072.813354 L 509.945862 1072.813354 C 509.945862 1061.88855 514.241272 1055.7771 525.035706 1054.214844 C 532.709229 1053.044067 542.85498 1052.913574 557.031311 1052.913574 C 578.105469 1052.913574 582.528076 1053.174561 589.940735 1053.823486 C 603.080444 1055.381958 610.623535 1061.757935 610.623535 1073.85376 L 610.623535 1075.803833 C 610.623535 1086.602051 601.648376 1095.05481 591.24176 1095.05481 L 586.558777 1095.05481 L 585.778992 1098.306274 C 584.738831 1103.381104 582.789001 1107.411865 580.577637 1111.054565 C 576.025146 1118.206299 567.829285 1126.401611 550.920288 1126.401611 L 546.889404 1126.401611 C 534.01062 1126.401611 522.694153 1121.979614 516.452209 1110.402344 Z M 532.453796 1100.524414 C 526.991333 1095.319092 522.699646 1088.685669 522.699646 1081.012085 L 522.695923 1081.012085 C 522.695923 1072.686035 528.68042 1065.27356 537.785767 1065.27356 C 543.121399 1065.27356 546.891113 1068.00293 549.363525 1071.776245 C 552.096069 1068.00647 555.739441 1065.27356 561.071167 1065.27356 C 570.046326 1065.27356 576.287781 1072.686035 576.287781 1081.012085 C 576.287781 1088.689331 571.996155 1095.32251 566.403503 1100.524414 C 562.890564 1104.036255 557.170898 1107.679565 553.267212 1110.020752 C 552.223083 1110.670166 550.925476 1111.061523 549.363525 1111.061523 C 548.061951 1111.061523 546.891113 1110.670166 545.720398 1110.020752 C 541.820129 1107.679565 536.09668 1104.036255 532.453796 1100.524414 Z M 586.565125 1067.095703 L 586.565125 1081.794067 C 586.566956 1083.354492 587.737366 1084.52356 589.816589 1084.52356 C 596.449951 1084.52356 600.092712 1080.750122 600.092712 1074.508301 C 600.092712 1068.266479 596.449951 1064.362671 589.816589 1064.362671 C 587.735718 1064.362671 586.565125 1065.533447 586.565125 1067.095703 Z"/>
        </g>
        <g id="Black-S">
            <path id="kofisymbol-Kopie-8" fill="#202020" stroke="none" d="M 2899.393555 620.320313 C 2888.482178 621.7146 2879.194336 630.070557 2879.194336 645.511108 L 2879.191162 645.511108 C 2879.191162 661.181396 2880.003174 672.908203 2886.272705 683.470337 C 2893.354004 695.543335 2905.194092 702.158936 2920.518066 702.158936 L 2924.232178 702.158936 C 2943.037354 702.158936 2953.253174 692.175781 2958.36084 684.282715 C 2960.567383 680.798218 2962.19165 677.317871 2963.236328 673.833374 C 2976.586914 672.675293 2986.453613 661.647339 2986.453613 648.179932 L 2986.453613 646.32312 C 2986.453613 631.811035 2976.936768 621.711304 2960.567383 620.087402 C 2953.602539 619.391846 2948.727539 619.158936 2929.922607 619.158936 C 2917.852539 619.158936 2907.636475 619.275391 2899.393555 620.320313 Z M 2893.703613 679.171875 C 2888.828613 670.233521 2887.900146 660.599609 2887.900146 645.624756 L 2887.896973 645.624756 C 2887.896973 635.874634 2891.730469 630.420288 2901.364258 629.026001 C 2908.212646 627.981079 2917.267578 627.864746 2929.919434 627.864746 C 2948.727539 627.864746 2952.674561 628.097656 2959.290283 628.676758 C 2971.01709 630.067749 2977.749023 635.758057 2977.749023 646.553223 L 2977.749023 648.293579 C 2977.749023 657.930664 2969.739014 665.474609 2960.451416 665.474609 L 2956.271973 665.474609 L 2955.575928 668.376465 C 2954.647705 672.90564 2952.907471 676.50293 2950.933838 679.754028 C 2946.87085 686.136719 2939.556396 693.450806 2924.465576 693.450806 L 2920.868164 693.450806 C 2909.374023 693.450806 2899.274414 689.504272 2893.703613 679.171875 Z M 2907.984619 670.356079 C 2903.109619 665.710449 2899.279297 659.790405 2899.279297 652.941895 L 2899.276123 652.941895 C 2899.276123 645.511108 2904.617188 638.89563 2912.743408 638.89563 C 2917.505371 638.89563 2920.869629 641.331543 2923.076172 644.699097 C 2925.514893 641.334717 2928.766602 638.89563 2933.524902 638.89563 C 2941.534912 638.89563 2947.105469 645.511108 2947.105469 652.941895 C 2947.105469 659.793579 2943.275146 665.713501 2938.283936 670.356079 C 2935.148682 673.490234 2930.043945 676.741821 2926.560059 678.831299 C 2925.628174 679.410889 2924.470215 679.760132 2923.076172 679.760132 C 2921.914551 679.760132 2920.869629 679.410889 2919.824707 678.831299 C 2916.343994 676.741821 2911.23584 673.490234 2907.984619 670.356079 Z M 2956.277588 640.521851 L 2956.277588 653.639771 C 2956.279297 655.032349 2957.32373 656.075684 2959.179443 656.075684 C 2965.099609 656.075684 2968.350586 652.708008 2968.350586 647.137451 C 2968.350586 641.566772 2965.099609 638.082764 2959.179443 638.082764 C 2957.322266 638.082764 2956.277588 639.127563 2956.277588 640.521851 Z"/>
        </g>
        <g id="Heavy-S">
            <path id="kofisymbol-Kopie-7" fill="#202020" stroke="none" d="M 2604.150146 620.306274 C 2593.370117 621.683838 2584.194336 629.939087 2584.194336 645.193604 L 2584.191162 645.193604 C 2584.191162 660.675171 2584.993408 672.26062 2591.187256 682.695435 C 2598.18335 694.623047 2609.880859 701.158936 2625.020264 701.158936 L 2628.689453 701.158936 C 2647.268066 701.158936 2657.36084 691.296143 2662.406982 683.498047 C 2664.586914 680.055542 2666.19165 676.617188 2667.223633 673.174683 C 2680.413574 672.030518 2690.161377 661.135376 2690.161377 647.830322 L 2690.161377 645.99585 C 2690.161377 631.658569 2680.759033 621.680542 2664.586914 620.076172 C 2657.706055 619.389038 2652.889893 619.158936 2634.311279 619.158936 C 2622.386719 619.158936 2612.293701 619.273926 2604.150146 620.306274 Z M 2598.528809 678.448853 C 2593.712646 669.618164 2592.795166 660.100342 2592.795166 645.305908 L 2592.791992 645.305908 C 2592.791992 635.673218 2596.579346 630.284668 2606.097168 628.907104 C 2612.863037 627.874756 2621.808838 627.759766 2634.30835 627.759766 C 2652.889893 627.759766 2656.789307 627.98999 2663.325195 628.562012 C 2674.910645 629.936279 2681.561523 635.558105 2681.561523 646.223145 L 2681.561523 647.942627 C 2681.561523 657.463623 2673.647949 664.916504 2664.472412 664.916504 L 2660.343262 664.916504 L 2659.655762 667.783447 C 2658.738525 672.258057 2657.019287 675.812012 2655.06958 679.023926 C 2651.055664 685.329712 2643.829102 692.555786 2628.920166 692.555786 L 2625.365967 692.555786 C 2614.010498 692.555786 2604.032471 688.656738 2598.528809 678.448853 Z M 2612.637695 669.739258 C 2607.821289 665.149658 2604.037354 659.300781 2604.037354 652.53479 L 2604.03418 652.53479 C 2604.03418 645.193604 2609.310791 638.657837 2617.339111 638.657837 C 2622.043701 638.657837 2625.367432 641.064331 2627.547363 644.391479 C 2629.956787 641.067505 2633.169189 638.657837 2637.870361 638.657837 C 2645.783936 638.657837 2651.287109 645.193604 2651.287109 652.53479 C 2651.287109 659.303955 2647.503174 665.152588 2642.572021 669.739258 C 2639.474609 672.835693 2634.431396 676.048096 2630.989502 678.112427 C 2630.068848 678.684937 2628.924561 679.030029 2627.547363 679.030029 C 2626.399902 679.030029 2625.367432 678.684937 2624.335205 678.112427 C 2620.89624 676.048096 2615.849854 672.835693 2612.637695 669.739258 Z M 2660.348877 640.264404 L 2660.348877 653.224365 C 2660.350586 654.60022 2661.382324 655.630981 2663.21582 655.630981 C 2669.064453 655.630981 2672.276367 652.303833 2672.276367 646.800293 C 2672.276367 641.296753 2669.064453 637.854736 2663.21582 637.854736 C 2661.380859 637.854736 2660.348877 638.886963 2660.348877 640.264404 Z"/>
        </g>
        <g id="Bold-S">
            <path id="kofisymbol-Kopie-6" fill="#202020" stroke="none" d="M 2303.66333 620.27832 C 2293.14624 621.622192 2284.194336 629.67627 2284.194336 644.558594 L 2284.191162 644.558594 C 2284.191162 659.662598 2284.973877 670.965454 2291.016602 681.145752 C 2297.842041 692.782471 2309.25415 699.158936 2324.024414 699.158936 L 2327.604248 699.158936 C 2345.729492 699.158936 2355.576172 689.536621 2360.499268 681.928833 C 2362.625977 678.570313 2364.19165 675.215698 2365.198486 671.857178 C 2378.06665 670.740967 2387.57666 660.111572 2387.57666 647.130981 L 2387.57666 645.341309 C 2387.57666 631.35376 2378.403809 621.619019 2362.625977 620.053833 C 2355.912842 619.383423 2351.214111 619.158936 2333.088867 619.158936 C 2321.455078 619.158936 2311.608398 619.271118 2303.66333 620.27832 Z M 2298.179199 677.002808 C 2293.480469 668.387451 2292.585449 659.101685 2292.585449 644.668091 L 2292.582275 644.668091 C 2292.582275 635.270386 2296.277344 630.013306 2305.562744 628.669434 C 2312.163818 627.662231 2320.891113 627.550049 2333.085938 627.550049 C 2351.214111 627.550049 2355.018555 627.774536 2361.39502 628.332764 C 2372.697998 629.673462 2379.186768 635.158081 2379.186768 645.562988 L 2379.186768 647.240479 C 2379.186768 656.529297 2371.466309 663.800537 2362.51416 663.800537 L 2358.48584 663.800537 L 2357.815186 666.597412 C 2356.92041 670.962891 2355.243164 674.430176 2353.34082 677.563843 C 2349.424805 683.71582 2342.374512 690.765625 2327.829102 690.765625 L 2324.361816 690.765625 C 2313.283203 690.765625 2303.548584 686.96167 2298.179199 677.002808 Z M 2311.944092 668.505615 C 2307.245117 664.027832 2303.553223 658.321777 2303.553223 651.720825 L 2303.550049 651.720825 C 2303.550049 644.558594 2308.697998 638.182251 2316.530518 638.182251 C 2321.120361 638.182251 2324.363281 640.530151 2326.48999 643.776001 C 2328.840576 640.533203 2331.974609 638.182251 2336.561035 638.182251 C 2344.281738 638.182251 2349.650635 644.558594 2349.650635 651.720825 C 2349.650635 658.324829 2345.958984 664.030884 2341.147949 668.505615 C 2338.126221 671.526489 2333.206055 674.660522 2329.8479 676.674438 C 2328.949707 677.233032 2327.833496 677.569702 2326.48999 677.569702 C 2325.370361 677.569702 2324.363281 677.233032 2323.356201 676.674438 C 2320.000977 674.660522 2315.077637 671.526489 2311.944092 668.505615 Z M 2358.491211 639.749634 L 2358.491211 652.393433 C 2358.49292 653.735718 2359.499756 654.741333 2361.28833 654.741333 C 2366.994385 654.741333 2370.12793 651.495483 2370.12793 646.126099 C 2370.12793 640.756836 2366.994385 637.398682 2361.28833 637.398682 C 2359.498291 637.398682 2358.491211 638.405762 2358.491211 639.749634 Z"/>
        </g>
        <g id="Semibold-S">
            <path id="kofisymbol-Kopie-5" fill="#202020" stroke="none" d="M 2011.420044 620.264282 C 2001.034302 621.591431 1992.194214 629.5448 1992.194214 644.241211 L 1992.191162 644.241211 C 1992.191162 659.15625 1992.964111 670.317871 1998.931274 680.370972 C 2005.671387 691.862183 2016.940918 698.158936 2031.526489 698.158936 L 2035.061523 698.158936 C 2052.960449 698.158936 2062.683838 688.656982 2067.54541 681.144165 C 2069.645508 677.827637 2071.19165 674.515015 2072.186035 671.198486 C 2084.893066 670.096191 2094.284424 659.599731 2094.284424 646.781372 L 2094.284424 645.014038 C 2094.284424 631.201294 2085.226074 621.588257 2069.645508 620.042603 C 2063.016357 619.380615 2058.376465 619.158936 2040.477661 619.158936 C 2028.98938 619.158936 2019.265625 619.269775 2011.420044 620.264282 Z M 2006.004395 676.279663 C 2001.364258 667.772095 2000.480469 658.602417 2000.480469 644.349243 L 2000.477417 644.349243 C 2000.477417 635.06897 2004.126221 629.877563 2013.295654 628.550537 C 2019.814087 627.555908 2028.432495 627.44519 2040.474731 627.44519 C 2058.376465 627.44519 2062.133301 627.66687 2068.429932 628.218018 C 2079.591797 629.541992 2085.999268 634.95813 2085.999268 645.233032 L 2085.999268 646.889526 C 2085.999268 656.062134 2078.375244 663.242432 2069.535156 663.242432 L 2065.557129 663.242432 L 2064.894775 666.004517 C 2064.01123 670.31543 2062.35498 673.73938 2060.476563 676.83374 C 2056.609375 682.908936 2049.647217 689.870483 2035.283691 689.870483 L 2031.859619 689.870483 C 2020.919556 689.870483 2011.306641 686.114136 2006.004395 676.279663 Z M 2019.597046 667.888794 C 2014.956909 663.467041 2011.311279 657.832275 2011.311279 651.313721 L 2011.308105 651.313721 C 2011.308105 644.241089 2016.391724 637.944458 2024.126343 637.944458 C 2028.658813 637.944458 2031.861084 640.262939 2033.961182 643.468262 C 2036.282471 640.265991 2039.377319 637.944458 2043.906494 637.944458 C 2051.530518 637.944458 2056.832275 644.241089 2056.832275 651.313721 C 2056.832275 657.835327 2053.186768 663.469971 2048.436035 667.888794 C 2045.452026 670.871826 2040.593384 673.966797 2037.277222 675.955566 C 2036.390259 676.507202 2035.288086 676.8396 2033.961182 676.8396 C 2032.855591 676.8396 2031.861084 676.507202 2030.866577 675.955566 C 2027.553467 673.966797 2022.691528 670.871826 2019.597046 667.888794 Z M 2065.5625 639.49231 L 2065.5625 651.978027 C 2065.564209 653.303589 2066.55835 654.296631 2068.324463 654.296631 C 2073.959473 654.296631 2077.053711 651.091187 2077.053711 645.789063 C 2077.053711 640.486816 2073.959473 637.170776 2068.324463 637.170776 C 2066.556885 637.170776 2065.5625 638.165161 2065.5625 639.49231 Z"/>
        </g>
        <g id="Medium-S">
            <path id="kofisymbol-Kopie-4" fill="#202020" stroke="none" d="M 1714.420044 622.264282 C 1704.034302 623.591431 1695.194214 631.5448 1695.194214 646.241211 L 1695.191162 646.241211 C 1695.191162 661.15625 1695.964111 672.317871 1701.931274 682.370972 C 1708.671387 693.862183 1719.940918 700.158936 1734.526489 700.158936 L 1738.061523 700.158936 C 1755.960327 700.158936 1765.68396 690.656982 1770.545532 683.144165 C 1772.645508 679.827637 1774.191528 676.515015 1775.185913 673.198486 C 1787.893188 672.096191 1797.284302 661.599731 1797.284302 648.781372 L 1797.284302 647.014038 C 1797.284302 633.201294 1788.226074 623.588257 1772.645508 622.042603 C 1766.016357 621.380615 1761.376465 621.158936 1743.477661 621.158936 C 1731.98938 621.158936 1722.265625 621.269775 1714.420044 622.264282 Z M 1709.004395 678.279663 C 1704.364258 669.772095 1703.480469 660.602417 1703.480469 646.349243 L 1703.477417 646.349243 C 1703.477417 637.06897 1707.126221 631.877563 1716.295654 630.550537 C 1722.814087 629.555908 1731.432495 629.44519 1743.474731 629.44519 C 1761.376465 629.44519 1765.133301 629.66687 1771.430054 630.218018 C 1782.591797 631.541992 1788.999268 636.95813 1788.999268 647.233032 L 1788.999268 648.889526 C 1788.999268 658.062134 1781.375244 665.242432 1772.535278 665.242432 L 1768.557251 665.242432 L 1767.894775 668.004517 C 1767.01123 672.31543 1765.354858 675.73938 1763.47644 678.83374 C 1759.609253 684.908936 1752.647217 691.870483 1738.283691 691.870483 L 1734.859619 691.870483 C 1723.919556 691.870483 1714.306641 688.114136 1709.004395 678.279663 Z M 1722.597046 669.888794 C 1717.956909 665.467041 1714.311279 659.832275 1714.311279 653.313721 L 1714.308105 653.313721 C 1714.308105 646.241089 1719.391724 639.944458 1727.126343 639.944458 C 1731.658813 639.944458 1734.861084 642.262939 1736.961182 645.468262 C 1739.282471 642.265991 1742.377319 639.944458 1746.906494 639.944458 C 1754.530518 639.944458 1759.832397 646.241089 1759.832397 653.313721 C 1759.832397 659.835327 1756.186768 665.469971 1751.436035 669.888794 C 1748.452026 672.871826 1743.593384 675.966797 1740.277222 677.955566 C 1739.390259 678.507202 1738.288086 678.8396 1736.961182 678.8396 C 1735.855591 678.8396 1734.861084 678.507202 1733.866577 677.955566 C 1730.553467 675.966797 1725.691528 672.871826 1722.597046 669.888794 Z M 1768.562622 641.49231 L 1768.562622 653.978027 C 1768.564209 655.303589 1769.55835 656.296631 1771.324585 656.296631 C 1776.959351 656.296631 1780.053833 653.091187 1780.053833 647.789063 C 1780.053833 642.486816 1776.959351 639.170776 1771.324585 639.170776 C 1769.557007 639.170776 1768.562622 640.165161 1768.562622 641.49231 Z"/>
        </g>
        <g id="Regular-S">
            <path id="kofisymbol-Kopie-3" fill="#202020" stroke="none" d="M 1418.176636 622.250366 C 1407.922363 623.560669 1399.194214 631.41333 1399.194214 645.923706 L 1399.191162 645.923706 C 1399.191162 660.650024 1399.954224 671.670288 1405.846069 681.596069 C 1412.500732 692.941895 1423.627686 699.158936 1438.028564 699.158936 L 1441.518921 699.158936 C 1459.191162 699.158936 1468.791626 689.777222 1473.591675 682.359497 C 1475.665161 679.084961 1477.191528 675.814331 1478.17334 672.539795 C 1490.719727 671.451416 1499.991943 661.087769 1499.991943 648.431763 L 1499.991943 646.686768 C 1499.991943 633.048828 1491.04834 623.557617 1475.665161 622.031372 C 1469.119873 621.377808 1464.538696 621.158936 1446.866455 621.158936 C 1435.52356 621.158936 1425.922852 621.268311 1418.176636 622.250366 Z M 1412.829468 677.556641 C 1408.248169 669.156738 1407.375488 660.103149 1407.375488 646.030396 L 1407.372559 646.030396 C 1407.372559 636.867676 1410.975098 631.741943 1420.028564 630.431641 C 1426.464355 629.449707 1434.973755 629.34021 1446.863525 629.34021 C 1464.538696 629.34021 1468.247925 629.559204 1474.464966 630.103394 C 1485.485352 631.410522 1491.81189 636.758179 1491.81189 646.902954 L 1491.81189 648.538452 C 1491.81189 657.595093 1484.284302 664.684448 1475.556152 664.684448 L 1471.62854 664.684448 L 1470.974487 667.411499 C 1470.102173 671.667847 1468.466797 675.048462 1466.612061 678.103638 C 1462.793823 684.101929 1455.919922 690.975464 1441.738159 690.975464 L 1438.357422 690.975464 C 1427.555908 690.975464 1418.064697 687.266602 1412.829468 677.556641 Z M 1426.250122 669.271973 C 1421.668701 664.906128 1418.069214 659.342651 1418.069214 652.906738 L 1418.066162 652.906738 C 1418.066162 645.923584 1423.085449 639.706665 1430.722168 639.706665 C 1435.197144 639.706665 1438.358887 641.99585 1440.432495 645.160522 C 1442.724243 641.998779 1445.780029 639.706665 1450.251831 639.706665 C 1457.779419 639.706665 1463.01416 645.923584 1463.01416 652.906738 C 1463.01416 659.345703 1459.414673 664.909058 1454.724121 669.271973 C 1451.777832 672.217285 1446.980591 675.273071 1443.706543 677.236572 C 1442.830811 677.78125 1441.742554 678.109497 1440.432495 678.109497 C 1439.34082 678.109497 1438.358887 677.78125 1437.376953 677.236572 C 1434.105835 675.273071 1429.30542 672.217285 1426.250122 669.271973 Z M 1471.633789 641.234863 L 1471.633789 653.562622 C 1471.635376 654.871338 1472.616943 655.851807 1474.36084 655.851807 C 1479.924316 655.851807 1482.979614 652.687012 1482.979614 647.451904 C 1482.979614 642.216919 1479.924316 638.942749 1474.36084 638.942749 C 1472.615601 638.942749 1471.633789 639.924561 1471.633789 641.234863 Z"/>
        </g>
        <g id="Light-S">
            <path id="kofisymbol-Kopie-2" fill="#202020" stroke="none" d="M 1122.689819 623.222412 C 1112.698486 624.499023 1104.194092 632.150391 1104.194092 646.288696 L 1104.191162 646.288696 C 1104.191162 660.637329 1104.934692 671.375122 1110.675415 681.046387 C 1117.159546 692.101318 1128.001099 698.158936 1142.032715 698.158936 L 1145.433594 698.158936 C 1162.652588 698.158936 1172.006958 689.0177 1176.68396 681.790283 C 1178.704224 678.599731 1180.191528 675.412842 1181.148193 672.22229 C 1193.372803 671.161865 1202.407349 661.063965 1202.407349 648.732422 L 1202.407349 647.032227 C 1202.407349 633.744019 1193.693115 624.496094 1178.704224 623.009033 C 1172.326782 622.372192 1167.863037 622.158936 1150.644043 622.158936 C 1139.591919 622.158936 1130.237427 622.265503 1122.689819 623.222412 Z M 1117.479736 677.110596 C 1113.015869 668.926025 1112.165649 660.104614 1112.165649 646.3927 L 1112.16272 646.3927 C 1112.16272 637.464844 1115.672974 632.470581 1124.494263 631.193848 C 1130.765137 630.237061 1139.056274 630.130493 1150.641235 630.130493 C 1167.863037 630.130493 1171.477295 630.34375 1177.534912 630.874023 C 1188.272705 632.147705 1194.437012 637.358154 1194.437012 647.242798 L 1194.437012 648.836426 C 1194.437012 657.660767 1187.102417 664.568481 1178.598145 664.568481 L 1174.771118 664.568481 L 1174.133911 667.225586 C 1173.283936 671.372681 1171.69043 674.666626 1169.883423 677.643555 C 1166.163086 683.488037 1159.465332 690.185181 1145.647217 690.185181 L 1142.353149 690.185181 C 1131.828613 690.185181 1122.580688 686.571533 1117.479736 677.110596 Z M 1130.556274 669.038208 C 1126.092407 664.784424 1122.585205 659.363647 1122.585205 653.092651 L 1122.582153 653.092651 C 1122.582153 646.288574 1127.472778 640.231079 1134.913696 640.231079 C 1139.273926 640.231079 1142.354614 642.461548 1144.375 645.545166 C 1146.608032 642.464478 1149.585449 640.231079 1153.942627 640.231079 C 1161.2771 640.231079 1166.377686 646.288574 1166.377686 653.092651 C 1166.377686 659.366577 1162.870483 664.787231 1158.300171 669.038208 C 1155.429443 671.908081 1150.755249 674.885498 1147.565186 676.798706 C 1146.711914 677.329346 1145.651489 677.64917 1144.375 677.64917 C 1143.311401 677.64917 1142.354614 677.329346 1141.397827 676.798706 C 1138.210571 674.885498 1133.533325 671.908081 1130.556274 669.038208 Z M 1174.776367 641.720093 L 1174.776367 653.731689 C 1174.777832 655.006958 1175.734253 655.96228 1177.433472 655.96228 C 1182.854248 655.96228 1185.831177 652.87854 1185.831177 647.777832 C 1185.831177 642.677002 1182.854248 639.486694 1177.433472 639.486694 C 1175.73291 639.486694 1174.776367 640.443481 1174.776367 641.720093 Z"/>
        </g>
        <g id="Thin-S">
            <path id="kofisymbol-Kopie" fill="#202020" stroke="none" d="M 827.203003 624.194336 C 817.47467 625.4375 809.194092 632.887451 809.194092 646.653687 L 809.191223 646.653687 C 809.191223 660.624756 809.915161 671.079956 815.504761 680.496704 C 821.818237 691.260742 832.374512 697.158936 846.036926 697.158936 L 849.348267 697.158936 C 866.114197 697.158936 875.222351 688.258301 879.776245 681.221069 C 881.743347 678.11438 883.191528 675.011475 884.122986 671.904785 C 896.02594 670.872314 904.822693 661.040161 904.822693 649.033081 L 904.822693 647.377686 C 904.822693 634.439087 896.337769 625.43457 881.743347 623.986694 C 875.533752 623.366577 871.1875 623.158936 854.42157 623.158936 C 843.660339 623.158936 834.552002 623.262695 827.203003 624.194336 Z M 822.130066 676.664429 C 817.783691 668.695313 816.955811 660.106079 816.955811 646.755005 L 816.953003 646.755005 C 816.953003 638.062012 820.370789 633.199219 828.959961 631.956055 C 835.065796 631.024536 843.138733 630.920654 854.418823 630.920654 C 871.1875 630.920654 874.706604 631.128418 880.604797 631.644653 C 891.060059 632.884766 897.062073 637.95813 897.062073 647.582764 L 897.062073 649.134399 C 897.062073 657.726563 889.920593 664.452393 881.640015 664.452393 L 877.913818 664.452393 L 877.293274 667.039551 C 876.465637 671.077637 874.914185 674.284912 873.154602 677.183472 C 869.532227 682.874023 863.010742 689.39502 849.556274 689.39502 L 846.348938 689.39502 C 836.101318 689.39502 827.096741 685.876465 822.130066 676.664429 Z M 834.862488 668.804565 C 830.515991 664.66272 827.101135 659.384521 827.101135 653.278687 L 827.098206 653.278687 C 827.098206 646.653564 831.860046 640.755493 839.105164 640.755493 C 843.350708 640.755493 846.350281 642.927246 848.317566 645.929688 C 850.491821 642.930054 853.390869 640.755493 857.633362 640.755493 C 864.774841 640.755493 869.74115 646.653564 869.74115 653.278687 C 869.74115 659.387451 866.326355 664.665405 861.876282 668.804565 C 859.081055 671.598877 854.529907 674.497925 851.423706 676.36084 C 850.592896 676.877563 849.560364 677.188965 848.317566 677.188965 C 847.281921 677.188965 846.350281 676.877563 845.418762 676.36084 C 842.315308 674.497925 837.761108 671.598877 834.862488 668.804565 Z M 877.918823 642.205322 L 877.918823 653.900879 C 877.920288 655.142456 878.851563 656.072754 880.505981 656.072754 C 885.78418 656.072754 888.682739 653.07019 888.682739 648.103638 C 888.682739 643.136963 885.78418 640.030762 880.505981 640.030762 C 878.850281 640.030762 877.918823 640.96228 877.918823 642.205322 Z"/>
        </g>
        <g id="Ultralight-S">
            <path id="kofisymbol" fill="#202020" stroke="none" d="M 528.959595 625.18042 C 519.362732 626.406738 511.194031 633.755981 511.194031 647.336182 L 511.191193 647.336182 C 511.191193 661.11853 511.905365 671.432373 517.419434 680.721924 C 523.647583 691.340454 534.061218 697.158936 547.539001 697.158936 L 550.805603 697.158936 C 567.344971 697.158936 576.330078 688.37854 580.822388 681.436401 C 582.762939 678.371826 584.191528 675.310791 585.110352 672.246094 C 596.852478 671.227539 605.530396 661.528198 605.530396 649.683472 L 605.530396 648.050415 C 605.530396 635.286743 597.160095 626.403809 582.762939 624.975464 C 576.637268 624.36377 572.349731 624.158936 555.810303 624.158936 C 545.19458 624.158936 536.20929 624.261353 528.959595 625.18042 Z M 523.955261 676.941406 C 519.667542 669.079956 518.850891 660.606689 518.850891 647.436035 L 518.848083 647.436035 C 518.848083 638.860718 522.219727 634.063477 530.69281 632.83728 C 536.716125 631.918213 544.679993 631.815796 555.807617 631.815796 C 572.349731 631.815796 575.821228 632.02063 581.639771 632.530029 C 591.953735 633.753418 597.874634 638.758179 597.874634 648.252686 L 597.874634 649.783447 C 597.874634 658.259399 590.829651 664.894409 582.661011 664.894409 L 578.985107 664.894409 L 578.372986 667.446533 C 577.556519 671.430054 576.026001 674.593994 574.290283 677.453369 C 570.716797 683.067139 564.283447 689.5 551.010803 689.5 L 547.846802 689.5 C 537.737671 689.5 528.854797 686.028931 523.955261 676.941406 Z M 536.515625 669.187744 C 532.227844 665.101807 528.859131 659.89502 528.859131 653.871582 L 528.856201 653.871582 C 528.856201 647.336182 533.553711 641.5177 540.700928 641.5177 C 544.889099 641.5177 547.848145 643.660156 549.788818 646.62207 C 551.933716 643.662964 554.793579 641.5177 558.978699 641.5177 C 566.023682 641.5177 570.922913 647.336182 570.922913 653.871582 C 570.922913 659.897827 567.55426 665.104492 563.164307 669.187744 C 560.40686 671.944336 555.917236 674.804199 552.853027 676.641846 C 552.033447 677.151611 551.014832 677.45874 549.788818 677.45874 C 548.767151 677.45874 547.848145 677.151611 546.929199 676.641846 C 543.867676 674.804199 539.375061 671.944336 536.515625 669.187744 Z M 578.990051 642.947998 L 578.990051 654.485474 C 578.991516 655.710327 579.910217 656.62793 581.542297 656.62793 C 586.749146 656.62793 589.608521 653.666016 589.608521 648.766479 C 589.608521 643.867065 586.749146 640.802734 581.542297 640.802734 C 579.908936 640.802734 578.990051 641.72168 578.990051 642.947998 Z"/>
        </g>
    </g>
</svg>
