<?xml version="1.0" encoding="UTF-8"?>
<!--Generator: Apple Native CoreSVG 175.5-->
<!DOCTYPE svg
PUBLIC "-//W3C//DTD SVG 1.1//EN"
       "http://www.w3.org/Graphics/SVG/1.1/DTD/svg11.dtd">
<svg version="1.1" xmlns="http://www.w3.org/2000/svg" xmlns:xlink="http://www.w3.org/1999/xlink" width="3300" height="2200">
 <!--glyph: "", point size: 100.0, font version: "18.0d12e2", template writer version: "101"-->
 <style>.monochrome-0 {fill:#000000}
.monochrome-1 {fill:#000000}

.multicolor-0:custom {fill:#5865F2}
.multicolor-1:custom {fill:#5865F2}

.hierarchical-0:secondary {fill:#4D4D4D}
.hierarchical-1:primary {fill:#212121}

.SFSymbolsPreview5865F2 {fill:#5865F2;opacity:1.0}
</style>
 <g id="Notes">
  <rect height="2200" id="artboard" style="fill:white;opacity:1" width="3300" x="0" y="0"/>
  <line style="fill:none;stroke:black;opacity:1;stroke-width:0.5;" x1="263" x2="3036" y1="292" y2="292"/>
  <text style="stroke:none;fill:black;font-family:sans-serif;font-size:13;font-weight:bold;" transform="matrix(1 0 0 1 263 322)">Weight/Scale Variations</text>
  <text style="stroke:none;fill:black;font-family:sans-serif;font-size:13;text-anchor:middle;" transform="matrix(1 0 0 1 559.711 322)">Ultralight</text>
  <text style="stroke:none;fill:black;font-family:sans-serif;font-size:13;text-anchor:middle;" transform="matrix(1 0 0 1 856.422 322)">Thin</text>
  <text style="stroke:none;fill:black;font-family:sans-serif;font-size:13;text-anchor:middle;" transform="matrix(1 0 0 1 1153.13 322)">Light</text>
  <text style="stroke:none;fill:black;font-family:sans-serif;font-size:13;text-anchor:middle;" transform="matrix(1 0 0 1 1449.84 322)">Regular</text>
  <text style="stroke:none;fill:black;font-family:sans-serif;font-size:13;text-anchor:middle;" transform="matrix(1 0 0 1 1746.56 322)">Medium</text>
  <text style="stroke:none;fill:black;font-family:sans-serif;font-size:13;text-anchor:middle;" transform="matrix(1 0 0 1 2043.27 322)">Semibold</text>
  <text style="stroke:none;fill:black;font-family:sans-serif;font-size:13;text-anchor:middle;" transform="matrix(1 0 0 1 2339.98 322)">Bold</text>
  <text style="stroke:none;fill:black;font-family:sans-serif;font-size:13;text-anchor:middle;" transform="matrix(1 0 0 1 2636.69 322)">Heavy</text>
  <text style="stroke:none;fill:black;font-family:sans-serif;font-size:13;text-anchor:middle;" transform="matrix(1 0 0 1 2933.4 322)">Black</text>
  <line style="fill:none;stroke:black;opacity:1;stroke-width:0.5;" x1="263" x2="3036" y1="1903" y2="1903"/>
  <g transform="matrix(1 0 0 1 263 1933)">
   <path d="M9.24805 0.830078C13.5547 0.830078 17.1387-2.74414 17.1387-7.05078C17.1387-11.3574 13.5449-14.9316 9.23828-14.9316C4.94141-14.9316 1.36719-11.3574 1.36719-7.05078C1.36719-2.74414 4.95117 0.830078 9.24805 0.830078ZM9.24805-0.654297C5.70312-0.654297 2.87109-3.49609 2.87109-7.05078C2.87109-10.6055 5.69336-13.4473 9.23828-13.4473C12.793-13.4473 15.6445-10.6055 15.6445-7.05078C15.6445-3.49609 12.8027-0.654297 9.24805-0.654297ZM5.6543-7.05078C5.6543-6.62109 5.95703-6.32812 6.40625-6.32812L8.50586-6.32812L8.50586-4.20898C8.50586-3.76953 8.79883-3.4668 9.22852-3.4668C9.67773-3.4668 9.9707-3.76953 9.9707-4.20898L9.9707-6.32812L12.0898-6.32812C12.5293-6.32812 12.832-6.62109 12.832-7.05078C12.832-7.49023 12.5293-7.79297 12.0898-7.79297L9.9707-7.79297L9.9707-9.90234C9.9707-10.3516 9.67773-10.6543 9.22852-10.6543C8.79883-10.6543 8.50586-10.3516 8.50586-9.90234L8.50586-7.79297L6.40625-7.79297C5.95703-7.79297 5.6543-7.49023 5.6543-7.05078Z"/>
  </g>
  <g transform="matrix(1 0 0 1 281.867 1933)">
   <path d="M11.709 2.91016C17.1582 2.91016 21.6699-1.61133 21.6699-7.05078C21.6699-12.5 17.1484-17.0117 11.6992-17.0117C6.25977-17.0117 1.74805-12.5 1.74805-7.05078C1.74805-1.61133 6.26953 2.91016 11.709 2.91016ZM11.709 1.25C7.09961 1.25 3.41797-2.44141 3.41797-7.05078C3.41797-11.6602 7.08984-15.3516 11.6992-15.3516C16.3086-15.3516 20.0098-11.6602 20.0098-7.05078C20.0098-2.44141 16.3184 1.25 11.709 1.25ZM7.17773-7.05078C7.17773-6.57227 7.50977-6.25 8.00781-6.25L10.8789-6.25L10.8789-3.36914C10.8789-2.88086 11.2109-2.53906 11.6895-2.53906C12.1777-2.53906 12.5195-2.87109 12.5195-3.36914L12.5195-6.25L15.4004-6.25C15.8887-6.25 16.2305-6.57227 16.2305-7.05078C16.2305-7.53906 15.8887-7.88086 15.4004-7.88086L12.5195-7.88086L12.5195-10.752C12.5195-11.25 12.1777-11.5918 11.6895-11.5918C11.2109-11.5918 10.8789-11.25 10.8789-10.752L10.8789-7.88086L8.00781-7.88086C7.50977-7.88086 7.17773-7.53906 7.17773-7.05078Z"/>
  </g>
  <g transform="matrix(1 0 0 1 305.646 1933)">
   <path d="M14.9707 5.66406C21.9336 5.66406 27.6953-0.0976562 27.6953-7.05078C27.6953-14.0137 21.9238-19.7754 14.9609-19.7754C8.00781-19.7754 2.25586-14.0137 2.25586-7.05078C2.25586-0.0976562 8.01758 5.66406 14.9707 5.66406ZM14.9707 3.84766C8.93555 3.84766 4.08203-1.01562 4.08203-7.05078C4.08203-13.0957 8.92578-17.9492 14.9609-17.9492C21.0059-17.9492 25.8691-13.0957 25.8691-7.05078C25.8691-1.01562 21.0156 3.84766 14.9707 3.84766ZM9.19922-7.05078C9.19922-6.5332 9.57031-6.17188 10.1172-6.17188L14.0625-6.17188L14.0625-2.2168C14.0625-1.67969 14.4336-1.29883 14.9512-1.29883C15.4883-1.29883 15.8594-1.66992 15.8594-2.2168L15.8594-6.17188L19.8145-6.17188C20.3516-6.17188 20.7324-6.5332 20.7324-7.05078C20.7324-7.59766 20.3613-7.96875 19.8145-7.96875L15.8594-7.96875L15.8594-11.9141C15.8594-12.4609 15.4883-12.8418 14.9512-12.8418C14.4336-12.8418 14.0625-12.4609 14.0625-11.9141L14.0625-7.96875L10.1172-7.96875C9.57031-7.96875 9.19922-7.59766 9.19922-7.05078Z"/>
  </g>
  <text style="stroke:none;fill:black;font-family:sans-serif;font-size:13;font-weight:bold;" transform="matrix(1 0 0 1 263 1953)">Design Variations</text>
  <text style="stroke:none;fill:black;font-family:sans-serif;font-size:13;" transform="matrix(1 0 0 1 263 1971)">Symbols are supported in up to nine weights and three scales.</text>
  <text style="stroke:none;fill:black;font-family:sans-serif;font-size:13;" transform="matrix(1 0 0 1 263 1989)">For optimal layout with text and other symbols, vertically align</text>
  <text style="stroke:none;fill:black;font-family:sans-serif;font-size:13;" transform="matrix(1 0 0 1 263 2007)">symbols with the adjacent text.</text>
  <line style="fill:none;stroke:#00AEEF;stroke-width:0.5;opacity:1.0;" x1="776" x2="776" y1="1919" y2="1933"/>
  <g transform="matrix(1 0 0 1 776 1933)">
   <path d="M3.31055 0.15625C3.82812 0.15625 4.08203-0.0390625 4.26758-0.585938L5.52734-4.0332L11.2891-4.0332L12.5488-0.585938C12.7344-0.0390625 12.9883 0.15625 13.4961 0.15625C14.0137 0.15625 14.3457-0.15625 14.3457-0.644531C14.3457-0.810547 14.3164-0.966797 14.2383-1.17188L9.6582-13.3691C9.43359-13.9648 9.0332-14.2676 8.4082-14.2676C7.80273-14.2676 7.39258-13.9746 7.17773-13.3789L2.59766-1.16211C2.51953-0.957031 2.49023-0.800781 2.49023-0.634766C2.49023-0.146484 2.80273 0.15625 3.31055 0.15625ZM6.00586-5.51758L8.37891-12.0898L8.42773-12.0898L10.8008-5.51758Z"/>
  </g>
  <line style="fill:none;stroke:#00AEEF;stroke-width:0.5;opacity:1.0;" x1="793.197" x2="793.197" y1="1919" y2="1933"/>
  <text style="stroke:none;fill:black;font-family:sans-serif;font-size:13;font-weight:bold;" transform="matrix(1 0 0 1 776 1953)">Margins</text>
  <text style="stroke:none;fill:black;font-family:sans-serif;font-size:13;" transform="matrix(1 0 0 1 776 1971)">Leading and trailing margins on the left and right side of each symbol</text>
  <text style="stroke:none;fill:black;font-family:sans-serif;font-size:13;" transform="matrix(1 0 0 1 776 1989)">can be adjusted by modifying the x-location of the margin guidelines.</text>
  <text style="stroke:none;fill:black;font-family:sans-serif;font-size:13;" transform="matrix(1 0 0 1 776 2007)">Modifications are automatically applied proportionally to all</text>
  <text style="stroke:none;fill:black;font-family:sans-serif;font-size:13;" transform="matrix(1 0 0 1 776 2025)">scales and weights.</text>
  <g transform="matrix(1 0 0 1 1289 1933)">
   <path d="M2.8418 1.86523L4.54102 3.57422C5.40039 4.44336 6.38672 4.38477 7.31445 3.35938L18.0078-8.42773L17.041-9.4043L6.42578 2.27539C6.07422 2.67578 5.74219 2.77344 5.27344 2.30469L4.10156 1.14258C3.63281 0.683594 3.74023 0.341797 4.14062-0.0195312L15.6152-10.8203L14.6387-11.7871L3.04688-0.898438C2.06055 0.0195312 1.98242 0.996094 2.8418 1.86523ZM9.25781-16.3281C8.83789-15.918 8.80859-15.3418 9.04297-14.9512C9.27734-14.5898 9.73633-14.3555 10.3809-14.5215C11.8457-14.8633 13.3691-14.9219 14.7949-13.9844L14.209-12.5293C13.8672-11.6992 14.043-11.1133 14.5801-10.5664L16.875-8.25195C17.3633-7.76367 17.7734-7.74414 18.3398-7.8418L19.4043-8.03711L20.0684-7.36328L20.0293-6.80664C19.9902-6.30859 20.1172-5.92773 20.6055-5.44922L21.3672-4.70703C21.8457-4.22852 22.4609-4.19922 22.9297-4.66797L25.8398-7.58789C26.3086-8.05664 26.2891-8.65234 25.8105-9.13086L25.0391-9.89258C24.5605-10.3711 24.1895-10.5273 23.7109-10.4883L23.1348-10.4395L22.4902-11.0742L22.7344-12.1973C22.8613-12.7637 22.7051-13.2031 22.1191-13.7891L19.9219-15.9766C16.582-19.2969 12.1484-19.2188 9.25781-16.3281ZM10.752-15.957C13.1836-17.7344 16.4746-17.4316 18.7012-15.2051L21.1328-12.793C21.3672-12.5586 21.4062-12.373 21.3379-12.0312L21.0156-10.5469L22.5195-9.0625L23.5059-9.12109C23.7598-9.13086 23.8379-9.11133 24.0332-8.91602L24.6094-8.33984L22.168-5.89844L21.5918-6.47461C21.3965-6.66992 21.3672-6.74805 21.377-7.01172L21.4453-7.98828L19.9512-9.47266L18.4277-9.21875C18.1055-9.15039 17.959-9.17969 17.7148-9.41406L15.7129-11.416C15.459-11.6504 15.4297-11.8164 15.5859-12.1875L16.4648-14.2773C14.9023-15.7324 12.8711-16.3574 10.8398-15.7617C10.6836-15.7227 10.625-15.8496 10.752-15.957Z"/>
  </g>
  <text style="stroke:none;fill:black;font-family:sans-serif;font-size:13;font-weight:bold;" transform="matrix(1 0 0 1 1289 1953)">Exporting</text>
  <text style="stroke:none;fill:black;font-family:sans-serif;font-size:13;" transform="matrix(1 0 0 1 1289 1971)">Symbols should be outlined when exporting to ensure the</text>
  <text style="stroke:none;fill:black;font-family:sans-serif;font-size:13;" transform="matrix(1 0 0 1 1289 1989)">design is preserved when submitting to Xcode.</text>
  <text id="template-version" style="stroke:none;fill:black;font-family:sans-serif;font-size:13;text-anchor:end;" transform="matrix(1 0 0 1 3036 1933)">Template v.4.0</text>
  <text style="stroke:none;fill:black;font-family:sans-serif;font-size:13;text-anchor:end;" transform="matrix(1 0 0 1 3036 1951)">Requires Xcode 14 or greater</text>
  <text id="descriptive-name" style="stroke:none;fill:black;font-family:sans-serif;font-size:13;text-anchor:end;" transform="matrix(1 0 0 1 3036 1969)">Generated from discord</text>
  <text style="stroke:none;fill:black;font-family:sans-serif;font-size:13;text-anchor:end;" transform="matrix(1 0 0 1 3036 1987)">Typeset at 100 points</text>
  <text style="stroke:none;fill:black;font-family:sans-serif;font-size:13;" transform="matrix(1 0 0 1 263 726)">Small</text>
  <text style="stroke:none;fill:black;font-family:sans-serif;font-size:13;" transform="matrix(1 0 0 1 263 1156)">Medium</text>
  <text style="stroke:none;fill:black;font-family:sans-serif;font-size:13;" transform="matrix(1 0 0 1 263 1586)">Large</text>
 </g>
 <g id="Guides">
  <g id="H-reference" style="fill:#27AAE1;stroke:none;" transform="matrix(1 0 0 1 339 696)">
   <path d="M0.993654 0L3.63775 0L29.3281-67.1323L30.0303-67.1323L30.0303-70.459L28.1226-70.459ZM11.6885-24.4799L46.9815-24.4799L46.2315-26.7285L12.4385-26.7285ZM55.1196 0L57.7637 0L30.6382-70.459L29.4326-70.459L29.4326-67.1323Z"/>
  </g>
  <line id="Baseline-S" style="fill:none;stroke:#27AAE1;opacity:1;stroke-width:0.5;" x1="263" x2="3036" y1="696" y2="696"/>
  <line id="Capline-S" style="fill:none;stroke:#27AAE1;opacity:1;stroke-width:0.5;" x1="263" x2="3036" y1="625.541" y2="625.541"/>
  <g id="H-reference" style="fill:#27AAE1;stroke:none;" transform="matrix(1 0 0 1 339 1126)">
   <path d="M0.993654 0L3.63775 0L29.3281-67.1323L30.0303-67.1323L30.0303-70.459L28.1226-70.459ZM11.6885-24.4799L46.9815-24.4799L46.2315-26.7285L12.4385-26.7285ZM55.1196 0L57.7637 0L30.6382-70.459L29.4326-70.459L29.4326-67.1323Z"/>
  </g>
  <line id="Baseline-M" style="fill:none;stroke:#27AAE1;opacity:1;stroke-width:0.5;" x1="263" x2="3036" y1="1126" y2="1126"/>
  <line id="Capline-M" style="fill:none;stroke:#27AAE1;opacity:1;stroke-width:0.5;" x1="263" x2="3036" y1="1055.54" y2="1055.54"/>
  <g id="H-reference" style="fill:#27AAE1;stroke:none;" transform="matrix(1 0 0 1 339 1556)">
   <path d="M0.993654 0L3.63775 0L29.3281-67.1323L30.0303-67.1323L30.0303-70.459L28.1226-70.459ZM11.6885-24.4799L46.9815-24.4799L46.2315-26.7285L12.4385-26.7285ZM55.1196 0L57.7637 0L30.6382-70.459L29.4326-70.459L29.4326-67.1323Z"/>
  </g>
  <line id="Baseline-L" style="fill:none;stroke:#27AAE1;opacity:1;stroke-width:0.5;" x1="263" x2="3036" y1="1556" y2="1556"/>
  <line id="Capline-L" style="fill:none;stroke:#27AAE1;opacity:1;stroke-width:0.5;" x1="263" x2="3036" y1="1485.54" y2="1485.54"/>
  <line id="left-margin-Regular-M" style="fill:none;stroke:#00AEEF;stroke-width:0.5;opacity:1.0;" x1="1379.84" x2="1379.84" y1="1030.79" y2="1150.12"/>
  <line id="right-margin-Regular-M" style="fill:none;stroke:#00AEEF;stroke-width:0.5;opacity:1.0;" x1="1519.85" x2="1519.85" y1="1030.79" y2="1150.12"/>
 </g>
 <g id="Symbols">
  <g id="Black-L" transform="matrix(1 0 0 1 2841.39 1556)">
   <path class="monochrome-0 multicolor-0:custom hierarchical-0:secondary SFSymbolsPreview5865F2" d="M114.018-98.6664C125.35-96.7562 136.382-93.3745 146.833-88.6076C148.485-87.8543 149.9-86.6656 150.927-85.169C169.543-58.0508 177.666-28.2646 174.489 4.56563C174.215 7.39226 172.753 9.96928 170.466 11.6536C158.301 20.6152 144.678 27.4207 130.194 31.7717C126.173 32.9798 121.825 31.5468 119.309 28.1843C116.85 24.8961 114.599 21.4593 112.57 17.8944L112.319 17.4485L112.218 17.4735C99.2785 20.5159 85.3032 20.373 71.4442 17.3252L71.084 17.2445L70.7254 17.8842C68.8813 21.1243 66.8558 24.2594 64.6581 27.2745L63.9937 28.1754C61.4768 31.5479 57.118 32.9839 53.0894 31.7678C38.6231 27.4008 25.0149 20.5944 12.8561 11.6442C10.5649 9.95764 9.1006 7.37504 8.82971 4.543C5.79509-27.1826 12.9733-56.607 32.3033-85.1004C33.3335-86.6191 34.7618-87.8249 36.4316-88.5859C46.8872-93.3511 57.9209-96.739 69.2543-98.6643C73.4204-99.372 77.5817-97.3845 79.6498-93.6993C79.8503-93.3418 80.0486-92.9831 80.2444-92.6232L80.733-91.7085L81.3215-91.7615C88.1899-92.3382 95.0949-92.3382 101.963-91.7615L102.55-91.7085L103.041-92.6247L103.636-93.7013C105.702-97.3812 109.856-99.3679 114.018-98.6664ZM117.878-77.4895L117.659-76.9913C115.866-72.8151 111.481-70.3738 106.986-71.0486C96.8145-72.5758 86.4704-72.5758 76.2986-71.0486C71.8046-70.374 67.4208-72.8142 65.6265-76.9892L65.41-77.4825L65.172-77.4256C59.2041-75.9934 53.3616-74.0763 47.7037-71.6924L47.288-71.5155L46.9045-70.9224C32.6632-48.7888 26.9659-26.4239 28.3649-2.22588L28.386-1.8715L28.9629-1.48277C35.8677 3.12343 43.2622 6.94998 51.0095 9.92824L51.979 10.2955L52.0143 10.2399L52.077 10.1345L52.0066 9.85311C51.2949 6.86224 51.8252 3.70098 53.5276 1.06577L53.7145 0.785469C57.1498-4.20894 63.4546-5.65753 69.1188-3.93957C84.6663 0.776016 100.446 0.945091 113.725-3.78355C116.546-4.78801 119.333-5.1721 122.043-4.74092C126.079-4.09878 129.675-1.64569 131.302 2.46706C132.318 5.03359 132.331 7.6634 131.589 10.0559L131.535 10.2225L132.303 9.93342C140.053 6.96268 147.45 3.1391 154.354-1.46804L154.935-1.8605L154.973-2.48038C156.36-27.3502 150.055-49.9125 136.353-70.9855L135.996-71.5295L135.56-71.7155C129.911-74.0967 124.076-76.0088 118.116-77.4337L117.878-77.4895Z"/>
   <path class="monochrome-1 multicolor-1:custom hierarchical-1:primary SFSymbolsPreview5865F2" d="M67.3238-42.8055C74.7292-42.8055 80.6489-36.2597 80.5222-28.277C80.3955-20.2943 74.7062-13.8055 67.3469-13.8055C60.1258-13.8055 54.16-20.2943 54.16-28.277C54.16-36.2597 59.9185-42.8055 67.3238-42.8055ZM115.994-42.8055C123.411-42.8055 129.285-36.2597 129.158-28.277C129.031-20.2943 123.354-13.8055 115.994-13.8055C108.762-13.8055 102.819-20.2943 102.819-28.277C102.819-36.2597 108.577-42.8055 115.994-42.8055Z"/>
  </g>
  <g id="Heavy-L" transform="matrix(1 0 0 1 2545.93 1556)">
   <path class="monochrome-0 multicolor-0:custom hierarchical-0:secondary SFSymbolsPreview5865F2" d="M112.56-97.4338C123.785-95.5417 134.713-92.1921 145.064-87.4704C146.509-86.8112 147.748-85.771 148.647-84.4615C167.1-57.5808 175.143-28.0862 171.995 4.44522C171.755 6.91852 170.476 9.17341 168.475 10.6472C156.425 19.5238 142.931 26.2648 128.585 30.5745C125.066 31.6316 121.261 30.3778 119.06 27.4356C116.411 23.8938 114.007 20.1776 111.865 16.313L111.699 16.0085L111.315 16.105C98.1686 19.3118 83.8938 19.1589 69.7514 15.9454L69.1951 15.8165L68.9298 16.3031C66.9665 19.845 64.7851 23.2633 62.398 26.5382L61.7419 27.4278C59.5397 30.3787 55.7257 31.6353 52.2007 30.5711C37.8708 26.2453 24.391 19.5032 12.3471 10.6375C10.3424 9.16179 9.06108 6.90201 8.82405 4.42398C5.81668-27.0167 12.9239-56.1502 32.0877-84.3987C32.9892-85.7275 34.2389-86.7826 35.7-87.4485C46.0572-92.1687 56.9869-95.5247 68.2136-97.4319C71.859-98.0512 75.5002-96.3121 77.3097-93.0876C77.7055-92.3823 78.0919-91.6719 78.4688-90.9567L78.7641-90.3875L79.0433-90.4154C86.5928-91.1202 94.1921-91.1202 101.742-90.4154L102.02-90.3875L102.316-90.9577C102.505-91.3155 102.696-91.672 102.889-92.0273L103.476-93.0893C105.284-96.3093 108.919-98.0476 112.56-97.4338ZM115.907-78.9405L115.711-78.5119L115.261-77.4846C113.691-73.8304 109.855-71.6943 105.922-72.2848C95.6271-73.8304 85.1578-73.8304 74.863-72.2848C70.9308-71.6944 67.095-73.8296 65.5249-77.4828C65.3772-77.8265 65.2269-78.1691 65.074-78.5105L64.8801-78.9335L64.6965-78.8915C58.2919-77.4195 52.0256-75.3965 45.9683-72.8444L45.1981-72.5165L45.0833-72.3397C30.1835-49.4914 24.3094-26.3826 25.9165-1.34236L25.9271-1.1825L26.1491-1.02922C33.6675 4.08739 41.7738 8.28218 50.292 11.4669L51.2521 11.8205L51.2765 11.7825C51.4628 11.4874 51.6473 11.1911 51.8298 10.8936L52.1821 10.3105L52.1625 10.2525C51.2676 7.40026 51.678 4.31072 53.3144 1.76454L53.4944 1.49385C56.5848-2.99922 62.3188-4.31666 67.506-2.74338C83.2967 2.04597 99.3477 2.21795 112.895-2.60598C115.533-3.54529 118.115-3.90125 120.596-3.50644C124.227-2.92885 127.44-0.736716 128.89 2.92703C129.92 5.52933 129.791 8.21054 128.825 10.5759L128.801 10.6325L128.963 10.8986C129.145 11.1955 129.33 11.4913 129.516 11.7859L129.543 11.8295L130.519 11.4716C139.041 8.29532 147.15 4.10353 154.668-1.01476L154.894-1.1705L154.918-1.51353C156.542-27.3017 150.013-50.6539 135.664-72.4107L135.583-72.5315L134.795-72.8674C128.747-75.4168 122.489-77.4345 116.092-78.8985L115.907-78.9405Z"/>
   <path class="monochrome-1 multicolor-1:custom hierarchical-1:primary SFSymbolsPreview5865F2" d="M66.0739-42.8055C73.4792-42.8055 79.3989-36.2597 79.2722-28.277C79.1455-20.2943 73.4562-13.8055 66.0969-13.8055C58.8758-13.8055 52.9101-20.2943 52.9101-28.277C52.9101-36.2597 58.6685-42.8055 66.0739-42.8055ZM114.744-42.8055C122.161-42.8055 128.035-36.2597 127.908-28.277C127.781-20.2943 122.104-13.8055 114.744-13.8055C107.512-13.8055 101.569-20.2943 101.569-28.277C101.569-36.2597 107.327-42.8055 114.744-42.8055Z"/>
  </g>
  <g id="Bold-L" transform="matrix(1 0 0 1 2250.97 1556)">
   <path class="monochrome-0 multicolor-0:custom hierarchical-0:secondary SFSymbolsPreview5865F2" d="M110.519-95.7081C121.594-93.8414 132.375-90.5366 142.588-85.8782C143.744-85.3508 144.735-84.5187 145.454-83.4711C163.679-56.9229 171.611-27.8366 168.503 4.27664C168.311 6.25529 167.288 8.0592 165.687 9.23823C153.799 17.9958 140.485 24.6465 126.331 28.8985C123.516 29.7442 120.472 28.7411 118.712 26.3874C115.924 22.6608 113.413 18.7376 111.199 14.6491L110.837 13.9715L110.532 14.0538C96.8132 17.6754 81.7429 17.5 66.8565 13.8782L66.5431 13.8005L66.0962 14.6392C64.0659 18.3867 61.7887 21.9964 59.2795 25.4447L58.5894 26.3811C56.8276 28.7419 53.7764 29.7471 50.9564 28.8958C36.8177 24.6277 23.5177 17.9755 11.6346 9.22818C10.0308 8.04759 9.00574 6.23978 8.81612 4.25735C5.84691-26.7844 12.8548-55.5108 31.786-83.4162C32.5071-84.4793 33.5069-85.3233 34.6758-85.8561C44.895-90.5135 55.6794-93.8248 66.7567-95.7066C69.673-96.202 72.586-94.8108 74.0336-92.2311C74.616-91.1933 75.1776-90.1443 75.7183-89.0848L75.9971-88.5275L76.3402-88.5636C84.52-89.4041 92.765-89.4041 100.945-88.5636L101.286-88.5275L101.566-89.0853C101.927-89.7919 102.297-90.4938 102.676-91.1908L103.252-92.2325C104.698-94.8085 107.606-96.1992 110.519-95.7081ZM113.163-80.9515L112.841-80.2711C112.518-79.5773 112.205-78.8786 111.903-78.1753C110.647-75.2519 107.578-73.543 104.432-74.0154C93.9647-75.5868 83.3203-75.5868 72.8532-74.0154C69.7075-73.5431 66.6388-75.2513 65.3827-78.1738C65.0804-78.8774 64.7674-79.5763 64.444-80.2703L64.1231-80.9455L63.6396-80.841C56.3971-79.2494 49.3229-76.9657 42.5158-74.0202L42.2731-73.9145L41.8645-73.2911C26.5939-49.872 20.6615-26.133 22.4756-0.406417L22.4891-0.2195L22.5363-0.186115C30.9999 5.68896 40.2146 10.4038 49.9324 13.8341L50.2201 13.9335L50.4291 13.6178C51.012 12.7206 51.5774 11.8123 52.125 10.8932L52.3621 10.4875L52.3087 10.361C51.2931 7.8414 51.5579 5.03069 53.019 2.73814L53.1863 2.48559C55.794-1.30562 60.7288-2.43943 65.2481-1.06871C81.3793 3.82391 97.8101 3.99996 111.732-0.957379C114.113-1.80549 116.41-2.12205 118.572-1.77818C121.634-1.29095 124.312 0.535847 125.513 3.571C126.554 6.20178 126.271 8.69207 125.124 10.7905L125.114 10.8075L125.169 10.9002C125.716 11.8178 126.281 12.7247 126.863 13.6202L127.075 13.9415L127.244 13.8838C136.715 10.5652 145.71 6.02158 153.996 0.36863L154.832-0.2075L154.855-0.509969C156.714-27.0459 150.091-51.0675 135.363-73.3925L135.005-73.9305L134.747-74.0435C127.949-76.9866 120.883-79.2646 113.648-80.847L113.163-80.9515Z"/>
   <path class="monochrome-1 multicolor-1:custom hierarchical-1:primary SFSymbolsPreview5865F2" d="M64.3239-42.8055C71.7292-42.8055 77.6489-36.2597 77.5222-28.277C77.3955-20.2943 71.7062-13.8055 64.3469-13.8055C57.1258-13.8055 51.1601-20.2943 51.1601-28.277C51.1601-36.2597 56.9185-42.8055 64.3239-42.8055ZM112.994-42.8055C120.411-42.8055 126.285-36.2597 126.158-28.277C126.031-20.2943 120.354-13.8055 112.994-13.8055C105.762-13.8055 99.8189-20.2943 99.8189-28.277C99.8189-36.2597 105.577-42.8055 112.994-42.8055Z"/>
  </g>
  <g id="Semibold-L" transform="matrix(1 0 0 1 1955.26 1556)">
   <path class="monochrome-0 multicolor-0:custom hierarchical-0:secondary SFSymbolsPreview5865F2" d="M109.353-94.722C120.342-92.8697 131.039-89.5906 141.173-84.9684C142.164-84.5163 143.013-83.8031 143.63-82.9051C161.724-56.5469 169.592-27.6939 166.507 4.18032C166.343 5.8763 165.466 7.42251 164.094 8.4331C152.298 17.1227 139.088 23.7217 125.043 27.9408C122.63 28.6657 120.022 27.8059 118.513 25.7884C115.524 21.7935 112.857 17.5702 110.537 13.158L110.347 12.7932L109.933 12.9104C95.9825 16.7305 80.5633 16.5434 65.3543 12.724L65.0221 12.6385L64.7588 13.1481C62.6155 17.2206 60.1799 21.1335 57.4709 24.8563L56.788 25.783C55.2779 27.8065 52.6626 28.6682 50.2454 27.9385C36.2158 23.7033 23.0186 17.1025 11.2274 8.42284C9.85272 7.41091 8.97412 5.86136 8.81158 4.16213C5.86418-26.6516 12.8153-55.1454 31.6135-82.8548C32.2317-83.766 33.0886-84.4895 34.0905-84.9461C44.231-89.5676 54.9322-92.8534 65.9242-94.7208C68.4239-95.1454 70.9207-93.9529 72.1615-91.7418C72.9294-90.3734 73.6609-88.9853 74.3553-87.579L74.4141-87.4585L74.4793-87.4659C83.2277-88.4367 92.0573-88.4367 100.806-87.4659L100.87-87.4585L100.929-87.5792C101.45-88.6342 101.992-89.679 102.555-90.7128L103.124-91.743C104.364-93.9509 106.856-95.1429 109.353-94.722ZM111.604-82.0915L111.434-81.7439C110.926-80.6971 110.443-79.6389 109.984-78.5699C108.908-76.0642 106.277-74.5994 103.58-75.0043C93.0147-76.5905 82.2702-76.5905 71.7048-75.0043C69.0084-74.5995 66.3781-76.0636 65.3015-78.5687C64.842-79.6379 64.3584-80.6964 63.8511-81.7436L63.6821-82.0865L63.522-82.0532C55.8341-80.441 48.3279-78.0575 41.1186-74.9379L40.6011-74.7115L40.5249-74.5961C24.7648-50.7463 18.6297-26.5564 20.4779-0.338576L20.5261 0.3265L20.8963 0.586928C29.4911 6.56238 38.8553 11.3508 48.7329 14.8241L49.6261 15.1335L49.6716 15.0669C50.4741 13.8663 51.2452 12.6453 51.9841 11.405L52.4891 10.5445L52.4395 10.4469C51.3165 8.11802 51.4844 5.44829 52.8532 3.28996L53.0102 3.05229C55.342-0.337848 59.8202-1.36674 63.9579-0.111759C80.2836 4.83987 96.9315 5.01825 111.067-0.0153237C116.322-1.88658 121.611-1.0452 123.583 3.93898C124.57 6.43147 124.201 8.79804 122.971 10.7561L122.946 10.7935L123.31 11.4122C124.048 12.6507 124.819 13.8698 125.621 15.0683L125.669 15.1395L126.574 14.8276C136.458 11.3647 145.826 6.57933 154.422 0.600814L154.795 0.3375L154.853-0.442289C156.747-27.4878 149.9-51.9582 134.717-74.6666L134.675-74.7285L134.144-74.9612C126.944-78.0783 119.446-80.4558 111.766-82.0581L111.604-82.0915Z"/>
   <path class="monochrome-1 multicolor-1:custom hierarchical-1:primary SFSymbolsPreview5865F2" d="M63.3239-42.8055C70.7293-42.8055 76.6489-36.2597 76.5222-28.277C76.3956-20.2943 70.7062-13.8055 63.3469-13.8055C56.1258-13.8055 50.1601-20.2943 50.1601-28.277C50.1601-36.2597 55.9185-42.8055 63.3239-42.8055ZM111.994-42.8055C119.411-42.8055 125.285-36.2597 125.158-28.277C125.031-20.2943 119.354-13.8055 111.994-13.8055C104.762-13.8055 98.8189-20.2943 98.8189-28.277C98.8189-36.2597 104.577-42.8055 111.994-42.8055Z"/>
  </g>
  <g id="Medium-L" transform="matrix(1 0 0 1 1659.2 1556)">
   <path class="monochrome-0 multicolor-0:custom hierarchical-0:secondary SFSymbolsPreview5865F2" d="M108.595-94.0811C119.528-92.2382 130.171-88.9757 140.253-84.377C141.137-83.9739 141.894-83.338 142.444-82.5373C160.453-56.3025 168.28-27.6012 165.21 4.1177C165.064 5.62995 164.282 7.00866 163.058 7.90977C151.323 16.5551 138.18 23.1206 124.206 27.3183C122.055 27.9646 119.729 27.198 118.383 25.399C115.415 21.4315 112.767 17.2373 110.462 12.8554L109.959 11.8852L110.03 12.0245L109.848 12.0778C95.5705 16.1484 79.6865 15.9484 64.0506 11.8861L64.0331 11.8805L63.5336 12.8454C61.4049 16.8901 58.9859 20.7764 56.2953 24.4739L55.6171 25.3943C54.2706 27.1986 51.9386 27.9668 49.7833 27.3162C35.8247 23.1025 22.6942 16.5351 10.9628 7.89937C9.73698 6.99707 8.95357 5.61538 8.80864 4.10024C5.87541-26.5653 12.7897-54.9078 31.5014-82.4899C32.0526-83.3024 32.8167-83.9475 33.7101-84.3546C43.7993-88.9528 54.4465-92.222 65.3831-94.0799C67.612-94.4586 69.8383-93.3953 70.9447-91.4237C71.707-90.0652 72.4332-88.6873 73.1225-87.2912L73.3801-86.7595L73.901-86.8199C82.6017-87.7854 91.3832-87.7854 100.084-86.8199L100.603-86.7605L100.862-87.2914C101.379-88.3387 101.917-89.3758 102.476-90.4021L103.041-91.4247C104.146-93.3935 106.369-94.4564 108.595-94.0811ZM110.593-82.8285L110.199-82.0273C109.687-80.9717 109.2-79.9044 108.737-78.8264C107.777-76.5922 105.431-75.2861 103.027-75.6471C92.3973-77.2429 81.5877-77.2429 70.9583-75.6471C68.554-75.2862 66.2087-76.5917 65.2487-78.8253C64.7853-79.9035 64.2976-80.971 63.7861-82.0269L63.3921-82.8235L62.7385-82.6894C55.0079-81.0682 47.4599-78.6714 40.2105-75.5345L39.5151-75.2305L39.3319-74.9533C23.3239-50.7279 17.1916-26.134 19.2414 0.5474L19.2521 0.683501L19.8753 1.12061C28.8062 7.32974 38.5632 12.2643 48.8623 15.7821L49.2361 15.9075L49.5621 15.4281C50.573 13.9157 51.5344 12.3711 52.4449 10.7967L52.5641 10.5865L52.5535 10.5685C51.3305 8.52761 51.2006 6.04603 52.7503 3.63923L52.8958 3.42065C55.0483 0.291205 59.2296-0.66948 63.1192 0.510261C79.5714 5.50025 96.3604 5.68014 110.635 0.597013C115.604-1.17211 120.521-0.389744 122.329 4.17817C123.265 6.54377 122.859 8.79854 121.608 10.6464L121.525 10.7635L121.55 10.8052C122.459 12.3776 123.42 13.92 124.431 15.4298L124.759 15.9135L125.144 15.7848C135.449 12.2782 145.211 7.3469 154.143 1.13442L154.769 0.693501L154.787 0.470384C156.901-27.0656 150.031-51.9586 134.608-75.027L134.459-75.2485L133.826-75.5257C126.514-78.6974 118.896-81.1102 111.091-82.7271L110.593-82.8285Z"/>
   <path class="monochrome-1 multicolor-1:custom hierarchical-1:primary SFSymbolsPreview5865F2" d="M62.6739-42.8055C70.0793-42.8055 75.9989-36.2597 75.8723-28.277C75.7456-20.2943 70.0562-13.8055 62.6969-13.8055C55.4758-13.8055 49.5101-20.2943 49.5101-28.277C49.5101-36.2597 55.2685-42.8055 62.6739-42.8055ZM111.344-42.8055C118.761-42.8055 124.635-36.2597 124.508-28.277C124.381-20.2943 118.704-13.8055 111.344-13.8055C104.112-13.8055 98.169-20.2943 98.169-28.277C98.169-36.2597 103.927-42.8055 111.344-42.8055Z"/>
  </g>
  <g id="Regular-L" transform="matrix(1 0 0 1 1363.54 1556)">
   <path class="monochrome-0 multicolor-0:custom hierarchical-0:secondary SFSymbolsPreview5865F2" d="M107.371-93.0457C118.213-91.218 128.769-87.9825 138.768-83.4217C139.478-83.0977 140.086-82.5866 140.528-81.943C158.401-55.9077 166.161-27.4514 163.115 4.01656C162.998 5.23201 162.369 6.34013 161.386 7.06439C149.747 15.6383 136.712 22.1497 122.854 26.3127C121.125 26.8322 119.255 26.216 118.174 24.7701C115.014 20.5451 112.219 16.0601 109.821 11.3634C109.724 11.1726 109.642 10.9782 109.575 10.7817L109.567 10.7555L109.178 10.874C94.6899 15.1575 78.4591 14.945 62.5082 10.6702L62.3641 10.6305L62.3208 10.7713C62.2763 10.9023 62.2251 11.0324 62.1671 11.1611L62.0747 11.3531C59.6748 16.05 56.8818 20.5369 53.7256 24.7663C52.6433 26.2165 50.769 26.834 49.0367 26.311C35.1927 22.1319 22.1702 15.6185 10.5352 7.05377C9.55003 6.32855 8.92036 5.21804 8.80388 4.00026C5.89355-26.4259 12.7482-54.5242 31.3204-81.9004C31.7634-82.5534 32.3775-83.0719 33.0955-83.3992C43.1021-87.9596 53.662-91.2021 64.509-93.0448C66.3004-93.3491 68.0898-92.4945 68.979-90.9098C69.9206-89.2319 70.8064-87.5238 71.6351-85.7884L71.7091-85.6295L71.8424-85.646C81.2082-86.7766 90.6768-86.7766 100.043-85.646L100.174-85.6295L100.249-85.7884C100.912-87.177 101.612-88.5481 102.348-89.9002L102.906-90.9107C103.795-92.4931 105.581-93.3473 107.371-93.0457ZM108.967-84.0145L108.73-83.5511C108.017-82.135 107.348-80.6976 106.722-79.2408C105.951-77.445 104.065-76.3953 102.133-76.6855C91.3998-78.2968 80.4852-78.2968 69.7524-76.6855C67.82-76.3954 65.9349-77.4447 65.1634-79.2399C64.5372-80.6969 63.8673-82.1346 63.1546-83.551L62.9191-84.0105L62.7082-83.9692C54.4505-82.329 46.3915-79.8138 38.6689-76.4658L37.7621-76.0675L37.4047-75.5304C21.2671-51.108 15.0775-26.2832 17.1443 0.625822L17.1941 1.2555L17.3565 1.37243C26.8913 8.12964 37.3811 13.4347 48.4802 17.1148L48.6041 17.1555L48.7649 16.9264C50.0171 15.1046 51.1976 13.2352 52.3039 11.3223L52.7501 10.5375L52.6585 10.4093C51.4104 8.60935 51.197 6.37478 52.5769 4.21768L52.7109 4.01569C54.5738 1.30737 58.2755 0.456853 61.7645 1.51506C78.421 6.56701 95.4379 6.74934 109.938 1.58617C114.442-0.017983 118.761 0.669064 120.302 4.56455C121.162 6.73674 120.672 8.82591 119.354 10.4981L119.214 10.6695L119.591 11.331C120.696 13.2416 121.876 15.1085 123.128 16.9273L123.291 17.1595L123.424 17.1167C134.531 13.4491 145.026 8.14729 154.562 1.38573L154.726 1.2675L154.784 0.548961C156.916-27.225 149.982-52.3497 134.432-75.6093L134.109-76.0875L133.194-76.489C125.481-79.8347 117.43-82.3436 109.179-83.9728L108.967-84.0145Z"/>
   <path class="monochrome-1 multicolor-1:custom hierarchical-1:primary SFSymbolsPreview5865F2" d="M61.6239-42.8055C69.0293-42.8055 74.949-36.2597 74.8223-28.277C74.6956-20.2943 69.0062-13.8055 61.6469-13.8055C54.4259-13.8055 48.4601-20.2943 48.4601-28.277C48.4601-36.2597 54.2185-42.8055 61.6239-42.8055ZM110.294-42.8055C117.711-42.8055 123.585-36.2597 123.458-28.277C123.331-20.2943 117.654-13.8055 110.294-13.8055C103.062-13.8055 97.119-20.2943 97.119-28.277C97.119-36.2597 102.877-42.8055 110.294-42.8055Z"/>
  </g>
  <g id="Light-L" transform="matrix(1 0 0 1 1067.29 1556)">
   <path class="monochrome-0 multicolor-0:custom hierarchical-0:secondary SFSymbolsPreview5865F2" d="M106.828-92.5869C117.631-90.766 128.147-87.5424 138.109-82.9984C138.743-82.7095 139.285-82.2536 139.679-81.6797C157.491-55.7328 165.222-27.3851 162.187 3.97174C162.082 5.0557 161.521 6.04393 160.645 6.68983C149.049 15.2321 136.062 21.7195 122.255 25.8671C120.713 26.3304 119.046 25.7809 118.081 24.4915C114.937 20.2876 112.156 15.825 109.77 11.1519C109.612 10.8424 109.501 10.5226 109.432 10.1998L109.427 10.1705L109.309 10.2082C94.7245 14.6919 78.3023 14.5462 62.1619 10.2204L61.5579 10.0555L61.5338 10.1892C61.479 10.4474 61.3964 10.7038 61.2846 10.9545L61.1953 11.1414C58.8072 15.815 56.0281 20.2797 52.8875 24.488C51.9224 25.7813 50.2508 26.332 48.706 25.8657C34.9128 21.7018 21.9381 15.2123 10.3458 6.67911C9.46719 6.03236 8.90565 5.04199 8.80177 3.95596C5.90159-26.3642 12.7298-54.3542 31.2401-81.6393C31.6352-82.2216 32.1829-82.684 32.8232-82.9759C42.7931-87.5196 53.3144-90.7502 64.1217-92.5861C65.7193-92.8575 67.3151-92.0954 68.1081-90.6822C69.0447-89.0131 69.9258-87.3141 70.75-85.5879L70.9669-85.1265L71.433-85.1842C80.7617-86.3103 90.1929-86.3103 99.5216-85.1842L99.9869-85.1265L100.204-85.5879C100.863-86.9692 101.559-88.333 102.291-89.6778L102.847-90.6829C103.639-92.0941 105.232-92.8559 106.828-92.5869ZM108.247-84.5375L107.849-83.7602C107.132-82.3357 106.459-80.8898 105.829-79.4244C105.141-77.8229 103.46-76.8868 101.736-77.1455C90.9579-78.7638 79.9967-78.7638 69.2181-77.1455C67.4948-76.8868 65.8137-77.8226 65.1256-79.4236C64.4957-80.8892 63.8218-82.3353 63.1049-83.7601L62.7089-84.5335L62.1523-84.4255C53.5018-82.7072 45.0685-80.0325 37.0093-76.4495L36.9839-76.4395L36.5509-75.7861C20.3558-51.2764 14.1408-26.3494 16.2152 0.660569L16.2829 1.5085L16.6223 1.75199C26.1947 8.53583 36.7258 13.8618 47.8686 17.5563L48.3239 17.7045L48.6831 17.1899C50.152 15.0529 51.5228 12.8507 52.7913 10.59L52.8419 10.4975L52.7423 10.3701C51.4536 8.67287 51.1874 6.53222 52.5012 4.47221L52.629 4.27934C54.3635 1.75759 57.8528 0.955892 61.1642 1.96025C77.9113 7.03965 95.0291 7.22307 109.628 2.02443C113.928 0.493372 117.981 1.13818 119.405 4.73574C120.247 6.8653 119.673 8.92409 118.251 10.5313L118.178 10.6095L118.723 11.564C119.834 13.4851 121.021 15.3623 122.28 17.1911L122.641 17.7085L123.105 17.5585C134.255 13.8764 144.792 8.55356 154.366 1.76522L154.707 1.5195L154.713 1.46506C157.068-26.7644 150.125-52.2772 134.354-75.8672L133.955-76.4585L133.922-76.4729C125.873-80.054 117.447-82.7224 108.804-84.4292L108.247-84.5375Z"/>
   <path class="monochrome-1 multicolor-1:custom hierarchical-1:primary SFSymbolsPreview5865F2" d="M61.1587-42.8055C68.5641-42.8055 74.4837-36.2597 74.3571-28.277C74.2304-20.2943 68.541-13.8055 61.1817-13.8055C53.9606-13.8055 47.9949-20.2943 47.9949-28.277C47.9949-36.2597 53.7533-42.8055 61.1587-42.8055ZM109.829-42.8055C117.246-42.8055 123.12-36.2597 122.993-28.277C122.866-20.2943 117.188-13.8055 109.829-13.8055C102.596-13.8055 96.6538-20.2943 96.6538-28.277C96.6538-36.2597 102.412-42.8055 109.829-42.8055Z"/>
  </g>
  <g id="Thin-L" transform="matrix(1 0 0 1 773.417 1556)">
   <path class="monochrome-0 multicolor-0:custom hierarchical-0:secondary SFSymbolsPreview5865F2" d="M103.405-91.1366C113.907-89.3743 124.131-86.2544 133.816-81.8567C134.146-81.7067 134.429-81.4696 134.635-81.171C151.974-56.0263 159.487-28.5996 156.534 1.77215C156.479 2.33864 156.186 2.85483 155.727 3.19142C144.453 11.459 131.828 17.7377 118.405 21.7519C117.603 21.9919 116.736 21.7066 116.233 21.0372C113.192 16.9893 110.502 12.6923 108.195 8.19247C107.648 7.12593 108.155 5.82105 109.279 5.40445C110.246 5.04617 111.204 4.66861 112.155 4.27205L112.691 4.0438L112.214 4.21511C93.1034 10.9599 72.2163 10.9599 53.106 4.21511L52.6491 4.0518L53.1471 4.26328C53.7795 4.52705 54.4157 4.78239 55.0553 5.02919L56.0175 5.39299C57.1419 5.80951 57.6496 7.11497 57.102 8.18171C54.7918 12.6827 52.1034 16.9825 49.0652 21.0354C48.5618 21.7069 47.6929 21.9927 46.8893 21.7512C33.4789 17.721 20.8643 11.4399 9.59368 3.18053C9.13377 2.8435 8.83957 2.32618 8.78504 1.75861C5.96281-27.6145 12.5979-54.6911 30.621-81.1393C30.8276-81.4423 31.1135-81.6828 31.4474-81.8343C41.1408-86.2323 51.3703-89.3592 61.8777-91.1362C62.7091-91.2768 63.5394-90.8809 63.9535-90.1463C65.0392-88.2201 66.0478-86.2524 66.9769-84.2477L67.2571-83.6312L67.9176-83.7194C77.6926-84.9893 87.5929-84.9893 97.3679-83.7194L98.0271-83.6312L98.3082-84.2477C99.0823-85.9185 99.9119-87.5635 100.796-89.1802L101.332-90.1467C101.746-90.8802 102.575-91.276 103.405-91.1366ZM104.136-86.9482L103.667-86.0691C102.736-84.2946 101.872-82.4856 101.079-80.646C100.719-79.8129 99.8441-79.3261 98.9467-79.4602C88.1384-81.0757 77.1471-81.0757 66.3388-79.4602C65.4416-79.3262 64.5665-79.8127 64.207-80.6456C63.4128-82.4852 62.5493-84.2943 61.6183-86.0691L61.1491-86.9482L60.3702-86.8038C51.3277-85.1023 42.514-82.3638 34.107-78.6429L33.6111-78.4212L33.4052-78.1167C16.6568-53.2144 10.3168-27.8434 12.6136-0.328649L12.6831 0.4808L12.8215 0.580947C22.9268 7.84741 34.1239 13.4848 45.9983 17.2867L46.6951 17.5058L47.1806 16.8323C49.1187 14.1018 50.8945 11.2616 52.4992 8.32612L51.6072 7.955C48.6121 6.7058 45.6958 5.27656 42.8747 3.67499L41.9379 3.13476C40.6896 2.40369 40.6064 0.630155 41.7807-0.214597C42.644-0.835612 43.4338-1.42705 44.7709-2.4448C45.3622-2.89488 46.1543-2.98003 46.8277-2.66591C69.5232 7.92021 95.7966 7.92021 118.492-2.66591C119.185-2.98911 120.001-2.88899 120.596-2.40794C121.621-1.57848 122.574-0.864838 123.487-0.250847C124.71 0.571623 124.654 2.39004 123.382 3.1349C120.265 4.95964 117.029 6.57273 113.695 7.96359L112.794 8.3318C114.4 11.2697 116.175 14.1069 118.114 16.8333L118.6 17.5078L119.303 17.2883C131.186 13.4999 142.391 7.86541 152.498 0.593192L152.636 0.4918L152.713-0.376095C155.094-28.7927 147.968-54.4753 131.844-78.1681L131.656-78.4422L131.156-78.6656C122.758-82.3851 113.952-85.117 104.916-86.8064L104.136-86.9482Z"/>
   <path class="monochrome-1 multicolor-1:custom hierarchical-1:primary SFSymbolsPreview5865F2" d="M58.3239-43.1642C65.7293-43.1642 71.649-36.6184 71.5223-28.6357C71.3956-20.653 65.7063-14.1642 58.347-14.1642C51.1259-14.1642 45.1601-20.653 45.1601-28.6357C45.1601-36.6184 50.9186-43.1642 58.3239-43.1642ZM106.994-43.1642C114.411-43.1642 120.285-36.6184 120.158-28.6357C120.031-20.653 114.354-14.1642 106.994-14.1642C99.7617-14.1642 93.819-20.653 93.819-28.6357C93.819-36.6184 99.5774-43.1642 106.994-43.1642Z"/>
  </g>
  <g id="Ultralight-L" transform="matrix(1 0 0 1 477.434 1556)">
   <path class="monochrome-0 multicolor-0:custom hierarchical-0:secondary SFSymbolsPreview5865F2" d="M102.557-90.4186C112.996-88.6667 123.16-85.5654 132.787-81.1937C132.997-81.0983 133.177-80.9476 133.308-80.7577C150.551-55.7516 158.017-28.4954 155.082 1.70171C155.047 2.06197 154.86 2.39025 154.568 2.60431C143.362 10.8226 130.812 17.064 117.468 21.0544C116.958 21.207 116.407 21.0256 116.087 20.5999C113.071 16.5851 110.403 12.3232 108.114 7.86021C107.766 7.18193 108.089 6.35207 108.804 6.08713C112.382 4.76096 115.854 3.17317 119.193 1.33726L119.283 1.2858L119.184 1.2125C119.034 1.0996 118.884 0.984494 118.733 0.867119L118.429 0.6298L117.728 0.945824C94.7221 11.1844 68.3612 11.0778 45.4248 0.625867L45.4141 0.6218L45.2205 0.76923C45.0558 0.893808 44.8997 1.01167 44.7501 1.12417L44.5531 1.2718L44.6674 1.33558C47.6965 3.00165 50.8363 4.46266 54.0652 5.70846L55.0365 6.07573C55.7516 6.34062 56.0745 7.17084 55.7263 7.84925C53.4348 12.3137 50.7681 16.5786 47.7545 20.5987C47.4344 21.0257 46.8818 21.2075 46.3707 21.0539C33.0397 17.0476 20.4997 10.8036 9.29598 2.59327C9.00349 2.37893 8.81639 2.04993 8.78171 1.68898C5.97549-27.5175 12.5689-54.4241 30.4946-80.7293C30.626-80.922 30.8078-81.0749 31.0202-81.1713C40.6564-85.5433 50.8255-88.6518 61.271-90.4183C61.7998-90.5077 62.3278-90.2559 62.5912-89.7888C63.8469-87.5611 64.9984-85.2774 66.0422-82.945L66.0901-82.8352L66.2406-82.857C76.6389-84.306 87.1905-84.306 97.5888-82.857L97.7381-82.8352L97.787-82.9449C98.6813-84.9444 99.6552-86.908 100.706-88.8309L101.238-89.789C101.501-90.2555 102.029-90.5072 102.557-90.4186ZM103.019-87.7572L102.939-87.6108C101.75-85.4365 100.663-83.2086 99.6822-80.9344C99.4536-80.4046 98.897-80.095 98.3263-80.1803C87.4467-81.8064 76.3828-81.8064 65.5031-80.1803C64.9326-80.095 64.376-80.4045 64.1474-80.9341C63.1656-83.2083 62.0788-85.4362 60.8906-87.6109L60.8087-87.7572L60.6003-87.7197C51.1199-86.0262 41.8809-83.2021 33.0843-79.3087L32.3951-79.0002L32.0726-78.5224C15.0571-53.2228 8.71937-27.419 11.2342 0.587642L11.2611 0.8758L11.6684 1.17205C22.1261 8.69195 33.7459 14.4778 46.0739 18.3034L46.2481 18.3558L46.3887 18.1674C48.6007 15.1354 50.6119 11.9647 52.41 8.67533L52.8021 7.9448L52.1516 7.68905C48.8348 6.35779 45.6122 4.80522 42.5061 3.04184L41.5777 2.50651C40.7839 2.04157 40.731 0.913668 41.4778 0.376436C41.9128 0.0635001 42.3288-0.241605 42.8038-0.596162L43.2272-0.913514C43.5952-1.19029 44.0045-1.50065 44.4838-1.86547C44.8599-2.1517 45.3636-2.20586 45.7919-2.00609C68.6824 8.67103 95.1812 8.67103 118.072-2.00609C118.512-2.21163 119.032-2.14796 119.41-1.84203C120.45-0.999866 121.42-0.273611 122.353 0.353382C123.131 0.876444 123.095 2.03289 122.286 2.5066C118.888 4.49567 115.348 6.23097 111.693 7.69854L111.037 7.9558L111.43 8.68569C113.226 11.9727 115.237 15.1401 117.451 18.1677L117.591 18.3578L117.743 18.3123C130.099 14.4985 141.744 8.70736 152.217 1.16808L152.603 0.8868L152.633 0.568847C155.252-28.3688 148.101-54.5038 131.718-78.5773L131.414-79.0222L130.723-79.3313C121.936-83.2233 112.703-86.0406 103.23-87.721L103.019-87.7572Z"/>
   <path class="monochrome-1 multicolor-1:custom hierarchical-1:primary SFSymbolsPreview5865F2" d="M57.5959-43.1642C65.0012-43.1642 70.9209-36.6184 70.7942-28.6357C70.6675-20.653 64.9782-14.1642 57.6189-14.1642C50.3978-14.1642 44.4321-20.653 44.4321-28.6357C44.4321-36.6184 50.1905-43.1642 57.5959-43.1642ZM106.266-43.1642C113.683-43.1642 119.557-36.6184 119.43-28.6357C119.303-20.653 113.626-14.1642 106.266-14.1642C99.0336-14.1642 93.0909-20.653 93.0909-28.6357C93.0909-36.6184 98.8494-43.1642 106.266-43.1642Z"/>
  </g>
  <g id="Black-M" transform="matrix(1 0 0 1 2858.89 1126)">
   <path class="monochrome-0 multicolor-0:custom hierarchical-0:secondary SFSymbolsPreview5865F2" d="M91.766-85.3813C100.69-83.8741 109.379-81.2059 117.609-77.4449C119.013-76.8033 120.215-75.7916 121.088-74.5183C135.737-53.1391 142.132-29.6415 139.632-3.75496C139.4-1.35439 138.159 0.834658 136.219 2.26681C126.639 9.33708 115.911 14.7064 104.505 18.1393C101.083 19.1693 97.3818 17.9488 95.2439 15.0852C93.4117 12.6313 91.7266 10.0728 90.1967 7.42327L89.9789 7.041L89.3363 7.18469C79.5022 9.32229 68.9559 9.15981 58.4916 6.8941L58.4089 6.876L58.1039 7.41514C56.7448 9.76966 55.264 12.0529 53.6674 14.2554L53.0632 15.0776C50.9239 17.9497 47.2138 19.1728 43.7858 18.136C32.3937 14.6906 21.6776 9.32068 12.1032 2.25957C10.1587 0.825526 8.9164-1.36826 8.68678-3.77341C6.29865-28.7872 11.951-52.0005 27.1601-74.4616C28.0349-75.7536 29.2485-76.7799 30.6679-77.4279C38.9015-81.1875 47.5905-83.8605 56.5157-85.3795C60.0601-85.9828 63.6008-84.2907 65.3578-81.1538C65.5387-80.8307 65.7172-80.5064 65.8932-80.1807L66.0019-79.974L66.9163-80.0482C71.7295-80.4079 76.5629-80.4079 81.3761-80.0482L82.2889-79.974L82.3996-80.182L82.9355-81.1555C84.691-84.2878 88.2254-85.9793 91.766-85.3813ZM95.0639-67.354L95.0139-67.2387C93.4267-63.8354 89.7815-61.8663 86.0471-62.428C78.1577-63.6147 70.1347-63.6147 62.2453-62.428C58.5115-61.8664 54.8669-63.8347 53.2793-67.237L53.2287-67.3484L52.6058-67.1925C48.4601-66.1443 44.3955-64.793 40.4451-63.1487L39.9069-62.922L39.4825-62.2594C28.7104-45.3379 24.3358-28.2496 25.2858-9.78788L25.3169-9.222L25.3417-9.20594C30.3994-5.81026 35.7973-2.95555 41.4458-0.686804L42.3229-0.34L42.2945-0.54489C42.0211-2.73242 42.5132-4.96822 43.7335-6.87852L43.9128-7.14916C46.7859-11.3342 52.033-12.542 56.7264-11.1158C68.755-7.46066 80.9493-7.32976 91.1901-10.9833C93.4979-11.8066 95.7908-12.1232 98.0376-11.7651C101.417-11.2265 104.437-9.16225 105.804-5.70064C106.471-4.01232 106.623-2.29297 106.36-0.663433L106.325-0.468L106.869-0.68188C112.52-2.94544 117.919-5.79807 122.976-9.19438L123.005-9.215L123.008-9.26366C124.103-28.5145 119.291-45.9798 108.792-62.3067L108.387-62.932L107.831-63.1666C103.887-64.8088 99.8283-66.1566 95.6882-67.1999L95.0639-67.354Z"/>
   <path class="monochrome-1 multicolor-1:custom hierarchical-1:primary SFSymbolsPreview5865F2" d="M55.0383-40.6507C60.8544-40.6507 65.5036-35.4682 65.4041-29.1482C65.3046-22.8281 60.8363-17.6908 55.0564-17.6908C49.3851-17.6908 44.6998-22.8281 44.6998-29.1482C44.6998-35.4682 49.2223-40.6507 55.0383-40.6507ZM93.2631-40.6507C99.0881-40.6507 103.701-35.4682 103.602-29.1482C103.502-22.8281 99.0429-17.6908 93.2631-17.6908C87.5827-17.6908 82.9154-22.8281 82.9154-29.1482C82.9154-35.4682 87.438-40.6507 93.2631-40.6507Z"/>
  </g>
  <g id="Heavy-M" transform="matrix(1 0 0 1 2563.18 1126)">
   <path class="monochrome-0 multicolor-0:custom hierarchical-0:secondary SFSymbolsPreview5865F2" d="M90.5995-84.3953C99.438-82.9026 108.042-80.2602 116.193-76.5353C117.432-75.9693 118.493-75.0766 119.263-73.9531C133.782-52.7637 140.114-29.4991 137.636-3.85111C137.432-1.73296 136.337 0.198553 134.625 1.46222C125.138 8.46433 114.513 13.7819 103.216 17.1818C100.197 18.0905 96.9316 17.0136 95.0452 14.4869C93.0356 11.7953 91.2051 8.97629 89.5649 6.04806L89.48 5.895L89.3924 5.91776C79.1445 8.37157 68.0491 8.24707 57.0553 5.77368L56.902 5.738L56.7354 6.04022C55.2597 8.67501 53.6311 11.2221 51.8577 13.6685L51.2613 14.4802C49.3736 17.0145 46.1 18.0936 43.0753 17.1789C31.7925 13.7665 21.1792 8.44808 11.6968 1.45477C9.98104 0.189434 8.88487-1.74626 8.68226-3.86845C6.31586-28.6546 11.9116-51.6356 26.9882-73.901C27.7601-75.0409 28.8309-75.9464 30.0832-76.5183C38.238-80.2418 46.8438-82.8892 55.6834-84.3937C58.8109-84.926 61.935-83.4329 63.4853-80.6651C63.6638-80.3464 63.8399-80.0264 64.0135-79.7052L64.43-78.92L64.9703-78.9693C70.4109-79.4342 75.8814-79.4342 81.322-78.9693L81.862-78.92L82.2793-79.7063L82.8079-80.6666C84.3568-83.4304 87.4754-84.9229 90.5995-84.3953ZM93.486-68.52L93.2046-67.8783C91.8604-64.7427 88.5694-62.9094 85.1958-63.4169C77.2078-64.6184 69.0845-64.6184 61.0966-63.4169C57.7236-62.9095 54.4331-64.742 53.0884-67.8767L52.808-68.514L52.3297-68.4012C47.8007-67.3103 43.3638-65.8629 39.0609-64.0719L38.236-63.724L38.0694-63.4673C26.7254-45.925 22.1976-28.1947 23.3276-9.00311L23.348-8.673L23.7842-8.37572C29.4385-4.57954 35.5131-1.4518 41.8855 0.946038L42.249 1.08L42.4553 0.749192L42.544 0.6L42.467 0.307302C41.9143-1.94573 42.2984-4.33097 43.5668-6.32531L43.7372-6.58318C46.3346-10.3666 51.1243-11.4691 55.4356-10.159C67.6591-6.44464 80.0709-6.3114 90.5261-10.0414C92.6873-10.8124 94.8167-11.1065 96.8802-10.7776C99.9344-10.2907 102.649-8.43564 103.874-5.33325C104.684-3.28342 104.645-1.17872 103.981 0.711595L103.919 0.876L104.052 1.088L104.257 1.01346C110.733-1.40027 116.901-4.5704 122.634-8.4321L122.973-8.664L123.004-9.16425C124.136-28.9142 119.118-46.8191 108.193-63.5272L108.056-63.735L107.216-64.0898C102.919-65.8786 98.4881-67.3223 93.9648-68.4076L93.486-68.52Z"/>
   <path class="monochrome-1 multicolor-1:custom hierarchical-1:primary SFSymbolsPreview5865F2" d="M54.0384-40.6507C59.8544-40.6507 64.5036-35.4682 64.4041-29.1482C64.3046-22.8281 59.8363-17.6908 54.0564-17.6908C48.3851-17.6908 43.6998-22.8281 43.6998-29.1482C43.6998-35.4682 48.2223-40.6507 54.0384-40.6507ZM92.2631-40.6507C98.0881-40.6507 102.701-35.4682 102.602-29.1482C102.502-22.8281 98.0429-17.6908 92.2631-17.6908C86.5827-17.6908 81.9154-22.8281 81.9154-29.1482C81.9154-35.4682 86.438-40.6507 92.2631-40.6507Z"/>
  </g>
  <g id="Bold-M" transform="matrix(1 0 0 1 2268.47 1126)">
   <path class="monochrome-0 multicolor-0:custom hierarchical-0:secondary SFSymbolsPreview5865F2" d="M88.2664-82.4232C96.9329-80.9596 105.37-78.3686 113.362-74.7163C114.27-74.3012 115.049-73.6465 115.613-72.8227C129.872-52.0128 136.077-29.2142 133.646-4.04341C133.496-2.4901 132.693-1.07365 131.437-0.146966C122.135 6.71882 111.716 11.933 100.64 15.2666C98.4258 15.9331 96.0312 15.1433 94.6478 13.2904C92.5273 10.4502 90.6115 7.46439 88.9144 4.35547L88.494 3.573L88.1818 3.65759C77.4699 6.47105 65.7107 6.32576 54.095 3.49446L53.873 3.439L53.386 4.3477C51.8585 7.14553 50.1553 9.84452 48.2864 12.4285L47.6573 13.2855C46.2731 15.1439 43.8724 15.9353 41.6543 15.2645C30.5901 11.9182 20.1825 6.7029 10.8839-0.154836C9.62567-1.08275 8.82181-2.50226 8.67323-4.05853C6.35029-28.3895 11.8329-50.906 26.6442-72.7796C27.2103-73.6156 27.9956-74.2796 28.9139-74.699C36.911-78.3504 45.3503-80.9466 54.019-82.422C56.3125-82.8124 58.6035-81.7175 59.7404-79.6877C60.2612-78.758 60.7608-77.8168 61.2389-76.8649L61.271-76.798L62.1422-76.8858C68.131-77.4621 74.1615-77.4621 80.1503-76.8858L81.02-76.798L81.0533-76.8652C81.3721-77.5 81.7006-78.13 82.0386-78.7551L82.5526-79.6888C83.6885-81.7157 85.9755-82.8101 88.2664-82.4232ZM90.345-70.827L90.2272-70.5802C89.9291-69.9475 89.6421-69.3094 89.3664-68.6663C88.3807-66.3669 85.9673-65.0225 83.4933-65.3946C75.3081-66.6258 66.9843-66.6258 58.7991-65.3946C56.3256-65.0226 53.9126-66.3664 52.9265-68.6652C52.6505-69.3084 52.3633-69.9467 52.0651-70.5797L51.948-70.822L51.852-70.8013C46.1964-69.5735 40.6707-67.8054 35.3515-65.5205L34.89-65.319L34.8451-65.2517C22.7762-46.8811 18.0375-28.2686 19.3802-8.10299L19.417-7.573L19.7694-7.32742C26.1215-2.95053 33.0085 0.592421 40.2604 3.21614L41.076 3.506L41.1042 3.46578C41.646 2.6368 42.1687 1.79551 42.6718 0.942573L42.705 0.884L42.6359 0.729927C41.857-1.07928 41.9242-3.17995 43.2402-5.23159L43.3861-5.45121C45.432-8.43131 49.307-9.32331 52.8542-8.24542C65.4674-4.4126 78.3141-4.2747 89.1982-8.1577C93.6664-9.75177 98.2681-9.01827 100.014-4.59848C100.808-2.58877 100.618-0.682977 99.7774 0.936459L99.703 1.074L100.137 1.79603C100.481 2.35852 100.833 2.91569 101.194 3.46736L101.224 3.512L102.051 3.21933C109.307 0.603052 116.196-2.93752 122.549-7.31632L122.904-7.565L122.951-8.23216C124.312-29.0073 119.038-47.815 107.422-65.2965L107.397-65.332L106.924-65.5387C101.612-67.8216 96.0925-69.5852 90.4431-70.8057L90.345-70.827Z"/>
   <path class="monochrome-1 multicolor-1:custom hierarchical-1:primary SFSymbolsPreview5865F2" d="M52.0384-40.6507C57.8544-40.6507 62.5036-35.4682 62.4041-29.1482C62.3046-22.8281 57.8363-17.6908 52.0565-17.6908C46.3852-17.6908 41.6998-22.8281 41.6998-29.1482C41.6998-35.4682 46.2224-40.6507 52.0384-40.6507ZM90.2631-40.6507C96.0882-40.6507 100.701-35.4682 100.602-29.1482C100.502-22.8281 96.0429-17.6908 90.2631-17.6908C84.5828-17.6908 79.9155-22.8281 79.9155-29.1482C79.9155-35.4682 84.438-40.6507 90.2631-40.6507Z"/>
  </g>
  <g id="Semibold-M" transform="matrix(1 0 0 1 1971.76 1126)">
   <path class="monochrome-0 multicolor-0:custom hierarchical-0:secondary SFSymbolsPreview5865F2" d="M88.2664-82.4232C96.9329-80.9596 105.37-78.3686 113.362-74.7163C114.27-74.3012 115.049-73.6465 115.613-72.8227C129.872-52.0128 136.077-29.2142 133.646-4.04341C133.496-2.4901 132.693-1.07365 131.437-0.146966C122.135 6.71882 111.716 11.933 100.64 15.2666C98.4258 15.9331 96.0312 15.1433 94.6478 13.2904C92.5273 10.4502 90.6115 7.46439 88.9144 4.35547L88.494 3.573L88.1818 3.65759C77.4699 6.47105 65.7107 6.32576 54.095 3.49446L53.873 3.439L53.386 4.3477C51.8585 7.14553 50.1553 9.84452 48.2864 12.4285L47.6573 13.2855C46.2731 15.1439 43.8724 15.9353 41.6543 15.2645C30.5901 11.9182 20.1825 6.7029 10.8839-0.154836C9.62567-1.08275 8.82181-2.50226 8.67323-4.05853C6.35029-28.3895 11.8329-50.906 26.6442-72.7796C27.2103-73.6156 27.9956-74.2796 28.9139-74.699C36.911-78.3504 45.3503-80.9466 54.019-82.422C56.3125-82.8124 58.6035-81.7175 59.7404-79.6877C60.2612-78.758 60.7608-77.8168 61.2389-76.8649L61.271-76.798L62.1422-76.8858C68.131-77.4621 74.1615-77.4621 80.1503-76.8858L81.02-76.798L81.0533-76.8652C81.3721-77.5 81.7006-78.13 82.0386-78.7551L82.5526-79.6888C83.6885-81.7157 85.9755-82.8101 88.2664-82.4232ZM90.345-70.827L90.2272-70.5802C89.9291-69.9475 89.6421-69.3094 89.3664-68.6663C88.3807-66.3669 85.9673-65.0225 83.4933-65.3946C75.3081-66.6258 66.9843-66.6258 58.7991-65.3946C56.3256-65.0226 53.9126-66.3664 52.9265-68.6652C52.6505-69.3084 52.3633-69.9467 52.0651-70.5797L51.948-70.822L51.852-70.8013C46.1964-69.5735 40.6707-67.8054 35.3515-65.5205L34.89-65.319L34.8451-65.2517C22.7762-46.8811 18.0375-28.2686 19.3802-8.10299L19.417-7.573L19.7694-7.32742C26.1215-2.95053 33.0085 0.592421 40.2604 3.21614L41.076 3.506L41.1042 3.46578C41.646 2.6368 42.1687 1.79551 42.6718 0.942573L42.705 0.884L42.6359 0.729927C41.857-1.07928 41.9242-3.17995 43.2402-5.23159L43.3861-5.45121C45.432-8.43131 49.307-9.32331 52.8542-8.24542C65.4674-4.4126 78.3141-4.2747 89.1982-8.1577C93.6664-9.75177 98.2681-9.01827 100.014-4.59848C100.808-2.58877 100.618-0.682977 99.7774 0.936459L99.703 1.074L100.137 1.79603C100.481 2.35852 100.833 2.91569 101.194 3.46736L101.224 3.512L102.051 3.21933C109.307 0.603052 116.196-2.93752 122.549-7.31632L122.904-7.565L122.951-8.23216C124.312-29.0073 119.038-47.815 107.422-65.2965L107.397-65.332L106.924-65.5387C101.612-67.8216 96.0925-69.5852 90.4431-70.8057L90.345-70.827Z"/>
   <path class="monochrome-1 multicolor-1:custom hierarchical-1:primary SFSymbolsPreview5865F2" d="M52.0384-40.6507C57.8544-40.6507 62.5036-35.4682 62.4041-29.1482C62.3046-22.8281 57.8363-17.6908 52.0565-17.6908C46.3852-17.6908 41.6998-22.8281 41.6998-29.1482C41.6998-35.4682 46.2224-40.6507 52.0384-40.6507ZM90.2631-40.6507C96.0882-40.6507 100.701-35.4682 100.602-29.1482C100.502-22.8281 96.0429-17.6908 90.2631-17.6908C84.5828-17.6908 79.9155-22.8281 79.9155-29.1482C79.9155-35.4682 84.438-40.6507 90.2631-40.6507Z"/>
  </g>
  <g id="Medium-M" transform="matrix(1 0 0 1 1675.55 1126)">
   <path class="monochrome-0 multicolor-0:custom hierarchical-0:secondary SFSymbolsPreview5865F2" d="M87.6832-81.9302C96.3066-80.4738 104.702-77.8957 112.654-74.2615C113.48-73.8841 114.187-73.289 114.701-72.54C128.894-51.8251 135.068-29.143 132.648-4.09148C132.512-2.67938 131.782-1.39171 130.64-0.549263C121.384 6.28244 111.017 11.4707 99.996 14.7878C97.983 15.3937 95.8061 14.6758 94.5485 12.9913C92.2314 9.88792 90.1605 6.60946 88.3541 3.18581L88.2497 2.98576L88.2283 2.99276C77.4205 5.9704 65.494 5.88053 53.7108 3.00804L53.112 2.858L52.9465 3.17805C51.3037 6.29021 49.444 9.28337 47.3813 12.1355L46.7564 12.9868C45.4979 14.6763 43.3155 15.3958 41.2991 14.7859C30.2895 11.4561 19.9333 6.2666 10.6806-0.557238C9.53682-1.4008 8.80605-2.69126 8.67097-4.10606C6.35889-28.3232 11.8133-50.7235 26.5583-72.4992C27.0729-73.2592 27.7867-73.8629 28.6216-74.2441C36.5792-77.8776 44.977-80.461 53.6029-81.9291C55.6879-82.284 57.7706-81.2886 58.8042-79.4434C59.3213-78.5202 59.8174-77.5857 60.2921-76.6405L60.478-76.263L60.6976-76.2873C67.3111-76.9949 73.9814-76.9949 80.5948-76.2873L80.814-76.263L81.0001-76.6408C81.3167-77.2711 81.6428-77.8967 81.9784-78.5173L82.4888-79.4444C83.5214-81.287 85.6005-82.2819 87.6832-81.9302ZM89.565-71.397L89.2749-70.7933C88.9743-70.1552 88.6849-69.5118 88.4069-68.8633C87.5108-66.773 85.3167-65.5508 83.0677-65.8891C74.8332-67.1276 66.4592-67.1276 58.2247-65.8891C55.9761-65.5508 53.7824-66.7725 52.886-68.8623C52.6077-69.5109 52.3181-70.1545 52.0174-70.7928L51.728-71.392L51.2459-71.2899C45.5591-70.0553 40.0028-68.2774 34.6542-65.9799L34.054-65.719L33.9368-65.5408C21.7934-47.0629 17.0261-28.3275 18.3835-8.03705L18.435-7.3L18.9857-6.9157C25.6392-2.33116 32.8762 1.34348 40.5036 4.01128L40.778 4.106L41.0227 3.73933C41.5687 2.90394 42.0955 2.05614 42.6025 1.19661L42.774 0.899L42.6971 0.743137C41.8826-0.975117 41.9008-2.99168 43.1587-4.95777L43.2983-5.16822C45.2063-7.9475 48.8527-8.78685 52.2088-7.76702C64.9195-3.9046 77.8749-3.76552 88.8662-7.68677C93.1137-9.20209 97.4296-8.51414 99.0489-4.41479C99.8131-2.48014 99.5884-0.642026 98.718 0.90602L98.621 1.072L98.697 1.20246C99.2035 2.06074 99.7299 2.9072 100.276 3.74116L100.521 4.11L100.806 4.01369C108.438 1.35406 115.679-2.31799 122.332-6.90465L122.885-7.291L122.895-7.41656C124.45-28.6135 119.16-47.7821 107.339-65.5724L107.232-65.732L106.621-65.9981C101.28-68.2937 95.7296-70.0671 90.0487-71.2945L89.565-71.397Z"/>
   <path class="monochrome-1 multicolor-1:custom hierarchical-1:primary SFSymbolsPreview5865F2" d="M51.5384-40.6507C57.3544-40.6507 62.0036-35.4682 61.9041-29.1482C61.8046-22.8281 57.3363-17.6908 51.5565-17.6908C45.8852-17.6908 41.1998-22.8281 41.1998-29.1482C41.1998-35.4682 45.7224-40.6507 51.5384-40.6507ZM89.7631-40.6507C95.5882-40.6507 100.201-35.4682 100.102-29.1482C100.002-22.8281 95.5429-17.6908 89.7631-17.6908C84.0828-17.6908 79.4155-22.8281 79.4155-29.1482C79.4155-35.4682 83.938-40.6507 89.7631-40.6507Z"/>
  </g>
  <g id="Regular-M" transform="matrix(1 0 0 1 1379.84 1126)">
   <path class="monochrome-0 multicolor-0:custom hierarchical-0:secondary SFSymbolsPreview5865F2" d="M86.5167-80.9441C95.0541-79.5023 103.365-76.9499 111.239-73.352C111.899-73.0501 112.465-72.574 112.876-71.9748C126.939-51.4497 133.05-29.0006 130.653-4.18763C130.544-3.05795 129.96-2.02781 129.047-1.35386C119.882 5.40969 109.619 10.5462 98.7078 13.8303C97.0974 14.315 95.3559 13.7406 94.3498 12.393C91.856 9.05297 89.6512 5.50734 87.759 1.79445L87.62 1.84331C76.5899 5.02536 64.3181 4.92598 52.2162 1.85448L51.587 1.691L51.5419 1.78652C49.8062 5.18991 47.8098 8.45388 45.571 11.5494L44.9544 12.3895C43.9476 13.741 42.2017 14.3166 40.5886 13.8287C29.6883 10.532 19.435 5.39401 10.2742-1.36204C9.35914-2.03689 8.77452-3.06926 8.66646-4.2011C6.37611-28.1907 11.7739-50.3587 26.3863-71.9386C26.798-72.5465 27.3691-73.0295 28.037-73.3345C35.9157-76.9319 44.2302-79.4897 52.7707-80.9433C54.4387-81.2272 56.1049-80.4309 56.9317-78.9547C57.6114-77.7413 58.2542-76.508 58.8594-75.2564L58.891-75.191L59.804-75.293C66.3467-75.993 72.9457-75.993 79.4884-75.293L80.401-75.191L80.4327-75.2565C80.8867-76.1954 81.3619-77.124 81.858-78.0416L82.3612-78.9555C83.1873-80.4296 84.8505-81.2255 86.5167-80.9441ZM88.008-72.533L87.6351-71.7742C87.2337-70.9442 86.8512-70.105 86.4878-69.2573C85.7709-67.5851 84.0157-66.6073 82.2164-66.8779C73.8834-68.1314 65.4091-68.1314 57.076-66.8779C55.2771-66.6074 53.5222-67.5847 52.805-69.2565C52.3807-70.2456 51.9305-71.2232 51.4548-72.1884L51.283-72.529L51.0497-72.4817C44.946-71.2286 38.9851-69.3582 33.2595-66.8988L32.383-66.517L32.0999-66.0881C19.6866-47.1986 14.898-28.0137 16.4385-7.22227L16.474-6.752L16.614-6.65288C23.8276-1.56765 31.7386 2.44911 40.1007 5.27397L40.181 5.3L40.2988 5.13044C41.0554 4.01077 41.7774 2.86831 42.4638 1.70467L42.931 0.896L42.9184 0.875573C41.9519-0.676457 41.8274-2.57317 42.9971-4.41221L43.1227-4.60223C44.755-6.97986 47.944-7.71395 50.9181-6.81022C63.8236-2.88858 76.9965-2.74717 88.2022-6.74492C92.0082-8.10273 95.7527-7.50586 97.1188-4.04741C97.8466-2.20488 97.4947-0.44601 96.4726 0.98075L96.438 1.025L96.8358 1.71071C97.5216 2.87282 98.2433 4.0136 98.9998 5.1314L99.118 5.304L99.2077 5.27575C107.575 2.46016 115.49-1.55403 122.704-6.64226L122.845-6.744L122.891-7.318C124.469-28.7561 119.115-48.1567 107.163-66.1397L106.9-66.531L106.096-66.8827C100.313-69.3742 94.2883-71.2602 88.1178-72.511L88.008-72.533Z"/>
   <path class="monochrome-1 multicolor-1:custom hierarchical-1:primary SFSymbolsPreview5865F2" d="M50.5384-40.6507C56.3544-40.6507 61.0036-35.4682 60.9041-29.1482C60.8046-22.8281 56.3363-17.6908 50.5565-17.6908C44.8852-17.6908 40.1998-22.8281 40.1998-29.1482C40.1998-35.4682 44.7224-40.6507 50.5384-40.6507ZM88.7631-40.6507C94.5882-40.6507 99.2012-35.4682 99.1017-29.1482C99.0022-22.8281 94.5429-17.6908 88.7631-17.6908C83.0828-17.6908 78.4155-22.8281 78.4155-29.1482C78.4155-35.4682 82.938-40.6507 88.7631-40.6507Z"/>
  </g>
  <g id="Light-M" transform="matrix(1 0 0 1 1084.13 1126)">
   <path class="monochrome-0 multicolor-0:custom hierarchical-0:secondary SFSymbolsPreview5865F2" d="M85.3502-79.9581C93.8016-78.5308 102.029-76.0041 109.823-72.4425C110.318-72.216 110.743-71.859 111.051-71.4096C124.984-51.0743 131.031-28.8582 128.657-4.28378C128.576-3.43652 128.138-2.66392 127.453-2.15845C118.381 4.53694 108.221 9.62171 97.4196 12.8727C96.2118 13.2362 94.9057 12.8055 94.1511 11.7948C91.6913 8.50014 89.5164 5.00276 87.65 1.34039C87.5377 1.12012 87.4554 0.893142 87.4013 0.663854L87.382 0.57L86.9433 0.705567C75.5163 4.14243 62.6719 3.96239 50.0626 0.516354L49.935 0.481C49.8953 0.713354 49.8273 0.942368 49.7298 1.16576L49.6511 1.33219C47.7831 4.99489 45.6092 8.4939 43.1525 11.7921C42.3974 12.8058 41.0879 13.2375 39.8781 12.8715C29.0871 9.6079 18.9366 4.52142 9.86774-2.16685C9.18145-2.67298 8.74299-3.44726 8.66194-4.29614C6.39332-28.0581 11.7346-49.9938 26.2143-71.3779C26.5231-71.8339 26.9514-72.1961 27.4524-72.4248C35.2522-75.9863 43.4835-78.5184 51.9385-79.9575C53.1895-80.1704 54.4392-79.5732 55.0593-78.466C55.7291-77.2701 56.3627-76.0546 56.9591-74.8211L57.296-74.111L57.9401-74.1896C65.0528-75.0275 72.2397-75.0275 79.3524-74.1896L79.995-74.111L80.333-74.8212C80.7804-75.7465 81.2487-76.6617 81.7377-77.566L82.2335-78.4666C82.8531-79.5722 84.1005-80.1692 85.3502-79.9581ZM86.46-73.66L86.149-73.0501C85.5882-71.9335 85.0612-70.8001 84.5687-69.6514C84.031-68.3972 82.7146-67.6638 81.3652-67.8668C72.9335-69.1351 64.359-69.1351 55.9273-67.8668C54.5781-67.6639 53.2619-68.3969 52.724-69.6507C52.2312-70.7996 51.704-71.9332 51.143-73.05L50.832-73.658L49.9772-73.4876C43.405-72.148 36.9958-70.1005 30.8624-67.38L30.71-67.312L30.2629-66.6354C17.5768-47.3298 12.7696-27.6893 14.5001-6.39056L14.515-6.208L15.0378-5.83556C22.3301-0.694855 30.3274 3.36571 38.7807 6.22137L39.58 6.486L40.1274 5.69031C41.0874 4.26956 41.9926 2.81266 42.8409 1.32281L43.116 0.829L43.025 0.71245C42.0336-0.605925 41.8281-2.26255 42.8307-3.85912L42.9471-4.03625C44.3037-6.01223 47.0354-6.64104 49.6273-5.85342C62.7278-1.87256 76.1181-1.72881 87.5383-5.80306C90.9027-7.00336 94.0758-6.49758 95.1888-3.68002C95.8527-1.99926 95.389-0.373857 94.2544 0.889305L94.228 0.918L94.3325 1.10654C95.2585 2.74724 96.2539 4.34797 97.316 5.90438L97.721 6.489L98.4412 6.25224C106.951 3.39804 114.999-0.681968 122.33-5.85973L122.805-6.2L122.827-6.45306C124.613-28.4304 119.216-48.3065 106.996-66.6917L106.57-67.328L106.412-67.3982C100.286-70.1174 93.8829-72.16 87.3165-73.4911L86.46-73.66Z"/>
   <path class="monochrome-1 multicolor-1:custom hierarchical-1:primary SFSymbolsPreview5865F2" d="M49.5384-40.6507C55.3544-40.6507 60.0036-35.4682 59.9041-29.1482C59.8046-22.8281 55.3363-17.6908 49.5565-17.6908C43.8852-17.6908 39.1998-22.8281 39.1998-29.1482C39.1998-35.4682 43.7224-40.6507 49.5384-40.6507ZM87.7631-40.6507C93.5882-40.6507 98.2012-35.4682 98.1017-29.1482C98.0022-22.8281 93.543-17.6908 87.7631-17.6908C82.0828-17.6908 77.4155-22.8281 77.4155-29.1482C77.4155-35.4682 81.9381-40.6507 87.7631-40.6507Z"/>
  </g>
  <g id="Thin-M" transform="matrix(1 0 0 1 789.417 1126)">
   <path class="monochrome-0 multicolor-0:custom hierarchical-0:secondary SFSymbolsPreview5865F2" d="M82.9589-77.9082C91.2098-76.5187 99.2421-74.0589 106.851-70.5916C107.099-70.4787 107.311-70.3005 107.465-70.0761C121.086-50.2525 126.988-28.6323 124.669-4.6891C124.627-4.26492 124.408-3.87825 124.065-3.62564C115.208 2.89256 105.289 7.84275 94.7436 11.0077C94.1407 11.1886 93.489 10.9739 93.1117 10.47C90.7231 7.27982 88.6112 3.89331 86.7989 0.347019C86.3905-0.452094 86.7704-1.4286 87.6116-1.74148C89.1101-2.29892 90.5849-2.91543 92.0327-3.58938L92.595-3.858L92.4437-3.7959C75.8991 2.81144 57.4206 2.81144 40.876-3.7959L40.727-3.856L41.2771-3.59425C42.4331-3.0562 43.6064-2.55491 44.7953-2.09122L45.6899-1.75051C46.5313-1.43769 46.9114-0.460753 46.5026 0.338508C44.6884 3.88575 42.577 7.27447 40.191 10.4687C39.8135 10.9741 39.1601 11.1893 38.5562 11.0071C28.0204 7.82964 18.1099 2.87745 9.25545-3.63425C8.91151-3.88719 8.69165-4.27471 8.65096-4.6997C6.43392-27.8559 11.6458-49.1998 25.805-70.0514C25.9596-70.2791 26.1739-70.4599 26.4244-70.5739C34.0399-74.0414 42.0767-76.5068 50.3319-77.9079C50.9566-78.0139 51.5805-77.716 51.8907-77.1636C52.7028-75.718 53.4598-74.2426 54.1603-72.7408L54.508-71.979L55.3309-72.0883C62.8438-73.046 70.4489-73.046 77.9619-72.0883L78.783-71.979L79.1322-72.7408C79.6925-73.9425 80.2891-75.1271 80.9214-76.293L81.4022-77.1639C81.7122-77.7155 82.335-78.0132 82.9589-77.9082ZM83.507-74.768L83.1125-74.0251C82.3795-72.6233 81.6999-71.1942 81.0751-69.7409C80.806-69.1148 80.1485-68.7488 79.4746-68.8499C70.9705-70.1254 62.3223-70.1254 53.8182-68.8499C53.1443-68.7488 52.487-69.1146 52.2178-69.7406C51.5926-71.1938 50.9128-72.623 50.1799-74.0251L49.785-74.767L48.8386-74.5893C41.8712-73.2513 35.0784-71.1276 28.592-68.2586L28.05-68.016L27.8264-67.6829C14.5671-47.8664 9.62254-27.6692 11.5675-5.7424L11.575-5.657L11.8155-5.48168C19.6705 0.170365 28.3609 4.56858 37.5731 7.55622L38.411 7.823L38.908 7.12851C40.3724 5.04849 41.7184 2.88827 42.9394 0.658062L43.054 0.444L42.9271 0.394291C40.3666-0.643747 37.8774-1.84897 35.4758-3.21364L34.6785-3.67443C33.7449-4.22312 33.6826-5.54998 34.5606-6.1838C35.24-6.67427 35.8614-7.14122 36.9131-7.94459C37.3573-8.2839 37.9533-8.34808 38.4596-8.11111C56.3213 0.249842 76.9984 0.249842 94.8601-8.11111C95.381-8.35492 95.9954-8.27947 96.4418-7.91686C97.249-7.26115 98-6.69682 98.72-6.21109C99.6348-5.5939 99.5925-4.23339 98.641-3.67433C95.9894-2.11638 93.2276-0.754196 90.3778 0.401632L90.246 0.453L90.3614 0.666177C91.5813 2.89462 92.927 5.05254 94.3921 7.12955L94.89 7.824L95.732 7.55781C104.951 4.58052 113.647 0.18452 121.504-5.47198L121.744-5.647L121.757-5.77833C123.776-28.4184 118.202-48.8642 105.446-67.7126L105.228-68.032L104.683-68.2765C98.204-71.1443 91.4167-73.263 84.4545-74.5917L83.507-74.768Z"/>
   <path class="monochrome-1 multicolor-1:custom hierarchical-1:primary SFSymbolsPreview5865F2" d="M47.0575-40.6507C52.8735-40.6507 57.5227-35.4682 57.4232-29.1482C57.3237-22.8281 52.8554-17.6908 47.0756-17.6908C41.4043-17.6908 36.7189-22.8281 36.7189-29.1482C36.7189-35.4682 41.2415-40.6507 47.0575-40.6507ZM85.2822-40.6507C91.1073-40.6507 95.7203-35.4682 95.6208-29.1482C95.5213-22.8281 91.0621-17.6908 85.2822-17.6908C79.6019-17.6908 74.9346-22.8281 74.9346-29.1482C74.9346-35.4682 79.4572-40.6507 85.2822-40.6507Z"/>
  </g>
  <g id="Ultralight-M" transform="matrix(1 0 0 1 493.206 1126)">
   <path class="monochrome-0 multicolor-0:custom hierarchical-0:secondary SFSymbolsPreview5865F2" d="M82.2513-77.429L82.3759-77.4151C90.5838-76.0329 98.5744-73.5859 106.144-70.1366C106.309-70.0613 106.45-69.9425 106.553-69.793C120.109-50.0643 125.979-28.5609 123.671-4.73731C123.643-4.45453 123.497-4.19674 123.268-4.02834C114.458 2.45589 104.591 7.38031 94.0999 10.5288C93.698 10.6494 93.2635 10.5063 93.012 10.1703C90.6404 7.00287 88.5436 3.64048 86.7441 0.11948C86.4718-0.413263 86.7252-1.06427 87.2859-1.27285C90.0056-2.28457 92.648-3.48928 95.1927-4.87735L95.529-5.065L95.2103-5.30695L94.853-5.586L94.8079-5.56403C76.6199 2.73415 55.6998 2.73415 37.5117-5.56403L37.451-5.593L37.4302-5.5763C37.2738-5.45736 37.1272-5.34613 36.9879-5.24089L36.768-5.076L37.1237-4.87893C39.3813-3.64728 41.716-2.56051 44.1136-1.6254L45.0156-1.28185C45.5766-1.0733 45.83-0.42201 45.5575 0.11083C43.7561 3.63301 41.6596 6.99779 39.2904 10.1695C39.0388 10.5064 38.6032 10.6498 38.2005 10.5284C27.7193 7.36739 17.8602 2.44087 9.05168-4.03705C8.82239-4.20568 8.67582-4.46402 8.64869-4.74735C6.44257-27.7895 11.626-49.017 25.7187-69.7706C25.8217-69.9223 25.9646-70.0429 26.1316-70.1189C33.7077-73.5684 41.703-76.0211 49.9156-77.4149C50.332-77.4856 50.748-77.287 50.9548-76.9187C51.9218-75.1971 52.8103-73.4331 53.6175-71.6321L53.7047-71.432L53.9202-71.4627C62.0318-72.5879 70.261-72.5879 78.3726-71.4627L78.587-71.432L78.6751-71.632C79.3475-73.1331 80.0766-74.6083 80.8609-76.0546L81.3381-76.9189C81.5034-77.2131 81.8022-77.399 82.1281-77.4257L82.2513-77.429ZM82.74-75.322L82.6191-75.1013C81.7068-73.419 80.8715-71.6962 80.1158-69.9384C79.9363-69.521 79.4981-69.277 79.0488-69.3444C70.4955-70.6273 61.7973-70.6273 53.244-69.3444C52.7948-69.277 52.3566-69.5209 52.1771-69.9381C51.4209-71.6959 50.5855-73.4188 49.6735-75.1013L49.5517-75.322L49.2461-75.2671C41.8908-73.9368 34.7213-71.7375 27.8898-68.7158L27.215-68.413L26.9105-67.9605C13.587-48.0477 8.61466-27.737 10.5694-5.69859L10.598-5.386L11.0235-5.07583C19.1838 0.795889 28.2408 5.32161 37.8467 8.32746L38.105 8.406L38.258 8.19829C39.9512 5.86393 41.4942 3.42567 42.878 0.898177L43.26 0.187L42.615-0.0690766C40.0748-1.09888 37.6054-2.29453 35.2228-3.64836L34.4319-4.10549C33.8095-4.47128 33.7679-5.35586 34.3532-5.77841C34.9233-6.18991 35.4518-6.58426 36.2227-7.17068L36.7166-7.54725C37.0127-7.77346 37.4101-7.81625 37.7476-7.65827C55.7436 0.76556 76.576 0.76556 94.5721-7.65827C94.9193-7.82081 95.3289-7.7705 95.6265-7.52877C96.4445-6.8643 97.2071-6.29129 97.9404-5.7966C98.5503-5.38513 98.522-4.47813 97.8877-4.10542C95.2571-2.5598 92.5172-1.2084 89.6899-0.061708L89.04 0.196L89.4229 0.906261C90.8054 3.43193 92.3485 5.86766 94.0426 8.19858L94.197 8.408L94.457 8.32818C104.071 5.33357 113.134 0.810274 121.296-5.06622L121.722-5.378L121.754-5.72512C123.787-28.4886 118.18-49.0537 105.355-68.0001L105.061-68.43L104.386-68.7337C97.5614-71.7543 90.3972-73.9482 83.0472-75.2683L82.74-75.322Z"/>
   <path class="monochrome-1 multicolor-1:custom hierarchical-1:primary SFSymbolsPreview5865F2" d="M46.5575-40.6507C52.3735-40.6507 57.0227-35.4682 56.9232-29.1482C56.8237-22.8281 52.3555-17.6908 46.5756-17.6908C40.9043-17.6908 36.2189-22.8281 36.2189-29.1482C36.2189-35.4682 40.7415-40.6507 46.5575-40.6507ZM84.7822-40.6507C90.6073-40.6507 95.2203-35.4682 95.1208-29.1482C95.0213-22.8281 90.5621-17.6908 84.7822-17.6908C79.1019-17.6908 74.4346-22.8281 74.4346-29.1482C74.4346-35.4682 78.9572-40.6507 84.7822-40.6507Z"/>
  </g>
  <g id="Black-S" transform="matrix(1 0 0 1 2873.4 696)">
   <path class="monochrome-0 multicolor-0:custom hierarchical-0:secondary SFSymbolsPreview5865F2" d="M73.3501-75.0531C80.2907-73.8867 87.0478-71.8218 93.449-68.9108C94.6052-68.3851 95.5965-67.5547 96.3168-66.5086C107.715-49.9552 112.695-31.7473 110.749-11.6959C110.557-9.71445 109.53-7.90867 107.925-6.73029C100.473-1.25717 92.1279 2.89886 83.2565 5.55581C80.4463 6.39744 77.4095 5.3976 75.6489 3.05114C74.3358 1.3009 73.1193-0.517987 72.0047-2.39739L71.6999-2.9209L71.2278-2.81732C63.8795-1.26891 56.0336-1.35274 48.2308-2.93368L47.6759-3.0489L47.3004-2.40385C46.3457-0.793396 45.3169 0.773008 44.217 2.29033L43.6612 3.04488C41.8995 5.39836 38.855 6.40033 36.04 5.55311C27.1796 2.8865 18.8443-1.26987 11.3963-6.73578C9.78847-7.91571 8.76028-9.72541 8.56982-11.7106C6.71103-31.0844 11.1129-49.0734 22.9459-66.4629C23.6682-67.5244 24.6685-68.3667 25.8374-68.8978C32.2412-71.8075 38.9987-73.8761 45.9396-75.0516C48.8516-75.5448 51.7598-74.1572 53.2085-71.5835L53.5769-70.9139L54.025-70.9503C57.7692-71.2288 61.5292-71.2288 65.2735-70.9503L65.7209-70.9139L66.0907-71.5849C67.5381-74.1549 70.4413-75.5419 73.3501-75.0531ZM76.0619-60.1999L76.0407-60.1563C74.6686-57.5303 71.7697-56.0338 68.8017-56.4781C62.7344-57.3862 56.5641-57.3862 50.4967-56.4781C47.5293-56.0339 44.6308-57.5297 43.2584-60.155L43.2389-60.1949L42.8809-60.1059C39.9131-59.3498 36.9999-58.3927 34.162-57.2409L33.4239-56.9359L33.2567-56.6764C24.9354-43.7235 21.5443-30.6603 22.2501-16.5413L22.2679-16.2159L22.3645-16.1511C26.0025-13.7454 29.8668-11.7001 33.9016-10.0433L34.5289-9.7909C34.4501-11.389 34.8644-12.9921 35.7512-14.3836L35.9126-14.6269C38.2546-18.0216 42.4963-18.9932 46.2813-17.8487C55.514-15.0569 64.867-14.957 72.7083-17.7407C74.552-18.3952 76.3902-18.6478 78.2003-18.3607C80.9484-17.9248 83.4149-16.2473 84.5376-13.419C85.0003-12.2532 85.1879-11.127 85.1491-10.0632L85.1419-9.9299L85.415-10.0391C89.4509-11.6924 93.316-13.7361 96.9535-16.1421L97.0529-16.2099L97.082-16.7574C97.7605-31.232 94.0276-44.3813 86.0377-56.6967L85.8749-56.9439L85.1247-57.2545C82.2913-58.4046 79.3825-59.3592 76.4189-60.1117L76.0619-60.1999Z"/>
   <path class="monochrome-1 multicolor-1:custom hierarchical-1:primary SFSymbolsPreview5865F2" d="M45.4293-40.1499C49.9713-40.1499 53.602-36.087 53.5243-31.1322C53.4466-26.1774 49.9571-22.1499 45.4434-22.1499C41.0145-22.1499 37.3555-26.1774 37.3555-31.1322C37.3555-36.087 40.8873-40.1499 45.4293-40.1499ZM75.2805-40.1499C79.8295-40.1499 83.432-36.087 83.3543-31.1322C83.2766-26.1774 79.7942-22.1499 75.2805-22.1499C70.8445-22.1499 67.1996-26.1774 67.1996-31.1322C67.1996-36.087 70.7314-40.1499 75.2805-40.1499Z"/>
  </g>
  <g id="Heavy-S" transform="matrix(1 0 0 1 2577.68 696)">
   <path class="monochrome-0 multicolor-0:custom hierarchical-0:secondary SFSymbolsPreview5865F2" d="M72.1844-74.0669C79.0393-72.9149 85.713-70.8755 92.0351-68.0005C93.0261-67.5499 93.8758-66.8381 94.4932-65.9415C105.76-49.5783 110.677-31.6042 108.754-11.7925C108.589-10.0941 107.709-8.54631 106.333-7.53628C98.9732-2.13092 90.7315 1.97372 81.9696 4.59786C79.5609 5.31925 76.9579 4.46225 75.4488 2.45099C73.9728 0.483763 72.6211-1.57162 71.4012-3.70323L71.1999-4.0599L70.6288-3.92792C63.0375-2.22682 54.8724-2.31918 46.7639-4.05235L46.1689-4.1829L45.9035-3.70936C44.8365-1.84463 43.6695-0.0377456 42.4074 1.70345L41.8606 2.44563C40.3506 4.46289 37.7411 5.32173 35.3282 4.59554C26.5767 1.96173 18.3441-2.14346 10.9879-7.54197C9.60982-8.55334 8.72851-10.1045 8.56526-11.8061C6.7284-30.9513 11.0732-48.7071 22.7726-65.9003C23.3917-66.8101 24.2492-67.5322 25.2511-67.9874C31.5762-70.8613 38.2508-72.9045 45.1066-74.0657C47.6026-74.4884 50.0953-73.299 51.3371-71.093C51.4989-70.8055 51.6582-70.5166 51.8149-70.2263L52.0069-69.8619L52.1758-69.8787C56.4832-70.2527 60.8153-70.2527 65.1227-69.8787L65.2899-69.8619L65.4838-70.2272L65.962-71.0942C67.2027-73.2971 69.6911-74.4859 72.1844-74.0669ZM74.4979-61.3659L74.3483-61.027C73.2707-58.5256 70.6434-57.0639 67.9498-57.467C61.7843-58.3899 55.5142-58.3899 49.3487-57.467C46.6556-57.0639 44.0287-58.525 42.9507-61.0257L42.8019-61.3609L42.5391-61.2989C38.912-60.4273 35.3617-59.2609 31.9242-57.8109L31.7519-57.7369L31.413-57.2132C22.8413-43.8688 19.4246-30.382 20.2897-15.7904L20.2969-15.6629L20.8129-15.317C24.9666-12.5703 29.411-10.2866 34.0652-8.50629L34.6609-8.2829L34.7509-8.4269L34.7337-8.4912C34.269-10.3016 34.5674-12.2258 35.5854-13.8318L35.7357-14.0591C37.8017-17.0536 41.5877-17.9208 44.9918-16.8915C54.4186-14.041 63.988-13.9388 72.0428-16.7983C73.7405-17.401 75.4159-17.6312 77.0436-17.3731C79.4675-16.9886 81.628-15.5192 82.6082-13.05C83.2661-11.3925 83.2844-9.82046 82.8442-8.42273L82.8169-8.3419L83.25-8.50318C87.9061-10.2789 92.3517-12.5608 96.5052-15.3081L97.0219-15.6559L97.0397-15.9224C97.904-30.9305 94.1183-44.5476 85.8604-57.266L85.5459-57.7459L85.3612-57.8249C81.9291-59.2733 78.3835-60.4367 74.7611-61.3039L74.4979-61.3659Z"/>
   <path class="monochrome-1 multicolor-1:custom hierarchical-1:primary SFSymbolsPreview5865F2" d="M44.4293-40.1499C48.9713-40.1499 52.602-36.087 52.5243-31.1322C52.4466-26.1774 48.9571-22.1499 44.4434-22.1499C40.0145-22.1499 36.3555-26.1774 36.3555-31.1322C36.3555-36.087 39.8874-40.1499 44.4293-40.1499ZM74.2805-40.1499C78.8295-40.1499 82.432-36.087 82.3543-31.1322C82.2766-26.1774 78.7942-22.1499 74.2805-22.1499C69.8445-22.1499 66.1996-26.1774 66.1996-31.1322C66.1996-36.087 69.7315-40.1499 74.2805-40.1499Z"/>
  </g>
  <g id="Bold-S" transform="matrix(1 0 0 1 2281.97 696)">
   <path class="monochrome-0 multicolor-0:custom hierarchical-0:secondary SFSymbolsPreview5865F2" d="M71.0186-73.0808C77.7879-71.9432 84.3782-69.9292 90.6212-67.0902C91.447-66.7147 92.155-66.1216 92.6695-65.3744C103.806-49.2014 108.658-31.4612 106.758-11.8891C106.621-10.4738 105.887-9.18396 104.741-8.34226C97.4736-3.00468 89.335 1.04858 80.6827 3.6399C78.6755 4.24106 76.5063 3.52689 75.2487 1.85084C73.6524-0.276754 72.204-2.5092 70.9132-4.8309L70.7039-5.2139L70.5242-5.16766C62.3896-3.13598 53.5199-3.24671 44.7467-5.3052L44.6579-5.3269L44.3915-4.83688C43.2621-2.80571 42.0131-0.842276 40.6508 1.04314L40.0601 1.84637C38.8017 3.52743 36.6271 4.24312 34.6164 3.63797C25.9739 1.03695 17.8439-3.01706 10.5796-8.34817C9.43116-9.19098 8.69674-10.4836 8.5607-11.9016C6.74577-30.8182 11.0335-48.3408 22.5994-65.3377C23.1153-66.0959 23.8298-66.6976 24.6648-67.077C30.9112-69.9152 37.5029-71.933 44.2736-73.0797C46.3536-73.432 48.4309-72.4409 49.4657-70.6025C49.7836-70.0377 50.0914-69.4674 50.3891-68.8921L50.4329-68.8049L51.2623-68.8824C55.5121-69.2514 59.7863-69.2514 64.0362-68.8824L64.8649-68.8049L64.9093-68.8925C65.0582-69.1803 65.2097-69.4668 65.3637-69.752L65.8334-70.6034C66.8672-72.4392 68.9409-73.4299 71.0186-73.0808ZM72.9229-62.5239L72.8167-62.2948L72.4299-61.4226C71.5319-59.3381 69.3425-58.12 67.0978-58.456C60.8342-59.3935 54.4643-59.3935 48.2007-58.456C45.9564-58.1201 43.7673-59.3377 42.869-61.4216C42.743-61.7138 42.614-62.0047 42.4819-62.2941L42.3759-62.5199L42.2271-62.4861C38.2266-61.5821 34.3139-60.3261 30.5356-58.7323L30.0809-58.5379L30.0059-58.4229C20.9917-44.668 17.3936-30.7523 18.2937-15.6938L18.3309-15.1099L18.5616-14.9518C23.2078-11.7972 28.2238-9.21984 33.4969-7.27599L34.0779-7.0659L34.1462-7.1707C34.3109-7.42902 34.4731-7.68885 34.6329-7.95018L34.7949-8.2219L34.7625-8.3066C34.2066-9.83288 34.3241-11.5767 35.4224-13.2862L35.5589-13.4912C37.3488-16.0856 40.6792-16.8485 43.7024-15.9343C53.3232-13.0252 63.1091-12.9206 71.3774-15.8559C75.1602-17.1989 79.1357-16.5683 80.6787-12.6811C81.3318-11.0358 81.2437-9.47973 80.6521-8.13565L80.6109-8.0459L80.6705-7.94686C80.8301-7.686 80.9922-7.42663 81.1567-7.1688L81.2259-7.0609L81.817-7.2733C87.0927-9.21186 92.1105-11.7874 96.7567-14.9431L96.9899-15.1049L96.9914-15.1182C98.0559-30.8871 94.0834-45.1574 85.2857-58.441L85.2149-58.5469L84.75-58.7462C80.9772-60.3384 77.0693-61.5912 73.0734-62.4901L72.9229-62.5239Z"/>
   <path class="monochrome-1 multicolor-1:custom hierarchical-1:primary SFSymbolsPreview5865F2" d="M43.4293-40.1499C47.9713-40.1499 51.602-36.087 51.5243-31.1322C51.4466-26.1774 47.9571-22.1499 43.4434-22.1499C39.0145-22.1499 35.3555-26.1774 35.3555-31.1322C35.3555-36.087 38.8874-40.1499 43.4293-40.1499ZM73.2805-40.1499C77.8295-40.1499 81.432-36.087 81.3543-31.1322C81.2766-26.1774 77.7942-22.1499 73.2805-22.1499C68.8445-22.1499 65.1996-26.1774 65.1996-31.1322C65.1996-36.087 68.7315-40.1499 73.2805-40.1499Z"/>
  </g>
  <g id="Semibold-S" transform="matrix(1 0 0 1 1985.76 696)">
   <path class="monochrome-0 multicolor-0:custom hierarchical-0:secondary SFSymbolsPreview5865F2" d="M48.53-70.3572C48.845-69.7975 49.1501-69.2325 49.445-68.6623L49.6419-68.2729L49.9014-68.3001C54.7213-68.7788 59.5772-68.7788 64.3971-68.3001L64.6559-68.2729L64.8534-68.6628C65.0009-68.9479 65.151-69.2318 65.3037-69.5144L65.769-70.3581C66.6995-72.0103 68.5658-72.9019 70.4358-72.5877C77.1622-71.4573 83.7108-69.4561 89.9142-66.6351C90.6574-66.2971 91.2947-65.7633 91.7577-65.0908C102.828-49.0129 107.649-31.3897 105.761-11.9374C105.637-10.6636 104.977-9.50278 103.945-8.74526C96.7238-3.44155 88.6368 0.586007 80.0393 3.16092C78.2327 3.70196 76.2805 3.05921 75.1487 1.55077C73.566-0.558651 72.1299-2.77202 70.8502-5.07385L70.4569-5.7949L69.8993-5.65185C61.8454-3.64113 53.0562-3.75139 44.358-5.79266L43.9019-5.9029L43.4545-5.07984C42.3347-3.0659 41.0963-1.11912 39.7456 0.750322L39.1598 1.54675C38.0273 3.05969 36.0701 3.70382 34.2605 3.15918C25.6725 0.574568 17.5938-3.45385 10.3754-8.75126C9.34184-9.50979 8.68086-10.6732 8.55842-11.9494C6.75446-30.7517 11.0136-48.1576 22.5128-65.0564C22.9771-65.7388 23.6202-66.2803 24.3716-66.6218C30.5788-69.4421 37.129-71.4472 43.8571-72.5867C45.7291-72.9038 47.5986-72.0118 48.53-70.3572ZM72.1399-63.0969L71.8618-62.5024L71.4707-61.6205C70.6625-59.7444 68.6921-58.6481 66.6718-58.9505C60.3591-59.8954 53.9394-59.8954 47.6267-58.9505C45.6068-58.6482 43.6367-59.744 42.8282-61.6195C42.7008-61.915 42.5703-62.2091 42.4367-62.5017L42.1589-63.0929L41.6168-62.9738C37.5876-62.0633 33.6467-60.7982 29.8412-59.1929L29.2459-58.9379L29.0869-58.6957C19.8719-44.6338 16.2765-30.3906 17.3403-14.954L17.3489-14.8359L17.7807-14.5381C22.6945-11.2018 28.0189-8.5066 33.6226-6.51797L33.7809-6.4629L34.0679-6.90194C34.2342-7.1629 34.3981-7.42539 34.5595-7.68938L34.8559-8.1859L34.8114-8.29191C34.2272-9.72952 34.3006-11.3886 35.3409-13.0126L35.4704-13.2073C37.1223-15.6016 40.2249-16.3123 43.0577-15.4557C52.7755-12.5172 62.6696-12.4115 71.0447-15.3848C74.6071-16.6494 78.2979-16.064 79.714-12.4966C80.3385-10.9234 80.2199-9.4336 79.6035-8.15765L79.5379-8.0299L79.744-7.68593C79.9053-7.42237 80.069-7.16033 80.2352-6.89984L80.5229-6.4589L80.6905-6.51592C86.2971-8.49866 91.6237-11.1919 96.5376-14.5295L96.9709-14.8289L96.9881-15.0529C98.0681-30.9529 94.0622-45.3472 85.191-58.7346L85.0489-58.9469L84.4445-59.2068C80.6442-60.8106 76.708-62.0725 72.6832-62.978L72.1399-63.0969Z"/>
   <path class="monochrome-1 multicolor-1:custom hierarchical-1:primary SFSymbolsPreview5865F2" d="M42.9293-40.1499C47.4713-40.1499 51.102-36.087 51.0243-31.1322C50.9466-26.1774 47.4572-22.1499 42.9435-22.1499C38.5145-22.1499 34.8555-26.1774 34.8555-31.1322C34.8555-36.087 38.3874-40.1499 42.9293-40.1499ZM72.7805-40.1499C77.3295-40.1499 80.932-36.087 80.8543-31.1322C80.7766-26.1774 77.2942-22.1499 72.7805-22.1499C68.3445-22.1499 64.6996-26.1774 64.6996-31.1322C64.6996-36.087 68.2315-40.1499 72.7805-40.1499Z"/>
  </g>
  <g id="Medium-S" transform="matrix(1 0 0 1 1689.55 696)">
   <path class="monochrome-0 multicolor-0:custom hierarchical-0:secondary SFSymbolsPreview5865F2" d="M69.8529-72.0946C76.5366-70.9714 83.0434-68.9829 89.2072-66.1799C89.8679-65.8795 90.4343-65.405 90.8459-64.8072C101.851-48.8245 106.64-31.3182 104.763-11.9857C104.653-10.8535 104.066-9.82161 103.149-9.14825C95.9739-3.87843 87.9385 0.123435 79.3958 2.68194C77.79 3.16287 76.0547 2.59153 75.0486 1.2507C73.2835-1.10195 71.7023-3.58501 70.3187-6.17663L70.0867-6.62009L70.2109-6.3819L69.871-6.28921C61.5382-4.08962 52.3721-4.20989 43.3228-6.43551L43.1419-6.4809L42.986-6.18259C41.7558-3.87913 40.3708-1.66074 38.8403 0.457501L38.2595 1.24712C37.2529 2.59196 35.5132 3.16452 33.9046 2.68039C25.3711 0.112181 17.3437-3.89065 10.1713-9.15436C9.25251-9.82861 8.66498-10.8627 8.55614-11.9971C6.76314-30.6852 10.9938-47.9744 22.4261-64.7751C22.8389-65.3817 23.4105-65.8631 24.0785-66.1666C30.2463-68.969 36.755-70.9615 43.4406-72.0937C45.1046-72.3756 46.7664-71.5827 47.5942-70.1119C47.9064-69.5574 48.2087-68.9975 48.501-68.4326L48.8509-67.7399L49.4508-67.8026C54.2378-68.278 59.0607-68.278 63.8477-67.8026L64.4459-67.7399L64.7974-68.433C64.9437-68.7155 65.0924-68.9968 65.2436-69.2768L65.7047-70.1127C66.5318-71.5813 68.1907-72.3739 69.8529-72.0946ZM71.3589-63.6689L71.3212-63.5929C71.0388-63.0072 70.7688-62.4155 70.5115-61.8183C69.7931-60.1507 68.0416-59.1762 66.2459-59.445C59.8841-60.3972 53.4144-60.3972 47.0527-59.445C45.2572-59.1763 43.506-60.1503 42.7873-61.8174C42.5298-62.4148 42.2597-63.0067 41.9772-63.5926L41.9409-63.6659L41.0066-63.4615C36.9486-62.5445 32.9796-61.2704 29.1469-59.6536L28.4119-59.3389L28.1799-58.987C18.89-44.8178 15.2654-30.452 16.3435-14.8907L16.3669-14.5589L16.9998-14.1245C21.9489-10.7642 27.3115-8.04965 32.9553-6.04678L33.4869-5.8619L33.9895-6.63318C34.1575-6.89677 34.3231-7.16192 34.4861-7.42858L34.9239-8.1629L34.8607-8.29636C34.2525-9.6379 34.2818-11.2029 35.2554-12.7323L35.382-12.9233C36.8959-15.1176 39.7706-15.7761 42.413-14.9771C52.2278-12.0093 62.2301-11.9024 70.712-14.9136C74.054-16.1 77.4601-15.5597 78.7493-12.3121C79.3709-10.7462 79.1777-9.26395 78.4595-8.02479L78.8175-7.42499C78.9804-7.15874 79.1458-6.89403 79.3138-6.63087L79.8179-5.8579L80.3572-6.04454C86.0042-8.04155 91.3692-10.7542 96.3186-14.1159L96.9529-14.5529L96.9871-15.0202C98.0743-31.031 94.0385-45.533 85.1084-59.0098L84.8819-59.3479L84.1389-59.6675C80.3113-61.2828 76.3467-62.5538 72.293-63.4658L71.3589-63.6689Z"/>
   <path class="monochrome-1 multicolor-1:custom hierarchical-1:primary SFSymbolsPreview5865F2" d="M42.4293-40.1499C46.9713-40.1499 50.602-36.087 50.5243-31.1322C50.4466-26.1774 46.9572-22.1499 42.4435-22.1499C38.0145-22.1499 34.3555-26.1774 34.3555-31.1322C34.3555-36.087 37.8874-40.1499 42.4293-40.1499ZM72.2805-40.1499C76.8295-40.1499 80.432-36.087 80.3543-31.1322C80.2766-26.1774 76.7942-22.1499 72.2805-22.1499C67.8445-22.1499 64.1996-26.1774 64.1996-31.1322C64.1996-36.087 67.7315-40.1499 72.2805-40.1499Z"/>
  </g>
  <g id="Regular-S" transform="matrix(1 0 0 1 1393.34 696)">
   <path class="monochrome-0 multicolor-0:custom hierarchical-0:secondary SFSymbolsPreview5865F2" d="M69.2701-71.6015C75.9109-70.4855 82.3759-68.5098 88.5002-65.7248C89.0783-65.4619 89.574-65.0467 89.9341-64.5237C100.874-48.636 105.63-31.2467 103.765-12.034C103.669-11.0433 103.156-10.1404 102.353-9.55124C95.2241-4.31531 87.2403-0.339136 78.7524 2.20296C77.3473 2.62377 75.8289 2.12385 74.9486 0.950621C73.1988-1.38158 71.6313-3.84303 70.2598-6.4121L69.9667-6.97207L69.7713-6.91549C61.4017-4.59636 52.1453-4.66717 43.0014-6.90653L42.3819-7.0629L42.045-6.41813C40.8254-4.13456 39.4523-1.9353 37.935 0.16468L37.3593 0.947491C36.4784 2.12423 34.9562 2.62522 33.5487 2.20161C25.0697-0.350206 17.0936-4.32745 9.96709-9.55746C9.16318-10.1474 8.64909-11.0523 8.55386-12.0449C6.77183-30.6186 10.9739-47.7913 22.3395-64.4939C22.7007-65.0246 23.2008-65.4458 23.7853-65.7113C29.9138-68.4959 36.3811-70.4757 43.0241-71.6008C44.4801-71.8474 45.9342-71.1536 46.6585-69.8667C47.1224-69.0425 47.5644-68.2065 47.9838-67.3595L48.0579-67.2059L48.1093-67.211C53.4524-67.8086 58.8461-67.8086 64.1892-67.211L64.2389-67.2059L64.3144-67.3596C64.5941-67.9245 64.8839-68.4844 65.1835-69.0391L65.6404-69.8674C66.3641-71.1524 67.8157-71.8459 69.2701-71.6015ZM70.5809-64.2369L70.3708-63.81C70.0853-63.2179 69.8124-62.6198 69.5524-62.0161C68.9237-60.557 67.3912-59.7043 65.8199-59.9395C59.409-60.8991 52.8895-60.8991 46.4786-59.9395C44.9077-59.7044 43.3753-60.5567 42.7465-62.0154C42.4862-62.6192 42.2131-63.2175 41.9275-63.8097L41.7169-64.2339L41.3411-64.1559C36.9254-63.2211 32.6094-61.8678 28.4525-60.1143L27.5769-59.7389L27.261-59.2599C17.911-44.9986 14.2594-30.5251 15.3446-14.8574L15.3869-14.2859L15.5097-14.1987C20.9251-10.4245 26.8475-7.42661 33.102-5.2923L33.1859-5.2649L33.3945-5.57049C33.9186-6.35965 34.4204-7.16325 34.8991-7.98035L34.9989-8.1549L34.9553-8.23332C34.2823-9.4929 34.2468-10.9939 35.1728-12.4567L35.2936-12.6394C36.6694-14.6336 39.3164-15.2399 41.7683-14.4985C51.6802-11.5013 61.7906-11.3933 70.3793-14.4424C73.5008-15.5506 76.6224-15.0554 77.7846-12.1276C78.3571-10.6852 78.1558-9.31315 77.4569-8.17011L77.3699-8.0359L77.405-7.97547C77.8833-7.15949 78.3847-6.35709 78.9087-5.56926L79.1179-5.2609L79.2095-5.29074C85.4679-7.41824 91.3932-10.4142 96.8088-14.1904L96.9339-14.2799L96.986-14.9875C98.0806-31.1092 94.0149-45.7189 85.0258-59.285L84.7149-59.7489L83.8333-60.1281C79.6818-61.8801 75.3703-63.2299 70.959-64.1591L70.5809-64.2369Z"/>
   <path class="monochrome-1 multicolor-1:custom hierarchical-1:primary SFSymbolsPreview5865F2" d="M41.9293-40.1499C46.4713-40.1499 50.102-36.087 50.0243-31.1322C49.9466-26.1774 46.4572-22.1499 41.9435-22.1499C37.5145-22.1499 33.8555-26.1774 33.8555-31.1322C33.8555-36.087 37.3874-40.1499 41.9293-40.1499ZM71.7805-40.1499C76.3295-40.1499 79.932-36.087 79.8543-31.1322C79.7766-26.1774 76.2942-22.1499 71.7805-22.1499C67.3445-22.1499 63.6996-26.1774 63.6996-31.1322C63.6996-36.087 67.2315-40.1499 71.7805-40.1499Z"/>
  </g>
  <g id="Light-S" transform="matrix(1 0 0 1 1097.38 696)">
   <path class="monochrome-0 multicolor-0:custom hierarchical-0:secondary SFSymbolsPreview5865F2" d="M68.3958-70.8619C74.9723-69.7567 81.3748-67.8001 87.4398-65.0421C87.894-64.8355 88.2834-64.5093 88.5664-64.0983C99.4078-48.3533 104.116-31.1394 102.269-12.1065C102.193-11.3281 101.79-10.6187 101.159-10.1557C94.0994-4.97062 86.1929-1.03299 77.7872 1.48449C76.6832 1.81513 75.4902 1.42233 74.7985 0.50051C72.8798-2.05674 71.1834-4.77144 69.7274-7.61429C69.7006-7.66664 69.6757-7.71941 69.6525-7.77253L69.6139-7.8679L69.4037-7.80408C60.8161-5.29572 51.2295-5.37507 41.7817-7.79747L41.2179-7.9459C41.1972-7.88535 41.1759-7.83188 41.1527-7.77875L41.0777-7.62048C39.6206-4.77757 37.925-2.06179 36.0089 0.49805C35.3168 1.42263 34.1207 1.81626 33.0148 1.48343C24.6176-1.04379 16.7185-4.98264 9.66083-10.1621C9.02919-10.6257 8.62526-11.3366 8.55044-12.1165C6.78486-30.5188 10.9441-47.5165 22.2096-64.0719C22.4933-64.4889 22.8863-64.8199 23.3456-65.0285C29.4151-67.7863 35.8202-69.747 42.3993-70.8613C43.5433-71.055 44.6858-70.5099 45.255-69.4988C45.7124-68.6861 46.1481-67.8618 46.5618-67.0266L46.8659-66.3989L47.5576-66.4784C52.7694-67.0528 58.0292-67.0528 63.2409-66.4784L63.9319-66.3989L64.2365-67.0268C64.5123-67.5837 64.798-68.1357 65.0934-68.6827L65.5439-69.4993C66.1125-70.509 67.253-71.0539 68.3958-70.8619ZM69.4179-65.0859L69.1652-64.5858C68.7946-63.8376 68.4439-63.0797 68.1136-62.3129C67.6196-61.1664 66.4155-60.4964 65.1809-60.6812C58.6964-61.6518 52.1021-61.6518 45.6176-60.6812C44.3833-60.4965 43.1793-61.1662 42.6852-62.3123C42.3546-63.0792 42.0038-63.8373 41.6331-64.5857L41.3809-65.0829L40.4358-64.8896C35.6547-63.8775 30.9892-62.3799 26.5133-60.4194L26.3219-60.3349C16.4073-45.495 12.6177-30.4227 13.901-14.0673L13.9169-13.8759L14.3309-13.5834C19.8038-9.76913 25.789-6.73942 32.1098-4.5825L32.7379-4.3729L33.2692-5.15555C33.8012-5.95644 34.3104-6.77198 34.7962-7.60123L35.1259-8.1769L35.0862-8.23387C34.3404-9.34607 34.2173-10.7178 35.0516-12.0475L35.1609-12.2135C36.3297-13.9076 38.635-14.4356 40.8012-13.7806C50.8586-10.7394 61.1314-10.6297 69.8802-13.7356C72.6712-14.7264 75.3657-14.299 76.3375-11.8509C76.8685-10.5133 76.5892-9.23093 75.8088-8.19673L75.7249-8.0909L76.008-7.59624C76.4934-6.76801 77.0024-5.95358 77.5342-5.15393L78.0659-4.3699L78.701-4.58066C85.0259-6.73081 91.0144-9.75867 96.4878-13.5752L96.9029-13.8699L96.9271-14.152C98.2213-30.7587 94.1217-45.7907 84.8898-59.7162L84.4679-60.3459L84.2715-60.4335C79.8012-62.3927 75.1403-63.8869 70.3636-64.893L69.4179-65.0859Z"/>
   <path class="monochrome-1 multicolor-1:custom hierarchical-1:primary SFSymbolsPreview5865F2" d="M41.1793-40.1499C45.7213-40.1499 49.352-36.087 49.2743-31.1322C49.1966-26.1774 45.7072-22.1499 41.1935-22.1499C36.7645-22.1499 33.1055-26.1774 33.1055-31.1322C33.1055-36.087 36.6374-40.1499 41.1793-40.1499ZM71.0305-40.1499C75.5795-40.1499 79.182-36.087 79.1043-31.1322C79.0266-26.1774 75.5442-22.1499 71.0305-22.1499C66.5945-22.1499 62.9496-26.1774 62.9496-31.1322C62.9496-36.087 66.4815-40.1499 71.0305-40.1499Z"/>
  </g>
  <g id="Thin-S" transform="matrix(1 0 0 1 802.417 696)">
   <path class="monochrome-0 multicolor-0:custom hierarchical-0:secondary SFSymbolsPreview5865F2" d="M66.2969-69.3276C72.6948-68.2565 78.9232-66.3602 84.8233-63.6871C85.0711-63.5749 85.2836-63.3974 85.4383-63.1736C95.9993-47.8932 100.578-31.2179 98.7789-12.7575C98.7374-12.3322 98.5165-11.9448 98.1717-11.6924C91.3035-6.66709 83.6119-2.85076 75.4345-0.41082C74.8337-0.231532 74.1847-0.444927 73.8074-0.945824C71.9517-3.40998 70.3109-6.02584 68.9027-8.76516C68.6861-9.18644 68.6891-9.65747 68.8636-10.0547L68.9029-10.1372L68.3349-9.97342C58.7433-7.28169 48.5763-7.28169 38.9847-9.97342L38.4029-10.1402L38.4421-10.0615C38.5992-9.70388 38.6173-9.28645 38.4613-8.89937L38.4028-8.7716C36.9933-6.03169 35.353-3.41428 33.4993-0.947165C33.1218-0.444767 32.4712-0.230916 31.8693-0.411395C23.6996-2.86095 16.0146-6.67874 9.14832-11.699C8.80273-11.9516 8.58158-12.3399 8.54054-12.7661C6.8213-30.6185 10.8649-47.0816 21.842-63.1531C21.9971-63.3802 22.2116-63.5602 22.4621-63.6736C28.3673-66.3467 34.599-68.2472 41-69.3273C41.6228-69.4324 42.2448-69.136 42.5555-68.5861C43.1446-67.5434 43.6965-66.4807 44.2101-65.4001L44.4829-64.8122L45.1369-64.8961C50.7902-65.5907 56.5086-65.5907 62.1619-64.8961L62.8149-64.8122L63.0884-65.4001C63.4736-66.2107 63.8804-67.0112 64.3084-67.8006L64.7434-68.5864C65.0539-69.1355 65.6748-69.4318 66.2969-69.3276ZM66.8469-66.1852L66.5498-65.6247C66.0307-64.6253 65.5473-63.6081 65.1004-62.5747C64.8306-61.9508 64.1748-61.5863 63.5024-61.6865C56.9706-62.6605 50.3282-62.6605 43.7964-61.6865C43.1241-61.5863 42.4685-61.9506 42.1985-62.5744C41.7514-63.6078 41.2678-64.6252 40.7487-65.6247L40.4509-66.1842L39.5637-66.0155C34.418-65.0029 29.3991-63.4351 24.597-61.3397L24.0819-61.1112L23.8826-60.8158C13.7827-45.7563 10.0034-30.4179 11.4611-13.768L11.4649-13.7272L11.6281-13.6088C17.5627-9.37999 24.1152-6.07554 31.0574-3.80899L31.7219-3.5962L32.1277-4.16513C33.1301-5.59763 34.0586-7.07931 34.9098-8.6045L34.9469-8.6752L34.1579-9.00642C32.5818-9.68475 31.0426-10.4451 29.5467-11.2844L28.8024-11.7106C27.8645-12.2587 27.802-13.591 28.6845-14.2244C29.2058-14.5985 29.6835-14.9554 30.4931-15.5702C30.9361-15.9066 31.5288-15.9702 32.0332-15.7355C45.7309-9.36098 61.5886-9.36098 75.2864-15.7355C75.8053-15.977 76.4164-15.9022 76.8617-15.5426C77.4775-15.0453 78.0492-14.6182 78.5959-14.2515C79.5153-13.6349 79.4729-12.2689 78.517-11.7105C76.5384-10.5547 74.4809-9.53839 72.3596-8.66871L72.3951-8.59847C73.2455-7.07462 74.1739-5.59462 75.1765-4.16422L75.5829-3.5952L76.2515-3.80761C83.1988-6.0665 89.7556-9.36923 95.6909-13.6013L95.8549-13.7212L95.8633-13.8076C97.3728-30.9908 93.1175-46.513 83.4025-60.8368L83.2059-61.1242L82.7335-61.3338C77.8932-63.4512 72.8304-65.0283 67.639-66.0366L66.8469-66.1852Z"/>
   <path class="monochrome-1 multicolor-1:custom hierarchical-1:primary SFSymbolsPreview5865F2" d="M38.0449-39.8482C42.4882-39.8482 46.04-35.7853 45.964-30.8305C45.8879-25.8757 42.4743-21.8482 38.0588-21.8482C33.7261-21.8482 30.1467-25.8757 30.1467-30.8305C30.1467-35.7853 33.6017-39.8482 38.0449-39.8482ZM67.2472-39.8482C71.6973-39.8482 75.2215-35.7853 75.1455-30.8305C75.0694-25.8757 71.6627-21.8482 67.2472-21.8482C62.9076-21.8482 59.342-25.8757 59.342-30.8305C59.342-35.7853 62.797-39.8482 67.2472-39.8482Z"/>
  </g>
  <g id="Ultralight-S" transform="matrix(1 0 0 1 506.206 696)">
   <path class="monochrome-0 multicolor-0:custom hierarchical-0:secondary SFSymbolsPreview5865F2" d="M65.5902-68.8474L65.7144-68.8345C72.0695-67.7705 78.2564-65.8868 84.117-63.2317C84.2822-63.1569 84.4239-63.0385 84.527-62.8894C95.0221-47.7041 99.5682-31.1461 97.7812-12.806C97.7536-12.5225 97.6064-12.2642 97.3764-12.096C90.5544-7.10435 82.9143-3.31358 74.7916-0.889946C74.391-0.770421 73.9583-0.912684 73.7069-1.24662C71.8682-3.68804 70.2425-6.27975 68.8474-8.99375C68.5731-9.52737 68.8272-10.1807 69.3899-10.3889C71.3761-11.1234 73.3086-11.9911 75.1739-12.9858L75.4059-13.1132L75.2789-13.2112L75.2654-13.2051C61.224-6.87113 45.0956-6.87113 31.0542-13.2051L31.0269-13.2172L30.8989-13.1212L31.1426-12.9872C32.7384-12.1363 34.3834-11.3785 36.0693-10.7179L36.9157-10.3958C37.4786-10.1877 37.7328-9.53404 37.4582-9.00033C36.0616-6.28552 34.4363-3.69207 32.5996-1.24751C32.3479-0.912578 31.9142-0.77001 31.5129-0.89033C23.3976-3.32358 15.7638-7.11591 8.94343-12.1026C8.71304-12.271 8.5656-12.5299 8.53825-12.814C6.83005-30.5517 10.8449-46.8979 21.7549-62.8711C21.8583-63.0225 22.0013-63.1425 22.1683-63.2181C28.0342-65.8734 34.2246-67.7614 40.5832-68.8343C40.9984-68.9043 41.4131-68.7067 41.6202-68.3401C42.3493-67.0496 43.0209-65.7281 43.6329-64.3796L43.6827-64.2672L43.8122-64.2852C50.0079-65.1276 56.2909-65.1276 62.4866-64.2852L62.6149-64.2672L62.6657-64.3795C63.1552-65.4585 63.683-66.5201 64.248-67.5623L64.6787-68.3403C64.8443-68.6332 65.1423-68.8182 65.4673-68.8449L65.5902-68.8474ZM39.8789-67.3563L40.2189-66.7402L39.9889-66.6996C34.434-65.6884 29.018-64.0367 23.8517-61.7781L23.2479-61.5092L22.9669-61.0937C12.8029-45.9382 8.99561-30.4863 10.4629-13.7249L10.4869-13.4552L10.838-13.2016C17.0529-8.77303 23.9407-5.35125 31.2429-3.06484L31.4159-3.0122L31.5251-3.15947C32.7348-4.82739 33.8438-6.56421 34.8465-8.36084L35.1569-8.9302L34.6387-9.13675C32.8046-9.88841 31.0188-10.7513 29.2914-11.7205L28.5546-12.1423C27.9294-12.5077 27.8877-13.3959 28.4761-13.8181C29.002-14.1956 29.4826-14.5546 30.2955-15.172C30.5908-15.3963 30.986-15.4387 31.3222-15.2822C45.1537-8.84542 61.1658-8.84542 74.9974-15.2822C75.3433-15.4432 75.7507-15.3933 76.0476-15.1536C76.6741-14.6476 77.2575-14.2118 77.8174-13.8362C78.4304-13.4251 78.4021-12.5145 77.7648-12.1423C75.8063-10.9982 73.7697-9.99219 71.67-9.13133L71.1469-8.9232L71.4585-8.35482C72.4603-6.55961 73.5693-4.82467 74.7796-3.15925L74.8889-3.0122L75.0648-3.06422C82.3727-5.34218 89.2653-8.76207 95.4812-13.1942L95.8319-13.4472L95.8605-13.7535C97.3831-31.0613 93.0949-46.7035 83.3106-61.1259L83.0389-61.5222L82.4339-61.7918C77.2731-64.0494 71.8613-65.6971 66.3105-66.7006L66.0789-66.7412L66.0062-66.6091C65.3281-65.3583 64.7059-64.0784 64.1415-62.7732C63.9616-62.3572 63.5244-62.1142 63.0761-62.1811C56.4955-63.1623 49.8033-63.1623 43.2227-62.1811C42.7745-62.1142 42.3374-62.3571 42.1574-62.773C41.4797-64.3392 40.7191-65.8691 39.8789-67.3563Z"/>
   <path class="monochrome-1 multicolor-1:custom hierarchical-1:primary SFSymbolsPreview5865F2" d="M37.5449-39.8482C41.9882-39.8482 45.54-35.7853 45.464-30.8305C45.388-25.8757 41.9743-21.8482 37.5588-21.8482C33.2261-21.8482 29.6467-25.8757 29.6467-30.8305C29.6467-35.7853 33.1017-39.8482 37.5449-39.8482ZM66.7472-39.8482C71.1973-39.8482 74.7215-35.7853 74.6455-30.8305C74.5694-25.8757 71.1628-21.8482 66.7472-21.8482C62.4076-21.8482 58.842-25.8757 58.842-30.8305C58.842-35.7853 62.297-39.8482 66.7472-39.8482Z"/>
  </g>
 </g>
</svg>
